%TF.GenerationSoftware,KiCad,Pcbnew,8.0.6*%
%TF.CreationDate,2024-12-24T11:34:52+00:00*%
%TF.ProjectId,RISKYMSXCart,5249534b-594d-4535-9843-6172742e6b69,rev?*%
%TF.SameCoordinates,Original*%
%TF.FileFunction,Copper,L3,Inr*%
%TF.FilePolarity,Positive*%
%FSLAX46Y46*%
G04 Gerber Fmt 4.6, Leading zero omitted, Abs format (unit mm)*
G04 Created by KiCad (PCBNEW 8.0.6) date 2024-12-24 11:34:52*
%MOMM*%
%LPD*%
G01*
G04 APERTURE LIST*
%TA.AperFunction,ComponentPad*%
%ADD10R,1.700000X1.700000*%
%TD*%
%TA.AperFunction,ComponentPad*%
%ADD11O,1.700000X1.700000*%
%TD*%
%TA.AperFunction,ComponentPad*%
%ADD12R,1.524000X1.524000*%
%TD*%
%TA.AperFunction,ComponentPad*%
%ADD13C,1.524000*%
%TD*%
%TA.AperFunction,ComponentPad*%
%ADD14C,3.500000*%
%TD*%
%TA.AperFunction,ViaPad*%
%ADD15C,0.600000*%
%TD*%
%TA.AperFunction,ViaPad*%
%ADD16C,0.654800*%
%TD*%
G04 APERTURE END LIST*
D10*
%TO.N,/BOOT0*%
%TO.C,J1*%
X120360000Y-95175000D03*
D11*
%TO.N,+3.3V*%
X122900000Y-95175000D03*
%TD*%
D10*
%TO.N,/USART_TX*%
%TO.C,J2*%
X167060000Y-82575000D03*
D11*
%TO.N,/USART_RX*%
X169600000Y-82575000D03*
%TD*%
D12*
%TO.N,Net-(J7-VBUS)*%
%TO.C,J7*%
X153000000Y-83727500D03*
D13*
%TO.N,/USB1_DM*%
X150500000Y-83727500D03*
%TO.N,/USB1_DP*%
X148500000Y-83727500D03*
%TO.N,GND*%
X146000000Y-83727500D03*
D14*
X156070000Y-81017500D03*
X142930000Y-81017500D03*
%TD*%
D10*
%TO.N,/BOOT1*%
%TO.C,J5*%
X120335000Y-98825000D03*
D11*
%TO.N,+3.3V*%
X122875000Y-98825000D03*
%TD*%
D10*
%TO.N,/SWCLK*%
%TO.C,J8*%
X121900000Y-87240000D03*
D11*
%TO.N,/SWDIO*%
X121900000Y-84700000D03*
%TD*%
D15*
%TO.N,GND*%
X137850000Y-110812500D03*
X174300000Y-99000000D03*
X171500000Y-109800000D03*
X137900000Y-106900000D03*
X152925000Y-103800000D03*
X141368788Y-92431212D03*
X143375000Y-95250000D03*
X149651004Y-110500000D03*
D16*
X128536700Y-124056134D03*
D15*
X147800000Y-99200000D03*
X157250000Y-92875000D03*
X182500000Y-110175000D03*
X151425000Y-103800000D03*
X146950000Y-103200000D03*
X153562984Y-95810364D03*
D16*
X126072900Y-124056134D03*
D15*
X166075000Y-88675000D03*
X145500000Y-110600000D03*
D16*
X181851300Y-106250734D03*
D15*
X145400000Y-103250000D03*
X156150000Y-106900000D03*
D16*
%TO.N,+5V*%
X122262900Y-123979934D03*
X177101500Y-108206534D03*
D15*
X167912500Y-86475000D03*
D16*
X180555900Y-110314734D03*
D15*
X177500000Y-99000000D03*
D16*
X119849900Y-123979934D03*
D15*
%TO.N,+3.3V*%
X151500000Y-107650000D03*
X138125000Y-85675000D03*
X137850000Y-109087500D03*
X155525000Y-92875000D03*
X151050000Y-116512500D03*
X152900000Y-107650000D03*
X141525000Y-95050000D03*
X155100000Y-116475000D03*
D16*
X176517300Y-113134134D03*
D15*
X130125000Y-85675000D03*
X153100000Y-116475000D03*
X145400000Y-106075000D03*
X146000000Y-107700000D03*
X146950000Y-106062500D03*
X149050000Y-116512500D03*
X149300000Y-99250000D03*
D16*
X176999900Y-103609134D03*
D15*
X172440000Y-103660000D03*
%TO.N,/~{EXCS1}*%
X136575000Y-102400000D03*
X177152186Y-123418049D03*
X137231289Y-93322601D03*
%TO.N,/~{EXCS2}*%
X137132470Y-103369541D03*
X133745200Y-103550000D03*
%TO.N,/~{EXCS12}*%
X134097600Y-104850000D03*
X136650000Y-104875000D03*
X176400000Y-123400000D03*
%TO.N,/~{EXSLTSL}*%
X136217800Y-96928196D03*
X136767800Y-101427400D03*
%TO.N,/~{RFSH}*%
X155927399Y-95309854D03*
X160666800Y-96882488D03*
%TO.N,/WAIT*%
X147721521Y-92185495D03*
%TO.N,/~{M1}*%
X144975000Y-96695200D03*
%TO.N,/BDIR*%
X147155967Y-91195200D03*
X145725000Y-92250000D03*
%TO.N,/IORQ*%
X145947600Y-95050000D03*
%TO.N,/MREQ*%
X159562000Y-96825000D03*
X156800000Y-96125000D03*
%TO.N,/WR*%
X138025000Y-102427400D03*
%TO.N,/RD*%
X137800000Y-97322600D03*
X137855220Y-103160397D03*
%TO.N,/~{RESET}*%
X161000000Y-124150000D03*
X157481040Y-95202400D03*
X147052400Y-95000000D03*
%TO.N,/A9*%
X156150000Y-100295201D03*
%TO.N,/A11*%
X156150000Y-99190401D03*
X159304800Y-119100000D03*
X158200001Y-120181211D03*
%TO.N,/A7*%
X156150000Y-101400000D03*
%TO.N,/A12*%
X150257914Y-104504510D03*
%TO.N,/A8*%
X153963950Y-122313950D03*
X152977900Y-123300000D03*
%TO.N,/A14*%
X152800000Y-97800000D03*
%TO.N,/A13*%
X153200000Y-98450000D03*
X151809394Y-121790606D03*
%TO.N,/A1*%
X141686839Y-117253218D03*
X144604800Y-117900000D03*
X141500000Y-106350000D03*
%TO.N,/A3*%
X144252400Y-106800000D03*
%TO.N,/A2*%
X140312702Y-116641176D03*
X140099730Y-118875207D03*
%TO.N,/A5*%
X140991662Y-116965402D03*
X142039790Y-121239790D03*
X140791021Y-119172233D03*
%TO.N,/A4*%
X139442553Y-118508837D03*
X139600000Y-116400000D03*
X140447600Y-111100000D03*
X141552400Y-111100000D03*
%TO.N,/D1*%
X140623368Y-98375000D03*
%TO.N,/D3*%
X140647600Y-99375001D03*
%TO.N,/D2*%
X136415400Y-98875000D03*
X135310600Y-98909394D03*
%TO.N,/D5*%
X140647600Y-100350000D03*
%TO.N,/D4*%
X136415400Y-99875000D03*
X134758200Y-99900000D03*
%TO.N,/D7*%
X140647600Y-101400000D03*
%TO.N,/D6*%
X134169493Y-100783183D03*
X136379093Y-100783183D03*
%TO.N,/SCC_AUD*%
X137675000Y-116500000D03*
%TO.N,/NRST*%
X147800000Y-107600000D03*
%TO.N,Net-(D1-A)*%
X149050000Y-114687500D03*
%TO.N,Net-(D2-A)*%
X151050000Y-114687500D03*
%TO.N,/BOOT0*%
X139462500Y-94772600D03*
X118285000Y-95175000D03*
%TO.N,/USART_TX*%
X144371003Y-91671933D03*
X161000000Y-84625000D03*
%TO.N,/USART_RX*%
X143622278Y-91597634D03*
X160000000Y-84900000D03*
%TO.N,/BOOT1*%
X151600000Y-101600000D03*
X136217800Y-96175793D03*
X138681290Y-94772602D03*
X137322600Y-96175793D03*
X141752400Y-97975000D03*
X118360000Y-98825000D03*
%TO.N,/USB1_DM*%
X143319907Y-92286606D03*
%TO.N,/USB1_DP*%
X142400552Y-92333476D03*
%TO.N,/SWDIO*%
X142089790Y-96335210D03*
%TO.N,/SWCLK*%
X134462561Y-94315672D03*
X138126412Y-95400000D03*
X136827399Y-94491389D03*
X135809302Y-95021866D03*
%TO.N,Net-(D3-A)*%
X153100000Y-114650000D03*
%TO.N,Net-(D4-A)*%
X155100000Y-114650000D03*
%TO.N,/BTN1*%
X146921379Y-89033201D03*
X144967972Y-92129904D03*
%TO.N,GND*%
X116535000Y-98825000D03*
X116460000Y-95175000D03*
%TD*%
%TA.AperFunction,Conductor*%
%TO.N,+3.3V*%
G36*
X139885368Y-83664712D02*
G01*
X139900257Y-83699799D01*
X139900258Y-83699970D01*
X139925000Y-88474999D01*
X139925000Y-88475000D01*
X165648377Y-88350230D01*
X165683660Y-88364644D01*
X165698416Y-88399786D01*
X165691294Y-88424265D01*
X165691559Y-88424386D01*
X165690732Y-88426195D01*
X165690514Y-88426947D01*
X165690083Y-88427617D01*
X165690079Y-88427626D01*
X165635977Y-88546091D01*
X165617443Y-88675000D01*
X165635977Y-88803909D01*
X165690079Y-88922374D01*
X165775364Y-89020799D01*
X165884924Y-89091208D01*
X166009883Y-89127900D01*
X166009885Y-89127900D01*
X166140115Y-89127900D01*
X166140117Y-89127900D01*
X166265076Y-89091208D01*
X166374636Y-89020799D01*
X166459921Y-88922374D01*
X166514023Y-88803909D01*
X166532557Y-88675000D01*
X166514023Y-88546091D01*
X166459921Y-88427626D01*
X166459919Y-88427624D01*
X166457996Y-88424631D01*
X166459153Y-88423887D01*
X166448658Y-88392357D01*
X166465717Y-88358272D01*
X166498087Y-88346108D01*
X170799056Y-88325247D01*
X170834341Y-88339662D01*
X170849097Y-88374804D01*
X170849090Y-88375935D01*
X170774999Y-92524999D01*
X170775000Y-92525000D01*
X183349673Y-92624601D01*
X183384771Y-92639465D01*
X183399077Y-92674793D01*
X183399071Y-92675318D01*
X183196670Y-103642842D01*
X183182092Y-103677137D01*
X182186170Y-104673060D01*
X182150956Y-104687646D01*
X179631584Y-104687646D01*
X176592300Y-107726930D01*
X176592300Y-110995562D01*
X179600314Y-114003576D01*
X179614900Y-114038789D01*
X179614900Y-117668359D01*
X179600314Y-117703573D01*
X179565414Y-117718158D01*
X179175813Y-117720617D01*
X179140508Y-117706253D01*
X179125700Y-117671132D01*
X179128492Y-117654376D01*
X179157468Y-117571570D01*
X179226211Y-117270386D01*
X179260800Y-116963399D01*
X179260800Y-116654469D01*
X179226211Y-116347482D01*
X179157468Y-116046298D01*
X179055435Y-115754705D01*
X179047581Y-115738397D01*
X178921398Y-115476374D01*
X178921396Y-115476371D01*
X178911403Y-115460467D01*
X178757035Y-115214791D01*
X178564420Y-114973260D01*
X178345974Y-114754814D01*
X178104443Y-114562199D01*
X177910165Y-114440126D01*
X177842862Y-114397837D01*
X177842859Y-114397835D01*
X177564530Y-114263799D01*
X177564522Y-114263796D01*
X177272944Y-114161768D01*
X177272937Y-114161766D01*
X176971763Y-114093025D01*
X176971757Y-114093024D01*
X176971752Y-114093023D01*
X176664765Y-114058434D01*
X176355835Y-114058434D01*
X176048848Y-114093023D01*
X176048844Y-114093023D01*
X176048836Y-114093025D01*
X175747662Y-114161766D01*
X175747655Y-114161768D01*
X175456077Y-114263796D01*
X175456069Y-114263799D01*
X175177740Y-114397835D01*
X175177737Y-114397837D01*
X174916156Y-114562199D01*
X174674625Y-114754814D01*
X174456180Y-114973259D01*
X174263565Y-115214790D01*
X174099203Y-115476371D01*
X174099201Y-115476374D01*
X173965165Y-115754703D01*
X173965162Y-115754711D01*
X173863134Y-116046289D01*
X173863132Y-116046296D01*
X173794391Y-116347470D01*
X173794389Y-116347478D01*
X173794389Y-116347482D01*
X173759800Y-116654469D01*
X173759800Y-116963399D01*
X173794389Y-117270386D01*
X173794390Y-117270394D01*
X173794392Y-117270401D01*
X173863129Y-117571564D01*
X173903852Y-117687942D01*
X173901715Y-117725997D01*
X173873295Y-117751395D01*
X173857161Y-117754189D01*
X163778728Y-117817806D01*
X163766292Y-117816309D01*
X159675002Y-116789512D01*
X159675000Y-116789512D01*
X158132952Y-116846624D01*
X154277830Y-116989407D01*
X154272168Y-116989294D01*
X141275015Y-115989513D01*
X141275010Y-115989512D01*
X141275000Y-115989512D01*
X141274993Y-115989512D01*
X141274991Y-115989512D01*
X139846096Y-116009933D01*
X139818461Y-116002033D01*
X139790077Y-115983792D01*
X139748423Y-115971561D01*
X139665117Y-115947100D01*
X139534883Y-115947100D01*
X139472403Y-115965446D01*
X139409922Y-115983792D01*
X139370375Y-116009207D01*
X139344164Y-116017107D01*
X121351471Y-116274264D01*
X121316052Y-116260183D01*
X121300964Y-116225181D01*
X121300968Y-116223532D01*
X121305135Y-116002033D01*
X121315322Y-115460467D01*
X121330568Y-115425537D01*
X121348660Y-115414404D01*
X121564529Y-115338869D01*
X121842865Y-115204829D01*
X122104443Y-115040469D01*
X122345974Y-114847854D01*
X122506330Y-114687498D01*
X148592443Y-114687498D01*
X148592443Y-114687501D01*
X148605584Y-114778904D01*
X148610977Y-114816409D01*
X148665079Y-114934874D01*
X148750364Y-115033299D01*
X148859924Y-115103708D01*
X148984883Y-115140400D01*
X148984885Y-115140400D01*
X149115115Y-115140400D01*
X149115117Y-115140400D01*
X149240076Y-115103708D01*
X149349636Y-115033299D01*
X149434921Y-114934874D01*
X149489023Y-114816409D01*
X149507557Y-114687500D01*
X149507557Y-114687498D01*
X150592443Y-114687498D01*
X150592443Y-114687501D01*
X150605584Y-114778904D01*
X150610977Y-114816409D01*
X150665079Y-114934874D01*
X150750364Y-115033299D01*
X150859924Y-115103708D01*
X150984883Y-115140400D01*
X150984885Y-115140400D01*
X151115115Y-115140400D01*
X151115117Y-115140400D01*
X151240076Y-115103708D01*
X151349636Y-115033299D01*
X151434921Y-114934874D01*
X151489023Y-114816409D01*
X151507557Y-114687500D01*
X151502165Y-114649998D01*
X152642443Y-114649998D01*
X152642443Y-114650001D01*
X152657512Y-114754814D01*
X152660977Y-114778909D01*
X152715079Y-114897374D01*
X152800364Y-114995799D01*
X152909924Y-115066208D01*
X153034883Y-115102900D01*
X153034885Y-115102900D01*
X153165115Y-115102900D01*
X153165117Y-115102900D01*
X153290076Y-115066208D01*
X153399636Y-114995799D01*
X153484921Y-114897374D01*
X153539023Y-114778909D01*
X153557557Y-114650000D01*
X153557557Y-114649998D01*
X154642443Y-114649998D01*
X154642443Y-114650001D01*
X154657512Y-114754814D01*
X154660977Y-114778909D01*
X154715079Y-114897374D01*
X154800364Y-114995799D01*
X154909924Y-115066208D01*
X155034883Y-115102900D01*
X155034885Y-115102900D01*
X155165115Y-115102900D01*
X155165117Y-115102900D01*
X155290076Y-115066208D01*
X155399636Y-114995799D01*
X155484921Y-114897374D01*
X155539023Y-114778909D01*
X155557557Y-114650000D01*
X155554596Y-114629408D01*
X155544415Y-114558595D01*
X155539023Y-114521091D01*
X155484921Y-114402626D01*
X155399636Y-114304201D01*
X155290076Y-114233792D01*
X155165117Y-114197100D01*
X155034883Y-114197100D01*
X154909924Y-114233792D01*
X154863236Y-114263796D01*
X154800363Y-114304201D01*
X154715079Y-114402626D01*
X154660977Y-114521091D01*
X154660976Y-114521095D01*
X154642443Y-114649998D01*
X153557557Y-114649998D01*
X153554596Y-114629408D01*
X153544415Y-114558595D01*
X153539023Y-114521091D01*
X153484921Y-114402626D01*
X153399636Y-114304201D01*
X153290076Y-114233792D01*
X153165117Y-114197100D01*
X153034883Y-114197100D01*
X152909924Y-114233792D01*
X152863236Y-114263796D01*
X152800363Y-114304201D01*
X152715079Y-114402626D01*
X152660977Y-114521091D01*
X152660976Y-114521095D01*
X152642443Y-114649998D01*
X151502165Y-114649998D01*
X151489023Y-114558591D01*
X151434921Y-114440126D01*
X151349636Y-114341701D01*
X151240076Y-114271292D01*
X151115117Y-114234600D01*
X150984883Y-114234600D01*
X150859924Y-114271292D01*
X150808716Y-114304201D01*
X150750363Y-114341701D01*
X150665079Y-114440126D01*
X150610977Y-114558591D01*
X150610976Y-114558595D01*
X150592443Y-114687498D01*
X149507557Y-114687498D01*
X149489023Y-114558591D01*
X149434921Y-114440126D01*
X149349636Y-114341701D01*
X149240076Y-114271292D01*
X149115117Y-114234600D01*
X148984883Y-114234600D01*
X148859924Y-114271292D01*
X148808716Y-114304201D01*
X148750363Y-114341701D01*
X148665079Y-114440126D01*
X148610977Y-114558591D01*
X148610976Y-114558595D01*
X148592443Y-114687498D01*
X122506330Y-114687498D01*
X122564420Y-114629408D01*
X122757035Y-114387877D01*
X122921395Y-114126299D01*
X123055435Y-113847963D01*
X123157468Y-113556370D01*
X123226211Y-113255186D01*
X123260800Y-112948199D01*
X123260800Y-112639269D01*
X123226211Y-112332282D01*
X123157468Y-112031098D01*
X123055435Y-111739505D01*
X123047581Y-111723197D01*
X122921398Y-111461174D01*
X122921396Y-111461171D01*
X122798385Y-111265400D01*
X122757035Y-111199591D01*
X122564420Y-110958060D01*
X122418858Y-110812498D01*
X137392443Y-110812498D01*
X137392443Y-110812501D01*
X137407353Y-110916208D01*
X137410977Y-110941409D01*
X137465079Y-111059874D01*
X137550364Y-111158299D01*
X137659924Y-111228708D01*
X137784883Y-111265400D01*
X137784885Y-111265400D01*
X137915115Y-111265400D01*
X137915117Y-111265400D01*
X138040076Y-111228708D01*
X138149636Y-111158299D01*
X138200154Y-111099998D01*
X139990043Y-111099998D01*
X139990043Y-111100001D01*
X140004361Y-111199590D01*
X140008577Y-111228909D01*
X140062679Y-111347374D01*
X140147964Y-111445799D01*
X140257524Y-111516208D01*
X140382483Y-111552900D01*
X140382485Y-111552900D01*
X140512715Y-111552900D01*
X140512717Y-111552900D01*
X140637676Y-111516208D01*
X140747236Y-111445799D01*
X140832521Y-111347374D01*
X140886623Y-111228909D01*
X140905157Y-111100000D01*
X140905157Y-111099998D01*
X141094843Y-111099998D01*
X141094843Y-111100001D01*
X141109161Y-111199590D01*
X141113377Y-111228909D01*
X141167479Y-111347374D01*
X141252764Y-111445799D01*
X141362324Y-111516208D01*
X141487283Y-111552900D01*
X141487285Y-111552900D01*
X141617515Y-111552900D01*
X141617517Y-111552900D01*
X141742476Y-111516208D01*
X141852036Y-111445799D01*
X141937321Y-111347374D01*
X141991423Y-111228909D01*
X142009957Y-111100000D01*
X141991423Y-110971091D01*
X141937321Y-110852626D01*
X141852036Y-110754201D01*
X141742476Y-110683792D01*
X141617517Y-110647100D01*
X141487283Y-110647100D01*
X141362324Y-110683792D01*
X141307544Y-110718996D01*
X141252763Y-110754201D01*
X141167479Y-110852626D01*
X141113377Y-110971091D01*
X141113376Y-110971095D01*
X141094843Y-111099998D01*
X140905157Y-111099998D01*
X140886623Y-110971091D01*
X140832521Y-110852626D01*
X140747236Y-110754201D01*
X140637676Y-110683792D01*
X140512717Y-110647100D01*
X140382483Y-110647100D01*
X140257524Y-110683792D01*
X140202744Y-110718996D01*
X140147963Y-110754201D01*
X140062679Y-110852626D01*
X140008577Y-110971091D01*
X140008576Y-110971095D01*
X139990043Y-111099998D01*
X138200154Y-111099998D01*
X138234921Y-111059874D01*
X138289023Y-110941409D01*
X138307557Y-110812500D01*
X138289023Y-110683591D01*
X138250848Y-110600000D01*
X145042443Y-110600000D01*
X145060977Y-110728909D01*
X145115079Y-110847374D01*
X145200364Y-110945799D01*
X145309924Y-111016208D01*
X145434883Y-111052900D01*
X145434885Y-111052900D01*
X145565115Y-111052900D01*
X145565117Y-111052900D01*
X145690076Y-111016208D01*
X145799636Y-110945799D01*
X145884921Y-110847374D01*
X145939023Y-110728909D01*
X145957557Y-110600000D01*
X145943179Y-110499998D01*
X149193447Y-110499998D01*
X149193447Y-110500001D01*
X149207824Y-110600001D01*
X149211981Y-110628909D01*
X149266083Y-110747374D01*
X149351368Y-110845799D01*
X149460928Y-110916208D01*
X149585887Y-110952900D01*
X149585889Y-110952900D01*
X149716119Y-110952900D01*
X149716121Y-110952900D01*
X149841080Y-110916208D01*
X149950640Y-110845799D01*
X150035925Y-110747374D01*
X150090027Y-110628909D01*
X150108561Y-110500000D01*
X150090027Y-110371091D01*
X150035925Y-110252626D01*
X149950640Y-110154201D01*
X149841080Y-110083792D01*
X149716121Y-110047100D01*
X149585887Y-110047100D01*
X149460928Y-110083792D01*
X149406148Y-110118996D01*
X149351367Y-110154201D01*
X149266083Y-110252626D01*
X149211981Y-110371091D01*
X149211980Y-110371095D01*
X149193447Y-110499998D01*
X145943179Y-110499998D01*
X145939023Y-110471091D01*
X145884921Y-110352626D01*
X145799636Y-110254201D01*
X145690076Y-110183792D01*
X145565117Y-110147100D01*
X145434883Y-110147100D01*
X145309924Y-110183792D01*
X145272325Y-110207955D01*
X145200363Y-110254201D01*
X145115079Y-110352626D01*
X145060977Y-110471091D01*
X145060976Y-110471095D01*
X145056820Y-110500001D01*
X145042443Y-110600000D01*
X138250848Y-110600000D01*
X138234921Y-110565126D01*
X138149636Y-110466701D01*
X138040076Y-110396292D01*
X137915117Y-110359600D01*
X137784883Y-110359600D01*
X137659924Y-110396292D01*
X137619339Y-110422374D01*
X137550363Y-110466701D01*
X137465079Y-110565126D01*
X137410977Y-110683591D01*
X137410976Y-110683595D01*
X137392443Y-110812498D01*
X122418858Y-110812498D01*
X122345974Y-110739614D01*
X122104443Y-110546999D01*
X121842865Y-110382639D01*
X121842862Y-110382637D01*
X121842859Y-110382635D01*
X121564530Y-110248599D01*
X121564522Y-110248596D01*
X121448376Y-110207955D01*
X121419956Y-110182557D01*
X121415034Y-110160018D01*
X121421807Y-109799998D01*
X171042443Y-109799998D01*
X171042443Y-109800001D01*
X171060792Y-109927626D01*
X171060977Y-109928909D01*
X171115079Y-110047374D01*
X171200364Y-110145799D01*
X171309924Y-110216208D01*
X171434883Y-110252900D01*
X171434885Y-110252900D01*
X171565115Y-110252900D01*
X171565117Y-110252900D01*
X171690076Y-110216208D01*
X171799636Y-110145799D01*
X171884921Y-110047374D01*
X171939023Y-109928909D01*
X171957557Y-109800000D01*
X171939023Y-109671091D01*
X171884921Y-109552626D01*
X171799636Y-109454201D01*
X171690076Y-109383792D01*
X171565117Y-109347100D01*
X171434883Y-109347100D01*
X171309924Y-109383792D01*
X171255144Y-109418996D01*
X171200363Y-109454201D01*
X171115079Y-109552626D01*
X171060977Y-109671091D01*
X171060976Y-109671095D01*
X171042443Y-109799998D01*
X121421807Y-109799998D01*
X121463193Y-107600000D01*
X147342443Y-107600000D01*
X147360977Y-107728909D01*
X147415079Y-107847374D01*
X147500364Y-107945799D01*
X147609924Y-108016208D01*
X147734883Y-108052900D01*
X147734885Y-108052900D01*
X147865115Y-108052900D01*
X147865117Y-108052900D01*
X147990076Y-108016208D01*
X148099636Y-107945799D01*
X148184921Y-107847374D01*
X148239023Y-107728909D01*
X148257557Y-107600000D01*
X148239023Y-107471091D01*
X148184921Y-107352626D01*
X148099636Y-107254201D01*
X147990076Y-107183792D01*
X147865117Y-107147100D01*
X147734883Y-107147100D01*
X147609924Y-107183792D01*
X147559485Y-107216207D01*
X147500363Y-107254201D01*
X147446636Y-107316207D01*
X147415079Y-107352626D01*
X147360977Y-107471091D01*
X147342443Y-107600000D01*
X121463193Y-107600000D01*
X121476361Y-106899998D01*
X137442443Y-106899998D01*
X137442443Y-106900000D01*
X137460977Y-107028909D01*
X137515079Y-107147374D01*
X137600364Y-107245799D01*
X137709924Y-107316208D01*
X137834883Y-107352900D01*
X137834885Y-107352900D01*
X137965115Y-107352900D01*
X137965117Y-107352900D01*
X138090076Y-107316208D01*
X138199636Y-107245799D01*
X138284921Y-107147374D01*
X138339023Y-107028909D01*
X138357557Y-106900000D01*
X138339023Y-106771091D01*
X138284921Y-106652626D01*
X138199636Y-106554201D01*
X138090076Y-106483792D01*
X137965117Y-106447100D01*
X137834883Y-106447100D01*
X137709924Y-106483792D01*
X137664360Y-106513074D01*
X137600363Y-106554201D01*
X137515079Y-106652626D01*
X137460977Y-106771091D01*
X137460976Y-106771095D01*
X137442443Y-106899998D01*
X121476361Y-106899998D01*
X121486708Y-106349998D01*
X141042443Y-106349998D01*
X141042443Y-106350001D01*
X141057424Y-106454201D01*
X141060977Y-106478909D01*
X141115079Y-106597374D01*
X141200364Y-106695799D01*
X141309924Y-106766208D01*
X141434883Y-106802900D01*
X141434885Y-106802900D01*
X141565115Y-106802900D01*
X141565117Y-106802900D01*
X141575000Y-106799998D01*
X143794843Y-106799998D01*
X143794843Y-106800001D01*
X143809220Y-106900001D01*
X143813377Y-106928909D01*
X143867479Y-107047374D01*
X143952764Y-107145799D01*
X144062324Y-107216208D01*
X144187283Y-107252900D01*
X144187285Y-107252900D01*
X144317515Y-107252900D01*
X144317517Y-107252900D01*
X144442476Y-107216208D01*
X144552036Y-107145799D01*
X144637321Y-107047374D01*
X144691423Y-106928909D01*
X144695580Y-106899998D01*
X155692443Y-106899998D01*
X155692443Y-106900000D01*
X155710977Y-107028909D01*
X155765079Y-107147374D01*
X155850364Y-107245799D01*
X155959924Y-107316208D01*
X156084883Y-107352900D01*
X156084885Y-107352900D01*
X156215115Y-107352900D01*
X156215117Y-107352900D01*
X156340076Y-107316208D01*
X156449636Y-107245799D01*
X156534921Y-107147374D01*
X156589023Y-107028909D01*
X156607557Y-106900000D01*
X156589023Y-106771091D01*
X156534921Y-106652626D01*
X156449636Y-106554201D01*
X156340076Y-106483792D01*
X156215117Y-106447100D01*
X156084883Y-106447100D01*
X155959924Y-106483792D01*
X155914360Y-106513074D01*
X155850363Y-106554201D01*
X155765079Y-106652626D01*
X155710977Y-106771091D01*
X155710976Y-106771095D01*
X155692443Y-106899998D01*
X144695580Y-106899998D01*
X144709957Y-106800000D01*
X144691423Y-106671091D01*
X144637321Y-106552626D01*
X144552036Y-106454201D01*
X144442476Y-106383792D01*
X144317517Y-106347100D01*
X144187283Y-106347100D01*
X144062324Y-106383792D01*
X144007544Y-106418996D01*
X143952763Y-106454201D01*
X143867479Y-106552626D01*
X143813377Y-106671091D01*
X143813376Y-106671095D01*
X143794843Y-106799998D01*
X141575000Y-106799998D01*
X141690076Y-106766208D01*
X141799636Y-106695799D01*
X141884921Y-106597374D01*
X141939023Y-106478909D01*
X141957557Y-106350000D01*
X141939023Y-106221091D01*
X141884921Y-106102626D01*
X141799636Y-106004201D01*
X141690076Y-105933792D01*
X141565117Y-105897100D01*
X141434883Y-105897100D01*
X141309924Y-105933792D01*
X141255144Y-105968996D01*
X141200363Y-106004201D01*
X141115079Y-106102626D01*
X141060977Y-106221091D01*
X141060976Y-106221095D01*
X141042443Y-106349998D01*
X121486708Y-106349998D01*
X121514926Y-104849998D01*
X133640043Y-104849998D01*
X133640043Y-104850001D01*
X133650210Y-104920718D01*
X133658577Y-104978909D01*
X133712679Y-105097374D01*
X133797964Y-105195799D01*
X133907524Y-105266208D01*
X134032483Y-105302900D01*
X134032485Y-105302900D01*
X134162715Y-105302900D01*
X134162717Y-105302900D01*
X134287676Y-105266208D01*
X134397236Y-105195799D01*
X134482521Y-105097374D01*
X134536623Y-104978909D01*
X134551563Y-104874998D01*
X136192443Y-104874998D01*
X136192443Y-104875001D01*
X136207382Y-104978909D01*
X136210977Y-105003909D01*
X136265079Y-105122374D01*
X136350364Y-105220799D01*
X136459924Y-105291208D01*
X136584883Y-105327900D01*
X136584885Y-105327900D01*
X136715115Y-105327900D01*
X136715117Y-105327900D01*
X136840076Y-105291208D01*
X136949636Y-105220799D01*
X137034921Y-105122374D01*
X137089023Y-105003909D01*
X137107557Y-104875000D01*
X137089023Y-104746091D01*
X137034921Y-104627626D01*
X136949636Y-104529201D01*
X136911212Y-104504508D01*
X149800357Y-104504508D01*
X149800357Y-104504511D01*
X149814463Y-104602626D01*
X149818891Y-104633419D01*
X149872993Y-104751884D01*
X149946891Y-104837168D01*
X149958008Y-104849998D01*
X149958278Y-104850309D01*
X150067838Y-104920718D01*
X150192797Y-104957410D01*
X150192799Y-104957410D01*
X150323029Y-104957410D01*
X150323031Y-104957410D01*
X150447990Y-104920718D01*
X150557550Y-104850309D01*
X150642835Y-104751884D01*
X150696937Y-104633419D01*
X150715471Y-104504510D01*
X150696937Y-104375601D01*
X150642835Y-104257136D01*
X150557550Y-104158711D01*
X150447990Y-104088302D01*
X150323031Y-104051610D01*
X150192797Y-104051610D01*
X150067838Y-104088302D01*
X150013058Y-104123506D01*
X149958277Y-104158711D01*
X149872993Y-104257136D01*
X149818891Y-104375601D01*
X149818890Y-104375605D01*
X149800357Y-104504508D01*
X136911212Y-104504508D01*
X136840076Y-104458792D01*
X136715117Y-104422100D01*
X136584883Y-104422100D01*
X136459924Y-104458792D01*
X136405144Y-104493996D01*
X136350363Y-104529201D01*
X136265079Y-104627626D01*
X136210977Y-104746091D01*
X136210976Y-104746095D01*
X136192443Y-104874998D01*
X134551563Y-104874998D01*
X134555157Y-104850000D01*
X134536623Y-104721091D01*
X134482521Y-104602626D01*
X134397236Y-104504201D01*
X134287676Y-104433792D01*
X134162717Y-104397100D01*
X134032483Y-104397100D01*
X133907524Y-104433792D01*
X133868623Y-104458792D01*
X133797963Y-104504201D01*
X133712679Y-104602626D01*
X133658577Y-104721091D01*
X133658576Y-104721095D01*
X133640043Y-104849998D01*
X121514926Y-104849998D01*
X121539381Y-103549998D01*
X133287643Y-103549998D01*
X133287643Y-103550001D01*
X133305053Y-103671095D01*
X133306177Y-103678909D01*
X133360279Y-103797374D01*
X133445564Y-103895799D01*
X133555124Y-103966208D01*
X133680083Y-104002900D01*
X133680085Y-104002900D01*
X133810315Y-104002900D01*
X133810317Y-104002900D01*
X133935276Y-103966208D01*
X134044836Y-103895799D01*
X134130121Y-103797374D01*
X134184223Y-103678909D01*
X134200655Y-103564620D01*
X134202757Y-103550001D01*
X134202757Y-103549998D01*
X134195191Y-103497374D01*
X134184223Y-103421091D01*
X134160680Y-103369539D01*
X136674913Y-103369539D01*
X136674913Y-103369542D01*
X136686103Y-103447374D01*
X136693447Y-103498450D01*
X136747549Y-103616915D01*
X136832834Y-103715340D01*
X136942394Y-103785749D01*
X137067353Y-103822441D01*
X137067355Y-103822441D01*
X137197585Y-103822441D01*
X137197587Y-103822441D01*
X137274019Y-103799998D01*
X150967443Y-103799998D01*
X150967443Y-103800001D01*
X150981216Y-103895799D01*
X150985977Y-103928909D01*
X151040079Y-104047374D01*
X151125364Y-104145799D01*
X151234924Y-104216208D01*
X151359883Y-104252900D01*
X151359885Y-104252900D01*
X151490115Y-104252900D01*
X151490117Y-104252900D01*
X151615076Y-104216208D01*
X151724636Y-104145799D01*
X151809921Y-104047374D01*
X151864023Y-103928909D01*
X151882557Y-103800000D01*
X151882557Y-103799998D01*
X152467443Y-103799998D01*
X152467443Y-103800001D01*
X152481216Y-103895799D01*
X152485977Y-103928909D01*
X152540079Y-104047374D01*
X152625364Y-104145799D01*
X152734924Y-104216208D01*
X152859883Y-104252900D01*
X152859885Y-104252900D01*
X152990115Y-104252900D01*
X152990117Y-104252900D01*
X153115076Y-104216208D01*
X153224636Y-104145799D01*
X153309921Y-104047374D01*
X153364023Y-103928909D01*
X153382557Y-103800000D01*
X153382179Y-103797374D01*
X153365147Y-103678909D01*
X153364023Y-103671091D01*
X153309921Y-103552626D01*
X153224636Y-103454201D01*
X153115076Y-103383792D01*
X152990117Y-103347100D01*
X152859883Y-103347100D01*
X152734924Y-103383792D01*
X152680144Y-103418996D01*
X152625363Y-103454201D01*
X152540079Y-103552626D01*
X152485977Y-103671091D01*
X152485976Y-103671095D01*
X152467443Y-103799998D01*
X151882557Y-103799998D01*
X151882179Y-103797374D01*
X151865147Y-103678909D01*
X151864023Y-103671091D01*
X151809921Y-103552626D01*
X151724636Y-103454201D01*
X151615076Y-103383792D01*
X151490117Y-103347100D01*
X151359883Y-103347100D01*
X151234924Y-103383792D01*
X151180144Y-103418996D01*
X151125363Y-103454201D01*
X151040079Y-103552626D01*
X150985977Y-103671091D01*
X150985976Y-103671095D01*
X150967443Y-103799998D01*
X137274019Y-103799998D01*
X137322546Y-103785749D01*
X137432106Y-103715340D01*
X137517391Y-103616915D01*
X137541273Y-103564619D01*
X137569170Y-103538648D01*
X137607261Y-103540008D01*
X137613489Y-103543408D01*
X137665144Y-103576605D01*
X137790103Y-103613297D01*
X137790105Y-103613297D01*
X137920335Y-103613297D01*
X137920337Y-103613297D01*
X138045296Y-103576605D01*
X138154856Y-103506196D01*
X138240141Y-103407771D01*
X138294243Y-103289306D01*
X138299895Y-103249998D01*
X144942443Y-103249998D01*
X144942443Y-103250001D01*
X144956403Y-103347100D01*
X144960977Y-103378909D01*
X145015079Y-103497374D01*
X145100364Y-103595799D01*
X145209924Y-103666208D01*
X145334883Y-103702900D01*
X145334885Y-103702900D01*
X145465115Y-103702900D01*
X145465117Y-103702900D01*
X145590076Y-103666208D01*
X145699636Y-103595799D01*
X145784921Y-103497374D01*
X145839023Y-103378909D01*
X145857557Y-103250000D01*
X145850368Y-103199998D01*
X146492443Y-103199998D01*
X146492443Y-103200001D01*
X146499631Y-103249998D01*
X146510977Y-103328909D01*
X146565079Y-103447374D01*
X146616048Y-103506196D01*
X146648296Y-103543413D01*
X146650364Y-103545799D01*
X146759924Y-103616208D01*
X146884883Y-103652900D01*
X146884885Y-103652900D01*
X147015115Y-103652900D01*
X147015117Y-103652900D01*
X147140076Y-103616208D01*
X147249636Y-103545799D01*
X147334921Y-103447374D01*
X147389023Y-103328909D01*
X147407557Y-103200000D01*
X147389023Y-103071091D01*
X147334921Y-102952626D01*
X147249636Y-102854201D01*
X147140076Y-102783792D01*
X147015117Y-102747100D01*
X146884883Y-102747100D01*
X146759924Y-102783792D01*
X146711988Y-102814598D01*
X146650363Y-102854201D01*
X146565079Y-102952626D01*
X146510977Y-103071091D01*
X146510976Y-103071095D01*
X146492443Y-103199998D01*
X145850368Y-103199998D01*
X145839023Y-103121091D01*
X145784921Y-103002626D01*
X145699636Y-102904201D01*
X145590076Y-102833792D01*
X145465117Y-102797100D01*
X145334883Y-102797100D01*
X145209924Y-102833792D01*
X145181872Y-102851820D01*
X145100363Y-102904201D01*
X145015079Y-103002626D01*
X144960977Y-103121091D01*
X144960976Y-103121095D01*
X144942443Y-103249998D01*
X138299895Y-103249998D01*
X138312777Y-103160397D01*
X138294243Y-103031488D01*
X138240141Y-102913023D01*
X138230176Y-102901523D01*
X138218140Y-102865360D01*
X138235200Y-102831276D01*
X138240875Y-102827028D01*
X138324636Y-102773199D01*
X138409921Y-102674774D01*
X138464023Y-102556309D01*
X138482557Y-102427400D01*
X138464023Y-102298491D01*
X138409921Y-102180026D01*
X138324636Y-102081601D01*
X138215076Y-102011192D01*
X138090117Y-101974500D01*
X137959883Y-101974500D01*
X137834924Y-102011192D01*
X137780144Y-102046396D01*
X137725363Y-102081601D01*
X137640079Y-102180026D01*
X137585977Y-102298491D01*
X137585976Y-102298495D01*
X137567443Y-102427398D01*
X137567443Y-102427401D01*
X137585976Y-102556304D01*
X137585977Y-102556308D01*
X137640079Y-102674774D01*
X137640080Y-102674776D01*
X137650041Y-102686271D01*
X137662078Y-102722435D01*
X137645017Y-102756519D01*
X137639329Y-102760777D01*
X137555585Y-102814596D01*
X137470297Y-102913025D01*
X137446415Y-102965318D01*
X137418518Y-102991289D01*
X137380427Y-102989928D01*
X137374193Y-102986524D01*
X137322546Y-102953333D01*
X137320138Y-102952626D01*
X137197587Y-102916641D01*
X137067353Y-102916641D01*
X136942394Y-102953333D01*
X136923745Y-102965318D01*
X136832833Y-103023742D01*
X136747549Y-103122167D01*
X136693447Y-103240632D01*
X136693446Y-103240636D01*
X136674913Y-103369539D01*
X134160680Y-103369539D01*
X134130121Y-103302626D01*
X134044836Y-103204201D01*
X133935276Y-103133792D01*
X133810317Y-103097100D01*
X133680083Y-103097100D01*
X133555124Y-103133792D01*
X133513724Y-103160398D01*
X133445563Y-103204201D01*
X133360279Y-103302626D01*
X133306177Y-103421091D01*
X133306176Y-103421095D01*
X133287643Y-103549998D01*
X121539381Y-103549998D01*
X121591430Y-100783181D01*
X133711936Y-100783181D01*
X133711936Y-100783183D01*
X133730470Y-100912092D01*
X133784572Y-101030557D01*
X133869857Y-101128982D01*
X133979417Y-101199391D01*
X134104376Y-101236083D01*
X134104378Y-101236083D01*
X134234608Y-101236083D01*
X134234610Y-101236083D01*
X134359569Y-101199391D01*
X134469129Y-101128982D01*
X134554414Y-101030557D01*
X134608516Y-100912092D01*
X134627050Y-100783183D01*
X134627050Y-100783181D01*
X135921536Y-100783181D01*
X135921536Y-100783183D01*
X135940070Y-100912092D01*
X135994172Y-101030557D01*
X136079457Y-101128982D01*
X136189017Y-101199391D01*
X136297015Y-101231102D01*
X136326691Y-101255017D01*
X136330766Y-101292914D01*
X136329114Y-101297342D01*
X136328776Y-101298495D01*
X136310243Y-101427398D01*
X136310243Y-101427401D01*
X136324837Y-101528909D01*
X136328777Y-101556309D01*
X136382879Y-101674774D01*
X136468164Y-101773199D01*
X136577724Y-101843608D01*
X136597851Y-101849518D01*
X136627528Y-101873434D01*
X136631602Y-101911331D01*
X136607685Y-101941009D01*
X136583819Y-101947100D01*
X136509883Y-101947100D01*
X136384924Y-101983792D01*
X136342288Y-102011192D01*
X136275363Y-102054201D01*
X136190079Y-102152626D01*
X136135977Y-102271091D01*
X136135976Y-102271095D01*
X136117443Y-102399998D01*
X136117443Y-102400001D01*
X136121382Y-102427401D01*
X136135977Y-102528909D01*
X136190079Y-102647374D01*
X136275364Y-102745799D01*
X136384924Y-102816208D01*
X136509883Y-102852900D01*
X136509885Y-102852900D01*
X136640115Y-102852900D01*
X136640117Y-102852900D01*
X136765076Y-102816208D01*
X136874636Y-102745799D01*
X136959921Y-102647374D01*
X137014023Y-102528909D01*
X137032557Y-102400000D01*
X137014023Y-102271091D01*
X136959921Y-102152626D01*
X136874636Y-102054201D01*
X136765076Y-101983792D01*
X136744948Y-101977881D01*
X136715272Y-101953966D01*
X136711198Y-101916069D01*
X136735115Y-101886391D01*
X136758981Y-101880300D01*
X136832915Y-101880300D01*
X136832917Y-101880300D01*
X136957876Y-101843608D01*
X137067436Y-101773199D01*
X137152721Y-101674774D01*
X137206823Y-101556309D01*
X137225357Y-101427400D01*
X137221417Y-101399998D01*
X140190043Y-101399998D01*
X140190043Y-101400001D01*
X140193982Y-101427401D01*
X140208577Y-101528909D01*
X140262679Y-101647374D01*
X140347964Y-101745799D01*
X140457524Y-101816208D01*
X140582483Y-101852900D01*
X140582485Y-101852900D01*
X140712715Y-101852900D01*
X140712717Y-101852900D01*
X140837676Y-101816208D01*
X140947236Y-101745799D01*
X141032521Y-101647374D01*
X141054157Y-101599998D01*
X151142443Y-101599998D01*
X151142443Y-101600001D01*
X151153193Y-101674774D01*
X151160977Y-101728909D01*
X151215079Y-101847374D01*
X151300364Y-101945799D01*
X151409924Y-102016208D01*
X151534883Y-102052900D01*
X151534885Y-102052900D01*
X151665115Y-102052900D01*
X151665117Y-102052900D01*
X151790076Y-102016208D01*
X151899636Y-101945799D01*
X151984921Y-101847374D01*
X152039023Y-101728909D01*
X152057557Y-101600000D01*
X152039023Y-101471091D01*
X152006555Y-101399998D01*
X155692443Y-101399998D01*
X155692443Y-101400001D01*
X155696382Y-101427401D01*
X155710977Y-101528909D01*
X155765079Y-101647374D01*
X155850364Y-101745799D01*
X155959924Y-101816208D01*
X156084883Y-101852900D01*
X156084885Y-101852900D01*
X156215115Y-101852900D01*
X156215117Y-101852900D01*
X156340076Y-101816208D01*
X156449636Y-101745799D01*
X156534921Y-101647374D01*
X156589023Y-101528909D01*
X156607557Y-101400000D01*
X156589023Y-101271091D01*
X156534921Y-101152626D01*
X156449636Y-101054201D01*
X156340076Y-100983792D01*
X156215117Y-100947100D01*
X156084883Y-100947100D01*
X155959924Y-100983792D01*
X155917288Y-101011192D01*
X155850363Y-101054201D01*
X155765079Y-101152626D01*
X155710977Y-101271091D01*
X155710976Y-101271095D01*
X155692443Y-101399998D01*
X152006555Y-101399998D01*
X151984921Y-101352626D01*
X151899636Y-101254201D01*
X151790076Y-101183792D01*
X151665117Y-101147100D01*
X151534883Y-101147100D01*
X151409924Y-101183792D01*
X151355144Y-101218996D01*
X151300363Y-101254201D01*
X151215079Y-101352626D01*
X151160977Y-101471091D01*
X151160976Y-101471095D01*
X151142443Y-101599998D01*
X141054157Y-101599998D01*
X141086623Y-101528909D01*
X141105157Y-101400000D01*
X141086623Y-101271091D01*
X141032521Y-101152626D01*
X140947236Y-101054201D01*
X140837676Y-100983792D01*
X140712717Y-100947100D01*
X140582483Y-100947100D01*
X140457524Y-100983792D01*
X140414888Y-101011192D01*
X140347963Y-101054201D01*
X140262679Y-101152626D01*
X140208577Y-101271091D01*
X140208576Y-101271095D01*
X140190043Y-101399998D01*
X137221417Y-101399998D01*
X137206823Y-101298491D01*
X137152721Y-101180026D01*
X137067436Y-101081601D01*
X136957876Y-101011192D01*
X136849876Y-100979479D01*
X136820200Y-100955564D01*
X136816126Y-100917667D01*
X136817779Y-100913235D01*
X136818111Y-100912100D01*
X136818116Y-100912092D01*
X136836650Y-100783183D01*
X136834209Y-100766208D01*
X136830472Y-100740213D01*
X136818116Y-100654274D01*
X136764014Y-100535809D01*
X136678729Y-100437384D01*
X136678728Y-100437383D01*
X136650757Y-100419408D01*
X136591367Y-100381240D01*
X136569629Y-100349933D01*
X136576396Y-100312424D01*
X136602369Y-100292980D01*
X136602236Y-100292688D01*
X136603582Y-100292072D01*
X136604262Y-100291564D01*
X136605476Y-100291208D01*
X136715036Y-100220799D01*
X136800321Y-100122374D01*
X136854423Y-100003909D01*
X136872957Y-99875000D01*
X136869142Y-99848469D01*
X136866185Y-99827899D01*
X136854423Y-99746091D01*
X136800321Y-99627626D01*
X136715036Y-99529201D01*
X136605476Y-99458792D01*
X136605475Y-99458791D01*
X136605474Y-99458791D01*
X136555421Y-99444094D01*
X136482839Y-99422782D01*
X136453162Y-99398866D01*
X136449088Y-99360970D01*
X136473005Y-99331291D01*
X136482836Y-99327219D01*
X136605476Y-99291208D01*
X136715036Y-99220799D01*
X136800321Y-99122374D01*
X136854423Y-99003909D01*
X136872957Y-98875000D01*
X136854423Y-98746091D01*
X136800321Y-98627626D01*
X136715036Y-98529201D01*
X136605476Y-98458792D01*
X136480517Y-98422100D01*
X136350283Y-98422100D01*
X136225324Y-98458792D01*
X136171805Y-98493186D01*
X136115763Y-98529201D01*
X136030479Y-98627626D01*
X135976377Y-98746091D01*
X135976376Y-98746095D01*
X135957843Y-98874998D01*
X135957843Y-98875001D01*
X135975814Y-98999998D01*
X135976377Y-99003909D01*
X136030479Y-99122374D01*
X136115764Y-99220799D01*
X136225324Y-99291208D01*
X136347960Y-99327217D01*
X136377637Y-99351134D01*
X136381711Y-99389031D01*
X136357794Y-99418709D01*
X136347963Y-99422780D01*
X136225324Y-99458792D01*
X136186423Y-99483792D01*
X136115763Y-99529201D01*
X136030479Y-99627626D01*
X135976377Y-99746091D01*
X135976376Y-99746095D01*
X135957843Y-99874998D01*
X135957843Y-99875001D01*
X135964836Y-99923643D01*
X135976377Y-100003909D01*
X136030479Y-100122374D01*
X136115764Y-100220799D01*
X136203125Y-100276942D01*
X136224863Y-100308249D01*
X136218096Y-100345758D01*
X136192124Y-100365204D01*
X136192257Y-100365495D01*
X136190920Y-100366105D01*
X136190240Y-100366615D01*
X136189021Y-100366972D01*
X136079456Y-100437384D01*
X135994172Y-100535809D01*
X135940070Y-100654274D01*
X135940069Y-100654278D01*
X135921536Y-100783181D01*
X134627050Y-100783181D01*
X134624609Y-100766208D01*
X134620872Y-100740213D01*
X134608516Y-100654274D01*
X134554414Y-100535809D01*
X134469129Y-100437384D01*
X134359569Y-100366975D01*
X134234610Y-100330283D01*
X134104376Y-100330283D01*
X133979417Y-100366975D01*
X133957217Y-100381242D01*
X133869856Y-100437384D01*
X133784572Y-100535809D01*
X133730470Y-100654274D01*
X133730469Y-100654278D01*
X133711936Y-100783181D01*
X121591430Y-100783181D01*
X121630648Y-98698400D01*
X121778805Y-98698400D01*
X122391285Y-98698400D01*
X122375000Y-98759174D01*
X122375000Y-98890826D01*
X122391285Y-98951600D01*
X121778805Y-98951600D01*
X121785939Y-99028584D01*
X121841889Y-99225226D01*
X121933022Y-99408248D01*
X121933023Y-99408251D01*
X122056228Y-99571400D01*
X122056233Y-99571406D01*
X122207325Y-99709144D01*
X122381152Y-99816773D01*
X122571800Y-99890631D01*
X122748399Y-99923643D01*
X122748400Y-99923642D01*
X122748400Y-99308715D01*
X122809174Y-99325000D01*
X122940826Y-99325000D01*
X123001600Y-99308715D01*
X123001600Y-99923643D01*
X123128090Y-99899998D01*
X134300643Y-99899998D01*
X134300643Y-99900001D01*
X134315624Y-100004201D01*
X134319177Y-100028909D01*
X134373279Y-100147374D01*
X134458564Y-100245799D01*
X134568124Y-100316208D01*
X134693083Y-100352900D01*
X134693085Y-100352900D01*
X134823315Y-100352900D01*
X134823317Y-100352900D01*
X134948276Y-100316208D01*
X135057836Y-100245799D01*
X135143121Y-100147374D01*
X135197223Y-100028909D01*
X135214279Y-99910283D01*
X135215757Y-99900001D01*
X135215757Y-99899998D01*
X135205391Y-99827900D01*
X135197223Y-99771091D01*
X135143121Y-99652626D01*
X135057836Y-99554201D01*
X134948276Y-99483792D01*
X134823317Y-99447100D01*
X134693083Y-99447100D01*
X134568124Y-99483792D01*
X134513344Y-99518996D01*
X134458563Y-99554201D01*
X134373279Y-99652626D01*
X134319177Y-99771091D01*
X134319176Y-99771095D01*
X134300643Y-99899998D01*
X123128090Y-99899998D01*
X123178199Y-99890631D01*
X123368847Y-99816773D01*
X123542674Y-99709144D01*
X123693766Y-99571406D01*
X123693771Y-99571400D01*
X123816976Y-99408251D01*
X123816977Y-99408248D01*
X123908110Y-99225226D01*
X123964060Y-99028584D01*
X123971195Y-98951600D01*
X123358715Y-98951600D01*
X123370025Y-98909392D01*
X134853043Y-98909392D01*
X134853043Y-98909395D01*
X134870179Y-99028584D01*
X134871577Y-99038303D01*
X134925679Y-99156768D01*
X135010964Y-99255193D01*
X135120524Y-99325602D01*
X135245483Y-99362294D01*
X135245485Y-99362294D01*
X135375715Y-99362294D01*
X135375717Y-99362294D01*
X135500676Y-99325602D01*
X135610236Y-99255193D01*
X135695521Y-99156768D01*
X135749623Y-99038303D01*
X135768157Y-98909394D01*
X135767223Y-98902900D01*
X135761948Y-98866207D01*
X135749623Y-98780485D01*
X135695521Y-98662020D01*
X135610236Y-98563595D01*
X135500676Y-98493186D01*
X135375717Y-98456494D01*
X135245483Y-98456494D01*
X135120524Y-98493186D01*
X135081923Y-98517993D01*
X135010963Y-98563595D01*
X134925679Y-98662020D01*
X134871577Y-98780485D01*
X134871576Y-98780489D01*
X134853043Y-98909392D01*
X123370025Y-98909392D01*
X123375000Y-98890826D01*
X123375000Y-98759174D01*
X123358715Y-98698400D01*
X123971195Y-98698400D01*
X123964060Y-98621415D01*
X123908110Y-98424773D01*
X123883325Y-98374998D01*
X140165811Y-98374998D01*
X140165811Y-98375001D01*
X140172985Y-98424901D01*
X140184345Y-98503909D01*
X140238447Y-98622374D01*
X140323732Y-98720799D01*
X140433292Y-98791208D01*
X140558251Y-98827900D01*
X140558253Y-98827900D01*
X140561778Y-98828407D01*
X140561574Y-98829821D01*
X140592150Y-98842486D01*
X140606736Y-98877700D01*
X140592150Y-98912914D01*
X140570968Y-98925481D01*
X140457524Y-98958793D01*
X140402744Y-98993997D01*
X140347963Y-99029202D01*
X140262679Y-99127627D01*
X140208577Y-99246092D01*
X140208576Y-99246096D01*
X140190043Y-99374999D01*
X140190043Y-99375002D01*
X140205684Y-99483792D01*
X140208577Y-99503910D01*
X140262679Y-99622375D01*
X140347964Y-99720800D01*
X140457524Y-99791209D01*
X140537587Y-99814718D01*
X140567264Y-99838633D01*
X140571339Y-99876530D01*
X140547423Y-99906208D01*
X140537587Y-99910282D01*
X140457524Y-99933792D01*
X140402744Y-99968996D01*
X140347963Y-100004201D01*
X140262679Y-100102626D01*
X140208577Y-100221091D01*
X140208576Y-100221095D01*
X140190043Y-100349998D01*
X140190043Y-100350001D01*
X140202606Y-100437384D01*
X140208577Y-100478909D01*
X140262679Y-100597374D01*
X140347964Y-100695799D01*
X140457524Y-100766208D01*
X140582483Y-100802900D01*
X140582485Y-100802900D01*
X140712715Y-100802900D01*
X140712717Y-100802900D01*
X140837676Y-100766208D01*
X140947236Y-100695799D01*
X141032521Y-100597374D01*
X141086623Y-100478909D01*
X141102768Y-100366615D01*
X141105157Y-100350001D01*
X141105157Y-100349998D01*
X141097278Y-100295199D01*
X155692443Y-100295199D01*
X155692443Y-100295202D01*
X155704813Y-100381242D01*
X155710977Y-100424110D01*
X155765079Y-100542575D01*
X155850364Y-100641000D01*
X155959924Y-100711409D01*
X156084883Y-100748101D01*
X156084885Y-100748101D01*
X156215115Y-100748101D01*
X156215117Y-100748101D01*
X156340076Y-100711409D01*
X156449636Y-100641000D01*
X156534921Y-100542575D01*
X156589023Y-100424110D01*
X156607557Y-100295201D01*
X156589023Y-100166292D01*
X156534921Y-100047827D01*
X156449636Y-99949402D01*
X156340076Y-99878993D01*
X156215117Y-99842301D01*
X156084883Y-99842301D01*
X155959924Y-99878993D01*
X155917576Y-99906208D01*
X155850363Y-99949402D01*
X155765079Y-100047827D01*
X155710977Y-100166292D01*
X155710976Y-100166296D01*
X155692443Y-100295199D01*
X141097278Y-100295199D01*
X141090175Y-100245798D01*
X141086623Y-100221091D01*
X141032521Y-100102626D01*
X140947236Y-100004201D01*
X140837676Y-99933792D01*
X140757611Y-99910282D01*
X140727934Y-99886366D01*
X140723860Y-99848469D01*
X140747777Y-99818791D01*
X140757604Y-99814720D01*
X140837676Y-99791209D01*
X140947236Y-99720800D01*
X141032521Y-99622375D01*
X141086623Y-99503910D01*
X141105157Y-99375001D01*
X141100958Y-99345799D01*
X141097149Y-99319305D01*
X141086623Y-99246092D01*
X141065572Y-99199998D01*
X147342443Y-99199998D01*
X147342443Y-99200001D01*
X147360733Y-99327217D01*
X147360977Y-99328909D01*
X147415079Y-99447374D01*
X147500364Y-99545799D01*
X147609924Y-99616208D01*
X147734883Y-99652900D01*
X147734885Y-99652900D01*
X147865115Y-99652900D01*
X147865117Y-99652900D01*
X147990076Y-99616208D01*
X148099636Y-99545799D01*
X148184921Y-99447374D01*
X148239023Y-99328909D01*
X148257557Y-99200000D01*
X148256177Y-99190399D01*
X155692443Y-99190399D01*
X155692443Y-99190402D01*
X155706936Y-99291208D01*
X155710977Y-99319310D01*
X155765079Y-99437775D01*
X155850364Y-99536200D01*
X155959924Y-99606609D01*
X156084883Y-99643301D01*
X156084885Y-99643301D01*
X156215115Y-99643301D01*
X156215117Y-99643301D01*
X156340076Y-99606609D01*
X156449636Y-99536200D01*
X156534921Y-99437775D01*
X156589023Y-99319310D01*
X156607557Y-99190401D01*
X156589023Y-99061492D01*
X156560939Y-98999998D01*
X173842443Y-98999998D01*
X173842443Y-99000001D01*
X173860792Y-99127627D01*
X173860977Y-99128909D01*
X173915079Y-99247374D01*
X174000364Y-99345799D01*
X174109924Y-99416208D01*
X174234883Y-99452900D01*
X174234885Y-99452900D01*
X174365115Y-99452900D01*
X174365117Y-99452900D01*
X174490076Y-99416208D01*
X174599636Y-99345799D01*
X174684921Y-99247374D01*
X174739023Y-99128909D01*
X174757557Y-99000000D01*
X174757557Y-98999998D01*
X177042443Y-98999998D01*
X177042443Y-99000001D01*
X177060792Y-99127627D01*
X177060977Y-99128909D01*
X177115079Y-99247374D01*
X177200364Y-99345799D01*
X177309924Y-99416208D01*
X177434883Y-99452900D01*
X177434885Y-99452900D01*
X177565115Y-99452900D01*
X177565117Y-99452900D01*
X177690076Y-99416208D01*
X177799636Y-99345799D01*
X177884921Y-99247374D01*
X177939023Y-99128909D01*
X177957557Y-99000000D01*
X177939023Y-98871091D01*
X177884921Y-98752626D01*
X177799636Y-98654201D01*
X177690076Y-98583792D01*
X177565117Y-98547100D01*
X177434883Y-98547100D01*
X177309924Y-98583792D01*
X177255144Y-98618996D01*
X177200363Y-98654201D01*
X177115079Y-98752626D01*
X177060977Y-98871091D01*
X177060976Y-98871095D01*
X177042443Y-98999998D01*
X174757557Y-98999998D01*
X174739023Y-98871091D01*
X174684921Y-98752626D01*
X174599636Y-98654201D01*
X174490076Y-98583792D01*
X174365117Y-98547100D01*
X174234883Y-98547100D01*
X174109924Y-98583792D01*
X174055144Y-98618996D01*
X174000363Y-98654201D01*
X173915079Y-98752626D01*
X173860977Y-98871091D01*
X173860976Y-98871095D01*
X173842443Y-98999998D01*
X156560939Y-98999998D01*
X156534921Y-98943027D01*
X156449636Y-98844602D01*
X156340076Y-98774193D01*
X156215117Y-98737501D01*
X156084883Y-98737501D01*
X155959924Y-98774193D01*
X155933448Y-98791208D01*
X155850363Y-98844602D01*
X155765079Y-98943027D01*
X155710977Y-99061492D01*
X155710976Y-99061496D01*
X155692443Y-99190399D01*
X148256177Y-99190399D01*
X148239023Y-99071091D01*
X148184921Y-98952626D01*
X148099636Y-98854201D01*
X147990076Y-98783792D01*
X147865117Y-98747100D01*
X147734883Y-98747100D01*
X147609924Y-98783792D01*
X147555144Y-98818996D01*
X147500363Y-98854201D01*
X147415079Y-98952626D01*
X147360977Y-99071091D01*
X147360976Y-99071095D01*
X147342443Y-99199998D01*
X141065572Y-99199998D01*
X141032521Y-99127627D01*
X140947236Y-99029202D01*
X140837676Y-98958793D01*
X140712717Y-98922101D01*
X140712714Y-98922100D01*
X140709190Y-98921594D01*
X140709393Y-98920179D01*
X140678818Y-98907515D01*
X140664232Y-98872301D01*
X140678818Y-98837087D01*
X140699999Y-98824519D01*
X140813444Y-98791208D01*
X140923004Y-98720799D01*
X141008289Y-98622374D01*
X141062391Y-98503909D01*
X141080925Y-98375000D01*
X141078635Y-98359075D01*
X141066611Y-98275443D01*
X141062391Y-98246091D01*
X141008289Y-98127626D01*
X140923004Y-98029201D01*
X140838661Y-97974998D01*
X141294843Y-97974998D01*
X141294843Y-97975001D01*
X141305248Y-98047374D01*
X141313377Y-98103909D01*
X141367479Y-98222374D01*
X141393930Y-98252900D01*
X141452059Y-98319986D01*
X141452764Y-98320799D01*
X141562324Y-98391208D01*
X141687283Y-98427900D01*
X141687285Y-98427900D01*
X141817515Y-98427900D01*
X141817517Y-98427900D01*
X141942476Y-98391208D01*
X142052036Y-98320799D01*
X142137321Y-98222374D01*
X142191423Y-98103909D01*
X142209957Y-97975000D01*
X142204444Y-97936659D01*
X142203487Y-97930001D01*
X142191423Y-97846091D01*
X142170373Y-97799998D01*
X152342443Y-97799998D01*
X152342443Y-97800001D01*
X152345620Y-97822101D01*
X152360977Y-97928909D01*
X152415079Y-98047374D01*
X152500364Y-98145799D01*
X152609924Y-98216208D01*
X152730207Y-98251527D01*
X152759884Y-98275443D01*
X152763959Y-98313339D01*
X152761481Y-98319986D01*
X152760979Y-98321085D01*
X152760976Y-98321095D01*
X152742443Y-98449998D01*
X152742443Y-98450001D01*
X152756403Y-98547100D01*
X152760977Y-98578909D01*
X152815079Y-98697374D01*
X152900364Y-98795799D01*
X153009924Y-98866208D01*
X153134883Y-98902900D01*
X153134885Y-98902900D01*
X153265115Y-98902900D01*
X153265117Y-98902900D01*
X153390076Y-98866208D01*
X153499636Y-98795799D01*
X153584921Y-98697374D01*
X153639023Y-98578909D01*
X153657557Y-98450000D01*
X153639023Y-98321091D01*
X153584921Y-98202626D01*
X153499636Y-98104201D01*
X153390076Y-98033792D01*
X153269791Y-97998472D01*
X153240114Y-97974556D01*
X153236040Y-97936659D01*
X153238524Y-97930001D01*
X153239023Y-97928909D01*
X153257557Y-97800000D01*
X153254034Y-97775500D01*
X153246969Y-97726356D01*
X153239023Y-97671091D01*
X153184921Y-97552626D01*
X153099636Y-97454201D01*
X152990076Y-97383792D01*
X152865117Y-97347100D01*
X152734883Y-97347100D01*
X152609924Y-97383792D01*
X152555144Y-97418996D01*
X152500363Y-97454201D01*
X152415079Y-97552626D01*
X152360977Y-97671091D01*
X152360976Y-97671095D01*
X152342443Y-97799998D01*
X142170373Y-97799998D01*
X142137321Y-97727626D01*
X142052036Y-97629201D01*
X141942476Y-97558792D01*
X141817517Y-97522100D01*
X141687283Y-97522100D01*
X141562324Y-97558792D01*
X141507544Y-97593996D01*
X141452763Y-97629201D01*
X141367479Y-97727626D01*
X141313377Y-97846091D01*
X141313376Y-97846095D01*
X141294843Y-97974998D01*
X140838661Y-97974998D01*
X140813444Y-97958792D01*
X140688485Y-97922100D01*
X140558251Y-97922100D01*
X140433292Y-97958792D01*
X140378512Y-97993996D01*
X140323731Y-98029201D01*
X140238447Y-98127626D01*
X140184345Y-98246091D01*
X140184344Y-98246095D01*
X140165811Y-98374998D01*
X123883325Y-98374998D01*
X123816977Y-98241751D01*
X123816976Y-98241748D01*
X123693771Y-98078599D01*
X123693766Y-98078593D01*
X123542674Y-97940855D01*
X123368847Y-97833226D01*
X123178199Y-97759368D01*
X123001600Y-97726355D01*
X123001600Y-98341284D01*
X122940826Y-98325000D01*
X122809174Y-98325000D01*
X122748400Y-98341284D01*
X122748400Y-97726356D01*
X122748399Y-97726355D01*
X122571800Y-97759368D01*
X122381152Y-97833226D01*
X122207325Y-97940855D01*
X122056233Y-98078593D01*
X122056228Y-98078599D01*
X121933023Y-98241748D01*
X121933022Y-98241751D01*
X121841889Y-98424773D01*
X121785939Y-98621415D01*
X121778805Y-98698400D01*
X121630648Y-98698400D01*
X121699312Y-95048400D01*
X121803805Y-95048400D01*
X122416285Y-95048400D01*
X122400000Y-95109174D01*
X122400000Y-95240826D01*
X122416285Y-95301600D01*
X121803805Y-95301600D01*
X121810939Y-95378584D01*
X121866889Y-95575226D01*
X121958022Y-95758248D01*
X121958023Y-95758251D01*
X122081228Y-95921400D01*
X122081233Y-95921406D01*
X122232325Y-96059144D01*
X122406152Y-96166773D01*
X122596800Y-96240631D01*
X122773399Y-96273643D01*
X122773400Y-96273642D01*
X122773400Y-95658715D01*
X122834174Y-95675000D01*
X122965826Y-95675000D01*
X123026600Y-95658715D01*
X123026600Y-96273643D01*
X123203199Y-96240631D01*
X123370569Y-96175791D01*
X135760243Y-96175791D01*
X135760243Y-96175794D01*
X135775080Y-96278992D01*
X135778777Y-96304702D01*
X135832879Y-96423167D01*
X135912491Y-96515045D01*
X135916249Y-96519382D01*
X135928285Y-96555547D01*
X135916249Y-96584606D01*
X135832879Y-96680822D01*
X135778777Y-96799287D01*
X135778776Y-96799291D01*
X135760243Y-96928194D01*
X135760243Y-96928197D01*
X135772204Y-97011392D01*
X135778777Y-97057105D01*
X135832879Y-97175570D01*
X135918164Y-97273995D01*
X136027724Y-97344404D01*
X136152683Y-97381096D01*
X136152685Y-97381096D01*
X136282915Y-97381096D01*
X136282917Y-97381096D01*
X136407876Y-97344404D01*
X136441807Y-97322598D01*
X137342443Y-97322598D01*
X137342443Y-97322601D01*
X137345965Y-97347100D01*
X137360977Y-97451509D01*
X137415079Y-97569974D01*
X137500364Y-97668399D01*
X137609924Y-97738808D01*
X137734883Y-97775500D01*
X137734885Y-97775500D01*
X137865115Y-97775500D01*
X137865117Y-97775500D01*
X137990076Y-97738808D01*
X138099636Y-97668399D01*
X138184921Y-97569974D01*
X138239023Y-97451509D01*
X138257557Y-97322600D01*
X138239023Y-97193691D01*
X138184921Y-97075226D01*
X138099636Y-96976801D01*
X137990076Y-96906392D01*
X137865117Y-96869700D01*
X137734883Y-96869700D01*
X137609924Y-96906392D01*
X137555144Y-96941596D01*
X137500363Y-96976801D01*
X137415079Y-97075226D01*
X137360977Y-97193691D01*
X137360976Y-97193695D01*
X137342443Y-97322598D01*
X136441807Y-97322598D01*
X136517436Y-97273995D01*
X136602721Y-97175570D01*
X136656823Y-97057105D01*
X136675357Y-96928196D01*
X136656823Y-96799287D01*
X136602721Y-96680822D01*
X136519349Y-96584605D01*
X136507314Y-96548441D01*
X136519351Y-96519382D01*
X136567237Y-96464118D01*
X136602721Y-96423167D01*
X136656823Y-96304702D01*
X136675357Y-96175793D01*
X136675357Y-96175791D01*
X136865043Y-96175791D01*
X136865043Y-96175794D01*
X136879880Y-96278992D01*
X136883577Y-96304702D01*
X136937679Y-96423167D01*
X137022964Y-96521592D01*
X137132524Y-96592001D01*
X137257483Y-96628693D01*
X137257485Y-96628693D01*
X137387715Y-96628693D01*
X137387717Y-96628693D01*
X137512676Y-96592001D01*
X137622236Y-96521592D01*
X137707521Y-96423167D01*
X137747690Y-96335210D01*
X141632233Y-96335210D01*
X141650767Y-96464119D01*
X141704869Y-96582584D01*
X141790154Y-96681009D01*
X141899714Y-96751418D01*
X142024673Y-96788110D01*
X142024675Y-96788110D01*
X142154905Y-96788110D01*
X142154907Y-96788110D01*
X142279866Y-96751418D01*
X142367347Y-96695198D01*
X144517443Y-96695198D01*
X144517443Y-96695201D01*
X144525525Y-96751417D01*
X144535977Y-96824109D01*
X144590079Y-96942574D01*
X144675364Y-97040999D01*
X144784924Y-97111408D01*
X144909883Y-97148100D01*
X144909885Y-97148100D01*
X145040115Y-97148100D01*
X145040117Y-97148100D01*
X145165076Y-97111408D01*
X145274636Y-97040999D01*
X145359921Y-96942574D01*
X145413617Y-96824998D01*
X159104443Y-96824998D01*
X159104443Y-96825001D01*
X159112708Y-96882489D01*
X159122977Y-96953909D01*
X159177079Y-97072374D01*
X159262364Y-97170799D01*
X159371924Y-97241208D01*
X159496883Y-97277900D01*
X159496885Y-97277900D01*
X159627115Y-97277900D01*
X159627117Y-97277900D01*
X159752076Y-97241208D01*
X159861636Y-97170799D01*
X159946921Y-97072374D01*
X160001023Y-96953909D01*
X160011292Y-96882486D01*
X160209243Y-96882486D01*
X160209243Y-96882489D01*
X160219511Y-96953909D01*
X160227777Y-97011397D01*
X160281879Y-97129862D01*
X160367164Y-97228287D01*
X160476724Y-97298696D01*
X160601683Y-97335388D01*
X160601685Y-97335388D01*
X160731915Y-97335388D01*
X160731917Y-97335388D01*
X160856876Y-97298696D01*
X160966436Y-97228287D01*
X161051721Y-97129862D01*
X161105823Y-97011397D01*
X161124357Y-96882488D01*
X161122518Y-96869700D01*
X161116091Y-96824998D01*
X161105823Y-96753579D01*
X161051721Y-96635114D01*
X160966436Y-96536689D01*
X160856876Y-96466280D01*
X160731917Y-96429588D01*
X160601683Y-96429588D01*
X160476724Y-96466280D01*
X160421944Y-96501484D01*
X160367163Y-96536689D01*
X160281879Y-96635114D01*
X160227777Y-96753579D01*
X160227776Y-96753583D01*
X160209243Y-96882486D01*
X160011292Y-96882486D01*
X160019557Y-96825000D01*
X160001023Y-96696091D01*
X159946921Y-96577626D01*
X159861636Y-96479201D01*
X159752076Y-96408792D01*
X159627117Y-96372100D01*
X159496883Y-96372100D01*
X159371924Y-96408792D01*
X159317144Y-96443996D01*
X159262363Y-96479201D01*
X159177079Y-96577626D01*
X159122977Y-96696091D01*
X159122976Y-96696095D01*
X159104443Y-96824998D01*
X145413617Y-96824998D01*
X145414023Y-96824109D01*
X145432557Y-96695200D01*
X145414023Y-96566291D01*
X145359921Y-96447826D01*
X145274636Y-96349401D01*
X145165076Y-96278992D01*
X145040117Y-96242300D01*
X144909883Y-96242300D01*
X144784924Y-96278992D01*
X144744918Y-96304702D01*
X144675363Y-96349401D01*
X144590079Y-96447826D01*
X144535977Y-96566291D01*
X144535976Y-96566295D01*
X144517443Y-96695198D01*
X142367347Y-96695198D01*
X142389426Y-96681009D01*
X142474711Y-96582584D01*
X142528813Y-96464119D01*
X142547347Y-96335210D01*
X142528813Y-96206301D01*
X142474711Y-96087836D01*
X142389426Y-95989411D01*
X142279866Y-95919002D01*
X142154907Y-95882310D01*
X142024673Y-95882310D01*
X141899714Y-95919002D01*
X141844934Y-95954206D01*
X141790153Y-95989411D01*
X141704869Y-96087836D01*
X141650767Y-96206301D01*
X141650766Y-96206305D01*
X141636620Y-96304697D01*
X141632233Y-96335210D01*
X137747690Y-96335210D01*
X137761623Y-96304702D01*
X137780157Y-96175793D01*
X137779184Y-96169028D01*
X137767054Y-96084658D01*
X137761623Y-96046884D01*
X137707521Y-95928419D01*
X137622236Y-95829994D01*
X137512676Y-95759585D01*
X137387717Y-95722893D01*
X137257483Y-95722893D01*
X137132524Y-95759585D01*
X137102001Y-95779201D01*
X137022963Y-95829994D01*
X136937679Y-95928419D01*
X136883577Y-96046884D01*
X136883576Y-96046888D01*
X136865043Y-96175791D01*
X136675357Y-96175791D01*
X136674384Y-96169028D01*
X136662254Y-96084658D01*
X136656823Y-96046884D01*
X136602721Y-95928419D01*
X136517436Y-95829994D01*
X136407876Y-95759585D01*
X136282917Y-95722893D01*
X136152683Y-95722893D01*
X136027724Y-95759585D01*
X135997201Y-95779201D01*
X135918163Y-95829994D01*
X135832879Y-95928419D01*
X135778777Y-96046884D01*
X135778776Y-96046888D01*
X135760243Y-96175791D01*
X123370569Y-96175791D01*
X123393847Y-96166773D01*
X123567674Y-96059144D01*
X123718766Y-95921406D01*
X123718771Y-95921400D01*
X123841976Y-95758251D01*
X123841977Y-95758248D01*
X123933110Y-95575226D01*
X123989060Y-95378584D01*
X123996195Y-95301600D01*
X123383715Y-95301600D01*
X123400000Y-95240826D01*
X123400000Y-95109174D01*
X123383715Y-95048400D01*
X123996195Y-95048400D01*
X123993736Y-95021864D01*
X135351745Y-95021864D01*
X135351745Y-95021867D01*
X135366011Y-95121094D01*
X135370279Y-95150775D01*
X135424381Y-95269240D01*
X135509666Y-95367665D01*
X135619226Y-95438074D01*
X135744185Y-95474766D01*
X135744187Y-95474766D01*
X135874417Y-95474766D01*
X135874419Y-95474766D01*
X135999378Y-95438074D01*
X136058626Y-95399998D01*
X137668855Y-95399998D01*
X137668855Y-95400001D01*
X137683649Y-95502900D01*
X137687389Y-95528909D01*
X137741491Y-95647374D01*
X137826776Y-95745799D01*
X137936336Y-95816208D01*
X138061295Y-95852900D01*
X138061297Y-95852900D01*
X138191527Y-95852900D01*
X138191529Y-95852900D01*
X138316488Y-95816208D01*
X138325585Y-95810362D01*
X153105427Y-95810362D01*
X153105427Y-95810365D01*
X153121046Y-95919002D01*
X153123961Y-95939273D01*
X153178063Y-96057738D01*
X153263348Y-96156163D01*
X153372908Y-96226572D01*
X153497867Y-96263264D01*
X153497869Y-96263264D01*
X153628099Y-96263264D01*
X153628101Y-96263264D01*
X153753060Y-96226572D01*
X153862620Y-96156163D01*
X153889624Y-96124998D01*
X156342443Y-96124998D01*
X156342443Y-96125001D01*
X156357046Y-96226572D01*
X156360977Y-96253909D01*
X156415079Y-96372374D01*
X156500364Y-96470799D01*
X156609924Y-96541208D01*
X156734883Y-96577900D01*
X156734885Y-96577900D01*
X156865115Y-96577900D01*
X156865117Y-96577900D01*
X156990076Y-96541208D01*
X157099636Y-96470799D01*
X157184921Y-96372374D01*
X157239023Y-96253909D01*
X157257557Y-96125000D01*
X157239023Y-95996091D01*
X157184921Y-95877626D01*
X157099636Y-95779201D01*
X156990076Y-95708792D01*
X156865117Y-95672100D01*
X156734883Y-95672100D01*
X156609924Y-95708792D01*
X156555144Y-95743996D01*
X156500363Y-95779201D01*
X156415079Y-95877626D01*
X156360977Y-95996091D01*
X156360976Y-95996095D01*
X156342443Y-96124998D01*
X153889624Y-96124998D01*
X153947905Y-96057738D01*
X154002007Y-95939273D01*
X154020541Y-95810364D01*
X154002007Y-95681455D01*
X153947905Y-95562990D01*
X153862620Y-95464565D01*
X153753060Y-95394156D01*
X153628101Y-95357464D01*
X153497867Y-95357464D01*
X153372908Y-95394156D01*
X153338596Y-95416207D01*
X153263347Y-95464565D01*
X153178063Y-95562990D01*
X153123961Y-95681455D01*
X153123960Y-95681459D01*
X153105427Y-95810362D01*
X138325585Y-95810362D01*
X138426048Y-95745799D01*
X138511333Y-95647374D01*
X138565435Y-95528909D01*
X138583969Y-95400000D01*
X138580936Y-95378908D01*
X138569214Y-95297374D01*
X138567059Y-95282388D01*
X138575326Y-95249998D01*
X142917443Y-95249998D01*
X142917443Y-95250001D01*
X142934407Y-95367993D01*
X142935977Y-95378909D01*
X142990079Y-95497374D01*
X143075364Y-95595799D01*
X143184924Y-95666208D01*
X143309883Y-95702900D01*
X143309885Y-95702900D01*
X143440115Y-95702900D01*
X143440117Y-95702900D01*
X143565076Y-95666208D01*
X143674636Y-95595799D01*
X143759921Y-95497374D01*
X143814023Y-95378909D01*
X143832557Y-95250000D01*
X143832179Y-95247374D01*
X143822629Y-95180949D01*
X143814023Y-95121091D01*
X143781555Y-95049998D01*
X145490043Y-95049998D01*
X145490043Y-95050001D01*
X145500264Y-95121094D01*
X145508577Y-95178909D01*
X145562679Y-95297374D01*
X145647964Y-95395799D01*
X145757524Y-95466208D01*
X145882483Y-95502900D01*
X145882485Y-95502900D01*
X146012715Y-95502900D01*
X146012717Y-95502900D01*
X146137676Y-95466208D01*
X146247236Y-95395799D01*
X146332521Y-95297374D01*
X146386623Y-95178909D01*
X146405157Y-95050000D01*
X146397968Y-94999998D01*
X146594843Y-94999998D01*
X146594843Y-95000001D01*
X146610539Y-95109174D01*
X146613377Y-95128909D01*
X146667479Y-95247374D01*
X146752764Y-95345799D01*
X146862324Y-95416208D01*
X146987283Y-95452900D01*
X146987285Y-95452900D01*
X147117515Y-95452900D01*
X147117517Y-95452900D01*
X147242476Y-95416208D01*
X147352036Y-95345799D01*
X147383184Y-95309852D01*
X155469842Y-95309852D01*
X155469842Y-95309855D01*
X155482802Y-95399998D01*
X155488376Y-95438763D01*
X155542478Y-95557228D01*
X155627763Y-95655653D01*
X155737323Y-95726062D01*
X155862282Y-95762754D01*
X155862284Y-95762754D01*
X155992514Y-95762754D01*
X155992516Y-95762754D01*
X156117475Y-95726062D01*
X156227035Y-95655653D01*
X156312320Y-95557228D01*
X156366422Y-95438763D01*
X156384956Y-95309854D01*
X156383769Y-95301600D01*
X156378778Y-95266884D01*
X156369506Y-95202398D01*
X157023483Y-95202398D01*
X157023483Y-95202401D01*
X157037745Y-95301600D01*
X157042017Y-95331309D01*
X157096119Y-95449774D01*
X157181404Y-95548199D01*
X157290964Y-95618608D01*
X157415923Y-95655300D01*
X157415925Y-95655300D01*
X157546155Y-95655300D01*
X157546157Y-95655300D01*
X157671116Y-95618608D01*
X157780676Y-95548199D01*
X157865961Y-95449774D01*
X157920063Y-95331309D01*
X157938597Y-95202400D01*
X157935219Y-95178908D01*
X157928031Y-95128909D01*
X157920063Y-95073491D01*
X157865961Y-94955026D01*
X157780676Y-94856601D01*
X157671116Y-94786192D01*
X157546157Y-94749500D01*
X157415923Y-94749500D01*
X157290964Y-94786192D01*
X157273991Y-94797100D01*
X157181403Y-94856601D01*
X157096119Y-94955026D01*
X157042017Y-95073491D01*
X157042016Y-95073495D01*
X157023483Y-95202398D01*
X156369506Y-95202398D01*
X156366422Y-95180945D01*
X156312320Y-95062480D01*
X156227035Y-94964055D01*
X156117475Y-94893646D01*
X155992516Y-94856954D01*
X155862282Y-94856954D01*
X155737323Y-94893646D01*
X155715615Y-94907597D01*
X155627762Y-94964055D01*
X155542478Y-95062480D01*
X155488376Y-95180945D01*
X155488375Y-95180949D01*
X155469842Y-95309852D01*
X147383184Y-95309852D01*
X147437321Y-95247374D01*
X147491423Y-95128909D01*
X147508875Y-95007528D01*
X147509957Y-95000001D01*
X147509957Y-94999998D01*
X147498612Y-94921091D01*
X147491423Y-94871091D01*
X147437321Y-94752626D01*
X147352036Y-94654201D01*
X147242476Y-94583792D01*
X147117517Y-94547100D01*
X146987283Y-94547100D01*
X146862324Y-94583792D01*
X146807544Y-94618996D01*
X146752763Y-94654201D01*
X146667479Y-94752626D01*
X146613377Y-94871091D01*
X146613376Y-94871095D01*
X146594843Y-94999998D01*
X146397968Y-94999998D01*
X146386623Y-94921091D01*
X146332521Y-94802626D01*
X146247236Y-94704201D01*
X146137676Y-94633792D01*
X146012717Y-94597100D01*
X145882483Y-94597100D01*
X145757524Y-94633792D01*
X145725767Y-94654201D01*
X145647963Y-94704201D01*
X145562679Y-94802626D01*
X145508577Y-94921091D01*
X145508576Y-94921095D01*
X145490043Y-95049998D01*
X143781555Y-95049998D01*
X143759921Y-95002626D01*
X143674636Y-94904201D01*
X143565076Y-94833792D01*
X143440117Y-94797100D01*
X143309883Y-94797100D01*
X143184924Y-94833792D01*
X143130144Y-94868996D01*
X143075363Y-94904201D01*
X142992356Y-94999998D01*
X142990079Y-95002626D01*
X142935977Y-95121091D01*
X142927371Y-95180949D01*
X142917443Y-95249998D01*
X138575326Y-95249998D01*
X138576485Y-95245458D01*
X138609265Y-95226009D01*
X138616352Y-95225502D01*
X138746405Y-95225502D01*
X138746407Y-95225502D01*
X138871366Y-95188810D01*
X138980926Y-95118401D01*
X139034259Y-95056850D01*
X139068341Y-95039789D01*
X139104506Y-95051825D01*
X139109531Y-95056850D01*
X139162861Y-95118396D01*
X139162864Y-95118399D01*
X139272424Y-95188808D01*
X139397383Y-95225500D01*
X139397385Y-95225500D01*
X139527615Y-95225500D01*
X139527617Y-95225500D01*
X139652576Y-95188808D01*
X139762136Y-95118399D01*
X139847421Y-95019974D01*
X139901523Y-94901509D01*
X139920057Y-94772600D01*
X139901523Y-94643691D01*
X139847421Y-94525226D01*
X139762136Y-94426801D01*
X139652576Y-94356392D01*
X139527617Y-94319700D01*
X139397383Y-94319700D01*
X139272424Y-94356392D01*
X139262945Y-94362484D01*
X139162861Y-94426803D01*
X139109529Y-94488351D01*
X139075445Y-94505412D01*
X139039281Y-94493375D01*
X139034264Y-94488359D01*
X138980926Y-94426803D01*
X138871366Y-94356394D01*
X138746407Y-94319702D01*
X138616173Y-94319702D01*
X138491214Y-94356394D01*
X138481738Y-94362484D01*
X138381653Y-94426803D01*
X138296369Y-94525228D01*
X138242267Y-94643693D01*
X138242266Y-94643697D01*
X138223733Y-94772600D01*
X138223733Y-94772603D01*
X138225687Y-94786192D01*
X138237893Y-94871091D01*
X138240643Y-94890213D01*
X138231217Y-94927144D01*
X138198437Y-94946593D01*
X138191350Y-94947100D01*
X138061295Y-94947100D01*
X137936336Y-94983792D01*
X137899402Y-95007528D01*
X137826775Y-95054201D01*
X137741491Y-95152626D01*
X137687389Y-95271091D01*
X137687388Y-95271095D01*
X137668855Y-95399998D01*
X136058626Y-95399998D01*
X136108938Y-95367665D01*
X136194223Y-95269240D01*
X136248325Y-95150775D01*
X136266859Y-95021866D01*
X136266587Y-95019976D01*
X136256109Y-94947100D01*
X136248325Y-94892957D01*
X136194223Y-94774492D01*
X136108938Y-94676067D01*
X135999378Y-94605658D01*
X135874419Y-94568966D01*
X135744185Y-94568966D01*
X135619226Y-94605658D01*
X135575448Y-94633792D01*
X135509665Y-94676067D01*
X135424381Y-94774492D01*
X135370279Y-94892957D01*
X135370278Y-94892961D01*
X135351745Y-95021864D01*
X123993736Y-95021864D01*
X123989060Y-94971415D01*
X123933110Y-94774773D01*
X123841977Y-94591751D01*
X123841976Y-94591748D01*
X123718771Y-94428599D01*
X123718766Y-94428593D01*
X123594895Y-94315670D01*
X134005004Y-94315670D01*
X134005004Y-94315673D01*
X134020981Y-94426801D01*
X134023538Y-94444581D01*
X134077640Y-94563046D01*
X134162925Y-94661471D01*
X134272485Y-94731880D01*
X134397444Y-94768572D01*
X134397446Y-94768572D01*
X134527676Y-94768572D01*
X134527678Y-94768572D01*
X134652637Y-94731880D01*
X134762197Y-94661471D01*
X134847482Y-94563046D01*
X134880208Y-94491387D01*
X136369842Y-94491387D01*
X136369842Y-94491390D01*
X136385040Y-94597100D01*
X136388376Y-94620298D01*
X136442478Y-94738763D01*
X136527763Y-94837188D01*
X136637323Y-94907597D01*
X136762282Y-94944289D01*
X136762284Y-94944289D01*
X136892514Y-94944289D01*
X136892516Y-94944289D01*
X137017475Y-94907597D01*
X137127035Y-94837188D01*
X137212320Y-94738763D01*
X137266422Y-94620298D01*
X137282940Y-94505412D01*
X137284956Y-94491390D01*
X137284956Y-94491387D01*
X137275670Y-94426801D01*
X137266422Y-94362480D01*
X137212320Y-94244015D01*
X137127035Y-94145590D01*
X137017475Y-94075181D01*
X136892516Y-94038489D01*
X136762282Y-94038489D01*
X136637323Y-94075181D01*
X136584126Y-94109368D01*
X136527762Y-94145590D01*
X136442478Y-94244015D01*
X136388376Y-94362480D01*
X136388375Y-94362484D01*
X136369842Y-94491387D01*
X134880208Y-94491387D01*
X134901584Y-94444581D01*
X134920118Y-94315672D01*
X134919294Y-94309944D01*
X134905610Y-94214766D01*
X134901584Y-94186763D01*
X134847482Y-94068298D01*
X134762197Y-93969873D01*
X134652637Y-93899464D01*
X134527678Y-93862772D01*
X134397444Y-93862772D01*
X134272485Y-93899464D01*
X134217705Y-93934668D01*
X134162924Y-93969873D01*
X134077640Y-94068298D01*
X134023538Y-94186763D01*
X134023537Y-94186767D01*
X134005004Y-94315670D01*
X123594895Y-94315670D01*
X123567674Y-94290855D01*
X123393847Y-94183226D01*
X123203199Y-94109368D01*
X123026600Y-94076355D01*
X123026600Y-94691284D01*
X122965826Y-94675000D01*
X122834174Y-94675000D01*
X122773400Y-94691284D01*
X122773400Y-94076356D01*
X122773399Y-94076355D01*
X122596800Y-94109368D01*
X122406152Y-94183226D01*
X122232325Y-94290855D01*
X122081233Y-94428593D01*
X122081228Y-94428599D01*
X121958023Y-94591748D01*
X121958022Y-94591751D01*
X121866889Y-94774773D01*
X121810939Y-94971415D01*
X121803805Y-95048400D01*
X121699312Y-95048400D01*
X121731777Y-93322599D01*
X136773732Y-93322599D01*
X136773732Y-93322601D01*
X136792266Y-93451510D01*
X136846368Y-93569975D01*
X136931653Y-93668400D01*
X137041213Y-93738809D01*
X137166172Y-93775501D01*
X137166174Y-93775501D01*
X137296404Y-93775501D01*
X137296406Y-93775501D01*
X137421365Y-93738809D01*
X137530925Y-93668400D01*
X137616210Y-93569975D01*
X137670312Y-93451510D01*
X137688846Y-93322601D01*
X137684332Y-93291208D01*
X137674209Y-93220798D01*
X137670312Y-93193692D01*
X137616210Y-93075227D01*
X137530925Y-92976802D01*
X137421365Y-92906393D01*
X137296406Y-92869701D01*
X137166172Y-92869701D01*
X137041213Y-92906393D01*
X136986433Y-92941597D01*
X136931652Y-92976802D01*
X136846368Y-93075227D01*
X136792266Y-93193692D01*
X136792265Y-93193696D01*
X136773732Y-93322599D01*
X121731777Y-93322599D01*
X121748546Y-92431210D01*
X140911231Y-92431210D01*
X140911231Y-92431213D01*
X140927750Y-92546111D01*
X140929765Y-92560121D01*
X140983867Y-92678586D01*
X141069152Y-92777011D01*
X141178712Y-92847420D01*
X141303671Y-92884112D01*
X141303673Y-92884112D01*
X141433903Y-92884112D01*
X141433905Y-92884112D01*
X141464944Y-92874998D01*
X156792443Y-92874998D01*
X156792443Y-92875001D01*
X156807079Y-92976802D01*
X156810977Y-93003909D01*
X156865079Y-93122374D01*
X156950364Y-93220799D01*
X157059924Y-93291208D01*
X157184883Y-93327900D01*
X157184885Y-93327900D01*
X157315115Y-93327900D01*
X157315117Y-93327900D01*
X157440076Y-93291208D01*
X157549636Y-93220799D01*
X157634921Y-93122374D01*
X157689023Y-93003909D01*
X157707557Y-92875000D01*
X157689023Y-92746091D01*
X157634921Y-92627626D01*
X157549636Y-92529201D01*
X157440076Y-92458792D01*
X157315117Y-92422100D01*
X157184883Y-92422100D01*
X157059924Y-92458792D01*
X157033610Y-92475703D01*
X156950363Y-92529201D01*
X156865079Y-92627626D01*
X156810977Y-92746091D01*
X156810976Y-92746095D01*
X156792443Y-92874998D01*
X141464944Y-92874998D01*
X141558864Y-92847420D01*
X141668424Y-92777011D01*
X141753709Y-92678586D01*
X141807811Y-92560121D01*
X141826345Y-92431212D01*
X141825942Y-92428412D01*
X141812293Y-92333476D01*
X141812293Y-92333474D01*
X141942995Y-92333474D01*
X141942995Y-92333477D01*
X141956644Y-92428412D01*
X141961529Y-92462385D01*
X142015631Y-92580850D01*
X142100916Y-92679275D01*
X142210476Y-92749684D01*
X142335435Y-92786376D01*
X142335437Y-92786376D01*
X142465667Y-92786376D01*
X142465669Y-92786376D01*
X142590628Y-92749684D01*
X142700188Y-92679275D01*
X142785473Y-92580850D01*
X142825633Y-92492912D01*
X142853529Y-92466942D01*
X142891620Y-92468302D01*
X142916231Y-92492913D01*
X142934986Y-92533980D01*
X143020271Y-92632405D01*
X143129831Y-92702814D01*
X143254790Y-92739506D01*
X143254792Y-92739506D01*
X143385022Y-92739506D01*
X143385024Y-92739506D01*
X143509983Y-92702814D01*
X143619543Y-92632405D01*
X143704828Y-92533980D01*
X143758930Y-92415515D01*
X143777464Y-92286606D01*
X143773467Y-92258809D01*
X143765669Y-92204567D01*
X143758930Y-92157697D01*
X143731191Y-92096960D01*
X143729831Y-92058872D01*
X143755802Y-92030975D01*
X143762453Y-92028493D01*
X143812354Y-92013842D01*
X143921914Y-91943433D01*
X143926812Y-91937779D01*
X143960895Y-91920717D01*
X143997060Y-91932752D01*
X144002086Y-91937778D01*
X144067996Y-92013842D01*
X144071367Y-92017732D01*
X144180927Y-92088141D01*
X144305886Y-92124833D01*
X144305888Y-92124833D01*
X144436119Y-92124833D01*
X144436120Y-92124833D01*
X144451560Y-92120299D01*
X144489456Y-92124372D01*
X144513373Y-92154049D01*
X144514884Y-92160993D01*
X144527682Y-92250001D01*
X144528949Y-92258813D01*
X144583051Y-92377278D01*
X144668336Y-92475703D01*
X144777896Y-92546112D01*
X144902855Y-92582804D01*
X144902857Y-92582804D01*
X145033087Y-92582804D01*
X145033089Y-92582804D01*
X145158048Y-92546112D01*
X145267608Y-92475703D01*
X145267609Y-92475701D01*
X145267635Y-92475685D01*
X145305145Y-92468917D01*
X145336453Y-92490655D01*
X145339858Y-92496891D01*
X145340079Y-92497374D01*
X145425364Y-92595799D01*
X145534924Y-92666208D01*
X145659883Y-92702900D01*
X145659885Y-92702900D01*
X145790115Y-92702900D01*
X145790117Y-92702900D01*
X145915076Y-92666208D01*
X146024636Y-92595799D01*
X146109921Y-92497374D01*
X146164023Y-92378909D01*
X146181290Y-92258812D01*
X146182557Y-92250001D01*
X146182557Y-92249998D01*
X146173282Y-92185493D01*
X147263964Y-92185493D01*
X147263964Y-92185496D01*
X147280758Y-92302307D01*
X147282498Y-92314404D01*
X147336600Y-92432869D01*
X147421885Y-92531294D01*
X147531445Y-92601703D01*
X147656404Y-92638395D01*
X147656406Y-92638395D01*
X147786636Y-92638395D01*
X147786638Y-92638395D01*
X147911597Y-92601703D01*
X148021157Y-92531294D01*
X148106442Y-92432869D01*
X148160544Y-92314404D01*
X148179078Y-92185495D01*
X148160544Y-92056586D01*
X148106442Y-91938121D01*
X148021157Y-91839696D01*
X147911597Y-91769287D01*
X147786638Y-91732595D01*
X147656404Y-91732595D01*
X147531445Y-91769287D01*
X147503452Y-91787277D01*
X147421884Y-91839696D01*
X147336600Y-91938121D01*
X147282498Y-92056586D01*
X147282497Y-92056590D01*
X147263964Y-92185493D01*
X146173282Y-92185493D01*
X146164023Y-92121091D01*
X146109921Y-92002626D01*
X146024636Y-91904201D01*
X145915076Y-91833792D01*
X145790117Y-91797100D01*
X145659883Y-91797100D01*
X145576577Y-91821561D01*
X145534923Y-91833792D01*
X145425335Y-91904219D01*
X145387826Y-91910986D01*
X145356517Y-91889247D01*
X145353109Y-91883004D01*
X145352893Y-91882530D01*
X145267608Y-91784105D01*
X145158048Y-91713696D01*
X145033089Y-91677004D01*
X144902855Y-91677004D01*
X144902850Y-91677004D01*
X144887410Y-91681538D01*
X144849514Y-91677462D01*
X144825599Y-91647783D01*
X144824091Y-91640853D01*
X144810026Y-91543024D01*
X144755924Y-91424559D01*
X144670639Y-91326134D01*
X144561079Y-91255725D01*
X144436120Y-91219033D01*
X144305886Y-91219033D01*
X144180927Y-91255725D01*
X144074526Y-91324104D01*
X144071364Y-91326136D01*
X144066463Y-91331792D01*
X144032378Y-91348850D01*
X143996215Y-91336810D01*
X143991199Y-91331795D01*
X143921914Y-91251835D01*
X143833784Y-91195198D01*
X146698410Y-91195198D01*
X146698410Y-91195201D01*
X146701836Y-91219033D01*
X146716944Y-91324109D01*
X146771046Y-91442574D01*
X146856331Y-91540999D01*
X146965891Y-91611408D01*
X147090850Y-91648100D01*
X147090852Y-91648100D01*
X147221082Y-91648100D01*
X147221084Y-91648100D01*
X147346043Y-91611408D01*
X147455603Y-91540999D01*
X147540888Y-91442574D01*
X147594990Y-91324109D01*
X147613524Y-91195200D01*
X147594990Y-91066291D01*
X147540888Y-90947826D01*
X147455603Y-90849401D01*
X147346043Y-90778992D01*
X147221084Y-90742300D01*
X147090850Y-90742300D01*
X146965891Y-90778992D01*
X146911111Y-90814196D01*
X146856330Y-90849401D01*
X146771046Y-90947826D01*
X146716944Y-91066291D01*
X146716943Y-91066295D01*
X146698410Y-91195198D01*
X143833784Y-91195198D01*
X143812354Y-91181426D01*
X143687395Y-91144734D01*
X143557161Y-91144734D01*
X143432202Y-91181426D01*
X143377422Y-91216630D01*
X143322641Y-91251835D01*
X143237357Y-91350260D01*
X143183255Y-91468725D01*
X143183254Y-91468729D01*
X143164721Y-91597632D01*
X143164721Y-91597635D01*
X143183254Y-91726538D01*
X143183255Y-91726542D01*
X143210992Y-91787277D01*
X143212352Y-91825368D01*
X143186380Y-91853265D01*
X143179723Y-91855747D01*
X143129835Y-91870396D01*
X143129832Y-91870397D01*
X143129831Y-91870398D01*
X143104603Y-91886611D01*
X143020270Y-91940807D01*
X142934984Y-92039234D01*
X142934983Y-92039236D01*
X142894825Y-92127167D01*
X142866929Y-92153139D01*
X142828838Y-92151778D01*
X142804227Y-92127167D01*
X142785473Y-92086102D01*
X142700188Y-91987677D01*
X142590628Y-91917268D01*
X142465669Y-91880576D01*
X142335435Y-91880576D01*
X142210476Y-91917268D01*
X142178028Y-91938121D01*
X142100915Y-91987677D01*
X142015631Y-92086102D01*
X141961529Y-92204567D01*
X141961528Y-92204571D01*
X141942995Y-92333474D01*
X141812293Y-92333474D01*
X141807811Y-92302303D01*
X141753709Y-92183838D01*
X141668424Y-92085413D01*
X141558864Y-92015004D01*
X141433905Y-91978312D01*
X141303671Y-91978312D01*
X141178712Y-92015004D01*
X141141012Y-92039232D01*
X141069151Y-92085413D01*
X140983867Y-92183838D01*
X140929765Y-92302303D01*
X140929764Y-92302307D01*
X140911231Y-92431210D01*
X121748546Y-92431210D01*
X121774651Y-91043520D01*
X121787368Y-91011210D01*
X123561458Y-89033201D01*
X146463822Y-89033201D01*
X146482356Y-89162110D01*
X146536458Y-89280575D01*
X146621743Y-89379000D01*
X146731303Y-89449409D01*
X146856262Y-89486101D01*
X146856264Y-89486101D01*
X146986494Y-89486101D01*
X146986496Y-89486101D01*
X147111455Y-89449409D01*
X147221015Y-89379000D01*
X147306300Y-89280575D01*
X147360402Y-89162110D01*
X147378936Y-89033201D01*
X147360402Y-88904292D01*
X147306300Y-88785827D01*
X147221015Y-88687402D01*
X147111455Y-88616993D01*
X146986496Y-88580301D01*
X146856262Y-88580301D01*
X146731303Y-88616993D01*
X146676523Y-88652197D01*
X146621742Y-88687402D01*
X146536458Y-88785827D01*
X146482356Y-88904292D01*
X146463822Y-89033201D01*
X123561458Y-89033201D01*
X128285330Y-83766355D01*
X128319698Y-83749881D01*
X128321946Y-83749810D01*
X139850031Y-83650430D01*
X139885368Y-83664712D01*
G37*
%TD.AperFunction*%
%TD*%
%TA.AperFunction,Conductor*%
%TO.N,+5V*%
G36*
X177549282Y-98707017D02*
G01*
X177616937Y-98726882D01*
X177616941Y-98726883D01*
X177629834Y-98732771D01*
X177659489Y-98751830D01*
X177689143Y-98770887D01*
X177699855Y-98780168D01*
X177722944Y-98806814D01*
X177746032Y-98833460D01*
X177753694Y-98845384D01*
X177782985Y-98909520D01*
X177786979Y-98923120D01*
X177797014Y-98992911D01*
X177797014Y-99007087D01*
X177786979Y-99076878D01*
X177782985Y-99090478D01*
X177753694Y-99154614D01*
X177746032Y-99166538D01*
X177699856Y-99219829D01*
X177689143Y-99229111D01*
X177629835Y-99267226D01*
X177616942Y-99273115D01*
X177549282Y-99292983D01*
X177535251Y-99295000D01*
X177464748Y-99295000D01*
X177450718Y-99292983D01*
X177432286Y-99287571D01*
X177383057Y-99273115D01*
X177370164Y-99267227D01*
X177310850Y-99229108D01*
X177300142Y-99219829D01*
X177253966Y-99166538D01*
X177246304Y-99154614D01*
X177217012Y-99090475D01*
X177213018Y-99076874D01*
X177212371Y-99072373D01*
X177202984Y-99007080D01*
X177202984Y-98992919D01*
X177213019Y-98923119D01*
X177217012Y-98909524D01*
X177246306Y-98845381D01*
X177253968Y-98833458D01*
X177300139Y-98780172D01*
X177310847Y-98770893D01*
X177340510Y-98751831D01*
X177370172Y-98732768D01*
X177383060Y-98726883D01*
X177450718Y-98707017D01*
X177464748Y-98705000D01*
X177535252Y-98705000D01*
X177549282Y-98707017D01*
G37*
%TD.AperFunction*%
%TA.AperFunction,Conductor*%
G36*
X174842173Y-77355552D02*
G01*
X177940381Y-80453747D01*
X177941079Y-80454459D01*
X179083885Y-81643959D01*
X184326112Y-87100376D01*
X184340000Y-87134878D01*
X184340000Y-117084415D01*
X184325414Y-117119629D01*
X180799544Y-120645498D01*
X180784000Y-120683024D01*
X180784000Y-127100690D01*
X180769414Y-127135904D01*
X180764970Y-127140348D01*
X180729756Y-127154934D01*
X116551844Y-127154934D01*
X116516630Y-127140348D01*
X116105786Y-126729504D01*
X116091200Y-126694290D01*
X116091200Y-124056132D01*
X125587661Y-124056132D01*
X125587661Y-124056135D01*
X125607316Y-124192837D01*
X125607317Y-124192842D01*
X125664691Y-124318475D01*
X125664692Y-124318476D01*
X125755134Y-124422852D01*
X125755136Y-124422853D01*
X125871317Y-124497519D01*
X125871318Y-124497519D01*
X125871324Y-124497523D01*
X126003843Y-124536434D01*
X126003844Y-124536434D01*
X126141956Y-124536434D01*
X126141957Y-124536434D01*
X126274476Y-124497523D01*
X126390664Y-124422853D01*
X126481109Y-124318474D01*
X126538483Y-124192842D01*
X126558139Y-124056134D01*
X126558139Y-124056132D01*
X128051461Y-124056132D01*
X128051461Y-124056135D01*
X128071116Y-124192837D01*
X128071117Y-124192842D01*
X128128491Y-124318475D01*
X128128492Y-124318476D01*
X128218934Y-124422852D01*
X128218936Y-124422853D01*
X128335117Y-124497519D01*
X128335118Y-124497519D01*
X128335124Y-124497523D01*
X128467643Y-124536434D01*
X128467644Y-124536434D01*
X128605756Y-124536434D01*
X128605757Y-124536434D01*
X128738276Y-124497523D01*
X128854464Y-124422853D01*
X128944909Y-124318474D01*
X129002283Y-124192842D01*
X129008443Y-124149998D01*
X160542443Y-124149998D01*
X160542443Y-124150001D01*
X160548602Y-124192842D01*
X160560977Y-124278909D01*
X160615079Y-124397374D01*
X160700364Y-124495799D01*
X160809924Y-124566208D01*
X160934883Y-124602900D01*
X160934885Y-124602900D01*
X161065115Y-124602900D01*
X161065117Y-124602900D01*
X161190076Y-124566208D01*
X161299636Y-124495799D01*
X161384921Y-124397374D01*
X161439023Y-124278909D01*
X161457557Y-124150000D01*
X161439023Y-124021091D01*
X161384921Y-123902626D01*
X161299636Y-123804201D01*
X161190076Y-123733792D01*
X161065117Y-123697100D01*
X160934883Y-123697100D01*
X160809924Y-123733792D01*
X160780191Y-123752900D01*
X160700363Y-123804201D01*
X160615079Y-123902626D01*
X160560977Y-124021091D01*
X160560976Y-124021095D01*
X160542443Y-124149998D01*
X129008443Y-124149998D01*
X129021939Y-124056134D01*
X129016900Y-124021091D01*
X129015387Y-124010564D01*
X129002283Y-123919426D01*
X128944909Y-123793794D01*
X128944908Y-123793793D01*
X128944908Y-123793792D01*
X128944907Y-123793791D01*
X128854465Y-123689415D01*
X128854463Y-123689414D01*
X128738282Y-123614748D01*
X128738278Y-123614746D01*
X128738276Y-123614745D01*
X128605757Y-123575834D01*
X128467643Y-123575834D01*
X128335124Y-123614745D01*
X128335122Y-123614745D01*
X128335117Y-123614748D01*
X128218936Y-123689414D01*
X128218934Y-123689415D01*
X128128492Y-123793791D01*
X128128491Y-123793792D01*
X128071117Y-123919425D01*
X128071116Y-123919430D01*
X128051461Y-124056132D01*
X126558139Y-124056132D01*
X126553100Y-124021091D01*
X126551587Y-124010564D01*
X126538483Y-123919426D01*
X126481109Y-123793794D01*
X126481108Y-123793793D01*
X126481108Y-123793792D01*
X126481107Y-123793791D01*
X126390665Y-123689415D01*
X126390663Y-123689414D01*
X126274482Y-123614748D01*
X126274478Y-123614746D01*
X126274476Y-123614745D01*
X126141957Y-123575834D01*
X126003843Y-123575834D01*
X125871324Y-123614745D01*
X125871322Y-123614745D01*
X125871317Y-123614748D01*
X125755136Y-123689414D01*
X125755134Y-123689415D01*
X125664692Y-123793791D01*
X125664691Y-123793792D01*
X125607317Y-123919425D01*
X125607316Y-123919430D01*
X125587661Y-124056132D01*
X116091200Y-124056132D01*
X116091200Y-123299998D01*
X152520343Y-123299998D01*
X152520343Y-123300001D01*
X152537315Y-123418050D01*
X152538877Y-123428909D01*
X152592979Y-123547374D01*
X152678264Y-123645799D01*
X152787824Y-123716208D01*
X152912783Y-123752900D01*
X152912785Y-123752900D01*
X153043015Y-123752900D01*
X153043017Y-123752900D01*
X153167976Y-123716208D01*
X153277536Y-123645799D01*
X153362821Y-123547374D01*
X153416923Y-123428909D01*
X153421079Y-123400000D01*
X175942443Y-123400000D01*
X175960977Y-123528909D01*
X176015079Y-123647374D01*
X176100364Y-123745799D01*
X176209924Y-123816208D01*
X176334883Y-123852900D01*
X176334885Y-123852900D01*
X176465115Y-123852900D01*
X176465117Y-123852900D01*
X176590076Y-123816208D01*
X176699636Y-123745799D01*
X176730636Y-123710021D01*
X176764719Y-123692960D01*
X176800884Y-123704996D01*
X176805903Y-123710014D01*
X176852550Y-123763848D01*
X176962110Y-123834257D01*
X177087069Y-123870949D01*
X177087071Y-123870949D01*
X177217301Y-123870949D01*
X177217303Y-123870949D01*
X177342262Y-123834257D01*
X177451822Y-123763848D01*
X177537107Y-123665423D01*
X177591209Y-123546958D01*
X177609743Y-123418049D01*
X177591209Y-123289140D01*
X177537107Y-123170675D01*
X177451822Y-123072250D01*
X177342262Y-123001841D01*
X177217303Y-122965149D01*
X177087069Y-122965149D01*
X176962110Y-123001841D01*
X176852550Y-123072250D01*
X176852549Y-123072250D01*
X176852549Y-123072251D01*
X176821548Y-123108027D01*
X176787464Y-123125087D01*
X176751299Y-123113050D01*
X176746276Y-123108026D01*
X176699638Y-123054203D01*
X176699637Y-123054202D01*
X176699636Y-123054201D01*
X176590076Y-122983792D01*
X176465117Y-122947100D01*
X176334883Y-122947100D01*
X176209924Y-122983792D01*
X176181839Y-123001841D01*
X176100363Y-123054201D01*
X176015079Y-123152626D01*
X175960977Y-123271091D01*
X175960976Y-123271095D01*
X175956820Y-123300001D01*
X175942443Y-123400000D01*
X153421079Y-123400000D01*
X153435457Y-123300000D01*
X153416923Y-123171091D01*
X153362821Y-123052626D01*
X153277536Y-122954201D01*
X153167976Y-122883792D01*
X153043017Y-122847100D01*
X152912783Y-122847100D01*
X152787824Y-122883792D01*
X152733044Y-122918996D01*
X152678263Y-122954201D01*
X152592979Y-123052626D01*
X152538877Y-123171091D01*
X152538876Y-123171095D01*
X152520343Y-123299998D01*
X116091200Y-123299998D01*
X116091200Y-122313950D01*
X153506393Y-122313950D01*
X153524927Y-122442859D01*
X153579029Y-122561324D01*
X153664314Y-122659749D01*
X153773874Y-122730158D01*
X153898833Y-122766850D01*
X153898835Y-122766850D01*
X154029065Y-122766850D01*
X154029067Y-122766850D01*
X154154026Y-122730158D01*
X154263586Y-122659749D01*
X154348871Y-122561324D01*
X154402973Y-122442859D01*
X154421507Y-122313950D01*
X154402973Y-122185041D01*
X154348871Y-122066576D01*
X154263586Y-121968151D01*
X154154026Y-121897742D01*
X154029067Y-121861050D01*
X153898833Y-121861050D01*
X153773874Y-121897742D01*
X153740002Y-121919510D01*
X153664313Y-121968151D01*
X153579029Y-122066576D01*
X153524927Y-122185041D01*
X153524926Y-122185045D01*
X153516521Y-122243506D01*
X153506393Y-122313950D01*
X116091200Y-122313950D01*
X116091200Y-121790604D01*
X151351837Y-121790604D01*
X151351837Y-121790607D01*
X151367240Y-121897742D01*
X151370371Y-121919515D01*
X151424473Y-122037980D01*
X151509758Y-122136405D01*
X151619318Y-122206814D01*
X151744277Y-122243506D01*
X151744279Y-122243506D01*
X151874509Y-122243506D01*
X151874511Y-122243506D01*
X151999470Y-122206814D01*
X152109030Y-122136405D01*
X152194315Y-122037980D01*
X152248417Y-121919515D01*
X152266951Y-121790606D01*
X152248417Y-121661697D01*
X152194315Y-121543232D01*
X152109030Y-121444807D01*
X151999470Y-121374398D01*
X151874511Y-121337706D01*
X151744277Y-121337706D01*
X151619318Y-121374398D01*
X151564538Y-121409602D01*
X151509757Y-121444807D01*
X151424473Y-121543232D01*
X151370371Y-121661697D01*
X151370370Y-121661701D01*
X151351837Y-121790604D01*
X116091200Y-121790604D01*
X116091200Y-121239790D01*
X141582233Y-121239790D01*
X141600767Y-121368699D01*
X141654869Y-121487164D01*
X141740154Y-121585589D01*
X141849714Y-121655998D01*
X141974673Y-121692690D01*
X141974675Y-121692690D01*
X142104905Y-121692690D01*
X142104907Y-121692690D01*
X142229866Y-121655998D01*
X142339426Y-121585589D01*
X142424711Y-121487164D01*
X142478813Y-121368699D01*
X142497347Y-121239790D01*
X142478813Y-121110881D01*
X142424711Y-120992416D01*
X142339426Y-120893991D01*
X142229866Y-120823582D01*
X142104907Y-120786890D01*
X141974673Y-120786890D01*
X141849714Y-120823582D01*
X141812909Y-120847235D01*
X141740153Y-120893991D01*
X141654869Y-120992416D01*
X141600767Y-121110881D01*
X141582233Y-121239790D01*
X116091200Y-121239790D01*
X116091200Y-120784636D01*
X116091200Y-120784635D01*
X116075656Y-120747109D01*
X116046935Y-120718388D01*
X115509758Y-120181211D01*
X157742444Y-120181211D01*
X157760978Y-120310120D01*
X157815080Y-120428585D01*
X157900365Y-120527010D01*
X158009925Y-120597419D01*
X158134884Y-120634111D01*
X158134886Y-120634111D01*
X158265116Y-120634111D01*
X158265118Y-120634111D01*
X158390077Y-120597419D01*
X158499637Y-120527010D01*
X158584922Y-120428585D01*
X158639024Y-120310120D01*
X158657558Y-120181211D01*
X158639024Y-120052302D01*
X158584922Y-119933837D01*
X158499637Y-119835412D01*
X158390077Y-119765003D01*
X158265118Y-119728311D01*
X158134884Y-119728311D01*
X158009925Y-119765003D01*
X157955145Y-119800207D01*
X157900364Y-119835412D01*
X157815080Y-119933837D01*
X157760978Y-120052302D01*
X157742444Y-120181211D01*
X115509758Y-120181211D01*
X113837382Y-118508835D01*
X138984996Y-118508835D01*
X138984996Y-118508838D01*
X139002104Y-118627833D01*
X139003530Y-118637746D01*
X139057632Y-118756211D01*
X139142917Y-118854636D01*
X139252477Y-118925045D01*
X139377436Y-118961737D01*
X139377438Y-118961737D01*
X139507668Y-118961737D01*
X139507670Y-118961737D01*
X139593520Y-118936528D01*
X139631413Y-118940602D01*
X139655330Y-118970280D01*
X139656840Y-118977223D01*
X139660707Y-119004116D01*
X139714809Y-119122581D01*
X139800094Y-119221006D01*
X139909654Y-119291415D01*
X140034613Y-119328107D01*
X140034615Y-119328107D01*
X140164845Y-119328107D01*
X140164847Y-119328107D01*
X140289806Y-119291415D01*
X140289809Y-119291412D01*
X140292291Y-119290280D01*
X140330382Y-119288920D01*
X140358277Y-119314891D01*
X140406100Y-119419607D01*
X140437722Y-119456101D01*
X140489804Y-119516208D01*
X140491385Y-119518032D01*
X140600945Y-119588441D01*
X140725904Y-119625133D01*
X140725906Y-119625133D01*
X140856136Y-119625133D01*
X140856138Y-119625133D01*
X140981097Y-119588441D01*
X141090657Y-119518032D01*
X141175942Y-119419607D01*
X141230044Y-119301142D01*
X141248578Y-119172233D01*
X141238192Y-119099998D01*
X158847243Y-119099998D01*
X158847243Y-119100001D01*
X158864640Y-119221006D01*
X158865777Y-119228909D01*
X158919879Y-119347374D01*
X159005164Y-119445799D01*
X159114724Y-119516208D01*
X159239683Y-119552900D01*
X159239685Y-119552900D01*
X159369915Y-119552900D01*
X159369917Y-119552900D01*
X159494876Y-119516208D01*
X159604436Y-119445799D01*
X159689721Y-119347374D01*
X159743823Y-119228909D01*
X159762357Y-119100000D01*
X159743823Y-118971091D01*
X159689721Y-118852626D01*
X159604436Y-118754201D01*
X159494876Y-118683792D01*
X159369917Y-118647100D01*
X159239683Y-118647100D01*
X159114724Y-118683792D01*
X159059944Y-118718996D01*
X159005163Y-118754201D01*
X158919879Y-118852626D01*
X158865777Y-118971091D01*
X158865776Y-118971095D01*
X158847243Y-119099998D01*
X141238192Y-119099998D01*
X141230044Y-119043324D01*
X141175942Y-118924859D01*
X141090657Y-118826434D01*
X140981097Y-118756025D01*
X140856138Y-118719333D01*
X140725904Y-118719333D01*
X140611715Y-118752862D01*
X140600938Y-118756027D01*
X140598456Y-118757161D01*
X140560365Y-118758519D01*
X140532474Y-118732550D01*
X140484651Y-118627833D01*
X140399366Y-118529408D01*
X140289806Y-118458999D01*
X140164847Y-118422307D01*
X140034613Y-118422307D01*
X139948764Y-118447515D01*
X139910867Y-118443440D01*
X139886951Y-118413762D01*
X139885443Y-118406827D01*
X139881576Y-118379928D01*
X139827474Y-118261463D01*
X139742189Y-118163038D01*
X139632629Y-118092629D01*
X139507670Y-118055937D01*
X139377436Y-118055937D01*
X139252477Y-118092629D01*
X139197697Y-118127833D01*
X139142916Y-118163038D01*
X139057632Y-118261463D01*
X139003530Y-118379928D01*
X139003529Y-118379932D01*
X138984996Y-118508835D01*
X113837382Y-118508835D01*
X113228545Y-117899998D01*
X144147243Y-117899998D01*
X144147243Y-117900001D01*
X144157749Y-117973077D01*
X144165777Y-118028909D01*
X144219879Y-118147374D01*
X144305164Y-118245799D01*
X144414724Y-118316208D01*
X144539683Y-118352900D01*
X144539685Y-118352900D01*
X144669915Y-118352900D01*
X144669917Y-118352900D01*
X144794876Y-118316208D01*
X144904436Y-118245799D01*
X144989721Y-118147374D01*
X145043823Y-118028909D01*
X145062357Y-117900000D01*
X145057064Y-117863189D01*
X145052126Y-117828842D01*
X145043823Y-117771091D01*
X144989721Y-117652626D01*
X144904436Y-117554201D01*
X144794876Y-117483792D01*
X144669917Y-117447100D01*
X144539683Y-117447100D01*
X144414724Y-117483792D01*
X144359944Y-117518996D01*
X144305163Y-117554201D01*
X144219879Y-117652626D01*
X144165777Y-117771091D01*
X144165776Y-117771095D01*
X144147243Y-117899998D01*
X113228545Y-117899998D01*
X112676786Y-117348239D01*
X112662200Y-117313025D01*
X112662200Y-112639269D01*
X117759800Y-112639269D01*
X117759800Y-112948199D01*
X117794389Y-113255183D01*
X117794391Y-113255197D01*
X117863132Y-113556371D01*
X117863134Y-113556378D01*
X117965162Y-113847956D01*
X117965165Y-113847964D01*
X118099201Y-114126293D01*
X118099203Y-114126296D01*
X118099205Y-114126299D01*
X118263565Y-114387877D01*
X118456180Y-114629408D01*
X118674626Y-114847854D01*
X118916157Y-115040469D01*
X119177735Y-115204829D01*
X119177737Y-115204830D01*
X119177740Y-115204832D01*
X119439763Y-115331015D01*
X119456071Y-115338869D01*
X119747664Y-115440902D01*
X120048848Y-115509645D01*
X120355835Y-115544234D01*
X120355839Y-115544234D01*
X120664761Y-115544234D01*
X120664765Y-115544234D01*
X120971752Y-115509645D01*
X121095195Y-115481469D01*
X121132771Y-115487853D01*
X121154827Y-115518938D01*
X121156067Y-115530956D01*
X121147263Y-115999062D01*
X121147263Y-115999063D01*
X121143095Y-116220555D01*
X121143068Y-116223108D01*
X121143068Y-116223149D01*
X121143064Y-116224798D01*
X121152559Y-116271095D01*
X121155963Y-116287690D01*
X121155964Y-116287691D01*
X121171046Y-116322682D01*
X121171050Y-116322688D01*
X121192169Y-116358088D01*
X121257719Y-116406913D01*
X121293138Y-116420994D01*
X121353728Y-116432148D01*
X121353728Y-116432147D01*
X121353729Y-116432148D01*
X129384271Y-116317372D01*
X137233542Y-116205188D01*
X137268961Y-116219269D01*
X137284049Y-116254271D01*
X137279554Y-116275670D01*
X137235978Y-116371088D01*
X137235976Y-116371095D01*
X137217443Y-116499998D01*
X137217443Y-116500001D01*
X137219672Y-116515507D01*
X137235977Y-116628909D01*
X137290079Y-116747374D01*
X137375364Y-116845799D01*
X137484924Y-116916208D01*
X137609883Y-116952900D01*
X137609885Y-116952900D01*
X137740115Y-116952900D01*
X137740117Y-116952900D01*
X137865076Y-116916208D01*
X137974636Y-116845799D01*
X138059921Y-116747374D01*
X138114023Y-116628909D01*
X138129468Y-116521484D01*
X138132557Y-116500001D01*
X138132557Y-116499998D01*
X138126379Y-116457030D01*
X138114023Y-116371091D01*
X138064728Y-116263153D01*
X138063368Y-116225063D01*
X138089340Y-116197167D01*
X138109314Y-116192671D01*
X139125222Y-116178151D01*
X139160639Y-116192232D01*
X139175727Y-116227234D01*
X139171233Y-116248632D01*
X139160977Y-116271090D01*
X139160976Y-116271095D01*
X139142443Y-116399998D01*
X139142443Y-116400001D01*
X139156820Y-116500001D01*
X139160977Y-116528909D01*
X139215079Y-116647374D01*
X139300364Y-116745799D01*
X139409924Y-116816208D01*
X139534883Y-116852900D01*
X139534885Y-116852900D01*
X139665115Y-116852900D01*
X139665117Y-116852900D01*
X139790076Y-116816208D01*
X139822645Y-116795276D01*
X139860154Y-116788509D01*
X139891463Y-116810246D01*
X139894866Y-116816478D01*
X139927781Y-116888550D01*
X140013066Y-116986975D01*
X140122626Y-117057384D01*
X140247585Y-117094076D01*
X140247587Y-117094076D01*
X140377817Y-117094076D01*
X140377819Y-117094076D01*
X140490918Y-117060866D01*
X140528812Y-117064940D01*
X140550220Y-117091500D01*
X140551160Y-117091071D01*
X140552638Y-117094308D01*
X140552639Y-117094311D01*
X140606741Y-117212776D01*
X140692026Y-117311201D01*
X140801586Y-117381610D01*
X140926545Y-117418302D01*
X140926547Y-117418302D01*
X141056777Y-117418302D01*
X141056779Y-117418302D01*
X141181738Y-117381610D01*
X141184287Y-117379971D01*
X141221795Y-117373200D01*
X141253106Y-117394934D01*
X141256514Y-117401175D01*
X141301915Y-117500587D01*
X141301916Y-117500589D01*
X141301917Y-117500590D01*
X141301918Y-117500592D01*
X141387203Y-117599017D01*
X141496763Y-117669426D01*
X141621722Y-117706118D01*
X141621724Y-117706118D01*
X141751954Y-117706118D01*
X141751956Y-117706118D01*
X141876915Y-117669426D01*
X141986475Y-117599017D01*
X142071760Y-117500592D01*
X142125862Y-117382127D01*
X142144396Y-117253218D01*
X142125862Y-117124309D01*
X142071760Y-117005844D01*
X141986475Y-116907419D01*
X141876915Y-116837010D01*
X141751956Y-116800318D01*
X141621722Y-116800318D01*
X141542163Y-116823679D01*
X141496762Y-116837010D01*
X141495202Y-116838012D01*
X141494206Y-116838653D01*
X141456697Y-116845418D01*
X141425389Y-116823679D01*
X141421990Y-116817455D01*
X141376583Y-116718028D01*
X141291298Y-116619603D01*
X141181738Y-116549194D01*
X141056779Y-116512502D01*
X140926545Y-116512502D01*
X140813447Y-116545711D01*
X140775550Y-116541636D01*
X140754146Y-116515076D01*
X140753204Y-116515507D01*
X140751725Y-116512269D01*
X140751725Y-116512267D01*
X140697623Y-116393802D01*
X140612338Y-116295377D01*
X140540543Y-116249237D01*
X140518806Y-116217930D01*
X140525573Y-116180420D01*
X140556882Y-116158682D01*
X140566751Y-116157549D01*
X141267806Y-116147530D01*
X141272322Y-116147671D01*
X148615195Y-116712507D01*
X148649186Y-116729751D01*
X148656674Y-116741472D01*
X148665076Y-116759869D01*
X148665077Y-116759871D01*
X148665078Y-116759872D01*
X148665079Y-116759874D01*
X148750364Y-116858299D01*
X148859924Y-116928708D01*
X148984883Y-116965400D01*
X148984885Y-116965400D01*
X149115115Y-116965400D01*
X149115117Y-116965400D01*
X149240076Y-116928708D01*
X149349636Y-116858299D01*
X149405741Y-116793547D01*
X149439822Y-116776487D01*
X149447185Y-116776506D01*
X150770452Y-116878297D01*
X150793550Y-116886052D01*
X150859924Y-116928708D01*
X150984883Y-116965400D01*
X150984885Y-116965400D01*
X151115115Y-116965400D01*
X151115117Y-116965400D01*
X151240076Y-116928708D01*
X151245858Y-116924991D01*
X151276601Y-116917231D01*
X154260058Y-117146729D01*
X154269017Y-117147163D01*
X154274679Y-117147276D01*
X154283674Y-117147199D01*
X158138796Y-117004416D01*
X159651294Y-116948398D01*
X159665253Y-116949861D01*
X163727856Y-117969459D01*
X163736432Y-117971045D01*
X163747385Y-117973071D01*
X163747398Y-117973072D01*
X163747421Y-117973077D01*
X163759012Y-117974472D01*
X163759848Y-117974573D01*
X163759849Y-117974573D01*
X163759857Y-117974574D01*
X163779725Y-117975703D01*
X173791158Y-117912508D01*
X173858159Y-117912086D01*
X173861040Y-117911829D01*
X173884104Y-117909773D01*
X173900238Y-117906979D01*
X173905547Y-117905966D01*
X173924791Y-117896250D01*
X173962797Y-117893400D01*
X173991689Y-117918261D01*
X173992102Y-117919099D01*
X174099201Y-118141493D01*
X174099203Y-118141496D01*
X174099205Y-118141499D01*
X174263565Y-118403077D01*
X174456180Y-118644608D01*
X174674626Y-118863054D01*
X174916157Y-119055669D01*
X175101665Y-119172231D01*
X175177737Y-119220030D01*
X175177740Y-119220032D01*
X175439763Y-119346215D01*
X175456071Y-119354069D01*
X175456077Y-119354071D01*
X175718219Y-119445799D01*
X175747664Y-119456102D01*
X176048848Y-119524845D01*
X176355835Y-119559434D01*
X176355839Y-119559434D01*
X176664761Y-119559434D01*
X176664765Y-119559434D01*
X176971752Y-119524845D01*
X177272936Y-119456102D01*
X177564529Y-119354069D01*
X177840836Y-119221006D01*
X177842859Y-119220032D01*
X177842859Y-119220031D01*
X177842865Y-119220029D01*
X178104443Y-119055669D01*
X178345974Y-118863054D01*
X178564420Y-118644608D01*
X178757035Y-118403077D01*
X178921395Y-118141499D01*
X179043614Y-117887708D01*
X179072033Y-117862312D01*
X179107247Y-117863188D01*
X179116307Y-117866875D01*
X179166703Y-117876569D01*
X179176804Y-117878513D01*
X179176804Y-117878512D01*
X179176810Y-117878514D01*
X179566411Y-117876055D01*
X179626299Y-117863848D01*
X179661199Y-117849263D01*
X179696438Y-117828843D01*
X179746195Y-117763998D01*
X179760781Y-117728784D01*
X179772800Y-117668359D01*
X179772800Y-114038789D01*
X179760780Y-113978362D01*
X179746194Y-113943149D01*
X179711966Y-113891924D01*
X176764786Y-110944744D01*
X176750200Y-110909530D01*
X176750200Y-110175000D01*
X182042443Y-110175000D01*
X182060977Y-110303909D01*
X182115079Y-110422374D01*
X182200364Y-110520799D01*
X182309924Y-110591208D01*
X182434883Y-110627900D01*
X182434885Y-110627900D01*
X182565115Y-110627900D01*
X182565117Y-110627900D01*
X182690076Y-110591208D01*
X182799636Y-110520799D01*
X182884921Y-110422374D01*
X182939023Y-110303909D01*
X182957557Y-110175000D01*
X182939023Y-110046091D01*
X182884921Y-109927626D01*
X182799636Y-109829201D01*
X182690076Y-109758792D01*
X182565117Y-109722100D01*
X182434883Y-109722100D01*
X182309924Y-109758792D01*
X182255144Y-109793996D01*
X182200363Y-109829201D01*
X182115079Y-109927626D01*
X182060977Y-110046091D01*
X182060976Y-110046095D01*
X182047040Y-110143025D01*
X182042443Y-110175000D01*
X176750200Y-110175000D01*
X176750200Y-107812962D01*
X176764786Y-107777748D01*
X178291802Y-106250732D01*
X181366061Y-106250732D01*
X181366061Y-106250735D01*
X181385716Y-106387437D01*
X181385717Y-106387442D01*
X181443091Y-106513075D01*
X181443092Y-106513076D01*
X181533534Y-106617452D01*
X181533536Y-106617453D01*
X181649717Y-106692119D01*
X181649718Y-106692119D01*
X181649724Y-106692123D01*
X181782243Y-106731034D01*
X181782244Y-106731034D01*
X181920356Y-106731034D01*
X181920357Y-106731034D01*
X182052876Y-106692123D01*
X182169064Y-106617453D01*
X182259509Y-106513074D01*
X182316883Y-106387442D01*
X182336539Y-106250734D01*
X182316883Y-106114026D01*
X182259509Y-105988394D01*
X182259508Y-105988393D01*
X182259508Y-105988392D01*
X182259507Y-105988391D01*
X182169065Y-105884015D01*
X182169063Y-105884014D01*
X182052882Y-105809348D01*
X182052878Y-105809346D01*
X182052876Y-105809345D01*
X181920357Y-105770434D01*
X181782243Y-105770434D01*
X181649724Y-105809345D01*
X181649722Y-105809345D01*
X181649717Y-105809348D01*
X181533536Y-105884014D01*
X181533534Y-105884015D01*
X181443092Y-105988391D01*
X181443091Y-105988392D01*
X181385717Y-106114025D01*
X181385716Y-106114030D01*
X181366061Y-106250732D01*
X178291802Y-106250732D01*
X179682402Y-104860132D01*
X179717616Y-104845546D01*
X182150952Y-104845546D01*
X182150956Y-104845546D01*
X182211381Y-104833527D01*
X182246595Y-104818941D01*
X182297822Y-104784712D01*
X183293744Y-103788789D01*
X183327408Y-103738908D01*
X183341986Y-103704613D01*
X183354543Y-103645755D01*
X183556944Y-92678231D01*
X183556961Y-92677122D01*
X183556967Y-92676597D01*
X183545432Y-92615527D01*
X183531126Y-92580199D01*
X183510797Y-92544334D01*
X183492615Y-92530153D01*
X183446349Y-92494067D01*
X183446347Y-92494066D01*
X183411249Y-92479202D01*
X183411247Y-92479201D01*
X183411246Y-92479201D01*
X183350921Y-92466705D01*
X170986017Y-92368766D01*
X170950919Y-92353902D01*
X170936613Y-92318574D01*
X170936619Y-92318079D01*
X171006963Y-88378839D01*
X171006965Y-88378754D01*
X171006987Y-88376912D01*
X171006994Y-88375781D01*
X170994683Y-88313673D01*
X170979927Y-88278531D01*
X170959143Y-88242931D01*
X170894057Y-88193489D01*
X170891225Y-88192332D01*
X170858776Y-88179075D01*
X170858773Y-88179074D01*
X170858772Y-88179074D01*
X170798290Y-88167349D01*
X170798285Y-88167348D01*
X166497329Y-88188209D01*
X166497321Y-88188209D01*
X166442547Y-88198299D01*
X166442543Y-88198300D01*
X166410185Y-88210459D01*
X166410176Y-88210463D01*
X166410174Y-88210463D01*
X166410174Y-88210464D01*
X166378767Y-88226469D01*
X166378765Y-88226471D01*
X166378764Y-88226471D01*
X166347509Y-88261690D01*
X166313226Y-88278346D01*
X166283338Y-88270528D01*
X166265082Y-88258795D01*
X166265076Y-88258792D01*
X166211059Y-88242931D01*
X166140117Y-88222100D01*
X166009883Y-88222100D01*
X165884924Y-88258792D01*
X165884921Y-88258793D01*
X165866303Y-88270757D01*
X165828793Y-88277522D01*
X165809259Y-88268517D01*
X165743375Y-88218471D01*
X165708096Y-88204058D01*
X165708093Y-88204057D01*
X165708092Y-88204057D01*
X165647611Y-88192332D01*
X165647610Y-88192332D01*
X165647605Y-88192331D01*
X140131863Y-88316094D01*
X140096578Y-88301679D01*
X140081822Y-88266553D01*
X140081653Y-88234028D01*
X140075854Y-87114832D01*
X140064378Y-84900000D01*
X159542443Y-84900000D01*
X159560977Y-85028909D01*
X159615079Y-85147374D01*
X159700364Y-85245799D01*
X159809924Y-85316208D01*
X159934883Y-85352900D01*
X159934885Y-85352900D01*
X160065115Y-85352900D01*
X160065117Y-85352900D01*
X160190076Y-85316208D01*
X160299636Y-85245799D01*
X160384921Y-85147374D01*
X160439023Y-85028909D01*
X160457557Y-84900000D01*
X160439023Y-84771091D01*
X160384921Y-84652626D01*
X160360981Y-84624998D01*
X160542443Y-84624998D01*
X160542443Y-84625001D01*
X160544944Y-84642399D01*
X160560977Y-84753909D01*
X160615079Y-84872374D01*
X160700364Y-84970799D01*
X160809924Y-85041208D01*
X160934883Y-85077900D01*
X160934885Y-85077900D01*
X161065115Y-85077900D01*
X161065117Y-85077900D01*
X161190076Y-85041208D01*
X161299636Y-84970799D01*
X161384921Y-84872374D01*
X161439023Y-84753909D01*
X161457557Y-84625000D01*
X161439023Y-84496091D01*
X161384921Y-84377626D01*
X161299636Y-84279201D01*
X161190076Y-84208792D01*
X161065117Y-84172100D01*
X160934883Y-84172100D01*
X160809924Y-84208792D01*
X160755144Y-84243996D01*
X160700363Y-84279201D01*
X160615079Y-84377626D01*
X160560977Y-84496091D01*
X160560976Y-84496095D01*
X160542443Y-84624998D01*
X160360981Y-84624998D01*
X160299636Y-84554201D01*
X160190076Y-84483792D01*
X160065117Y-84447100D01*
X159934883Y-84447100D01*
X159809924Y-84483792D01*
X159777613Y-84504557D01*
X159700363Y-84554201D01*
X159623941Y-84642399D01*
X159615079Y-84652626D01*
X159560977Y-84771091D01*
X159542443Y-84900000D01*
X140064378Y-84900000D01*
X140058303Y-83727498D01*
X145080060Y-83727498D01*
X145080060Y-83727501D01*
X145100163Y-83918765D01*
X145159593Y-84101674D01*
X145159595Y-84101677D01*
X145200254Y-84172100D01*
X145255753Y-84268227D01*
X145384440Y-84411149D01*
X145540030Y-84524191D01*
X145715723Y-84602415D01*
X145903840Y-84642400D01*
X145903843Y-84642400D01*
X146096157Y-84642400D01*
X146096160Y-84642400D01*
X146284277Y-84602415D01*
X146459970Y-84524191D01*
X146615560Y-84411149D01*
X146744247Y-84268227D01*
X146840407Y-84101673D01*
X146899837Y-83918766D01*
X146919940Y-83727500D01*
X146919940Y-83727498D01*
X147580060Y-83727498D01*
X147580060Y-83727501D01*
X147600163Y-83918765D01*
X147659593Y-84101674D01*
X147659595Y-84101677D01*
X147700254Y-84172100D01*
X147755753Y-84268227D01*
X147884440Y-84411149D01*
X148040030Y-84524191D01*
X148215723Y-84602415D01*
X148403840Y-84642400D01*
X148403843Y-84642400D01*
X148596157Y-84642400D01*
X148596160Y-84642400D01*
X148784277Y-84602415D01*
X148959970Y-84524191D01*
X149115560Y-84411149D01*
X149244247Y-84268227D01*
X149340407Y-84101673D01*
X149399837Y-83918766D01*
X149419940Y-83727500D01*
X149419940Y-83727498D01*
X149580060Y-83727498D01*
X149580060Y-83727501D01*
X149600163Y-83918765D01*
X149659593Y-84101674D01*
X149659595Y-84101677D01*
X149700254Y-84172100D01*
X149755753Y-84268227D01*
X149884440Y-84411149D01*
X150040030Y-84524191D01*
X150215723Y-84602415D01*
X150403840Y-84642400D01*
X150403843Y-84642400D01*
X150596157Y-84642400D01*
X150596160Y-84642400D01*
X150784277Y-84602415D01*
X150959970Y-84524191D01*
X151115560Y-84411149D01*
X151244247Y-84268227D01*
X151340407Y-84101673D01*
X151399837Y-83918766D01*
X151419940Y-83727500D01*
X151416960Y-83699152D01*
X151412943Y-83660926D01*
X151399837Y-83536234D01*
X151340407Y-83353327D01*
X151244247Y-83186773D01*
X151115560Y-83043851D01*
X150986993Y-82950442D01*
X152085100Y-82950442D01*
X152085100Y-84504550D01*
X152085101Y-84504558D01*
X152093972Y-84549156D01*
X152093973Y-84549161D01*
X152127764Y-84599732D01*
X152127766Y-84599734D01*
X152178342Y-84633528D01*
X152222943Y-84642400D01*
X153777056Y-84642399D01*
X153821658Y-84633528D01*
X153872234Y-84599734D01*
X153906028Y-84549158D01*
X153914900Y-84504557D01*
X153914899Y-82950444D01*
X153906028Y-82905842D01*
X153906026Y-82905839D01*
X153906026Y-82905838D01*
X153872235Y-82855267D01*
X153872232Y-82855264D01*
X153821658Y-82821472D01*
X153777057Y-82812600D01*
X153777055Y-82812600D01*
X152222949Y-82812600D01*
X152222941Y-82812601D01*
X152189492Y-82819254D01*
X152178342Y-82821472D01*
X152178341Y-82821472D01*
X152178338Y-82821473D01*
X152127767Y-82855264D01*
X152127764Y-82855267D01*
X152093972Y-82905840D01*
X152093972Y-82905841D01*
X152085100Y-82950442D01*
X150986993Y-82950442D01*
X150959970Y-82930809D01*
X150784277Y-82852585D01*
X150784275Y-82852584D01*
X150784274Y-82852584D01*
X150716112Y-82838096D01*
X150596160Y-82812600D01*
X150403840Y-82812600D01*
X150323872Y-82829597D01*
X150215725Y-82852584D01*
X150215723Y-82852585D01*
X150040030Y-82930809D01*
X150040029Y-82930809D01*
X150040028Y-82930810D01*
X149884442Y-83043849D01*
X149755753Y-83186773D01*
X149755751Y-83186776D01*
X149659595Y-83353322D01*
X149659593Y-83353325D01*
X149600163Y-83536234D01*
X149580060Y-83727498D01*
X149419940Y-83727498D01*
X149416960Y-83699152D01*
X149412943Y-83660926D01*
X149399837Y-83536234D01*
X149340407Y-83353327D01*
X149244247Y-83186773D01*
X149115560Y-83043851D01*
X148959970Y-82930809D01*
X148784277Y-82852585D01*
X148784275Y-82852584D01*
X148784274Y-82852584D01*
X148716112Y-82838096D01*
X148596160Y-82812600D01*
X148403840Y-82812600D01*
X148323872Y-82829597D01*
X148215725Y-82852584D01*
X148215723Y-82852585D01*
X148040030Y-82930809D01*
X148040029Y-82930809D01*
X148040028Y-82930810D01*
X147884442Y-83043849D01*
X147755753Y-83186773D01*
X147755751Y-83186776D01*
X147659595Y-83353322D01*
X147659593Y-83353325D01*
X147600163Y-83536234D01*
X147580060Y-83727498D01*
X146919940Y-83727498D01*
X146916960Y-83699152D01*
X146912943Y-83660926D01*
X146899837Y-83536234D01*
X146840407Y-83353327D01*
X146744247Y-83186773D01*
X146615560Y-83043851D01*
X146459970Y-82930809D01*
X146284277Y-82852585D01*
X146284275Y-82852584D01*
X146284274Y-82852584D01*
X146216112Y-82838096D01*
X146096160Y-82812600D01*
X145903840Y-82812600D01*
X145823872Y-82829597D01*
X145715725Y-82852584D01*
X145715723Y-82852585D01*
X145540030Y-82930809D01*
X145540029Y-82930809D01*
X145540028Y-82930810D01*
X145384442Y-83043849D01*
X145255753Y-83186773D01*
X145255751Y-83186776D01*
X145159595Y-83353322D01*
X145159593Y-83353325D01*
X145100163Y-83536234D01*
X145080060Y-83727498D01*
X140058303Y-83727498D01*
X140058157Y-83699254D01*
X140058155Y-83699041D01*
X140058154Y-83698872D01*
X140045611Y-83638121D01*
X140045611Y-83638119D01*
X140039605Y-83623966D01*
X140030726Y-83603040D01*
X140030725Y-83603038D01*
X140030723Y-83603035D01*
X140030722Y-83603032D01*
X140009807Y-83567514D01*
X139944536Y-83518317D01*
X139944531Y-83518315D01*
X139944530Y-83518314D01*
X139909207Y-83504037D01*
X139909200Y-83504035D01*
X139909199Y-83504035D01*
X139878934Y-83498285D01*
X139848671Y-83492536D01*
X139848670Y-83492536D01*
X139708085Y-83493747D01*
X128320620Y-83591915D01*
X128316937Y-83591989D01*
X128314709Y-83592060D01*
X128251447Y-83607493D01*
X128251444Y-83607494D01*
X128217079Y-83623966D01*
X128167783Y-83660926D01*
X123443911Y-88927772D01*
X123349351Y-89033201D01*
X121669825Y-90905776D01*
X121669819Y-90905783D01*
X121640441Y-90953374D01*
X121627722Y-90985690D01*
X121627721Y-90985693D01*
X121616779Y-91040548D01*
X121613870Y-91195200D01*
X121590674Y-92428239D01*
X121590674Y-92428240D01*
X121590618Y-92431213D01*
X121582269Y-92875000D01*
X121573905Y-93319627D01*
X121573905Y-93319629D01*
X121573849Y-93322600D01*
X121544354Y-94890500D01*
X121541440Y-95045429D01*
X121541440Y-95045430D01*
X121520176Y-96175792D01*
X121498602Y-97322600D01*
X121475691Y-98540500D01*
X121472776Y-98695430D01*
X121450116Y-99900000D01*
X121433558Y-100780209D01*
X121433558Y-100780211D01*
X121433502Y-100783182D01*
X121403087Y-102400000D01*
X121381509Y-103547026D01*
X121381509Y-103547027D01*
X121381453Y-103549999D01*
X121363497Y-104504510D01*
X121357054Y-104847027D01*
X121357054Y-104847028D01*
X121356998Y-104850001D01*
X121328836Y-106347027D01*
X121328836Y-106347028D01*
X121328780Y-106350001D01*
X121318489Y-106897026D01*
X121318489Y-106897028D01*
X121318433Y-106899999D01*
X121305321Y-107597028D01*
X121305321Y-107597030D01*
X121305265Y-107600001D01*
X121263935Y-109797026D01*
X121263935Y-109797027D01*
X121263879Y-109799999D01*
X121258577Y-110081780D01*
X121243331Y-110116713D01*
X121207849Y-110130634D01*
X121197705Y-110129394D01*
X120971767Y-110077826D01*
X120971760Y-110077824D01*
X120971752Y-110077823D01*
X120664765Y-110043234D01*
X120355835Y-110043234D01*
X120048848Y-110077823D01*
X120048844Y-110077823D01*
X120048836Y-110077825D01*
X119747662Y-110146566D01*
X119747655Y-110146568D01*
X119456077Y-110248596D01*
X119456069Y-110248599D01*
X119177740Y-110382635D01*
X119177737Y-110382637D01*
X118916156Y-110546999D01*
X118674625Y-110739614D01*
X118456180Y-110958059D01*
X118263565Y-111199590D01*
X118099203Y-111461171D01*
X118099201Y-111461174D01*
X117965165Y-111739503D01*
X117965162Y-111739511D01*
X117863134Y-112031089D01*
X117863132Y-112031096D01*
X117794391Y-112332270D01*
X117794389Y-112332278D01*
X117794389Y-112332282D01*
X117759800Y-112639269D01*
X112662200Y-112639269D01*
X112662200Y-98824998D01*
X116077443Y-98824998D01*
X116077443Y-98825001D01*
X116090531Y-98916035D01*
X116095977Y-98953909D01*
X116150079Y-99072374D01*
X116235364Y-99170799D01*
X116344924Y-99241208D01*
X116469883Y-99277900D01*
X116469885Y-99277900D01*
X116600115Y-99277900D01*
X116600117Y-99277900D01*
X116725076Y-99241208D01*
X116834636Y-99170799D01*
X116919921Y-99072374D01*
X116974023Y-98953909D01*
X116992557Y-98825000D01*
X116992557Y-98824998D01*
X117902443Y-98824998D01*
X117902443Y-98825001D01*
X117915531Y-98916035D01*
X117920977Y-98953909D01*
X117975079Y-99072374D01*
X118060364Y-99170799D01*
X118169924Y-99241208D01*
X118294883Y-99277900D01*
X118294885Y-99277900D01*
X118425115Y-99277900D01*
X118425117Y-99277900D01*
X118550076Y-99241208D01*
X118659636Y-99170799D01*
X118744921Y-99072374D01*
X118799023Y-98953909D01*
X118817557Y-98825000D01*
X118799023Y-98696091D01*
X118744921Y-98577626D01*
X118659636Y-98479201D01*
X118550076Y-98408792D01*
X118425117Y-98372100D01*
X118294883Y-98372100D01*
X118169924Y-98408792D01*
X118115144Y-98443996D01*
X118060363Y-98479201D01*
X117975079Y-98577626D01*
X117920977Y-98696091D01*
X117920976Y-98696095D01*
X117902443Y-98824998D01*
X116992557Y-98824998D01*
X116974023Y-98696091D01*
X116919921Y-98577626D01*
X116834636Y-98479201D01*
X116725076Y-98408792D01*
X116600117Y-98372100D01*
X116469883Y-98372100D01*
X116344924Y-98408792D01*
X116290144Y-98443996D01*
X116235363Y-98479201D01*
X116150079Y-98577626D01*
X116095977Y-98696091D01*
X116095976Y-98696095D01*
X116077443Y-98824998D01*
X112662200Y-98824998D01*
X112662200Y-97959942D01*
X119332100Y-97959942D01*
X119332100Y-99690050D01*
X119332101Y-99690058D01*
X119340972Y-99734656D01*
X119340973Y-99734661D01*
X119374764Y-99785232D01*
X119374766Y-99785234D01*
X119425342Y-99819028D01*
X119469943Y-99827900D01*
X121200056Y-99827899D01*
X121244658Y-99819028D01*
X121295234Y-99785234D01*
X121329028Y-99734658D01*
X121337900Y-99690057D01*
X121337899Y-97959944D01*
X121329028Y-97915342D01*
X121329026Y-97915339D01*
X121329026Y-97915338D01*
X121295235Y-97864767D01*
X121295232Y-97864764D01*
X121244658Y-97830972D01*
X121200057Y-97822100D01*
X121200055Y-97822100D01*
X119469949Y-97822100D01*
X119469941Y-97822101D01*
X119436492Y-97828754D01*
X119425342Y-97830972D01*
X119425341Y-97830972D01*
X119425338Y-97830973D01*
X119374767Y-97864764D01*
X119374764Y-97864767D01*
X119340972Y-97915340D01*
X119340972Y-97915341D01*
X119332100Y-97959942D01*
X112662200Y-97959942D01*
X112662200Y-95175000D01*
X116002443Y-95175000D01*
X116020977Y-95303909D01*
X116075079Y-95422374D01*
X116160364Y-95520799D01*
X116269924Y-95591208D01*
X116394883Y-95627900D01*
X116394885Y-95627900D01*
X116525115Y-95627900D01*
X116525117Y-95627900D01*
X116650076Y-95591208D01*
X116759636Y-95520799D01*
X116844921Y-95422374D01*
X116899023Y-95303909D01*
X116917557Y-95175000D01*
X117827443Y-95175000D01*
X117845977Y-95303909D01*
X117900079Y-95422374D01*
X117985364Y-95520799D01*
X118094924Y-95591208D01*
X118219883Y-95627900D01*
X118219885Y-95627900D01*
X118350115Y-95627900D01*
X118350117Y-95627900D01*
X118475076Y-95591208D01*
X118584636Y-95520799D01*
X118669921Y-95422374D01*
X118724023Y-95303909D01*
X118742557Y-95175000D01*
X118724023Y-95046091D01*
X118669921Y-94927626D01*
X118584636Y-94829201D01*
X118475076Y-94758792D01*
X118350117Y-94722100D01*
X118219883Y-94722100D01*
X118094924Y-94758792D01*
X118040144Y-94793996D01*
X117985363Y-94829201D01*
X117900079Y-94927626D01*
X117845977Y-95046091D01*
X117827443Y-95175000D01*
X116917557Y-95175000D01*
X116899023Y-95046091D01*
X116844921Y-94927626D01*
X116759636Y-94829201D01*
X116650076Y-94758792D01*
X116525117Y-94722100D01*
X116394883Y-94722100D01*
X116269924Y-94758792D01*
X116215144Y-94793996D01*
X116160363Y-94829201D01*
X116075079Y-94927626D01*
X116020977Y-95046091D01*
X116002443Y-95175000D01*
X112662200Y-95175000D01*
X112662200Y-94309942D01*
X119357100Y-94309942D01*
X119357100Y-96040050D01*
X119357101Y-96040058D01*
X119365972Y-96084656D01*
X119365973Y-96084661D01*
X119399764Y-96135232D01*
X119399766Y-96135234D01*
X119450342Y-96169028D01*
X119494943Y-96177900D01*
X121225056Y-96177899D01*
X121269658Y-96169028D01*
X121320234Y-96135234D01*
X121354028Y-96084658D01*
X121362900Y-96040057D01*
X121362899Y-94309944D01*
X121354028Y-94265342D01*
X121354026Y-94265339D01*
X121354026Y-94265338D01*
X121320235Y-94214767D01*
X121320232Y-94214764D01*
X121269658Y-94180972D01*
X121225057Y-94172100D01*
X121225055Y-94172100D01*
X119494949Y-94172100D01*
X119494941Y-94172101D01*
X119461492Y-94178754D01*
X119450342Y-94180972D01*
X119450341Y-94180972D01*
X119450338Y-94180973D01*
X119399767Y-94214764D01*
X119399764Y-94214767D01*
X119365972Y-94265340D01*
X119365972Y-94265341D01*
X119357100Y-94309942D01*
X112662200Y-94309942D01*
X112662200Y-87136167D01*
X112676595Y-87101146D01*
X112722750Y-87054485D01*
X113394923Y-86374942D01*
X120897100Y-86374942D01*
X120897100Y-88105050D01*
X120897101Y-88105058D01*
X120905972Y-88149656D01*
X120905973Y-88149661D01*
X120939764Y-88200232D01*
X120939767Y-88200235D01*
X120955076Y-88210464D01*
X120990342Y-88234028D01*
X121034943Y-88242900D01*
X122765056Y-88242899D01*
X122809658Y-88234028D01*
X122860234Y-88200234D01*
X122894028Y-88149658D01*
X122902900Y-88105057D01*
X122902899Y-86374944D01*
X122894028Y-86330342D01*
X122894026Y-86330339D01*
X122894026Y-86330338D01*
X122860235Y-86279767D01*
X122860232Y-86279764D01*
X122809658Y-86245972D01*
X122765057Y-86237100D01*
X122765055Y-86237100D01*
X121034949Y-86237100D01*
X121034941Y-86237101D01*
X121001492Y-86243754D01*
X120990342Y-86245972D01*
X120990341Y-86245972D01*
X120990338Y-86245973D01*
X120939767Y-86279764D01*
X120939764Y-86279767D01*
X120905972Y-86330340D01*
X120905972Y-86330341D01*
X120897100Y-86374942D01*
X113394923Y-86374942D01*
X115051701Y-84699997D01*
X120892247Y-84699997D01*
X120892247Y-84700002D01*
X120909225Y-84872374D01*
X120911611Y-84896603D01*
X120968958Y-85085650D01*
X121062084Y-85259878D01*
X121187411Y-85412589D01*
X121340122Y-85537916D01*
X121514350Y-85631042D01*
X121703397Y-85688389D01*
X121851465Y-85702972D01*
X121899997Y-85707753D01*
X121900000Y-85707753D01*
X121900003Y-85707753D01*
X121944844Y-85703336D01*
X122096603Y-85688389D01*
X122285650Y-85631042D01*
X122459878Y-85537916D01*
X122612589Y-85412589D01*
X122737916Y-85259878D01*
X122831042Y-85085650D01*
X122888389Y-84896603D01*
X122907753Y-84700000D01*
X122888389Y-84503397D01*
X122831042Y-84314350D01*
X122737916Y-84140122D01*
X122612589Y-83987411D01*
X122459878Y-83862084D01*
X122285650Y-83768958D01*
X122096603Y-83711611D01*
X121900003Y-83692247D01*
X121899997Y-83692247D01*
X121703396Y-83711611D01*
X121651018Y-83727500D01*
X121514350Y-83768958D01*
X121514348Y-83768959D01*
X121514347Y-83768959D01*
X121401401Y-83829329D01*
X121340122Y-83862084D01*
X121340120Y-83862084D01*
X121340117Y-83862087D01*
X121187411Y-83987411D01*
X121062087Y-84140117D01*
X120968959Y-84314347D01*
X120968959Y-84314348D01*
X120968958Y-84314350D01*
X120939594Y-84411149D01*
X120911611Y-84503396D01*
X120892247Y-84699997D01*
X115051701Y-84699997D01*
X118694260Y-81017498D01*
X141022239Y-81017498D01*
X141022239Y-81017501D01*
X141041656Y-81288997D01*
X141041658Y-81289008D01*
X141099517Y-81554981D01*
X141194636Y-81810004D01*
X141194642Y-81810019D01*
X141325087Y-82048911D01*
X141488210Y-82266818D01*
X141680681Y-82459289D01*
X141898588Y-82622412D01*
X142137480Y-82752857D01*
X142137495Y-82752863D01*
X142392518Y-82847982D01*
X142392521Y-82847982D01*
X142392522Y-82847983D01*
X142658497Y-82905843D01*
X142852427Y-82919713D01*
X142929998Y-82925261D01*
X142930000Y-82925261D01*
X142930002Y-82925261D01*
X142997875Y-82920406D01*
X143201503Y-82905843D01*
X143467478Y-82847983D01*
X143722513Y-82752860D01*
X143722517Y-82752857D01*
X143722519Y-82752857D01*
X143961411Y-82622412D01*
X143961410Y-82622412D01*
X143961413Y-82622411D01*
X144179318Y-82459290D01*
X144371790Y-82266818D01*
X144534911Y-82048913D01*
X144665360Y-81810013D01*
X144750788Y-81580972D01*
X144760482Y-81554981D01*
X144760483Y-81554978D01*
X144818343Y-81289003D01*
X144837761Y-81017500D01*
X144837761Y-81017498D01*
X154162239Y-81017498D01*
X154162239Y-81017501D01*
X154181656Y-81288997D01*
X154181658Y-81289008D01*
X154239517Y-81554981D01*
X154334636Y-81810004D01*
X154334642Y-81810019D01*
X154465087Y-82048911D01*
X154628210Y-82266818D01*
X154820681Y-82459289D01*
X155038588Y-82622412D01*
X155277480Y-82752857D01*
X155277495Y-82752863D01*
X155532518Y-82847982D01*
X155532521Y-82847982D01*
X155532522Y-82847983D01*
X155798497Y-82905843D01*
X155992427Y-82919713D01*
X156069998Y-82925261D01*
X156070000Y-82925261D01*
X156070002Y-82925261D01*
X156137875Y-82920406D01*
X156341503Y-82905843D01*
X156607478Y-82847983D01*
X156862513Y-82752860D01*
X156862517Y-82752857D01*
X156862519Y-82752857D01*
X157101411Y-82622412D01*
X157101410Y-82622412D01*
X157101413Y-82622411D01*
X157319318Y-82459290D01*
X157511790Y-82266818D01*
X157674911Y-82048913D01*
X157805360Y-81810013D01*
X157842685Y-81709942D01*
X166057100Y-81709942D01*
X166057100Y-83440050D01*
X166057101Y-83440058D01*
X166065972Y-83484656D01*
X166065973Y-83484661D01*
X166099764Y-83535232D01*
X166099767Y-83535235D01*
X166125054Y-83552131D01*
X166150342Y-83569028D01*
X166194943Y-83577900D01*
X167925056Y-83577899D01*
X167969658Y-83569028D01*
X168020234Y-83535234D01*
X168054028Y-83484658D01*
X168062900Y-83440057D01*
X168062899Y-82574997D01*
X168592247Y-82574997D01*
X168592247Y-82575002D01*
X168596917Y-82622412D01*
X168611611Y-82771603D01*
X168668958Y-82960650D01*
X168762084Y-83134878D01*
X168887411Y-83287589D01*
X169040122Y-83412916D01*
X169214350Y-83506042D01*
X169403397Y-83563389D01*
X169550707Y-83577898D01*
X169599997Y-83582753D01*
X169600000Y-83582753D01*
X169600003Y-83582753D01*
X169644844Y-83578336D01*
X169796603Y-83563389D01*
X169985650Y-83506042D01*
X170159878Y-83412916D01*
X170312589Y-83287589D01*
X170437916Y-83134878D01*
X170531042Y-82960650D01*
X170588389Y-82771603D01*
X170607753Y-82575000D01*
X170588389Y-82378397D01*
X170531042Y-82189350D01*
X170437916Y-82015122D01*
X170312589Y-81862411D01*
X170159878Y-81737084D01*
X169985650Y-81643958D01*
X169796603Y-81586611D01*
X169600003Y-81567247D01*
X169599997Y-81567247D01*
X169403396Y-81586611D01*
X169321077Y-81611582D01*
X169214350Y-81643958D01*
X169214348Y-81643959D01*
X169214347Y-81643959D01*
X169101401Y-81704329D01*
X169040122Y-81737084D01*
X169040120Y-81737084D01*
X169040117Y-81737087D01*
X168887411Y-81862411D01*
X168762087Y-82015117D01*
X168762084Y-82015120D01*
X168762084Y-82015122D01*
X168729329Y-82076401D01*
X168668959Y-82189347D01*
X168668959Y-82189348D01*
X168611611Y-82378396D01*
X168592247Y-82574997D01*
X168062899Y-82574997D01*
X168062899Y-81709944D01*
X168054028Y-81665342D01*
X168054026Y-81665339D01*
X168054026Y-81665338D01*
X168020235Y-81614767D01*
X168020232Y-81614764D01*
X167969658Y-81580972D01*
X167925057Y-81572100D01*
X167925055Y-81572100D01*
X166194949Y-81572100D01*
X166194941Y-81572101D01*
X166161492Y-81578754D01*
X166150342Y-81580972D01*
X166150341Y-81580972D01*
X166150338Y-81580973D01*
X166099767Y-81614764D01*
X166099764Y-81614767D01*
X166065972Y-81665340D01*
X166065972Y-81665341D01*
X166057100Y-81709942D01*
X157842685Y-81709942D01*
X157890788Y-81580972D01*
X157900482Y-81554981D01*
X157900483Y-81554978D01*
X157958343Y-81289003D01*
X157977761Y-81017500D01*
X157958343Y-80745997D01*
X157900483Y-80480022D01*
X157805360Y-80224987D01*
X157805359Y-80224985D01*
X157805357Y-80224980D01*
X157674912Y-79986088D01*
X157511789Y-79768181D01*
X157319318Y-79575710D01*
X157101411Y-79412587D01*
X156862519Y-79282142D01*
X156862504Y-79282136D01*
X156607481Y-79187017D01*
X156341508Y-79129158D01*
X156341505Y-79129157D01*
X156341503Y-79129157D01*
X156341502Y-79129156D01*
X156341497Y-79129156D01*
X156070002Y-79109739D01*
X156069998Y-79109739D01*
X155798502Y-79129156D01*
X155798491Y-79129158D01*
X155532518Y-79187017D01*
X155277495Y-79282136D01*
X155277480Y-79282142D01*
X155038588Y-79412587D01*
X154820681Y-79575710D01*
X154628210Y-79768181D01*
X154465087Y-79986088D01*
X154334642Y-80224980D01*
X154334636Y-80224995D01*
X154239517Y-80480018D01*
X154181658Y-80745991D01*
X154181656Y-80746002D01*
X154162239Y-81017498D01*
X144837761Y-81017498D01*
X144818343Y-80745997D01*
X144760483Y-80480022D01*
X144665360Y-80224987D01*
X144665359Y-80224985D01*
X144665357Y-80224980D01*
X144534912Y-79986088D01*
X144371789Y-79768181D01*
X144179318Y-79575710D01*
X143961411Y-79412587D01*
X143722519Y-79282142D01*
X143722504Y-79282136D01*
X143467481Y-79187017D01*
X143201508Y-79129158D01*
X143201505Y-79129157D01*
X143201503Y-79129157D01*
X143201502Y-79129156D01*
X143201497Y-79129156D01*
X142930002Y-79109739D01*
X142929998Y-79109739D01*
X142658502Y-79129156D01*
X142658491Y-79129158D01*
X142392518Y-79187017D01*
X142137495Y-79282136D01*
X142137480Y-79282142D01*
X141898588Y-79412587D01*
X141680681Y-79575710D01*
X141488210Y-79768181D01*
X141325087Y-79986088D01*
X141194642Y-80224980D01*
X141194636Y-80224995D01*
X141099517Y-80480018D01*
X141041658Y-80745991D01*
X141041656Y-80746002D01*
X141022239Y-81017498D01*
X118694260Y-81017498D01*
X122316299Y-77355744D01*
X122351432Y-77340967D01*
X122351704Y-77340966D01*
X174806959Y-77340966D01*
X174842173Y-77355552D01*
G37*
%TD.AperFunction*%
%TD*%
M02*
