M48
; DRILL file {KiCad 9.0.0} date 2025-04-20T21:07:20+0100
; FORMAT={-:-/ absolute / inch / decimal}
; #@! TF.CreationDate,2025-04-20T21:07:20+01:00
; #@! TF.GenerationSoftware,Kicad,Pcbnew,9.0.0
; #@! TF.FileFunction,Plated,1,4,PTH
FMAT,2
INCH
; #@! TA.AperFunction,Plated,PTH,ViaDrill
T1C0.0118
; #@! TA.AperFunction,Plated,PTH,ViaDrill
T2C0.0138
; #@! TA.AperFunction,Plated,PTH,ComponentDrill
T3C0.0362
; #@! TA.AperFunction,Plated,PTH,ComponentDrill
T4C0.0394
; #@! TA.AperFunction,Plated,PTH,ComponentDrill
T5C0.0906
%
G90
G05
T1
X4.8252Y-3.8071
X4.897Y-3.8071
X4.9134Y-4.5856
X5.0281Y-4.5674
X5.186Y-4.6447
X5.187Y-4.5866
X5.2087Y-3.376
X5.2539Y-4.6447
X5.2549Y-4.5866
X5.2656Y-4.0768
X5.2794Y-4.128
X5.2795Y-3.3002
X5.2823Y-3.9678
X5.2938Y-3.7132
X5.3054Y-3.9331
X5.3272Y-3.8941
X5.3468Y-3.741
X5.3629Y-3.8161
X5.3693Y-3.9678
X5.3707Y-3.8927
X5.3707Y-3.9321
X5.377Y-4.0315
X5.3799Y-4.1289
X5.3846Y-3.9932
X5.3894Y-3.7176
X5.3989Y-4.0697
X5.4028Y-3.6741
X5.4163Y-3.8169
X5.4272Y-4.2948
X5.4272Y-4.3627
X5.4274Y-4.0614
X5.4291Y-4.2087
X5.4341Y-4.0326
X5.438Y-3.7559
X5.4449Y-4.5266
X5.4899Y-4.6043
X5.4899Y-4.6498
X5.4906Y-3.7312
X5.5156Y-4.6645
X5.5195Y-4.6085
X5.5294Y-4.374
X5.5364Y-3.873
X5.5373Y-3.9124
X5.5373Y-3.9508
X5.5373Y-3.9921
X5.5373Y-4.6862
X5.5435Y-4.6308
X5.5644Y-4.6518
X5.5657Y-3.639
X5.5709Y-4.187
X5.5719Y-3.7421
X5.5729Y-4.374
X5.5921Y-4.7732
X5.5941Y-3.7927
X5.6063Y-3.6352
X5.6425Y-3.6333
X5.6447Y-3.75
X5.6544Y-3.6062
X5.6695Y-4.7891
X5.6792Y-4.2047
X5.6839Y-3.6091
X5.7074Y-3.6272
X5.7077Y-3.8069
X5.7244Y-4.065
X5.7244Y-4.1762
X5.7283Y-4.3543
X5.7372Y-3.6319
X5.746Y-3.7421
X5.748Y-4.2402
X5.7843Y-3.5052
X5.7854Y-4.063
X5.7854Y-4.1757
X5.7895Y-3.7402
X5.7935Y-3.5904
X5.8158Y-3.6294
X5.8189Y-3.9055
X5.8189Y-4.2362
X5.878Y-3.9075
X5.8918Y-4.3504
X5.9616Y-4.0866
X5.9646Y-4.2382
X5.9744Y-4.8307
X6.0157Y-3.8504
X6.0197Y-4.2382
X6.0207Y-4.0866
X6.0228Y-4.8543
X6.0315Y-3.876
X6.0348Y-4.04
X6.0458Y-3.7721
X6.0616Y-4.8155
X6.123Y-3.6565
X6.1389Y-3.7524
X6.1455Y-4.0217
X6.1476Y-3.9051
X6.1476Y-3.9486
X6.1476Y-3.9921
X6.1476Y-4.2087
X6.1732Y-3.7844
X6.1909Y-3.6565
X6.2Y-3.7481
X6.2283Y-4.7315
X6.2718Y-4.689
X6.282Y-3.812
X6.2992Y-3.3425
X6.3255Y-3.8143
X6.3386Y-3.3317
X6.3386Y-4.8878
X6.5384Y-3.4911
X6.6107Y-3.4045
X6.8337Y-3.2028
X6.8337Y-3.2835
X6.874Y-3.8622
X6.878Y-4.4291
X6.9016Y-4.0453
X6.9016Y-4.2893
X6.9449Y-4.8583
X6.9745Y-4.859
X6.9882Y-4.4291
X6.9923Y-4.2896
X6.9941Y-3.8622
X7.0945Y-4.4076
X7.1388Y-3.7067
T2
X4.7185Y-4.8811
X4.8135Y-4.8811
X4.9635Y-4.8841
X5.0605Y-4.8841
T3
X5.748Y-3.2964
X5.8465Y-3.2964
X5.9252Y-3.2964
X6.0236Y-3.2964
T4
X4.7992Y-3.3346
X4.7992Y-3.4346
X4.9787Y-3.8071
X5.0787Y-3.8071
X6.5772Y-3.251
X6.6772Y-3.251
T5
X5.6272Y-3.1897
X6.1445Y-3.1897
M30
