%TF.GenerationSoftware,KiCad,Pcbnew,8.0.6*%
%TF.CreationDate,2025-02-12T20:12:07+00:00*%
%TF.ProjectId,RISKYMSXCart,5249534b-594d-4535-9843-6172742e6b69,rev?*%
%TF.SameCoordinates,Original*%
%TF.FileFunction,Copper,L4,Bot*%
%TF.FilePolarity,Positive*%
%FSLAX46Y46*%
G04 Gerber Fmt 4.6, Leading zero omitted, Abs format (unit mm)*
G04 Created by KiCad (PCBNEW 8.0.6) date 2025-02-12 20:12:07*
%MOMM*%
%LPD*%
G01*
G04 APERTURE LIST*
G04 Aperture macros list*
%AMRoundRect*
0 Rectangle with rounded corners*
0 $1 Rounding radius*
0 $2 $3 $4 $5 $6 $7 $8 $9 X,Y pos of 4 corners*
0 Add a 4 corners polygon primitive as box body*
4,1,4,$2,$3,$4,$5,$6,$7,$8,$9,$2,$3,0*
0 Add four circle primitives for the rounded corners*
1,1,$1+$1,$2,$3*
1,1,$1+$1,$4,$5*
1,1,$1+$1,$6,$7*
1,1,$1+$1,$8,$9*
0 Add four rect primitives between the rounded corners*
20,1,$1+$1,$2,$3,$4,$5,0*
20,1,$1+$1,$4,$5,$6,$7,0*
20,1,$1+$1,$6,$7,$8,$9,0*
20,1,$1+$1,$8,$9,$2,$3,0*%
%AMFreePoly0*
4,1,19,0.500000,-0.750000,0.000000,-0.750000,0.000000,-0.744911,-0.071157,-0.744911,-0.207708,-0.704816,-0.327430,-0.627875,-0.420627,-0.520320,-0.479746,-0.390866,-0.500000,-0.250000,-0.500000,0.250000,-0.479746,0.390866,-0.420627,0.520320,-0.327430,0.627875,-0.207708,0.704816,-0.071157,0.744911,0.000000,0.744911,0.000000,0.750000,0.500000,0.750000,0.500000,-0.750000,0.500000,-0.750000,
$1*%
%AMFreePoly1*
4,1,19,0.000000,0.744911,0.071157,0.744911,0.207708,0.704816,0.327430,0.627875,0.420627,0.520320,0.479746,0.390866,0.500000,0.250000,0.500000,-0.250000,0.479746,-0.390866,0.420627,-0.520320,0.327430,-0.627875,0.207708,-0.704816,0.071157,-0.744911,0.000000,-0.744911,0.000000,-0.750000,-0.500000,-0.750000,-0.500000,0.750000,0.000000,0.750000,0.000000,0.744911,0.000000,0.744911,
$1*%
G04 Aperture macros list end*
%TA.AperFunction,ComponentPad*%
%ADD10R,1.700000X1.700000*%
%TD*%
%TA.AperFunction,ComponentPad*%
%ADD11O,1.700000X1.700000*%
%TD*%
%TA.AperFunction,ComponentPad*%
%ADD12R,1.524000X1.524000*%
%TD*%
%TA.AperFunction,ComponentPad*%
%ADD13C,1.524000*%
%TD*%
%TA.AperFunction,ComponentPad*%
%ADD14C,3.500000*%
%TD*%
%TA.AperFunction,SMDPad,CuDef*%
%ADD15R,1.270000X7.620000*%
%TD*%
%TA.AperFunction,SMDPad,CuDef*%
%ADD16RoundRect,0.237500X-0.250000X-0.237500X0.250000X-0.237500X0.250000X0.237500X-0.250000X0.237500X0*%
%TD*%
%TA.AperFunction,SMDPad,CuDef*%
%ADD17RoundRect,0.150000X-0.512500X-0.150000X0.512500X-0.150000X0.512500X0.150000X-0.512500X0.150000X0*%
%TD*%
%TA.AperFunction,SMDPad,CuDef*%
%ADD18RoundRect,0.237500X0.250000X0.237500X-0.250000X0.237500X-0.250000X-0.237500X0.250000X-0.237500X0*%
%TD*%
%TA.AperFunction,SMDPad,CuDef*%
%ADD19RoundRect,0.237500X0.237500X-0.300000X0.237500X0.300000X-0.237500X0.300000X-0.237500X-0.300000X0*%
%TD*%
%TA.AperFunction,SMDPad,CuDef*%
%ADD20R,1.600000X1.800000*%
%TD*%
%TA.AperFunction,SMDPad,CuDef*%
%ADD21R,1.800000X1.600000*%
%TD*%
%TA.AperFunction,SMDPad,CuDef*%
%ADD22RoundRect,0.237500X-0.300000X-0.237500X0.300000X-0.237500X0.300000X0.237500X-0.300000X0.237500X0*%
%TD*%
%TA.AperFunction,SMDPad,CuDef*%
%ADD23RoundRect,0.250000X0.412500X0.650000X-0.412500X0.650000X-0.412500X-0.650000X0.412500X-0.650000X0*%
%TD*%
%TA.AperFunction,SMDPad,CuDef*%
%ADD24RoundRect,0.250000X0.475000X-0.337500X0.475000X0.337500X-0.475000X0.337500X-0.475000X-0.337500X0*%
%TD*%
%TA.AperFunction,SMDPad,CuDef*%
%ADD25R,1.100000X1.000000*%
%TD*%
%TA.AperFunction,SMDPad,CuDef*%
%ADD26RoundRect,0.237500X-0.237500X0.250000X-0.237500X-0.250000X0.237500X-0.250000X0.237500X0.250000X0*%
%TD*%
%TA.AperFunction,SMDPad,CuDef*%
%ADD27FreePoly0,180.000000*%
%TD*%
%TA.AperFunction,SMDPad,CuDef*%
%ADD28FreePoly1,180.000000*%
%TD*%
%TA.AperFunction,SMDPad,CuDef*%
%ADD29RoundRect,0.237500X-0.237500X0.300000X-0.237500X-0.300000X0.237500X-0.300000X0.237500X0.300000X0*%
%TD*%
%TA.AperFunction,SMDPad,CuDef*%
%ADD30R,1.219000X2.235000*%
%TD*%
%TA.AperFunction,SMDPad,CuDef*%
%ADD31R,3.600000X2.200000*%
%TD*%
%TA.AperFunction,SMDPad,CuDef*%
%ADD32RoundRect,0.237500X0.237500X-0.250000X0.237500X0.250000X-0.237500X0.250000X-0.237500X-0.250000X0*%
%TD*%
%TA.AperFunction,SMDPad,CuDef*%
%ADD33RoundRect,0.250001X-0.462499X-0.624999X0.462499X-0.624999X0.462499X0.624999X-0.462499X0.624999X0*%
%TD*%
%TA.AperFunction,ViaPad*%
%ADD34C,0.600000*%
%TD*%
%TA.AperFunction,ViaPad*%
%ADD35C,0.654800*%
%TD*%
%TA.AperFunction,Conductor*%
%ADD36C,0.500000*%
%TD*%
%TA.AperFunction,Conductor*%
%ADD37C,0.200000*%
%TD*%
%TA.AperFunction,Conductor*%
%ADD38C,0.203200*%
%TD*%
G04 APERTURE END LIST*
D10*
%TO.P,J1,1,Pin_1*%
%TO.N,/BOOT0*%
X126460000Y-96700000D03*
D11*
%TO.P,J1,2,Pin_2*%
%TO.N,+3.3V*%
X129000000Y-96700000D03*
%TD*%
D10*
%TO.P,J2,1,Pin_1*%
%TO.N,/USART_TX*%
X167060000Y-82575000D03*
D11*
%TO.P,J2,2,Pin_2*%
%TO.N,/USART_RX*%
X169600000Y-82575000D03*
%TD*%
D12*
%TO.P,J7,1,VBUS*%
%TO.N,Net-(J7-VBUS)*%
X153000000Y-83727500D03*
D13*
%TO.P,J7,2,D-*%
%TO.N,/USB1_DM*%
X150500000Y-83727500D03*
%TO.P,J7,3,D+*%
%TO.N,/USB1_DP*%
X148500000Y-83727500D03*
%TO.P,J7,4,GND*%
%TO.N,GND*%
X146000000Y-83727500D03*
D14*
%TO.P,J7,5,Shield*%
X156070000Y-81017500D03*
X142930000Y-81017500D03*
%TD*%
D10*
%TO.P,J8,1,Pin_1*%
%TO.N,/SWCLK*%
X121900000Y-87240000D03*
D11*
%TO.P,J8,2,Pin_2*%
%TO.N,/SWDIO*%
X121900000Y-84700000D03*
%TD*%
D15*
%TO.P,CN1,P1,~{EXCS1}*%
%TO.N,/~{EXCS1}*%
X178930300Y-128805934D03*
%TO.P,CN1,P3,~{EXCS12}*%
%TO.N,/~{EXCS12}*%
X176390300Y-128805934D03*
%TO.P,CN1,P5,P$5*%
%TO.N,unconnected-(CN1-P$5-PadP5)*%
X173850300Y-128805934D03*
%TO.P,CN1,P7,WAIT*%
%TO.N,/WAIT*%
X171310300Y-128805934D03*
%TO.P,CN1,P9,~{M1}*%
%TO.N,/~{M1}*%
X168770300Y-128805934D03*
%TO.P,CN1,P11,IORQ*%
%TO.N,/IORQ*%
X166230300Y-128805934D03*
%TO.P,CN1,P13,WR*%
%TO.N,/WR*%
X163690300Y-128805934D03*
%TO.P,CN1,P15,~{RESET}*%
%TO.N,/~{RESET}*%
X161150300Y-128805934D03*
%TO.P,CN1,P17,A9*%
%TO.N,/A9*%
X158610300Y-128805934D03*
%TO.P,CN1,P19,A11*%
%TO.N,/A11*%
X156070300Y-128805934D03*
%TO.P,CN1,P21,A7*%
%TO.N,/A7*%
X153530300Y-128805934D03*
%TO.P,CN1,P23,A12*%
%TO.N,/A12*%
X150990300Y-128805934D03*
%TO.P,CN1,P25,A14*%
%TO.N,/A14*%
X148450300Y-128805934D03*
%TO.P,CN1,P27,A1*%
%TO.N,/A1*%
X145910300Y-128805934D03*
%TO.P,CN1,P29,A3*%
%TO.N,/A3*%
X143370300Y-128805934D03*
%TO.P,CN1,P31,A5*%
%TO.N,/A5*%
X140830300Y-128805934D03*
%TO.P,CN1,P33,D1*%
%TO.N,/D1*%
X138290300Y-128805934D03*
%TO.P,CN1,P35,D3*%
%TO.N,/D3*%
X135750300Y-128805934D03*
%TO.P,CN1,P37,D5*%
%TO.N,/D5*%
X133210300Y-128805934D03*
%TO.P,CN1,P39,D7*%
%TO.N,/D7*%
X130670300Y-128805934D03*
%TO.P,CN1,P41,GND@1*%
%TO.N,GND*%
X128130300Y-128805934D03*
%TO.P,CN1,P43,GND@0*%
X125590300Y-128805934D03*
%TO.P,CN1,P45,VCC@0*%
%TO.N,+5V*%
X123050300Y-128805934D03*
%TO.P,CN1,P47,VCC@1*%
X120510300Y-128805934D03*
%TO.P,CN1,P49,SND_IN*%
%TO.N,/SCC_AUD*%
X117970300Y-128805934D03*
%TD*%
D16*
%TO.P,R2,1*%
%TO.N,Net-(JP1-B)*%
X123737500Y-122200000D03*
%TO.P,R2,2*%
%TO.N,Net-(U2--)*%
X125562500Y-122200000D03*
%TD*%
D17*
%TO.P,U2,1*%
%TO.N,Net-(JP1-B)*%
X124375000Y-120650000D03*
%TO.P,U2,2,V-*%
%TO.N,GND*%
X124375000Y-119700000D03*
%TO.P,U2,3,+*%
%TO.N,Net-(U2-+)*%
X124375000Y-118750000D03*
%TO.P,U2,4,-*%
%TO.N,Net-(U2--)*%
X126650000Y-118750000D03*
%TO.P,U2,5,V+*%
%TO.N,+5V*%
X126650000Y-120650000D03*
%TD*%
D18*
%TO.P,R5,1*%
%TO.N,Net-(D1-A)*%
X149975000Y-112800000D03*
%TO.P,R5,2*%
%TO.N,+3.3V*%
X148150000Y-112800000D03*
%TD*%
D19*
%TO.P,C8,1*%
%TO.N,+3.3V*%
X151425000Y-106637500D03*
%TO.P,C8,2*%
%TO.N,GND*%
X151425000Y-104912500D03*
%TD*%
D20*
%TO.P,C13,1,1*%
%TO.N,+3.3V*%
X174800000Y-111700000D03*
%TO.P,C13,2,2*%
%TO.N,GND*%
X177600000Y-111700000D03*
%TD*%
D19*
%TO.P,C11,1*%
%TO.N,+3.3V*%
X145400000Y-106075000D03*
%TO.P,C11,2*%
%TO.N,GND*%
X145400000Y-104350000D03*
%TD*%
%TO.P,C6,1*%
%TO.N,+3.3V*%
X152925000Y-106637500D03*
%TO.P,C6,2*%
%TO.N,GND*%
X152925000Y-104912500D03*
%TD*%
D21*
%TO.P,C1,1,1*%
%TO.N,+5V*%
X180700000Y-104950000D03*
%TO.P,C1,2,2*%
%TO.N,GND*%
X180700000Y-107750000D03*
%TD*%
D22*
%TO.P,C4,1*%
%TO.N,+3.3V*%
X155525000Y-92875000D03*
%TO.P,C4,2*%
%TO.N,GND*%
X157250000Y-92875000D03*
%TD*%
D19*
%TO.P,C9,1*%
%TO.N,/NRST*%
X147800000Y-102100000D03*
%TO.P,C9,2*%
%TO.N,GND*%
X147800000Y-100375000D03*
%TD*%
D23*
%TO.P,C7,1*%
%TO.N,+5V*%
X177725000Y-98100000D03*
%TO.P,C7,2*%
%TO.N,GND*%
X174600000Y-98100000D03*
%TD*%
D16*
%TO.P,R1,1*%
%TO.N,GND*%
X122560000Y-96700000D03*
%TO.P,R1,2*%
%TO.N,/BOOT0*%
X124385000Y-96700000D03*
%TD*%
D22*
%TO.P,C2,1*%
%TO.N,+3.3V*%
X141650000Y-95250000D03*
%TO.P,C2,2*%
%TO.N,GND*%
X143375000Y-95250000D03*
%TD*%
D24*
%TO.P,C15,1*%
%TO.N,GND*%
X146950000Y-121237500D03*
%TO.P,C15,2*%
%TO.N,Net-(U1-OSC_IN)*%
X146950000Y-119162500D03*
%TD*%
D19*
%TO.P,C5,1*%
%TO.N,+3.3V*%
X146950000Y-106062500D03*
%TO.P,C5,2*%
%TO.N,GND*%
X146950000Y-104337500D03*
%TD*%
D25*
%TO.P,R3,1,1*%
%TO.N,+3.3V*%
X180150000Y-111700000D03*
%TO.P,R3,2,2*%
%TO.N,Net-(D5-A)*%
X180150000Y-113400000D03*
%TD*%
D26*
%TO.P,R6,1*%
%TO.N,Net-(D2-A)*%
X154200000Y-115837500D03*
%TO.P,R6,2*%
%TO.N,+3.3V*%
X154200000Y-117662500D03*
%TD*%
D27*
%TO.P,JP1,1,A*%
%TO.N,/SCC_OUT*%
X126300000Y-115650000D03*
D28*
%TO.P,JP1,2,B*%
%TO.N,Net-(JP1-B)*%
X125000000Y-115650000D03*
%TD*%
D29*
%TO.P,C12,1*%
%TO.N,Net-(JP1-B)*%
X118050000Y-121187500D03*
%TO.P,C12,2*%
%TO.N,/SCC_AUD*%
X118050000Y-122912500D03*
%TD*%
%TO.P,C14,1*%
%TO.N,/SCC_OUT*%
X129500000Y-115637500D03*
%TO.P,C14,2*%
%TO.N,Net-(U2-+)*%
X129500000Y-117362500D03*
%TD*%
D30*
%TO.P,IC8,1,GND*%
%TO.N,GND*%
X177611000Y-108949000D03*
%TO.P,IC8,2,OUT*%
%TO.N,+3.3V*%
X175300000Y-108949000D03*
%TO.P,IC8,3,IN*%
%TO.N,+5V*%
X172989000Y-108949000D03*
D31*
%TO.P,IC8,TAB,OUT1*%
%TO.N,+3.3V*%
X175300000Y-102751000D03*
%TD*%
D32*
%TO.P,R8,1*%
%TO.N,Net-(D4-A)*%
X156400000Y-110325000D03*
%TO.P,R8,2*%
%TO.N,+3.3V*%
X156400000Y-108500000D03*
%TD*%
D24*
%TO.P,C16,1*%
%TO.N,GND*%
X150150000Y-121137500D03*
%TO.P,C16,2*%
%TO.N,Net-(U1-OSC_OUT)*%
X150150000Y-119062500D03*
%TD*%
D25*
%TO.P,C3,1,1*%
%TO.N,+5V*%
X167775000Y-88675000D03*
%TO.P,C3,2,2*%
%TO.N,GND*%
X166075000Y-88675000D03*
%TD*%
D26*
%TO.P,R7,1*%
%TO.N,Net-(D3-A)*%
X155750000Y-115837500D03*
%TO.P,R7,2*%
%TO.N,+3.3V*%
X155750000Y-117662500D03*
%TD*%
D32*
%TO.P,R9,1*%
%TO.N,GND*%
X129200000Y-120812500D03*
%TO.P,R9,2*%
%TO.N,Net-(U2--)*%
X129200000Y-118987500D03*
%TD*%
D29*
%TO.P,C10,1*%
%TO.N,+3.3V*%
X137850000Y-109087500D03*
%TO.P,C10,2*%
%TO.N,GND*%
X137850000Y-110812500D03*
%TD*%
D33*
%TO.P,F2,1*%
%TO.N,Net-(J7-VBUS)*%
X164942500Y-86495000D03*
%TO.P,F2,2*%
%TO.N,+5V*%
X167917500Y-86495000D03*
%TD*%
D26*
%TO.P,R4,1*%
%TO.N,+3.3V*%
X149300000Y-100325000D03*
%TO.P,R4,2*%
%TO.N,/NRST*%
X149300000Y-102150000D03*
%TD*%
D34*
%TO.N,GND*%
X137850000Y-110812500D03*
X137900000Y-106900000D03*
X177605000Y-108955000D03*
X124375000Y-119700000D03*
X152925000Y-103800000D03*
X141368788Y-92431212D03*
X143375000Y-95250000D03*
X149651004Y-110500000D03*
X129200000Y-120812500D03*
X174600000Y-98100000D03*
D35*
X128536700Y-124056134D03*
D34*
X147800000Y-99200000D03*
X157250000Y-92875000D03*
X146950000Y-121237500D03*
X156096394Y-102150490D03*
X150150000Y-121137500D03*
X151425000Y-103800000D03*
X146950000Y-103200000D03*
X122560000Y-96700000D03*
X153562984Y-95810364D03*
X177500000Y-112500000D03*
D35*
X126072900Y-124056134D03*
D34*
X166075000Y-88675000D03*
X145500000Y-110600000D03*
X180700000Y-107750000D03*
X145400000Y-103250000D03*
X156150000Y-106900000D03*
%TO.N,+5V*%
X126650000Y-120650000D03*
D35*
X122262900Y-123979934D03*
D34*
X167912500Y-86475000D03*
X177650000Y-98100000D03*
D35*
X119849900Y-123979934D03*
D34*
%TO.N,+3.3V*%
X175300000Y-102751000D03*
X151500000Y-107650000D03*
X138125000Y-85675000D03*
X155750000Y-117662500D03*
X137850000Y-109087500D03*
X155525000Y-92875000D03*
X156400000Y-108500000D03*
X152900000Y-107650000D03*
X175300000Y-108949000D03*
X141525000Y-95050000D03*
X130125000Y-85675000D03*
X174700000Y-112500000D03*
X145400000Y-106075000D03*
X146000000Y-107700000D03*
X146950000Y-106062500D03*
X154200000Y-117662500D03*
X148150000Y-112800000D03*
X149300000Y-99250000D03*
X180200300Y-111953934D03*
%TO.N,/~{EXCS1}*%
X136575000Y-102400000D03*
X177152186Y-123418049D03*
X137231289Y-93322601D03*
%TO.N,/~{EXCS2}*%
X137132470Y-103369541D03*
X133745200Y-103550000D03*
%TO.N,/~{EXCS12}*%
X134097600Y-104850000D03*
X136650000Y-104875000D03*
X176400000Y-123400000D03*
%TO.N,/~{EXSLTSL}*%
X136217800Y-96928196D03*
X136767800Y-101427400D03*
%TO.N,/~{RFSH}*%
X155927399Y-95309854D03*
X160666800Y-96882488D03*
%TO.N,/WAIT*%
X147721521Y-92185495D03*
%TO.N,/~{M1}*%
X144975000Y-96695200D03*
%TO.N,/BDIR*%
X147155967Y-91195200D03*
X145725000Y-92250000D03*
%TO.N,/IORQ*%
X145947600Y-95050000D03*
%TO.N,/MREQ*%
X159562000Y-96825000D03*
X156800000Y-96125000D03*
%TO.N,/WR*%
X138025000Y-102427400D03*
%TO.N,/RD*%
X137574012Y-96950000D03*
X137855220Y-103160397D03*
%TO.N,/~{RESET}*%
X161000000Y-124150000D03*
X157481040Y-95202400D03*
X147052400Y-95000000D03*
%TO.N,/A9*%
X156150000Y-100295201D03*
%TO.N,/A11*%
X156150000Y-99190401D03*
X159304800Y-119100000D03*
X158200001Y-120181211D03*
%TO.N,/A7*%
X156150000Y-101400000D03*
%TO.N,/A12*%
X153284394Y-102615606D03*
%TO.N,/A8*%
X153963950Y-122313950D03*
X152977900Y-123300000D03*
%TO.N,/A14*%
X152800000Y-97800000D03*
%TO.N,/A13*%
X153200000Y-98450000D03*
X151750000Y-122700000D03*
%TO.N,/A1*%
X141336336Y-118155123D03*
X144006212Y-121643788D03*
X141500000Y-106350000D03*
%TO.N,/A3*%
X144252400Y-106800000D03*
%TO.N,/A2*%
X140196281Y-117056750D03*
X140096207Y-118477419D03*
%TO.N,/A5*%
X140804306Y-117623094D03*
X142039790Y-121239790D03*
X140648606Y-119029818D03*
%TO.N,/A4*%
X139442553Y-118104800D03*
X139442553Y-116950000D03*
X140447600Y-111100000D03*
X141552400Y-111100000D03*
%TO.N,/D1*%
X140623368Y-98375000D03*
%TO.N,/D3*%
X140647600Y-99375001D03*
%TO.N,/D2*%
X136415400Y-98875000D03*
X135310600Y-98909394D03*
%TO.N,/D5*%
X140647600Y-100350000D03*
%TO.N,/D4*%
X136415400Y-99875000D03*
X134758200Y-99900000D03*
%TO.N,/D7*%
X140647600Y-101400000D03*
%TO.N,/D6*%
X134169493Y-100783183D03*
X136379093Y-100783183D03*
%TO.N,/NRST*%
X147800000Y-107600000D03*
%TO.N,Net-(D1-A)*%
X149975000Y-112800000D03*
%TO.N,Net-(D2-A)*%
X152100000Y-113800000D03*
%TO.N,/BOOT0*%
X139462500Y-94772600D03*
X124385000Y-96700000D03*
%TO.N,/USART_TX*%
X144371003Y-91671933D03*
X161000000Y-84625000D03*
%TO.N,/USART_RX*%
X143622278Y-91597634D03*
X160000000Y-84900000D03*
%TO.N,/USB1_DM*%
X143319907Y-92286606D03*
%TO.N,/USB1_DP*%
X142400552Y-92333476D03*
%TO.N,/SWDIO*%
X142089790Y-96335210D03*
%TO.N,/SWCLK*%
X134462561Y-94315672D03*
X138126412Y-95400000D03*
X136891388Y-94427400D03*
X135809302Y-95021866D03*
%TO.N,Net-(U1-OSC_IN)*%
X146250000Y-116900000D03*
%TO.N,Net-(D3-A)*%
X154150000Y-113800000D03*
%TO.N,Net-(D4-A)*%
X156225000Y-113800000D03*
%TO.N,/BTN1*%
X146921379Y-89033201D03*
X144967972Y-92129904D03*
%TO.N,Net-(U1-OSC_OUT)*%
X151450000Y-116900000D03*
%TO.N,Net-(D5-A)*%
X180150000Y-113400000D03*
%TO.N,/SCC_OUT*%
X137775000Y-115625000D03*
%TD*%
D36*
%TO.N,GND*%
X128130300Y-124462534D02*
X128536700Y-124056134D01*
D37*
X178210000Y-108350000D02*
X177611000Y-108949000D01*
X180700000Y-107750000D02*
X180100000Y-108350000D01*
X146950000Y-103200000D02*
X146950000Y-104337500D01*
X145400000Y-103250000D02*
X145400000Y-104350000D01*
X177605000Y-108955000D02*
X177611000Y-108949000D01*
X151425000Y-104912500D02*
X151425000Y-103800000D01*
D36*
X125590300Y-124538734D02*
X126072900Y-124056134D01*
D37*
X152925000Y-104912500D02*
X152925000Y-103800000D01*
D36*
X125590300Y-128805934D02*
X125590300Y-124538734D01*
D37*
X177500000Y-112500000D02*
X177500000Y-109060000D01*
D36*
X128130300Y-128805934D02*
X128130300Y-124462534D01*
D37*
X180100000Y-108350000D02*
X178210000Y-108350000D01*
X177500000Y-109060000D02*
X177605000Y-108955000D01*
X147800000Y-99200000D02*
X147800000Y-100375000D01*
D36*
%TO.N,+5V*%
X180700000Y-104950000D02*
X180700000Y-99500000D01*
X120510300Y-124640334D02*
X120510300Y-128805934D01*
X172989000Y-106511000D02*
X174100000Y-105400000D01*
X179300000Y-98100000D02*
X177650000Y-98100000D01*
X177650000Y-98100000D02*
X177650000Y-88700000D01*
D37*
X177462500Y-97912500D02*
X177650000Y-98100000D01*
D36*
X119849900Y-123979934D02*
X120510300Y-124640334D01*
X167775000Y-88675000D02*
X167775000Y-86637500D01*
X172989000Y-108949000D02*
X172989000Y-106511000D01*
X123050300Y-128805934D02*
X123050300Y-124767334D01*
X180250000Y-105400000D02*
X180700000Y-104950000D01*
X167775000Y-86637500D02*
X167917500Y-86495000D01*
X174100000Y-105400000D02*
X180250000Y-105400000D01*
X180700000Y-99500000D02*
X179300000Y-98100000D01*
X123050300Y-124767334D02*
X122262900Y-123979934D01*
X175445000Y-86495000D02*
X167917500Y-86495000D01*
X177650000Y-88700000D02*
X175445000Y-86495000D01*
D37*
%TO.N,+3.3V*%
X175300000Y-111600000D02*
X175300000Y-108949000D01*
X149300000Y-99250000D02*
X149300000Y-100325000D01*
X174700000Y-112500000D02*
X174700000Y-112200000D01*
X174700000Y-112200000D02*
X175300000Y-111600000D01*
X151500000Y-106712500D02*
X151425000Y-106637500D01*
X152900000Y-106662500D02*
X152925000Y-106637500D01*
X146950000Y-106062500D02*
X146950000Y-106750000D01*
X151362500Y-106375000D02*
X151362500Y-106612500D01*
X151500000Y-107650000D02*
X151500000Y-106712500D01*
X146950000Y-106750000D02*
X146000000Y-107700000D01*
X152900000Y-107650000D02*
X152900000Y-106662500D01*
%TO.N,/~{EXCS1}*%
X137320200Y-101656212D02*
X136576412Y-102400000D01*
X178950000Y-125611234D02*
X178930300Y-125630934D01*
X136274999Y-94262577D02*
X136753886Y-93783690D01*
X178930300Y-125196163D02*
X177152186Y-123418049D01*
X136753886Y-93783690D02*
X136770200Y-93783690D01*
X136576412Y-102400000D02*
X136575000Y-102400000D01*
X178930300Y-125630934D02*
X178930300Y-128805934D01*
X136575000Y-102400000D02*
X136575000Y-102350000D01*
X136274999Y-94720201D02*
X136274999Y-94262577D01*
X137320200Y-97624012D02*
X136770200Y-97074012D01*
X136770200Y-93783690D02*
X137231289Y-93322601D01*
X136770200Y-97074012D02*
X136770200Y-95215402D01*
X136770200Y-95215402D02*
X136274999Y-94720201D01*
X178930300Y-128805934D02*
X178930300Y-125196163D01*
X137320200Y-101656212D02*
X137320200Y-97624012D01*
%TO.N,/~{EXCS2}*%
X133745200Y-103550000D02*
X133925659Y-103369541D01*
X133925659Y-103369541D02*
X137132470Y-103369541D01*
%TO.N,/~{EXCS12}*%
X136625000Y-104850000D02*
X136650000Y-104875000D01*
X176400000Y-123400000D02*
X176390300Y-123409700D01*
X176390300Y-123409700D02*
X176390300Y-128805934D01*
X134097600Y-104850000D02*
X136625000Y-104850000D01*
%TO.N,/~{EXSLTSL}*%
X136217800Y-97217800D02*
X136967800Y-97967800D01*
X136967800Y-97967800D02*
X136967800Y-101227400D01*
X136967800Y-101227400D02*
X136767800Y-101427400D01*
X136217800Y-96928196D02*
X136217800Y-97217800D01*
%TO.N,/~{RFSH}*%
X156587253Y-94650000D02*
X158434312Y-94650000D01*
X158434312Y-94650000D02*
X160666800Y-96882488D01*
X155927399Y-95309854D02*
X156587253Y-94650000D01*
%TO.N,/WAIT*%
X170947600Y-102372600D02*
X170947600Y-128443234D01*
X170947600Y-128443234D02*
X171310300Y-128805934D01*
X147721521Y-92185495D02*
X147759416Y-92147600D01*
X147759416Y-92147600D02*
X160722600Y-92147600D01*
X160722600Y-92147600D02*
X170947600Y-102372600D01*
%TO.N,/~{M1}*%
X145395200Y-94821188D02*
X145918788Y-94297600D01*
X145918788Y-94297600D02*
X160170969Y-94297600D01*
X168770300Y-102896931D02*
X168770300Y-128805934D01*
X145395200Y-95104800D02*
X145395200Y-94821188D01*
D38*
X168694100Y-128755134D02*
X168770300Y-128805934D01*
D37*
X160170969Y-94297600D02*
X168770300Y-102896931D01*
X144975000Y-95525000D02*
X145395200Y-95104800D01*
X144975000Y-96695200D02*
X144975000Y-95525000D01*
%TO.N,/BDIR*%
X146779800Y-91195200D02*
X147155967Y-91195200D01*
X145725000Y-92250000D02*
X146779800Y-91195200D01*
%TO.N,/IORQ*%
X166230300Y-100855300D02*
X166230300Y-128805934D01*
X147438768Y-96541169D02*
X147645199Y-96747600D01*
X157537066Y-97434888D02*
X162809888Y-97434888D01*
X156849778Y-96747600D02*
X157537066Y-97434888D01*
X145947600Y-95050000D02*
X147438768Y-96541169D01*
X162809888Y-97434888D02*
X166230300Y-100855300D01*
X147645199Y-96747600D02*
X156849778Y-96747600D01*
%TO.N,/MREQ*%
X157500000Y-96825000D02*
X159562000Y-96825000D01*
X156800000Y-96125000D02*
X157500000Y-96825000D01*
%TO.N,/WR*%
X163690300Y-105093563D02*
X155844337Y-97247600D01*
X155844337Y-97247600D02*
X140969556Y-97247600D01*
X140969556Y-97247600D02*
X138025000Y-100192156D01*
X163690300Y-128805934D02*
X163690300Y-105093563D01*
X163690300Y-128805934D02*
X163700000Y-128796234D01*
X138025000Y-100192156D02*
X138025000Y-102427400D01*
%TO.N,/RD*%
X137574012Y-96950000D02*
X137672600Y-97048588D01*
X137672600Y-97048588D02*
X137672600Y-101998588D01*
X137472600Y-102777777D02*
X137855220Y-103160397D01*
X137472600Y-102198588D02*
X137472600Y-102777777D01*
X137672600Y-101998588D02*
X137472600Y-102198588D01*
%TO.N,/~{RESET}*%
X161150300Y-124300300D02*
X161150300Y-128805934D01*
X156479799Y-95255822D02*
X156479799Y-95538666D01*
X157481040Y-95202400D02*
X157281040Y-95002400D01*
X155638090Y-96380375D02*
X148432775Y-96380375D01*
X156479799Y-95538666D02*
X155638090Y-96380375D01*
X157281040Y-95002400D02*
X156733221Y-95002400D01*
X161000000Y-124150000D02*
X161150300Y-124300300D01*
X148432775Y-96380375D02*
X147052400Y-95000000D01*
X156733221Y-95002400D02*
X156479799Y-95255822D01*
%TO.N,/A9*%
X158752400Y-101152400D02*
X158752400Y-125488834D01*
X156150000Y-100295201D02*
X157895201Y-100295201D01*
X158610300Y-125630934D02*
X158610300Y-128805934D01*
D38*
X158610300Y-125072134D02*
X158610300Y-128805934D01*
D37*
X158752400Y-125488834D02*
X158610300Y-125630934D01*
X157895201Y-100295201D02*
X158752400Y-101152400D01*
%TO.N,/A11*%
X159104800Y-118900000D02*
X159304800Y-119100000D01*
X156150000Y-99190401D02*
X157288769Y-99190401D01*
X156070300Y-128805934D02*
X156070300Y-122310912D01*
X157288769Y-99190401D02*
X159104800Y-101006432D01*
X159104800Y-101006432D02*
X159104800Y-118900000D01*
X156070300Y-122310912D02*
X158200001Y-120181211D01*
%TO.N,/A7*%
X158400000Y-102100000D02*
X158400000Y-119200000D01*
X158400000Y-119200000D02*
X153530300Y-124069700D01*
X156150000Y-101400000D02*
X157700000Y-101400000D01*
X153530300Y-124069700D02*
X153530300Y-128805934D01*
X157700000Y-101400000D02*
X158400000Y-102100000D01*
%TO.N,/A12*%
X157695200Y-118756432D02*
X155042482Y-121409150D01*
X157695200Y-103550000D02*
X157695200Y-118756432D01*
X153724078Y-103055290D02*
X157200490Y-103055290D01*
X152259638Y-121409150D02*
X150990300Y-122678488D01*
X157200490Y-103055290D02*
X157695200Y-103550000D01*
X150990300Y-128805934D02*
X150990300Y-125630934D01*
X153284394Y-102615606D02*
X153724078Y-103055290D01*
X150990300Y-122678488D02*
X150990300Y-128805934D01*
X155042482Y-121409150D02*
X152259638Y-121409150D01*
%TO.N,/A8*%
X153963950Y-122313950D02*
X152977900Y-123300000D01*
%TO.N,/A14*%
X152113670Y-121056750D02*
X154896514Y-121056750D01*
X148450300Y-128805934D02*
X148450300Y-123870120D01*
X149820419Y-123350000D02*
X151870420Y-121300000D01*
X153338426Y-103168006D02*
X153055582Y-103168006D01*
X151870420Y-121300000D02*
X152113670Y-121056750D01*
X152275000Y-98325000D02*
X152800000Y-97800000D01*
X157073416Y-103426584D02*
X153597004Y-103426584D01*
X157342800Y-103695968D02*
X157073416Y-103426584D01*
X153597004Y-103426584D02*
X153338426Y-103168006D01*
X154896514Y-121056750D02*
X157342800Y-118610464D01*
X148970420Y-123350000D02*
X149820419Y-123350000D01*
X152275000Y-102387424D02*
X152275000Y-98325000D01*
X153055582Y-103168006D02*
X152275000Y-102387424D01*
X157342800Y-118610464D02*
X157342800Y-103695968D01*
X148450300Y-123870120D02*
X148970420Y-123350000D01*
%TO.N,/A13*%
X158047600Y-118902400D02*
X158047600Y-103397600D01*
X152688450Y-121761550D02*
X155188450Y-121761550D01*
X152900000Y-98750000D02*
X153200000Y-98450000D01*
X152900000Y-101450000D02*
X152900000Y-98750000D01*
X155188450Y-121761550D02*
X158047600Y-118902400D01*
X157352890Y-102702890D02*
X154152890Y-102702890D01*
X158047600Y-103397600D02*
X157352890Y-102702890D01*
X154152890Y-102702890D02*
X152900000Y-101450000D01*
X151750000Y-122700000D02*
X152688450Y-121761550D01*
%TO.N,/A1*%
X144006212Y-121643788D02*
X145910300Y-123547876D01*
X142247600Y-117243859D02*
X142247600Y-106400000D01*
X145910300Y-123547876D02*
X145910300Y-128805934D01*
X141336336Y-118155123D02*
X142247600Y-117243859D01*
X142247600Y-106400000D02*
X141550000Y-106400000D01*
X141550000Y-106400000D02*
X141500000Y-106350000D01*
%TO.N,/A3*%
X144252400Y-106800000D02*
X144052400Y-107000000D01*
X143350000Y-119646737D02*
X143350000Y-128785634D01*
X144052400Y-107000000D02*
X144052400Y-118944337D01*
X143350000Y-128785634D02*
X143370300Y-128805934D01*
X143370300Y-128805934D02*
X143370300Y-125630934D01*
X144052400Y-118944337D02*
X143350000Y-119646737D01*
%TO.N,/A2*%
X140175000Y-118398626D02*
X140175000Y-117078031D01*
X140096207Y-118477419D02*
X140175000Y-118398626D01*
X140175000Y-117078031D02*
X140196281Y-117056750D01*
%TO.N,/A5*%
X140700000Y-118978424D02*
X140700000Y-117727400D01*
X140830300Y-122449280D02*
X140830300Y-128805934D01*
X140648606Y-119029818D02*
X140700000Y-118978424D01*
X140700000Y-117727400D02*
X140804306Y-117623094D01*
X142039790Y-121239790D02*
X140830300Y-122449280D01*
%TO.N,/A4*%
X139442553Y-116950000D02*
X139442553Y-118104800D01*
X140447600Y-111100000D02*
X141552400Y-111100000D01*
%TO.N,/D1*%
X140623368Y-98375000D02*
X143700000Y-101451632D01*
X138290300Y-124208068D02*
X138290300Y-128805934D01*
X143700000Y-118798368D02*
X138290300Y-124208068D01*
X143700000Y-101451632D02*
X143700000Y-118798368D01*
%TO.N,/D3*%
X143304800Y-118695201D02*
X143098369Y-118901632D01*
X135947600Y-123952400D02*
X138047599Y-123952400D01*
X141125001Y-99375001D02*
X143304800Y-101554800D01*
X143304800Y-101554800D02*
X143304800Y-118695201D01*
X135750000Y-124150000D02*
X135947600Y-123952400D01*
X140647600Y-99375001D02*
X141125001Y-99375001D01*
X135750300Y-128805934D02*
X135750300Y-124150300D01*
X143098367Y-118901632D02*
X143098369Y-118901632D01*
X135750300Y-124150300D02*
X135750000Y-124150000D01*
X135750300Y-126249700D02*
X135750300Y-128805934D01*
X138047599Y-123952400D02*
X143098367Y-118901632D01*
%TO.N,/D2*%
X135310600Y-98909394D02*
X136381006Y-98909394D01*
X136381006Y-98909394D02*
X136415400Y-98875000D01*
%TO.N,/D5*%
X133210300Y-124189700D02*
X133800000Y-123600000D01*
X133800000Y-123600000D02*
X137901632Y-123600000D01*
X141548368Y-100350000D02*
X140647600Y-100350000D01*
X142952400Y-118549232D02*
X142952400Y-101754032D01*
X133210300Y-128805934D02*
X133210300Y-124189700D01*
X142952400Y-101754032D02*
X141548368Y-100350000D01*
X137901632Y-123600000D02*
X142952400Y-118549232D01*
%TO.N,/D4*%
X136390400Y-99900000D02*
X136415400Y-99875000D01*
X134758200Y-99900000D02*
X136390400Y-99900000D01*
%TO.N,/D7*%
X131450000Y-123100000D02*
X130650000Y-123900000D01*
D38*
X130644900Y-128805934D02*
X130670300Y-128805934D01*
D37*
X142600000Y-101900000D02*
X142600000Y-118403264D01*
X130670300Y-125630934D02*
X130670300Y-128805934D01*
X137903264Y-123100000D02*
X131450000Y-123100000D01*
X142600000Y-118403264D02*
X137903264Y-123100000D01*
X130650000Y-123900000D02*
X130650000Y-125610634D01*
X130650000Y-125610634D02*
X130670300Y-125630934D01*
X140647600Y-101400000D02*
X142100000Y-101400000D01*
X142100000Y-101400000D02*
X142600000Y-101900000D01*
%TO.N,/D6*%
X134169493Y-100783183D02*
X136379093Y-100783183D01*
%TO.N,/SCC_AUD*%
X117970300Y-122992200D02*
X118050000Y-122912500D01*
X117970300Y-128805934D02*
X117970300Y-122992200D01*
%TO.N,/NRST*%
X147850000Y-102150000D02*
X149150000Y-102150000D01*
X147800000Y-102100000D02*
X147850000Y-102150000D01*
X147800000Y-107600000D02*
X147800000Y-102100000D01*
%TO.N,Net-(D2-A)*%
X154200000Y-115837500D02*
X154200000Y-115450000D01*
X152200000Y-113900000D02*
X152100000Y-113800000D01*
X153500000Y-114750000D02*
X152200000Y-114750000D01*
X154200000Y-115450000D02*
X153500000Y-114750000D01*
X152200000Y-114750000D02*
X152200000Y-113900000D01*
D36*
%TO.N,Net-(J7-VBUS)*%
X164942500Y-84717500D02*
X163952500Y-83727500D01*
X153000000Y-83727500D02*
X163952500Y-83727500D01*
X164942500Y-86495000D02*
X164942500Y-84717500D01*
D37*
%TO.N,/BOOT0*%
X139462500Y-94772600D02*
X137460101Y-92770201D01*
X137460101Y-92770201D02*
X130389799Y-92770201D01*
X130389799Y-92770201D02*
X126460000Y-96700000D01*
%TO.N,/USART_TX*%
X158623369Y-87125000D02*
X161000000Y-84748369D01*
X148048368Y-87125000D02*
X158623369Y-87125000D01*
X144371003Y-90802365D02*
X148048368Y-87125000D01*
X144371003Y-91671933D02*
X144371003Y-90802365D01*
X161000000Y-84748369D02*
X161000000Y-84625000D01*
%TO.N,/USART_RX*%
X143622278Y-91597634D02*
X143622278Y-91052721D01*
X147902399Y-86772600D02*
X158127400Y-86772600D01*
X158127400Y-86772600D02*
X160000000Y-84900000D01*
X143622278Y-91052721D02*
X147902399Y-86772600D01*
%TO.N,/USB1_DM*%
X149485600Y-84741900D02*
X150500000Y-83727500D01*
X143319907Y-92286606D02*
X142752952Y-91719651D01*
X142752952Y-91719651D02*
X142752952Y-89720416D01*
X142752952Y-89720416D02*
X147731468Y-84741900D01*
X147731468Y-84741900D02*
X149485600Y-84741900D01*
%TO.N,/USB1_DP*%
X142400552Y-92333476D02*
X142400552Y-89574448D01*
X142400552Y-89574448D02*
X148247500Y-83727500D01*
X148247500Y-83727500D02*
X148500000Y-83727500D01*
%TO.N,/SWDIO*%
X135521112Y-90050000D02*
X127250000Y-90050000D01*
X140014900Y-94543788D02*
X135521112Y-90050000D01*
X127250000Y-90050000D02*
X121900000Y-84700000D01*
X142089790Y-96335210D02*
X141185210Y-96335210D01*
X140014900Y-95164900D02*
X140014900Y-94543788D01*
X141185210Y-96335210D02*
X140014900Y-95164900D01*
%TO.N,/SWCLK*%
X137863988Y-95400000D02*
X138126412Y-95400000D01*
X136891388Y-94427400D02*
X137863988Y-95400000D01*
X134462561Y-94315672D02*
X135103108Y-94315672D01*
X135103108Y-94315672D02*
X135809302Y-95021866D01*
D36*
%TO.N,Net-(U1-OSC_IN)*%
X146250000Y-116900000D02*
X146250000Y-118462500D01*
X146250000Y-118462500D02*
X146950000Y-119162500D01*
D37*
%TO.N,Net-(D3-A)*%
X155750000Y-115837500D02*
X155750000Y-115400000D01*
X155750000Y-115400000D02*
X154150000Y-113800000D01*
%TO.N,Net-(D4-A)*%
X156400000Y-110325000D02*
X156400000Y-113625000D01*
X156400000Y-113625000D02*
X156225000Y-113800000D01*
%TO.N,/BTN1*%
X146921379Y-89033201D02*
X146891799Y-89033201D01*
X144967972Y-90957028D02*
X144967972Y-92129904D01*
X146891799Y-89033201D02*
X144967972Y-90957028D01*
%TO.N,Net-(U1-OSC_OUT)*%
X151450000Y-116900000D02*
X151412500Y-116900000D01*
D36*
X150150000Y-119062500D02*
X150150000Y-118200000D01*
X150150000Y-118200000D02*
X151450000Y-116900000D01*
D37*
%TO.N,Net-(JP1-B)*%
X118050000Y-121187500D02*
X118050000Y-117050000D01*
X124375000Y-120975000D02*
X124375000Y-120650000D01*
X118850000Y-116250000D02*
X119300000Y-115800000D01*
X118050000Y-117050000D02*
X118850000Y-116250000D01*
X121812500Y-121187500D02*
X118050000Y-121187500D01*
X122350000Y-120650000D02*
X121812500Y-121187500D01*
X123737500Y-122200000D02*
X123737500Y-121612500D01*
X124375000Y-120650000D02*
X122350000Y-120650000D01*
X124387500Y-120662500D02*
X124375000Y-120650000D01*
X123737500Y-121612500D02*
X124375000Y-120975000D01*
X119300000Y-115800000D02*
X124750000Y-115800000D01*
%TO.N,Net-(U2-+)*%
X124375000Y-118075000D02*
X124375000Y-118750000D01*
X129500000Y-117362500D02*
X125087500Y-117362500D01*
X125087500Y-117362500D02*
X124375000Y-118075000D01*
%TO.N,/SCC_OUT*%
X129450000Y-115700000D02*
X129500000Y-115650000D01*
X137775000Y-115625000D02*
X137750000Y-115650000D01*
X129500000Y-115650000D02*
X126300000Y-115650000D01*
X137750000Y-115650000D02*
X129500000Y-115650000D01*
%TO.N,Net-(U2--)*%
X128287500Y-118987500D02*
X129200000Y-118987500D01*
X125950000Y-118750000D02*
X126650000Y-118750000D01*
X128050000Y-118750000D02*
X128287500Y-118987500D01*
X125562500Y-122200000D02*
X125562500Y-119137500D01*
X125562500Y-119137500D02*
X125950000Y-118750000D01*
X126650000Y-118750000D02*
X128050000Y-118750000D01*
%TD*%
M02*
