%TF.GenerationSoftware,KiCad,Pcbnew,8.0.6*%
%TF.CreationDate,2024-12-24T11:34:53+00:00*%
%TF.ProjectId,RISKYMSXCart,5249534b-594d-4535-9843-6172742e6b69,rev?*%
%TF.SameCoordinates,Original*%
%TF.FileFunction,Copper,L4,Bot*%
%TF.FilePolarity,Positive*%
%FSLAX46Y46*%
G04 Gerber Fmt 4.6, Leading zero omitted, Abs format (unit mm)*
G04 Created by KiCad (PCBNEW 8.0.6) date 2024-12-24 11:34:53*
%MOMM*%
%LPD*%
G01*
G04 APERTURE LIST*
G04 Aperture macros list*
%AMRoundRect*
0 Rectangle with rounded corners*
0 $1 Rounding radius*
0 $2 $3 $4 $5 $6 $7 $8 $9 X,Y pos of 4 corners*
0 Add a 4 corners polygon primitive as box body*
4,1,4,$2,$3,$4,$5,$6,$7,$8,$9,$2,$3,0*
0 Add four circle primitives for the rounded corners*
1,1,$1+$1,$2,$3*
1,1,$1+$1,$4,$5*
1,1,$1+$1,$6,$7*
1,1,$1+$1,$8,$9*
0 Add four rect primitives between the rounded corners*
20,1,$1+$1,$2,$3,$4,$5,0*
20,1,$1+$1,$4,$5,$6,$7,0*
20,1,$1+$1,$6,$7,$8,$9,0*
20,1,$1+$1,$8,$9,$2,$3,0*%
G04 Aperture macros list end*
%TA.AperFunction,ComponentPad*%
%ADD10R,1.700000X1.700000*%
%TD*%
%TA.AperFunction,ComponentPad*%
%ADD11O,1.700000X1.700000*%
%TD*%
%TA.AperFunction,ComponentPad*%
%ADD12R,1.524000X1.524000*%
%TD*%
%TA.AperFunction,ComponentPad*%
%ADD13C,1.524000*%
%TD*%
%TA.AperFunction,ComponentPad*%
%ADD14C,3.500000*%
%TD*%
%TA.AperFunction,SMDPad,CuDef*%
%ADD15R,1.270000X7.620000*%
%TD*%
%TA.AperFunction,SMDPad,CuDef*%
%ADD16RoundRect,0.237500X-0.237500X0.250000X-0.237500X-0.250000X0.237500X-0.250000X0.237500X0.250000X0*%
%TD*%
%TA.AperFunction,SMDPad,CuDef*%
%ADD17RoundRect,0.237500X0.237500X-0.300000X0.237500X0.300000X-0.237500X0.300000X-0.237500X-0.300000X0*%
%TD*%
%TA.AperFunction,SMDPad,CuDef*%
%ADD18RoundRect,0.237500X-0.300000X-0.237500X0.300000X-0.237500X0.300000X0.237500X-0.300000X0.237500X0*%
%TD*%
%TA.AperFunction,SMDPad,CuDef*%
%ADD19RoundRect,0.237500X-0.250000X-0.237500X0.250000X-0.237500X0.250000X0.237500X-0.250000X0.237500X0*%
%TD*%
%TA.AperFunction,SMDPad,CuDef*%
%ADD20R,1.100000X1.000000*%
%TD*%
%TA.AperFunction,SMDPad,CuDef*%
%ADD21RoundRect,0.250001X-0.462499X-0.624999X0.462499X-0.624999X0.462499X0.624999X-0.462499X0.624999X0*%
%TD*%
%TA.AperFunction,ViaPad*%
%ADD22C,0.600000*%
%TD*%
%TA.AperFunction,ViaPad*%
%ADD23C,0.654800*%
%TD*%
%TA.AperFunction,Conductor*%
%ADD24C,0.200000*%
%TD*%
%TA.AperFunction,Conductor*%
%ADD25C,0.203200*%
%TD*%
G04 APERTURE END LIST*
D10*
%TO.P,J1,1,Pin_1*%
%TO.N,/BOOT0*%
X120360000Y-95175000D03*
D11*
%TO.P,J1,2,Pin_2*%
%TO.N,+3.3V*%
X122900000Y-95175000D03*
%TD*%
D10*
%TO.P,J2,1,Pin_1*%
%TO.N,/USART_TX*%
X167060000Y-82575000D03*
D11*
%TO.P,J2,2,Pin_2*%
%TO.N,/USART_RX*%
X169600000Y-82575000D03*
%TD*%
D12*
%TO.P,J7,1,VBUS*%
%TO.N,Net-(J7-VBUS)*%
X153000000Y-83727500D03*
D13*
%TO.P,J7,2,D-*%
%TO.N,/USB1_DM*%
X150500000Y-83727500D03*
%TO.P,J7,3,D+*%
%TO.N,/USB1_DP*%
X148500000Y-83727500D03*
%TO.P,J7,4,GND*%
%TO.N,GND*%
X146000000Y-83727500D03*
D14*
%TO.P,J7,5,Shield*%
X156070000Y-81017500D03*
X142930000Y-81017500D03*
%TD*%
D10*
%TO.P,J5,1,Pin_1*%
%TO.N,/BOOT1*%
X120335000Y-98825000D03*
D11*
%TO.P,J5,2,Pin_2*%
%TO.N,+3.3V*%
X122875000Y-98825000D03*
%TD*%
D10*
%TO.P,J8,1,Pin_1*%
%TO.N,/SWCLK*%
X121900000Y-87240000D03*
D11*
%TO.P,J8,2,Pin_2*%
%TO.N,/SWDIO*%
X121900000Y-84700000D03*
%TD*%
D15*
%TO.P,CN1,P1,~{EXCS1}*%
%TO.N,/~{EXCS1}*%
X178930300Y-128805934D03*
%TO.P,CN1,P3,~{EXCS12}*%
%TO.N,/~{EXCS12}*%
X176390300Y-128805934D03*
%TO.P,CN1,P5,P$5*%
%TO.N,unconnected-(CN1-P$5-PadP5)*%
X173850300Y-128805934D03*
%TO.P,CN1,P7,WAIT*%
%TO.N,/WAIT*%
X171310300Y-128805934D03*
%TO.P,CN1,P9,~{M1}*%
%TO.N,/~{M1}*%
X168770300Y-128805934D03*
%TO.P,CN1,P11,IORQ*%
%TO.N,/IORQ*%
X166230300Y-128805934D03*
%TO.P,CN1,P13,WR*%
%TO.N,/WR*%
X163690300Y-128805934D03*
%TO.P,CN1,P15,~{RESET}*%
%TO.N,/~{RESET}*%
X161150300Y-128805934D03*
%TO.P,CN1,P17,A9*%
%TO.N,/A9*%
X158610300Y-128805934D03*
%TO.P,CN1,P19,A11*%
%TO.N,/A11*%
X156070300Y-128805934D03*
%TO.P,CN1,P21,A7*%
%TO.N,/A7*%
X153530300Y-128805934D03*
%TO.P,CN1,P23,A12*%
%TO.N,/A12*%
X150990300Y-128805934D03*
%TO.P,CN1,P25,A14*%
%TO.N,/A14*%
X148450300Y-128805934D03*
%TO.P,CN1,P27,A1*%
%TO.N,/A1*%
X145910300Y-128805934D03*
%TO.P,CN1,P29,A3*%
%TO.N,/A3*%
X143370300Y-128805934D03*
%TO.P,CN1,P31,A5*%
%TO.N,/A5*%
X140830300Y-128805934D03*
%TO.P,CN1,P33,D1*%
%TO.N,/D1*%
X138290300Y-128805934D03*
%TO.P,CN1,P35,D3*%
%TO.N,/D3*%
X135750300Y-128805934D03*
%TO.P,CN1,P37,D5*%
%TO.N,/D5*%
X133210300Y-128805934D03*
%TO.P,CN1,P39,D7*%
%TO.N,/D7*%
X130670300Y-128805934D03*
%TO.P,CN1,P41,GND@1*%
%TO.N,GND*%
X128130300Y-128805934D03*
%TO.P,CN1,P43,GND@0*%
X125590300Y-128805934D03*
%TO.P,CN1,P45,VCC@0*%
%TO.N,+5V*%
X123050300Y-128805934D03*
%TO.P,CN1,P47,VCC@1*%
X120510300Y-128805934D03*
%TO.P,CN1,P49,SND_IN*%
%TO.N,/SCC_AUD*%
X117970300Y-128805934D03*
%TD*%
D16*
%TO.P,R5,1*%
%TO.N,Net-(D1-A)*%
X149050000Y-114687500D03*
%TO.P,R5,2*%
%TO.N,+3.3V*%
X149050000Y-116512500D03*
%TD*%
D17*
%TO.P,C8,1*%
%TO.N,+3.3V*%
X151425000Y-106637500D03*
%TO.P,C8,2*%
%TO.N,GND*%
X151425000Y-104912500D03*
%TD*%
%TO.P,C11,1*%
%TO.N,+3.3V*%
X145400000Y-106075000D03*
%TO.P,C11,2*%
%TO.N,GND*%
X145400000Y-104350000D03*
%TD*%
%TO.P,C6,1*%
%TO.N,+3.3V*%
X152925000Y-106637500D03*
%TO.P,C6,2*%
%TO.N,GND*%
X152925000Y-104912500D03*
%TD*%
D18*
%TO.P,C4,1*%
%TO.N,+3.3V*%
X155525000Y-92875000D03*
%TO.P,C4,2*%
%TO.N,GND*%
X157250000Y-92875000D03*
%TD*%
D17*
%TO.P,C9,1*%
%TO.N,/NRST*%
X147800000Y-102100000D03*
%TO.P,C9,2*%
%TO.N,GND*%
X147800000Y-100375000D03*
%TD*%
D19*
%TO.P,R1,1*%
%TO.N,GND*%
X116460000Y-95175000D03*
%TO.P,R1,2*%
%TO.N,/BOOT0*%
X118285000Y-95175000D03*
%TD*%
D18*
%TO.P,C2,1*%
%TO.N,+3.3V*%
X141650000Y-95250000D03*
%TO.P,C2,2*%
%TO.N,GND*%
X143375000Y-95250000D03*
%TD*%
D17*
%TO.P,C5,1*%
%TO.N,+3.3V*%
X146950000Y-106062500D03*
%TO.P,C5,2*%
%TO.N,GND*%
X146950000Y-104337500D03*
%TD*%
D16*
%TO.P,R6,1*%
%TO.N,Net-(D2-A)*%
X151050000Y-114687500D03*
%TO.P,R6,2*%
%TO.N,+3.3V*%
X151050000Y-116512500D03*
%TD*%
%TO.P,R8,1*%
%TO.N,Net-(D4-A)*%
X155100000Y-114650000D03*
%TO.P,R8,2*%
%TO.N,+3.3V*%
X155100000Y-116475000D03*
%TD*%
D19*
%TO.P,R2,1*%
%TO.N,GND*%
X116535000Y-98825000D03*
%TO.P,R2,2*%
%TO.N,/BOOT1*%
X118360000Y-98825000D03*
%TD*%
D20*
%TO.P,C3,1,1*%
%TO.N,+5V*%
X167775000Y-88675000D03*
%TO.P,C3,2,2*%
%TO.N,GND*%
X166075000Y-88675000D03*
%TD*%
D16*
%TO.P,R7,1*%
%TO.N,Net-(D3-A)*%
X153100000Y-114650000D03*
%TO.P,R7,2*%
%TO.N,+3.3V*%
X153100000Y-116475000D03*
%TD*%
D21*
%TO.P,F2,1*%
%TO.N,Net-(J7-VBUS)*%
X164942500Y-86495000D03*
%TO.P,F2,2*%
%TO.N,+5V*%
X167917500Y-86495000D03*
%TD*%
D16*
%TO.P,R4,1*%
%TO.N,+3.3V*%
X149300000Y-100325000D03*
%TO.P,R4,2*%
%TO.N,/NRST*%
X149300000Y-102150000D03*
%TD*%
D22*
%TO.N,GND*%
X137850000Y-110812500D03*
X174300000Y-99000000D03*
X171500000Y-109800000D03*
X137900000Y-106900000D03*
X152925000Y-103800000D03*
X141368788Y-92431212D03*
X143375000Y-95250000D03*
X149651004Y-110500000D03*
D23*
X128536700Y-124056134D03*
D22*
X147800000Y-99200000D03*
X157250000Y-92875000D03*
X182500000Y-110175000D03*
X151425000Y-103800000D03*
X146950000Y-103200000D03*
X153562984Y-95810364D03*
D23*
X126072900Y-124056134D03*
D22*
X166075000Y-88675000D03*
X145500000Y-110600000D03*
D23*
X181851300Y-106250734D03*
D22*
X145400000Y-103250000D03*
X156150000Y-106900000D03*
D23*
%TO.N,+5V*%
X122262900Y-123979934D03*
X177101500Y-108206534D03*
D22*
X167912500Y-86475000D03*
D23*
X180555900Y-110314734D03*
D22*
X177500000Y-99000000D03*
D23*
X119849900Y-123979934D03*
D22*
%TO.N,+3.3V*%
X151500000Y-107650000D03*
X138125000Y-85675000D03*
X137850000Y-109087500D03*
X155525000Y-92875000D03*
X151050000Y-116512500D03*
X152900000Y-107650000D03*
X141525000Y-95050000D03*
X155100000Y-116475000D03*
D23*
X176517300Y-113134134D03*
D22*
X130125000Y-85675000D03*
X153100000Y-116475000D03*
X145400000Y-106075000D03*
X146000000Y-107700000D03*
X146950000Y-106062500D03*
X149050000Y-116512500D03*
X149300000Y-99250000D03*
D23*
X176999900Y-103609134D03*
D22*
X172440000Y-103660000D03*
%TO.N,/~{EXCS1}*%
X136575000Y-102400000D03*
X177152186Y-123418049D03*
X137231289Y-93322601D03*
%TO.N,/~{EXCS2}*%
X137132470Y-103369541D03*
X133745200Y-103550000D03*
%TO.N,/~{EXCS12}*%
X134097600Y-104850000D03*
X136650000Y-104875000D03*
X176400000Y-123400000D03*
%TO.N,/~{EXSLTSL}*%
X136217800Y-96928196D03*
X136767800Y-101427400D03*
%TO.N,/~{RFSH}*%
X155927399Y-95309854D03*
X160666800Y-96882488D03*
%TO.N,/WAIT*%
X147721521Y-92185495D03*
%TO.N,/~{M1}*%
X144975000Y-96695200D03*
%TO.N,/BDIR*%
X147155967Y-91195200D03*
X145725000Y-92250000D03*
%TO.N,/IORQ*%
X145947600Y-95050000D03*
%TO.N,/MREQ*%
X159562000Y-96825000D03*
X156800000Y-96125000D03*
%TO.N,/WR*%
X138025000Y-102427400D03*
%TO.N,/RD*%
X137800000Y-97322600D03*
X137855220Y-103160397D03*
%TO.N,/~{RESET}*%
X161000000Y-124150000D03*
X157481040Y-95202400D03*
X147052400Y-95000000D03*
%TO.N,/A9*%
X156150000Y-100295201D03*
%TO.N,/A11*%
X156150000Y-99190401D03*
X159304800Y-119100000D03*
X158200001Y-120181211D03*
%TO.N,/A7*%
X156150000Y-101400000D03*
%TO.N,/A12*%
X150257914Y-104504510D03*
%TO.N,/A8*%
X153963950Y-122313950D03*
X152977900Y-123300000D03*
%TO.N,/A14*%
X152800000Y-97800000D03*
%TO.N,/A13*%
X153200000Y-98450000D03*
X151809394Y-121790606D03*
%TO.N,/A1*%
X141686839Y-117253218D03*
X144604800Y-117900000D03*
X141500000Y-106350000D03*
%TO.N,/A3*%
X144252400Y-106800000D03*
%TO.N,/A2*%
X140312702Y-116641176D03*
X140099730Y-118875207D03*
%TO.N,/A5*%
X140991662Y-116965402D03*
X142039790Y-121239790D03*
X140791021Y-119172233D03*
%TO.N,/A4*%
X139442553Y-118508837D03*
X139600000Y-116400000D03*
X140447600Y-111100000D03*
X141552400Y-111100000D03*
%TO.N,/D1*%
X140623368Y-98375000D03*
%TO.N,/D3*%
X140647600Y-99375001D03*
%TO.N,/D2*%
X136415400Y-98875000D03*
X135310600Y-98909394D03*
%TO.N,/D5*%
X140647600Y-100350000D03*
%TO.N,/D4*%
X136415400Y-99875000D03*
X134758200Y-99900000D03*
%TO.N,/D7*%
X140647600Y-101400000D03*
%TO.N,/D6*%
X134169493Y-100783183D03*
X136379093Y-100783183D03*
%TO.N,/SCC_AUD*%
X137675000Y-116500000D03*
%TO.N,/NRST*%
X147800000Y-107600000D03*
%TO.N,Net-(D1-A)*%
X149050000Y-114687500D03*
%TO.N,Net-(D2-A)*%
X151050000Y-114687500D03*
%TO.N,/BOOT0*%
X139462500Y-94772600D03*
X118285000Y-95175000D03*
%TO.N,/USART_TX*%
X144371003Y-91671933D03*
X161000000Y-84625000D03*
%TO.N,/USART_RX*%
X143622278Y-91597634D03*
X160000000Y-84900000D03*
%TO.N,/BOOT1*%
X151600000Y-101600000D03*
X136217800Y-96175793D03*
X138681290Y-94772602D03*
X137322600Y-96175793D03*
X141752400Y-97975000D03*
X118360000Y-98825000D03*
%TO.N,/USB1_DM*%
X143319907Y-92286606D03*
%TO.N,/USB1_DP*%
X142400552Y-92333476D03*
%TO.N,/SWDIO*%
X142089790Y-96335210D03*
%TO.N,/SWCLK*%
X134462561Y-94315672D03*
X138126412Y-95400000D03*
X136827399Y-94491389D03*
X135809302Y-95021866D03*
%TO.N,Net-(D3-A)*%
X153100000Y-114650000D03*
%TO.N,Net-(D4-A)*%
X155100000Y-114650000D03*
%TO.N,/BTN1*%
X146921379Y-89033201D03*
X144967972Y-92129904D03*
%TO.N,GND*%
X116535000Y-98825000D03*
X116460000Y-95175000D03*
%TD*%
D24*
%TO.N,/A12*%
X151000000Y-128796234D02*
X150990300Y-128805934D01*
X151000000Y-117649404D02*
X151000000Y-128796234D01*
X150257914Y-104504510D02*
X150257914Y-116907318D01*
X150257914Y-116907318D02*
X151000000Y-117649404D01*
%TO.N,/A3*%
X143350000Y-119646737D02*
X143350000Y-128785634D01*
X144052400Y-118944337D02*
X143350000Y-119646737D01*
X144052400Y-107000000D02*
X144052400Y-118944337D01*
X144252400Y-106800000D02*
X144052400Y-107000000D01*
X143350000Y-128785634D02*
X143370300Y-128805934D01*
%TO.N,/USB1_DM*%
X149485600Y-84741900D02*
X150500000Y-83727500D01*
X147731468Y-84741900D02*
X149485600Y-84741900D01*
X142752952Y-89720416D02*
X147731468Y-84741900D01*
X143319907Y-92286606D02*
X142752952Y-91719651D01*
X142752952Y-91719651D02*
X142752952Y-89720416D01*
%TO.N,/USART_RX*%
X158127400Y-86772600D02*
X160000000Y-84900000D01*
X143622278Y-91597634D02*
X143622278Y-91052721D01*
X147902399Y-86772600D02*
X158127400Y-86772600D01*
X143622278Y-91052721D02*
X147902399Y-86772600D01*
%TO.N,/USB1_DP*%
X142400552Y-89574448D02*
X148247500Y-83727500D01*
X142400552Y-92333476D02*
X142400552Y-89574448D01*
X148247500Y-83727500D02*
X148500000Y-83727500D01*
%TO.N,/BDIR*%
X146779800Y-91195200D02*
X147155967Y-91195200D01*
X145725000Y-92250000D02*
X146779800Y-91195200D01*
%TO.N,/USART_TX*%
X161000000Y-84748369D02*
X161000000Y-84625000D01*
X158623369Y-87125000D02*
X161000000Y-84748369D01*
X148048368Y-87125000D02*
X158623369Y-87125000D01*
X144371003Y-91671933D02*
X144371003Y-90802365D01*
X144371003Y-90802365D02*
X148048368Y-87125000D01*
D25*
%TO.N,GND*%
X128130300Y-128805934D02*
X128130300Y-124462534D01*
X125590300Y-124538734D02*
X126072900Y-124056134D01*
D24*
X146950000Y-103200000D02*
X146950000Y-104337500D01*
D25*
X125590300Y-128805934D02*
X125590300Y-124538734D01*
X128130300Y-124462534D02*
X128536700Y-124056134D01*
D24*
X145400000Y-103250000D02*
X145400000Y-104350000D01*
X151425000Y-104912500D02*
X151425000Y-103800000D01*
X152925000Y-104912500D02*
X152925000Y-103800000D01*
X147800000Y-99200000D02*
X147800000Y-100375000D01*
%TO.N,+5V*%
X173800000Y-86475000D02*
X177525000Y-90200000D01*
X167775000Y-86637500D02*
X167917500Y-86495000D01*
D25*
X120510300Y-124640334D02*
X119849900Y-123979934D01*
D24*
X177525000Y-90200000D02*
X177525000Y-98975000D01*
X167912500Y-86475000D02*
X173800000Y-86475000D01*
D25*
X123050300Y-124767334D02*
X122262900Y-123979934D01*
D24*
X177525000Y-98975000D02*
X177500000Y-99000000D01*
D25*
X120510300Y-128805934D02*
X120510300Y-124868934D01*
D24*
X167775000Y-88675000D02*
X167775000Y-86637500D01*
D25*
X123050300Y-128805934D02*
X123050300Y-124767334D01*
X120510300Y-124868934D02*
X120510300Y-124640334D01*
D24*
%TO.N,+3.3V*%
X149300000Y-99250000D02*
X149300000Y-100325000D01*
X151500000Y-106712500D02*
X151425000Y-106637500D01*
X152900000Y-106662500D02*
X152925000Y-106637500D01*
X146950000Y-106062500D02*
X146950000Y-106750000D01*
X151362500Y-106375000D02*
X151362500Y-106612500D01*
X151500000Y-107650000D02*
X151500000Y-106712500D01*
X146950000Y-106750000D02*
X146000000Y-107700000D01*
X152900000Y-107650000D02*
X152900000Y-106662500D01*
%TO.N,/~{EXCS1}*%
X137320200Y-101656212D02*
X136576412Y-102400000D01*
X178950000Y-125611234D02*
X178930300Y-125630934D01*
X136274999Y-94262577D02*
X136753886Y-93783690D01*
X136753886Y-93783690D02*
X136770200Y-93783690D01*
X136576412Y-102400000D02*
X136575000Y-102400000D01*
X178930300Y-125630934D02*
X178930300Y-128805934D01*
X136575000Y-102400000D02*
X136575000Y-102350000D01*
X136274999Y-94720201D02*
X136274999Y-94262577D01*
X137320200Y-97624012D02*
X136770200Y-97074012D01*
X136770200Y-93783690D02*
X137231289Y-93322601D01*
X136770200Y-97074012D02*
X136770200Y-95215402D01*
X136770200Y-95215402D02*
X136274999Y-94720201D01*
X137320200Y-101656212D02*
X137320200Y-97624012D01*
%TO.N,/~{EXCS2}*%
X133745200Y-103550000D02*
X133925659Y-103369541D01*
X133925659Y-103369541D02*
X137132470Y-103369541D01*
%TO.N,/~{EXCS12}*%
X136625000Y-104850000D02*
X136650000Y-104875000D01*
X134097600Y-104850000D02*
X136625000Y-104850000D01*
%TO.N,/~{EXSLTSL}*%
X136217800Y-97217800D02*
X136967800Y-97967800D01*
X136967800Y-97967800D02*
X136967800Y-101227400D01*
X136967800Y-101227400D02*
X136767800Y-101427400D01*
X136217800Y-96928196D02*
X136217800Y-97217800D01*
%TO.N,/~{RFSH}*%
X156587253Y-94650000D02*
X158434312Y-94650000D01*
X158434312Y-94650000D02*
X160666800Y-96882488D01*
X155927399Y-95309854D02*
X156587253Y-94650000D01*
%TO.N,/WAIT*%
X170947600Y-102372600D02*
X170947600Y-128443234D01*
X170947600Y-128443234D02*
X171310300Y-128805934D01*
X147721521Y-92185495D02*
X147759416Y-92147600D01*
X147759416Y-92147600D02*
X160722600Y-92147600D01*
X160722600Y-92147600D02*
X170947600Y-102372600D01*
%TO.N,/~{M1}*%
X145395200Y-94821188D02*
X145918788Y-94297600D01*
X145918788Y-94297600D02*
X160170969Y-94297600D01*
X168770300Y-102896931D02*
X168770300Y-128805934D01*
X145395200Y-95104800D02*
X145395200Y-94821188D01*
D25*
X168694100Y-128755134D02*
X168770300Y-128805934D01*
D24*
X160170969Y-94297600D02*
X168770300Y-102896931D01*
X144975000Y-95525000D02*
X145395200Y-95104800D01*
X144975000Y-96695200D02*
X144975000Y-95525000D01*
%TO.N,/IORQ*%
X166230300Y-100855300D02*
X166230300Y-128805934D01*
X147438768Y-96541169D02*
X147645199Y-96747600D01*
X157537066Y-97434888D02*
X162809888Y-97434888D01*
X156849778Y-96747600D02*
X157537066Y-97434888D01*
X145947600Y-95050000D02*
X147438768Y-96541169D01*
X162809888Y-97434888D02*
X166230300Y-100855300D01*
X147645199Y-96747600D02*
X156849778Y-96747600D01*
%TO.N,/MREQ*%
X157500000Y-96825000D02*
X159562000Y-96825000D01*
X156800000Y-96125000D02*
X157500000Y-96825000D01*
%TO.N,/WR*%
X163690300Y-105093563D02*
X155844337Y-97247600D01*
X155844337Y-97247600D02*
X140969556Y-97247600D01*
X140969556Y-97247600D02*
X138025000Y-100192156D01*
X163690300Y-128805934D02*
X163690300Y-105093563D01*
X163690300Y-128805934D02*
X163700000Y-128796234D01*
X138025000Y-100192156D02*
X138025000Y-102427400D01*
%TO.N,/RD*%
X137672600Y-101998588D02*
X137472600Y-102198588D01*
X137472600Y-102198588D02*
X137472600Y-102777777D01*
X137800000Y-97322600D02*
X137672600Y-97450000D01*
X137672600Y-97450000D02*
X137672600Y-101998588D01*
X137472600Y-102777777D02*
X137855220Y-103160397D01*
%TO.N,/~{RESET}*%
X156479799Y-95255822D02*
X156479799Y-95538666D01*
X157481040Y-95202400D02*
X157281040Y-95002400D01*
X155638090Y-96380375D02*
X148432775Y-96380375D01*
X156479799Y-95538666D02*
X155638090Y-96380375D01*
X157281040Y-95002400D02*
X156733221Y-95002400D01*
X148432775Y-96380375D02*
X147052400Y-95000000D01*
X156733221Y-95002400D02*
X156479799Y-95255822D01*
%TO.N,/A9*%
X158752400Y-101152400D02*
X158752400Y-125488834D01*
X156150000Y-100295201D02*
X157895201Y-100295201D01*
X158610300Y-125630934D02*
X158610300Y-128805934D01*
D25*
X158610300Y-125072134D02*
X158610300Y-128805934D01*
D24*
X158752400Y-125488834D02*
X158610300Y-125630934D01*
X157895201Y-100295201D02*
X158752400Y-101152400D01*
%TO.N,/A11*%
X159104800Y-118900000D02*
X159304800Y-119100000D01*
X156150000Y-99190401D02*
X157288769Y-99190401D01*
X156070300Y-128805934D02*
X156070300Y-122310912D01*
X157288769Y-99190401D02*
X159104800Y-101006432D01*
X159104800Y-101006432D02*
X159104800Y-118900000D01*
X156070300Y-122310912D02*
X158200001Y-120181211D01*
%TO.N,/A7*%
X158400000Y-102100000D02*
X158400000Y-119200000D01*
X158400000Y-119200000D02*
X153530300Y-124069700D01*
X156150000Y-101400000D02*
X157700000Y-101400000D01*
X153530300Y-124069700D02*
X153530300Y-128805934D01*
X157700000Y-101400000D02*
X158400000Y-102100000D01*
%TO.N,/A12*%
X150990300Y-128805934D02*
X150990300Y-125630934D01*
%TO.N,/A14*%
X148450300Y-118500300D02*
X147775000Y-117825000D01*
X152275000Y-101706212D02*
X148450300Y-105530912D01*
X148450300Y-107730912D02*
X148450300Y-105530912D01*
X152800000Y-97800000D02*
X152275000Y-98325000D01*
X148450300Y-128805934D02*
X148450300Y-118500300D01*
X147775000Y-117825000D02*
X147775000Y-108406212D01*
X152275000Y-98325000D02*
X152275000Y-101706212D01*
X147775000Y-108406212D02*
X148450300Y-107730912D01*
%TO.N,/A13*%
X152900000Y-98750000D02*
X152900000Y-101450000D01*
X153402400Y-101952400D02*
X157652400Y-101952400D01*
X158047600Y-102347600D02*
X158047600Y-115552400D01*
X157652400Y-101952400D02*
X158047600Y-102347600D01*
X152900000Y-101450000D02*
X153402400Y-101952400D01*
X153200000Y-98450000D02*
X152900000Y-98750000D01*
X158047600Y-115552400D02*
X151809394Y-121790606D01*
%TO.N,/A1*%
X142247600Y-116692457D02*
X142247600Y-106400000D01*
X142247600Y-106400000D02*
X141550000Y-106400000D01*
X144604800Y-117900000D02*
X145910300Y-119205500D01*
X141686839Y-117253218D02*
X142247600Y-116692457D01*
X141550000Y-106400000D02*
X141500000Y-106350000D01*
X145910300Y-119205500D02*
X145910300Y-128805934D01*
%TO.N,/A3*%
X143370300Y-128805934D02*
X143370300Y-125630934D01*
%TO.N,/A2*%
X140312702Y-116641176D02*
X140175000Y-116778878D01*
X140175000Y-116778878D02*
X140175000Y-118799937D01*
X140175000Y-118799937D02*
X140099730Y-118875207D01*
%TO.N,/A5*%
X140850000Y-119113254D02*
X140850000Y-117107064D01*
X140830300Y-122449280D02*
X140830300Y-128805934D01*
X140791021Y-119172233D02*
X140850000Y-119113254D01*
X140850000Y-117107064D02*
X140991662Y-116965402D01*
X142039790Y-121239790D02*
X140830300Y-122449280D01*
%TO.N,/A4*%
X139442553Y-118508837D02*
X139442553Y-116557447D01*
X140447600Y-111100000D02*
X141552400Y-111100000D01*
X139442553Y-116557447D02*
X139600000Y-116400000D01*
%TO.N,/D1*%
X140623368Y-98375000D02*
X143700000Y-101451632D01*
X138290300Y-124208068D02*
X138290300Y-128805934D01*
X143700000Y-118798368D02*
X138290300Y-124208068D01*
X143700000Y-101451632D02*
X143700000Y-118798368D01*
%TO.N,/D3*%
X143304800Y-118695201D02*
X143098369Y-118901632D01*
X135947600Y-123952400D02*
X138047599Y-123952400D01*
X141125001Y-99375001D02*
X143304800Y-101554800D01*
X143304800Y-101554800D02*
X143304800Y-118695201D01*
X135750000Y-124150000D02*
X135947600Y-123952400D01*
X140647600Y-99375001D02*
X141125001Y-99375001D01*
X135750300Y-128805934D02*
X135750300Y-124150300D01*
X143098367Y-118901632D02*
X143098369Y-118901632D01*
X135750300Y-124150300D02*
X135750000Y-124150000D01*
X135750300Y-126249700D02*
X135750300Y-128805934D01*
X138047599Y-123952400D02*
X143098367Y-118901632D01*
%TO.N,/D2*%
X135310600Y-98909394D02*
X136381006Y-98909394D01*
X136381006Y-98909394D02*
X136415400Y-98875000D01*
%TO.N,/D5*%
X133210300Y-124189700D02*
X133800000Y-123600000D01*
X133800000Y-123600000D02*
X137901632Y-123600000D01*
X141548368Y-100350000D02*
X140647600Y-100350000D01*
X142952400Y-118549232D02*
X142952400Y-101754032D01*
X133210300Y-128805934D02*
X133210300Y-124189700D01*
X142952400Y-101754032D02*
X141548368Y-100350000D01*
X137901632Y-123600000D02*
X142952400Y-118549232D01*
%TO.N,/D4*%
X136390400Y-99900000D02*
X136415400Y-99875000D01*
X134758200Y-99900000D02*
X136390400Y-99900000D01*
%TO.N,/D7*%
X131450000Y-123100000D02*
X130650000Y-123900000D01*
D25*
X130644900Y-128805934D02*
X130670300Y-128805934D01*
D24*
X142600000Y-101900000D02*
X142600000Y-118403264D01*
X130670300Y-125630934D02*
X130670300Y-128805934D01*
X137903264Y-123100000D02*
X131450000Y-123100000D01*
X142600000Y-118403264D02*
X137903264Y-123100000D01*
X130650000Y-123900000D02*
X130650000Y-125610634D01*
X130650000Y-125610634D02*
X130670300Y-125630934D01*
X140647600Y-101400000D02*
X142100000Y-101400000D01*
X142100000Y-101400000D02*
X142600000Y-101900000D01*
%TO.N,/D6*%
X134169493Y-100783183D02*
X136379093Y-100783183D01*
%TO.N,/SCC_AUD*%
X117970300Y-128805934D02*
X117970300Y-118504700D01*
X137675000Y-116500000D02*
X132650000Y-116500000D01*
X119975000Y-116500000D02*
X132650000Y-116500000D01*
X117970300Y-118504700D02*
X119975000Y-116500000D01*
%TO.N,/NRST*%
X147850000Y-102150000D02*
X149150000Y-102150000D01*
X147800000Y-102100000D02*
X147850000Y-102150000D01*
X147800000Y-107600000D02*
X147800000Y-102100000D01*
%TO.N,Net-(J7-VBUS)*%
X163952500Y-83727500D02*
X153000000Y-83727500D01*
X164942500Y-84717500D02*
X163952500Y-83727500D01*
X164942500Y-86495000D02*
X164942500Y-84717500D01*
%TO.N,/BOOT0*%
X121685000Y-93850000D02*
X120360000Y-95175000D01*
X139462500Y-94772600D02*
X137460101Y-92770201D01*
X135226820Y-92770201D02*
X134147021Y-93850000D01*
X137460101Y-92770201D02*
X135226820Y-92770201D01*
X134147021Y-93850000D02*
X121685000Y-93850000D01*
%TO.N,/BOOT1*%
X142333831Y-98556431D02*
X141752400Y-97975000D01*
X138678812Y-95628812D02*
X138678812Y-95171188D01*
X138681290Y-95168710D02*
X138681290Y-94772602D01*
X151600000Y-99450000D02*
X150706431Y-98556431D01*
X138131831Y-96175793D02*
X138678812Y-95628812D01*
X138678812Y-95171188D02*
X138681290Y-95168710D01*
X137322600Y-96175793D02*
X138131831Y-96175793D01*
X150706431Y-98556431D02*
X142333831Y-98556431D01*
X121910000Y-97250000D02*
X120335000Y-98825000D01*
X136217800Y-96175793D02*
X136188991Y-96175793D01*
X135114784Y-97250000D02*
X121910000Y-97250000D01*
X136188991Y-96175793D02*
X135114784Y-97250000D01*
X151600000Y-101600000D02*
X151600000Y-99450000D01*
%TO.N,/SWDIO*%
X135521112Y-90050000D02*
X127250000Y-90050000D01*
X140014900Y-94543788D02*
X135521112Y-90050000D01*
X127250000Y-90050000D02*
X121900000Y-84700000D01*
X142089790Y-96335210D02*
X141185210Y-96335210D01*
X140014900Y-95164900D02*
X140014900Y-94543788D01*
X141185210Y-96335210D02*
X140014900Y-95164900D01*
%TO.N,/SWCLK*%
X136827399Y-94491389D02*
X137736010Y-95400000D01*
X137736010Y-95400000D02*
X138126412Y-95400000D01*
X134462561Y-94315672D02*
X135103108Y-94315672D01*
X135103108Y-94315672D02*
X135809302Y-95021866D01*
%TO.N,/BTN1*%
X146891799Y-89033201D02*
X144967972Y-90957028D01*
X144967972Y-90957028D02*
X144967972Y-92129904D01*
X146921379Y-89033201D02*
X146891799Y-89033201D01*
%TO.N,/A8*%
X153963950Y-122313950D02*
X152977900Y-123300000D01*
%TO.N,/~{RESET}*%
X161150300Y-124300300D02*
X161150300Y-128805934D01*
X161000000Y-124150000D02*
X161150300Y-124300300D01*
%TO.N,/~{EXCS12}*%
X176400000Y-123400000D02*
X176390300Y-123409700D01*
X176390300Y-123409700D02*
X176390300Y-128805934D01*
%TO.N,/~{EXCS1}*%
X178930300Y-128805934D02*
X178930300Y-125196163D01*
X178930300Y-125196163D02*
X177152186Y-123418049D01*
%TD*%
M02*
