%TF.GenerationSoftware,KiCad,Pcbnew,8.0.6*%
%TF.CreationDate,2025-02-12T20:12:07+00:00*%
%TF.ProjectId,RISKYMSXCart,5249534b-594d-4535-9843-6172742e6b69,rev?*%
%TF.SameCoordinates,Original*%
%TF.FileFunction,Soldermask,Bot*%
%TF.FilePolarity,Negative*%
%FSLAX46Y46*%
G04 Gerber Fmt 4.6, Leading zero omitted, Abs format (unit mm)*
G04 Created by KiCad (PCBNEW 8.0.6) date 2025-02-12 20:12:07*
%MOMM*%
%LPD*%
G01*
G04 APERTURE LIST*
G04 Aperture macros list*
%AMRoundRect*
0 Rectangle with rounded corners*
0 $1 Rounding radius*
0 $2 $3 $4 $5 $6 $7 $8 $9 X,Y pos of 4 corners*
0 Add a 4 corners polygon primitive as box body*
4,1,4,$2,$3,$4,$5,$6,$7,$8,$9,$2,$3,0*
0 Add four circle primitives for the rounded corners*
1,1,$1+$1,$2,$3*
1,1,$1+$1,$4,$5*
1,1,$1+$1,$6,$7*
1,1,$1+$1,$8,$9*
0 Add four rect primitives between the rounded corners*
20,1,$1+$1,$2,$3,$4,$5,0*
20,1,$1+$1,$4,$5,$6,$7,0*
20,1,$1+$1,$6,$7,$8,$9,0*
20,1,$1+$1,$8,$9,$2,$3,0*%
%AMFreePoly0*
4,1,19,0.500000,-0.750000,0.000000,-0.750000,0.000000,-0.744911,-0.071157,-0.744911,-0.207708,-0.704816,-0.327430,-0.627875,-0.420627,-0.520320,-0.479746,-0.390866,-0.500000,-0.250000,-0.500000,0.250000,-0.479746,0.390866,-0.420627,0.520320,-0.327430,0.627875,-0.207708,0.704816,-0.071157,0.744911,0.000000,0.744911,0.000000,0.750000,0.500000,0.750000,0.500000,-0.750000,0.500000,-0.750000,
$1*%
%AMFreePoly1*
4,1,19,0.000000,0.744911,0.071157,0.744911,0.207708,0.704816,0.327430,0.627875,0.420627,0.520320,0.479746,0.390866,0.500000,0.250000,0.500000,-0.250000,0.479746,-0.390866,0.420627,-0.520320,0.327430,-0.627875,0.207708,-0.704816,0.071157,-0.744911,0.000000,-0.744911,0.000000,-0.750000,-0.500000,-0.750000,-0.500000,0.750000,0.000000,0.750000,0.000000,0.744911,0.000000,0.744911,
$1*%
G04 Aperture macros list end*
%ADD10R,1.700000X1.700000*%
%ADD11O,1.700000X1.700000*%
%ADD12C,5.000000*%
%ADD13R,1.524000X1.524000*%
%ADD14C,1.524000*%
%ADD15C,3.500000*%
%ADD16RoundRect,0.050800X0.635000X3.810000X-0.635000X3.810000X-0.635000X-3.810000X0.635000X-3.810000X0*%
%ADD17RoundRect,0.237500X-0.250000X-0.237500X0.250000X-0.237500X0.250000X0.237500X-0.250000X0.237500X0*%
%ADD18RoundRect,0.150000X-0.512500X-0.150000X0.512500X-0.150000X0.512500X0.150000X-0.512500X0.150000X0*%
%ADD19RoundRect,0.237500X0.250000X0.237500X-0.250000X0.237500X-0.250000X-0.237500X0.250000X-0.237500X0*%
%ADD20RoundRect,0.237500X0.237500X-0.300000X0.237500X0.300000X-0.237500X0.300000X-0.237500X-0.300000X0*%
%ADD21RoundRect,0.050800X-0.800000X-0.900000X0.800000X-0.900000X0.800000X0.900000X-0.800000X0.900000X0*%
%ADD22RoundRect,0.050800X-0.900000X0.800000X-0.900000X-0.800000X0.900000X-0.800000X0.900000X0.800000X0*%
%ADD23RoundRect,0.237500X-0.300000X-0.237500X0.300000X-0.237500X0.300000X0.237500X-0.300000X0.237500X0*%
%ADD24RoundRect,0.250000X0.412500X0.650000X-0.412500X0.650000X-0.412500X-0.650000X0.412500X-0.650000X0*%
%ADD25RoundRect,0.250000X0.475000X-0.337500X0.475000X0.337500X-0.475000X0.337500X-0.475000X-0.337500X0*%
%ADD26RoundRect,0.050800X-0.550000X0.500000X-0.550000X-0.500000X0.550000X-0.500000X0.550000X0.500000X0*%
%ADD27RoundRect,0.237500X-0.237500X0.250000X-0.237500X-0.250000X0.237500X-0.250000X0.237500X0.250000X0*%
%ADD28FreePoly0,180.000000*%
%ADD29FreePoly1,180.000000*%
%ADD30RoundRect,0.237500X-0.237500X0.300000X-0.237500X-0.300000X0.237500X-0.300000X0.237500X0.300000X0*%
%ADD31RoundRect,0.050800X0.609500X1.117500X-0.609500X1.117500X-0.609500X-1.117500X0.609500X-1.117500X0*%
%ADD32RoundRect,0.050800X1.800000X1.100000X-1.800000X1.100000X-1.800000X-1.100000X1.800000X-1.100000X0*%
%ADD33RoundRect,0.237500X0.237500X-0.250000X0.237500X0.250000X-0.237500X0.250000X-0.237500X-0.250000X0*%
%ADD34RoundRect,0.050800X0.550000X0.500000X-0.550000X0.500000X-0.550000X-0.500000X0.550000X-0.500000X0*%
%ADD35RoundRect,0.250001X-0.462499X-0.624999X0.462499X-0.624999X0.462499X0.624999X-0.462499X0.624999X0*%
G04 APERTURE END LIST*
D10*
%TO.C,J1*%
X126460000Y-96700000D03*
D11*
X129000000Y-96700000D03*
%TD*%
D12*
%TO.C,@HOLE1*%
X176510300Y-116808934D03*
%TD*%
D10*
%TO.C,J2*%
X167060000Y-82575000D03*
D11*
X169600000Y-82575000D03*
%TD*%
D13*
%TO.C,J7*%
X153000000Y-83727500D03*
D14*
X150500000Y-83727500D03*
X148500000Y-83727500D03*
X146000000Y-83727500D03*
D15*
X156070000Y-81017500D03*
X142930000Y-81017500D03*
%TD*%
D10*
%TO.C,J8*%
X121900000Y-87240000D03*
D11*
X121900000Y-84700000D03*
%TD*%
D16*
%TO.C,CN1*%
X178930300Y-128805934D03*
X176390300Y-128805934D03*
X173850300Y-128805934D03*
X171310300Y-128805934D03*
X168770300Y-128805934D03*
X166230300Y-128805934D03*
X163690300Y-128805934D03*
X161150300Y-128805934D03*
X158610300Y-128805934D03*
X156070300Y-128805934D03*
X153530300Y-128805934D03*
X150990300Y-128805934D03*
X148450300Y-128805934D03*
X145910300Y-128805934D03*
X143370300Y-128805934D03*
X140830300Y-128805934D03*
X138290300Y-128805934D03*
X135750300Y-128805934D03*
X133210300Y-128805934D03*
X130670300Y-128805934D03*
X128130300Y-128805934D03*
X125590300Y-128805934D03*
X123050300Y-128805934D03*
X120510300Y-128805934D03*
X117970300Y-128805934D03*
%TD*%
D12*
%TO.C,@HOLE1*%
X120510300Y-112793734D03*
%TD*%
D17*
%TO.C,R2*%
X123737500Y-122200000D03*
X125562500Y-122200000D03*
%TD*%
D18*
%TO.C,U2*%
X124375000Y-120650000D03*
X124375000Y-119700000D03*
X124375000Y-118750000D03*
X126650000Y-118750000D03*
X126650000Y-120650000D03*
%TD*%
D19*
%TO.C,R5*%
X149975000Y-112800000D03*
X148150000Y-112800000D03*
%TD*%
D20*
%TO.C,C8*%
X151425000Y-106637500D03*
X151425000Y-104912500D03*
%TD*%
D21*
%TO.C,C13*%
X174800000Y-111700000D03*
X177600000Y-111700000D03*
%TD*%
D20*
%TO.C,C11*%
X145400000Y-106075000D03*
X145400000Y-104350000D03*
%TD*%
%TO.C,C6*%
X152925000Y-106637500D03*
X152925000Y-104912500D03*
%TD*%
D22*
%TO.C,C1*%
X180700000Y-104950000D03*
X180700000Y-107750000D03*
%TD*%
D23*
%TO.C,C4*%
X155525000Y-92875000D03*
X157250000Y-92875000D03*
%TD*%
D20*
%TO.C,C9*%
X147800000Y-102100000D03*
X147800000Y-100375000D03*
%TD*%
D24*
%TO.C,C7*%
X177725000Y-98100000D03*
X174600000Y-98100000D03*
%TD*%
D17*
%TO.C,R1*%
X122560000Y-96700000D03*
X124385000Y-96700000D03*
%TD*%
D23*
%TO.C,C2*%
X141650000Y-95250000D03*
X143375000Y-95250000D03*
%TD*%
D25*
%TO.C,C15*%
X146950000Y-121237500D03*
X146950000Y-119162500D03*
%TD*%
D20*
%TO.C,C5*%
X146950000Y-106062500D03*
X146950000Y-104337500D03*
%TD*%
D26*
%TO.C,R3*%
X180150000Y-111700000D03*
X180150000Y-113400000D03*
%TD*%
D27*
%TO.C,R6*%
X154200000Y-115837500D03*
X154200000Y-117662500D03*
%TD*%
D28*
%TO.C,JP1*%
X126300000Y-115650000D03*
D29*
X125000000Y-115650000D03*
%TD*%
D30*
%TO.C,C12*%
X118050000Y-121187500D03*
X118050000Y-122912500D03*
%TD*%
%TO.C,C14*%
X129500000Y-115637500D03*
X129500000Y-117362500D03*
%TD*%
D31*
%TO.C,IC8*%
X177611000Y-108949000D03*
X175300000Y-108949000D03*
X172989000Y-108949000D03*
D32*
X175300000Y-102751000D03*
%TD*%
D33*
%TO.C,R8*%
X156400000Y-110325000D03*
X156400000Y-108500000D03*
%TD*%
D25*
%TO.C,C16*%
X150150000Y-121137500D03*
X150150000Y-119062500D03*
%TD*%
D34*
%TO.C,C3*%
X167775000Y-88675000D03*
X166075000Y-88675000D03*
%TD*%
D27*
%TO.C,R7*%
X155750000Y-115837500D03*
X155750000Y-117662500D03*
%TD*%
D33*
%TO.C,R9*%
X129200000Y-120812500D03*
X129200000Y-118987500D03*
%TD*%
D30*
%TO.C,C10*%
X137850000Y-109087500D03*
X137850000Y-110812500D03*
%TD*%
D35*
%TO.C,F2*%
X164942500Y-86495000D03*
X167917500Y-86495000D03*
%TD*%
D27*
%TO.C,R4*%
X149300000Y-100325000D03*
X149300000Y-102150000D03*
%TD*%
M02*
