%TF.GenerationSoftware,KiCad,Pcbnew,8.0.6*%
%TF.CreationDate,2025-02-12T20:12:07+00:00*%
%TF.ProjectId,RISKYMSXCart,5249534b-594d-4535-9843-6172742e6b69,rev?*%
%TF.SameCoordinates,Original*%
%TF.FileFunction,Copper,L2,Inr*%
%TF.FilePolarity,Positive*%
%FSLAX46Y46*%
G04 Gerber Fmt 4.6, Leading zero omitted, Abs format (unit mm)*
G04 Created by KiCad (PCBNEW 8.0.6) date 2025-02-12 20:12:07*
%MOMM*%
%LPD*%
G01*
G04 APERTURE LIST*
%TA.AperFunction,ComponentPad*%
%ADD10R,1.700000X1.700000*%
%TD*%
%TA.AperFunction,ComponentPad*%
%ADD11O,1.700000X1.700000*%
%TD*%
%TA.AperFunction,ComponentPad*%
%ADD12R,1.524000X1.524000*%
%TD*%
%TA.AperFunction,ComponentPad*%
%ADD13C,1.524000*%
%TD*%
%TA.AperFunction,ComponentPad*%
%ADD14C,3.500000*%
%TD*%
%TA.AperFunction,ViaPad*%
%ADD15C,0.600000*%
%TD*%
%TA.AperFunction,ViaPad*%
%ADD16C,0.654800*%
%TD*%
G04 APERTURE END LIST*
D10*
%TO.N,/BOOT0*%
%TO.C,J1*%
X126460000Y-96700000D03*
D11*
%TO.N,+3.3V*%
X129000000Y-96700000D03*
%TD*%
D10*
%TO.N,/USART_TX*%
%TO.C,J2*%
X167060000Y-82575000D03*
D11*
%TO.N,/USART_RX*%
X169600000Y-82575000D03*
%TD*%
D12*
%TO.N,Net-(J7-VBUS)*%
%TO.C,J7*%
X153000000Y-83727500D03*
D13*
%TO.N,/USB1_DM*%
X150500000Y-83727500D03*
%TO.N,/USB1_DP*%
X148500000Y-83727500D03*
%TO.N,GND*%
X146000000Y-83727500D03*
D14*
X156070000Y-81017500D03*
X142930000Y-81017500D03*
%TD*%
D10*
%TO.N,/SWCLK*%
%TO.C,J8*%
X121900000Y-87240000D03*
D11*
%TO.N,/SWDIO*%
X121900000Y-84700000D03*
%TD*%
D15*
%TO.N,GND*%
X137850000Y-110812500D03*
X137900000Y-106900000D03*
X177605000Y-108955000D03*
X124375000Y-119700000D03*
X152925000Y-103800000D03*
X141368788Y-92431212D03*
X143375000Y-95250000D03*
X149651004Y-110500000D03*
X129200000Y-120812500D03*
X174600000Y-98100000D03*
D16*
X128536700Y-124056134D03*
D15*
X147800000Y-99200000D03*
X157250000Y-92875000D03*
X146950000Y-121237500D03*
X156096394Y-102150490D03*
X150150000Y-121137500D03*
X151425000Y-103800000D03*
X146950000Y-103200000D03*
X122560000Y-96700000D03*
X153562984Y-95810364D03*
X177500000Y-112500000D03*
D16*
X126072900Y-124056134D03*
D15*
X166075000Y-88675000D03*
X145500000Y-110600000D03*
X180700000Y-107750000D03*
X145400000Y-103250000D03*
X156150000Y-106900000D03*
%TO.N,+5V*%
X126650000Y-120650000D03*
D16*
X122262900Y-123979934D03*
D15*
X167912500Y-86475000D03*
X177650000Y-98100000D03*
D16*
X119849900Y-123979934D03*
D15*
%TO.N,+3.3V*%
X175300000Y-102751000D03*
X151500000Y-107650000D03*
X138125000Y-85675000D03*
X155750000Y-117662500D03*
X137850000Y-109087500D03*
X155525000Y-92875000D03*
X156400000Y-108500000D03*
X152900000Y-107650000D03*
X175300000Y-108949000D03*
X141525000Y-95050000D03*
X130125000Y-85675000D03*
X174700000Y-112500000D03*
X145400000Y-106075000D03*
X146000000Y-107700000D03*
X146950000Y-106062500D03*
X154200000Y-117662500D03*
X148150000Y-112800000D03*
X149300000Y-99250000D03*
X180200300Y-111953934D03*
%TO.N,/~{EXCS1}*%
X136575000Y-102400000D03*
X177152186Y-123418049D03*
X137231289Y-93322601D03*
%TO.N,/~{EXCS2}*%
X137132470Y-103369541D03*
X133745200Y-103550000D03*
%TO.N,/~{EXCS12}*%
X134097600Y-104850000D03*
X136650000Y-104875000D03*
X176400000Y-123400000D03*
%TO.N,/~{EXSLTSL}*%
X136217800Y-96928196D03*
X136767800Y-101427400D03*
%TO.N,/~{RFSH}*%
X155927399Y-95309854D03*
X160666800Y-96882488D03*
%TO.N,/WAIT*%
X147721521Y-92185495D03*
%TO.N,/~{M1}*%
X144975000Y-96695200D03*
%TO.N,/BDIR*%
X147155967Y-91195200D03*
X145725000Y-92250000D03*
%TO.N,/IORQ*%
X145947600Y-95050000D03*
%TO.N,/MREQ*%
X159562000Y-96825000D03*
X156800000Y-96125000D03*
%TO.N,/WR*%
X138025000Y-102427400D03*
%TO.N,/RD*%
X137574012Y-96950000D03*
X137855220Y-103160397D03*
%TO.N,/~{RESET}*%
X161000000Y-124150000D03*
X157481040Y-95202400D03*
X147052400Y-95000000D03*
%TO.N,/A9*%
X156150000Y-100295201D03*
%TO.N,/A11*%
X156150000Y-99190401D03*
X159304800Y-119100000D03*
X158200001Y-120181211D03*
%TO.N,/A7*%
X156150000Y-101400000D03*
%TO.N,/A12*%
X153284394Y-102615606D03*
%TO.N,/A8*%
X153963950Y-122313950D03*
X152977900Y-123300000D03*
%TO.N,/A14*%
X152800000Y-97800000D03*
%TO.N,/A13*%
X153200000Y-98450000D03*
X151750000Y-122700000D03*
%TO.N,/A1*%
X141336336Y-118155123D03*
X144006212Y-121643788D03*
X141500000Y-106350000D03*
%TO.N,/A3*%
X144252400Y-106800000D03*
%TO.N,/A2*%
X140196281Y-117056750D03*
X140096207Y-118477419D03*
%TO.N,/A5*%
X140804306Y-117623094D03*
X142039790Y-121239790D03*
X140648606Y-119029818D03*
%TO.N,/A4*%
X139442553Y-118104800D03*
X139442553Y-116950000D03*
X140447600Y-111100000D03*
X141552400Y-111100000D03*
%TO.N,/D1*%
X140623368Y-98375000D03*
%TO.N,/D3*%
X140647600Y-99375001D03*
%TO.N,/D2*%
X136415400Y-98875000D03*
X135310600Y-98909394D03*
%TO.N,/D5*%
X140647600Y-100350000D03*
%TO.N,/D4*%
X136415400Y-99875000D03*
X134758200Y-99900000D03*
%TO.N,/D7*%
X140647600Y-101400000D03*
%TO.N,/D6*%
X134169493Y-100783183D03*
X136379093Y-100783183D03*
%TO.N,/NRST*%
X147800000Y-107600000D03*
%TO.N,Net-(D1-A)*%
X149975000Y-112800000D03*
%TO.N,Net-(D2-A)*%
X152100000Y-113800000D03*
%TO.N,/BOOT0*%
X139462500Y-94772600D03*
X124385000Y-96700000D03*
%TO.N,/USART_TX*%
X144371003Y-91671933D03*
X161000000Y-84625000D03*
%TO.N,/USART_RX*%
X143622278Y-91597634D03*
X160000000Y-84900000D03*
%TO.N,/USB1_DM*%
X143319907Y-92286606D03*
%TO.N,/USB1_DP*%
X142400552Y-92333476D03*
%TO.N,/SWDIO*%
X142089790Y-96335210D03*
%TO.N,/SWCLK*%
X134462561Y-94315672D03*
X138126412Y-95400000D03*
X136891388Y-94427400D03*
X135809302Y-95021866D03*
%TO.N,Net-(U1-OSC_IN)*%
X146250000Y-116900000D03*
%TO.N,Net-(D3-A)*%
X154150000Y-113800000D03*
%TO.N,Net-(D4-A)*%
X156225000Y-113800000D03*
%TO.N,/BTN1*%
X146921379Y-89033201D03*
X144967972Y-92129904D03*
%TO.N,Net-(U1-OSC_OUT)*%
X151450000Y-116900000D03*
%TO.N,Net-(D5-A)*%
X180150000Y-113400000D03*
%TO.N,/SCC_OUT*%
X137775000Y-115625000D03*
%TD*%
%TA.AperFunction,Conductor*%
%TO.N,GND*%
G36*
X175049706Y-77537779D02*
G01*
X176949243Y-79422119D01*
X176950083Y-79422972D01*
X177762252Y-80268325D01*
X184326112Y-87100376D01*
X184340000Y-87134878D01*
X184340000Y-117084415D01*
X184325414Y-117119629D01*
X180799544Y-120645498D01*
X180784000Y-120683024D01*
X180784000Y-127079734D01*
X180769414Y-127114948D01*
X180734200Y-127129534D01*
X116577244Y-127129534D01*
X116542030Y-127114948D01*
X116105786Y-126678704D01*
X116091200Y-126643490D01*
X116091200Y-123979932D01*
X119364661Y-123979932D01*
X119364661Y-123979935D01*
X119384316Y-124116637D01*
X119384317Y-124116642D01*
X119441691Y-124242275D01*
X119441692Y-124242276D01*
X119532134Y-124346652D01*
X119532136Y-124346653D01*
X119648317Y-124421319D01*
X119648318Y-124421319D01*
X119648324Y-124421323D01*
X119780843Y-124460234D01*
X119780844Y-124460234D01*
X119918956Y-124460234D01*
X119918957Y-124460234D01*
X120051476Y-124421323D01*
X120167664Y-124346653D01*
X120258109Y-124242274D01*
X120315483Y-124116642D01*
X120335139Y-123979934D01*
X120335139Y-123979932D01*
X121777661Y-123979932D01*
X121777661Y-123979935D01*
X121797316Y-124116637D01*
X121797317Y-124116642D01*
X121854691Y-124242275D01*
X121854692Y-124242276D01*
X121945134Y-124346652D01*
X121945136Y-124346653D01*
X122061317Y-124421319D01*
X122061318Y-124421319D01*
X122061324Y-124421323D01*
X122193843Y-124460234D01*
X122193844Y-124460234D01*
X122331956Y-124460234D01*
X122331957Y-124460234D01*
X122464476Y-124421323D01*
X122580664Y-124346653D01*
X122671109Y-124242274D01*
X122713249Y-124150000D01*
X160542443Y-124150000D01*
X160560977Y-124278909D01*
X160615079Y-124397374D01*
X160700364Y-124495799D01*
X160809924Y-124566208D01*
X160934883Y-124602900D01*
X160934885Y-124602900D01*
X161065115Y-124602900D01*
X161065117Y-124602900D01*
X161190076Y-124566208D01*
X161299636Y-124495799D01*
X161384921Y-124397374D01*
X161439023Y-124278909D01*
X161457557Y-124150000D01*
X161439023Y-124021091D01*
X161384921Y-123902626D01*
X161299636Y-123804201D01*
X161190076Y-123733792D01*
X161065117Y-123697100D01*
X160934883Y-123697100D01*
X160809924Y-123733792D01*
X160780191Y-123752900D01*
X160700363Y-123804201D01*
X160615079Y-123902626D01*
X160560977Y-124021091D01*
X160560976Y-124021095D01*
X160547239Y-124116642D01*
X160542443Y-124150000D01*
X122713249Y-124150000D01*
X122728483Y-124116642D01*
X122748139Y-123979934D01*
X122728483Y-123843226D01*
X122671109Y-123717594D01*
X122671108Y-123717593D01*
X122671108Y-123717592D01*
X122671107Y-123717591D01*
X122580665Y-123613215D01*
X122580663Y-123613214D01*
X122464482Y-123538548D01*
X122464478Y-123538546D01*
X122464476Y-123538545D01*
X122331957Y-123499634D01*
X122193843Y-123499634D01*
X122061324Y-123538545D01*
X122061322Y-123538545D01*
X122061317Y-123538548D01*
X121945136Y-123613214D01*
X121945134Y-123613215D01*
X121854692Y-123717591D01*
X121854691Y-123717592D01*
X121797317Y-123843225D01*
X121797316Y-123843230D01*
X121777661Y-123979932D01*
X120335139Y-123979932D01*
X120315483Y-123843226D01*
X120258109Y-123717594D01*
X120258108Y-123717593D01*
X120258108Y-123717592D01*
X120258107Y-123717591D01*
X120167665Y-123613215D01*
X120167663Y-123613214D01*
X120051482Y-123538548D01*
X120051478Y-123538546D01*
X120051476Y-123538545D01*
X119918957Y-123499634D01*
X119780843Y-123499634D01*
X119648324Y-123538545D01*
X119648322Y-123538545D01*
X119648317Y-123538548D01*
X119532136Y-123613214D01*
X119532134Y-123613215D01*
X119441692Y-123717591D01*
X119441691Y-123717592D01*
X119384317Y-123843225D01*
X119384316Y-123843230D01*
X119364661Y-123979932D01*
X116091200Y-123979932D01*
X116091200Y-123299998D01*
X152520343Y-123299998D01*
X152520343Y-123300001D01*
X152537315Y-123418050D01*
X152538877Y-123428909D01*
X152592979Y-123547374D01*
X152678264Y-123645799D01*
X152787824Y-123716208D01*
X152912783Y-123752900D01*
X152912785Y-123752900D01*
X153043015Y-123752900D01*
X153043017Y-123752900D01*
X153167976Y-123716208D01*
X153277536Y-123645799D01*
X153362821Y-123547374D01*
X153416923Y-123428909D01*
X153421079Y-123400000D01*
X175942443Y-123400000D01*
X175960977Y-123528909D01*
X176015079Y-123647374D01*
X176100364Y-123745799D01*
X176209924Y-123816208D01*
X176334883Y-123852900D01*
X176334885Y-123852900D01*
X176465115Y-123852900D01*
X176465117Y-123852900D01*
X176590076Y-123816208D01*
X176699636Y-123745799D01*
X176730636Y-123710021D01*
X176764719Y-123692960D01*
X176800884Y-123704996D01*
X176805903Y-123710014D01*
X176852550Y-123763848D01*
X176962110Y-123834257D01*
X177087069Y-123870949D01*
X177087071Y-123870949D01*
X177217301Y-123870949D01*
X177217303Y-123870949D01*
X177342262Y-123834257D01*
X177451822Y-123763848D01*
X177537107Y-123665423D01*
X177591209Y-123546958D01*
X177609743Y-123418049D01*
X177591209Y-123289140D01*
X177537107Y-123170675D01*
X177451822Y-123072250D01*
X177342262Y-123001841D01*
X177217303Y-122965149D01*
X177087069Y-122965149D01*
X176962110Y-123001841D01*
X176852550Y-123072250D01*
X176852549Y-123072250D01*
X176852549Y-123072251D01*
X176821548Y-123108027D01*
X176787464Y-123125087D01*
X176751299Y-123113050D01*
X176746276Y-123108026D01*
X176699638Y-123054203D01*
X176699637Y-123054202D01*
X176699636Y-123054201D01*
X176590076Y-122983792D01*
X176465117Y-122947100D01*
X176334883Y-122947100D01*
X176209924Y-122983792D01*
X176181839Y-123001841D01*
X176100363Y-123054201D01*
X176015079Y-123152626D01*
X175960977Y-123271091D01*
X175960976Y-123271095D01*
X175956820Y-123300001D01*
X175942443Y-123400000D01*
X153421079Y-123400000D01*
X153435457Y-123300000D01*
X153416923Y-123171091D01*
X153362821Y-123052626D01*
X153277536Y-122954201D01*
X153167976Y-122883792D01*
X153043017Y-122847100D01*
X152912783Y-122847100D01*
X152787824Y-122883792D01*
X152733044Y-122918996D01*
X152678263Y-122954201D01*
X152592979Y-123052626D01*
X152538877Y-123171091D01*
X152538876Y-123171095D01*
X152520343Y-123299998D01*
X116091200Y-123299998D01*
X116091200Y-122700000D01*
X151292443Y-122700000D01*
X151310977Y-122828909D01*
X151365079Y-122947374D01*
X151450364Y-123045799D01*
X151559924Y-123116208D01*
X151684883Y-123152900D01*
X151684885Y-123152900D01*
X151815115Y-123152900D01*
X151815117Y-123152900D01*
X151940076Y-123116208D01*
X152049636Y-123045799D01*
X152134921Y-122947374D01*
X152189023Y-122828909D01*
X152207557Y-122700000D01*
X152189023Y-122571091D01*
X152134921Y-122452626D01*
X152049636Y-122354201D01*
X151987003Y-122313950D01*
X153506393Y-122313950D01*
X153524927Y-122442859D01*
X153579029Y-122561324D01*
X153664314Y-122659749D01*
X153773874Y-122730158D01*
X153898833Y-122766850D01*
X153898835Y-122766850D01*
X154029065Y-122766850D01*
X154029067Y-122766850D01*
X154154026Y-122730158D01*
X154263586Y-122659749D01*
X154348871Y-122561324D01*
X154402973Y-122442859D01*
X154421507Y-122313950D01*
X154402973Y-122185041D01*
X154348871Y-122066576D01*
X154263586Y-121968151D01*
X154154026Y-121897742D01*
X154029067Y-121861050D01*
X153898833Y-121861050D01*
X153773874Y-121897742D01*
X153719094Y-121932946D01*
X153664313Y-121968151D01*
X153579029Y-122066576D01*
X153524927Y-122185041D01*
X153506393Y-122313950D01*
X151987003Y-122313950D01*
X151940076Y-122283792D01*
X151815117Y-122247100D01*
X151684883Y-122247100D01*
X151559924Y-122283792D01*
X151513000Y-122313948D01*
X151450363Y-122354201D01*
X151373546Y-122442854D01*
X151365079Y-122452626D01*
X151310977Y-122571091D01*
X151292443Y-122700000D01*
X116091200Y-122700000D01*
X116091200Y-121239788D01*
X141582233Y-121239788D01*
X141582233Y-121239791D01*
X141590600Y-121297989D01*
X141600767Y-121368699D01*
X141654869Y-121487164D01*
X141740154Y-121585589D01*
X141849714Y-121655998D01*
X141974673Y-121692690D01*
X141974675Y-121692690D01*
X142104905Y-121692690D01*
X142104907Y-121692690D01*
X142229866Y-121655998D01*
X142248868Y-121643786D01*
X143548655Y-121643786D01*
X143548655Y-121643789D01*
X143550410Y-121655998D01*
X143567189Y-121772697D01*
X143621291Y-121891162D01*
X143706576Y-121989587D01*
X143816136Y-122059996D01*
X143941095Y-122096688D01*
X143941097Y-122096688D01*
X144071327Y-122096688D01*
X144071329Y-122096688D01*
X144196288Y-122059996D01*
X144305848Y-121989587D01*
X144391133Y-121891162D01*
X144445235Y-121772697D01*
X144460680Y-121665272D01*
X144463769Y-121643789D01*
X144463769Y-121643786D01*
X144455401Y-121585588D01*
X144445235Y-121514879D01*
X144391133Y-121396414D01*
X144305848Y-121297989D01*
X144196288Y-121227580D01*
X144071329Y-121190888D01*
X143941095Y-121190888D01*
X143816136Y-121227580D01*
X143761356Y-121262784D01*
X143706575Y-121297989D01*
X143621291Y-121396414D01*
X143567189Y-121514879D01*
X143567188Y-121514883D01*
X143548655Y-121643786D01*
X142248868Y-121643786D01*
X142339426Y-121585589D01*
X142424711Y-121487164D01*
X142478813Y-121368699D01*
X142497347Y-121239790D01*
X142495591Y-121227580D01*
X142490316Y-121190888D01*
X142478813Y-121110881D01*
X142424711Y-120992416D01*
X142339426Y-120893991D01*
X142229866Y-120823582D01*
X142104907Y-120786890D01*
X141974673Y-120786890D01*
X141849714Y-120823582D01*
X141812909Y-120847235D01*
X141740153Y-120893991D01*
X141654869Y-120992416D01*
X141600767Y-121110881D01*
X141600766Y-121110885D01*
X141582233Y-121239788D01*
X116091200Y-121239788D01*
X116091200Y-120784636D01*
X116091200Y-120784635D01*
X116075656Y-120747109D01*
X116046935Y-120718388D01*
X115978545Y-120649998D01*
X126192443Y-120649998D01*
X126192443Y-120650001D01*
X126206191Y-120745625D01*
X126210977Y-120778909D01*
X126265079Y-120897374D01*
X126350364Y-120995799D01*
X126459924Y-121066208D01*
X126584883Y-121102900D01*
X126584885Y-121102900D01*
X126715115Y-121102900D01*
X126715117Y-121102900D01*
X126840076Y-121066208D01*
X126949636Y-120995799D01*
X127034921Y-120897374D01*
X127089023Y-120778909D01*
X127107557Y-120650000D01*
X127102780Y-120616778D01*
X127099997Y-120597418D01*
X127089023Y-120521091D01*
X127034921Y-120402626D01*
X126949636Y-120304201D01*
X126840076Y-120233792D01*
X126715117Y-120197100D01*
X126584883Y-120197100D01*
X126459924Y-120233792D01*
X126405144Y-120268996D01*
X126350363Y-120304201D01*
X126265079Y-120402626D01*
X126210977Y-120521091D01*
X126210976Y-120521095D01*
X126192443Y-120649998D01*
X115978545Y-120649998D01*
X115509758Y-120181211D01*
X157742444Y-120181211D01*
X157760978Y-120310120D01*
X157815080Y-120428585D01*
X157900365Y-120527010D01*
X158009925Y-120597419D01*
X158134884Y-120634111D01*
X158134886Y-120634111D01*
X158265116Y-120634111D01*
X158265118Y-120634111D01*
X158390077Y-120597419D01*
X158499637Y-120527010D01*
X158584922Y-120428585D01*
X158639024Y-120310120D01*
X158657558Y-120181211D01*
X158639024Y-120052302D01*
X158584922Y-119933837D01*
X158499637Y-119835412D01*
X158390077Y-119765003D01*
X158265118Y-119728311D01*
X158134884Y-119728311D01*
X158009925Y-119765003D01*
X157955145Y-119800207D01*
X157900364Y-119835412D01*
X157815080Y-119933837D01*
X157760978Y-120052302D01*
X157742444Y-120181211D01*
X115509758Y-120181211D01*
X113433345Y-118104798D01*
X138984996Y-118104798D01*
X138984996Y-118104801D01*
X138990271Y-118141493D01*
X139003530Y-118233709D01*
X139057632Y-118352174D01*
X139142917Y-118450599D01*
X139252477Y-118521008D01*
X139377436Y-118557700D01*
X139377438Y-118557700D01*
X139507668Y-118557700D01*
X139507670Y-118557700D01*
X139589277Y-118533737D01*
X139627171Y-118537811D01*
X139651088Y-118567489D01*
X139652597Y-118574430D01*
X139657184Y-118606328D01*
X139711286Y-118724793D01*
X139796571Y-118823218D01*
X139906131Y-118893627D01*
X140031090Y-118930319D01*
X140031092Y-118930319D01*
X140147882Y-118930319D01*
X140183096Y-118944905D01*
X140197682Y-118980119D01*
X140197175Y-118987206D01*
X140191049Y-119029816D01*
X140191049Y-119029819D01*
X140201139Y-119100001D01*
X140209583Y-119158727D01*
X140263685Y-119277192D01*
X140348970Y-119375617D01*
X140458530Y-119446026D01*
X140583489Y-119482718D01*
X140583491Y-119482718D01*
X140713721Y-119482718D01*
X140713723Y-119482718D01*
X140838682Y-119446026D01*
X140948242Y-119375617D01*
X141033527Y-119277192D01*
X141087629Y-119158727D01*
X141096073Y-119099998D01*
X158847243Y-119099998D01*
X158847243Y-119100001D01*
X158864500Y-119220032D01*
X158865777Y-119228909D01*
X158919879Y-119347374D01*
X159005164Y-119445799D01*
X159114724Y-119516208D01*
X159239683Y-119552900D01*
X159239685Y-119552900D01*
X159369915Y-119552900D01*
X159369917Y-119552900D01*
X159494876Y-119516208D01*
X159604436Y-119445799D01*
X159689721Y-119347374D01*
X159743823Y-119228909D01*
X159762357Y-119100000D01*
X159743823Y-118971091D01*
X159689721Y-118852626D01*
X159604436Y-118754201D01*
X159494876Y-118683792D01*
X159369917Y-118647100D01*
X159239683Y-118647100D01*
X159114724Y-118683792D01*
X159059944Y-118718996D01*
X159005163Y-118754201D01*
X158919879Y-118852626D01*
X158865777Y-118971091D01*
X158865776Y-118971095D01*
X158847243Y-119099998D01*
X141096073Y-119099998D01*
X141106163Y-119029818D01*
X141087629Y-118900909D01*
X141033527Y-118782444D01*
X140948242Y-118684019D01*
X140838682Y-118613610D01*
X140713723Y-118576918D01*
X140596930Y-118576918D01*
X140561716Y-118562332D01*
X140547130Y-118527118D01*
X140547637Y-118520030D01*
X140550385Y-118500922D01*
X140553764Y-118477419D01*
X140535230Y-118348510D01*
X140481128Y-118230045D01*
X140395843Y-118131620D01*
X140286283Y-118061211D01*
X140161324Y-118024519D01*
X140031090Y-118024519D01*
X139949484Y-118048481D01*
X139911587Y-118044406D01*
X139887671Y-118014728D01*
X139886161Y-118007784D01*
X139881576Y-117975891D01*
X139827474Y-117857426D01*
X139742189Y-117759001D01*
X139632629Y-117688592D01*
X139507670Y-117651900D01*
X139377436Y-117651900D01*
X139252477Y-117688592D01*
X139197697Y-117723796D01*
X139142916Y-117759001D01*
X139057632Y-117857426D01*
X139003530Y-117975891D01*
X139003529Y-117975895D01*
X138984996Y-118104798D01*
X113433345Y-118104798D01*
X112676786Y-117348239D01*
X112662200Y-117313025D01*
X112662200Y-116950000D01*
X138984996Y-116950000D01*
X139003530Y-117078909D01*
X139057632Y-117197374D01*
X139142917Y-117295799D01*
X139252477Y-117366208D01*
X139377436Y-117402900D01*
X139377438Y-117402900D01*
X139507668Y-117402900D01*
X139507670Y-117402900D01*
X139632629Y-117366208D01*
X139742189Y-117295799D01*
X139742190Y-117295797D01*
X139745185Y-117293873D01*
X139746313Y-117295628D01*
X139776096Y-117285710D01*
X139810183Y-117302765D01*
X139810188Y-117302772D01*
X139896642Y-117402546D01*
X139896645Y-117402549D01*
X140006205Y-117472958D01*
X140131164Y-117509650D01*
X140131166Y-117509650D01*
X140261397Y-117509650D01*
X140261398Y-117509650D01*
X140293187Y-117500315D01*
X140331084Y-117504388D01*
X140355001Y-117534065D01*
X140356512Y-117555184D01*
X140346749Y-117623092D01*
X140346749Y-117623095D01*
X140359039Y-117708579D01*
X140365283Y-117752003D01*
X140419385Y-117870468D01*
X140504670Y-117968893D01*
X140614230Y-118039302D01*
X140739189Y-118075994D01*
X140739191Y-118075994D01*
X140832684Y-118075994D01*
X140867898Y-118090580D01*
X140882484Y-118125794D01*
X140881977Y-118132882D01*
X140878779Y-118155123D01*
X140878779Y-118155124D01*
X140890077Y-118233708D01*
X140897313Y-118284032D01*
X140951415Y-118402497D01*
X141036700Y-118500922D01*
X141146260Y-118571331D01*
X141271219Y-118608023D01*
X141271221Y-118608023D01*
X141401451Y-118608023D01*
X141401453Y-118608023D01*
X141526412Y-118571331D01*
X141635972Y-118500922D01*
X141721257Y-118402497D01*
X141775359Y-118284032D01*
X141793893Y-118155123D01*
X141791933Y-118141493D01*
X141781430Y-118068439D01*
X141775359Y-118026214D01*
X141721257Y-117907749D01*
X141635972Y-117809324D01*
X141526412Y-117738915D01*
X141401453Y-117702223D01*
X141307958Y-117702223D01*
X141272744Y-117687637D01*
X141262331Y-117662498D01*
X153742443Y-117662498D01*
X153742443Y-117662501D01*
X153756317Y-117759001D01*
X153760977Y-117791409D01*
X153815079Y-117909874D01*
X153900364Y-118008299D01*
X154009924Y-118078708D01*
X154134883Y-118115400D01*
X154134885Y-118115400D01*
X154265115Y-118115400D01*
X154265117Y-118115400D01*
X154390076Y-118078708D01*
X154499636Y-118008299D01*
X154584921Y-117909874D01*
X154639023Y-117791409D01*
X154657557Y-117662500D01*
X154657557Y-117662498D01*
X155292443Y-117662498D01*
X155292443Y-117662501D01*
X155306317Y-117759001D01*
X155310977Y-117791409D01*
X155365079Y-117909874D01*
X155450364Y-118008299D01*
X155559924Y-118078708D01*
X155684883Y-118115400D01*
X155684885Y-118115400D01*
X155815115Y-118115400D01*
X155815117Y-118115400D01*
X155940076Y-118078708D01*
X156049636Y-118008299D01*
X156134921Y-117909874D01*
X156189023Y-117791409D01*
X156207557Y-117662500D01*
X156189023Y-117533591D01*
X156134921Y-117415126D01*
X156049636Y-117316701D01*
X155940076Y-117246292D01*
X155815117Y-117209600D01*
X155684883Y-117209600D01*
X155559924Y-117246292D01*
X155511682Y-117277295D01*
X155450363Y-117316701D01*
X155365079Y-117415126D01*
X155310977Y-117533591D01*
X155310976Y-117533595D01*
X155292443Y-117662498D01*
X154657557Y-117662498D01*
X154639023Y-117533591D01*
X154584921Y-117415126D01*
X154499636Y-117316701D01*
X154390076Y-117246292D01*
X154265117Y-117209600D01*
X154134883Y-117209600D01*
X154009924Y-117246292D01*
X153961682Y-117277295D01*
X153900363Y-117316701D01*
X153815079Y-117415126D01*
X153760977Y-117533591D01*
X153760976Y-117533595D01*
X153742443Y-117662498D01*
X141262331Y-117662498D01*
X141258158Y-117652423D01*
X141258665Y-117645335D01*
X141261863Y-117623094D01*
X141261863Y-117623092D01*
X141252099Y-117555184D01*
X141243329Y-117494185D01*
X141189227Y-117375720D01*
X141103942Y-117277295D01*
X140994382Y-117206886D01*
X140869423Y-117170194D01*
X140739189Y-117170194D01*
X140707397Y-117179529D01*
X140669500Y-117175454D01*
X140645584Y-117145776D01*
X140644074Y-117124658D01*
X140644798Y-117119629D01*
X140653838Y-117056750D01*
X140649834Y-117028904D01*
X140640416Y-116963399D01*
X140635304Y-116927841D01*
X140622588Y-116899998D01*
X145792443Y-116899998D01*
X145792443Y-116900001D01*
X145801557Y-116963394D01*
X145810977Y-117028909D01*
X145865079Y-117147374D01*
X145950364Y-117245799D01*
X146059924Y-117316208D01*
X146184883Y-117352900D01*
X146184885Y-117352900D01*
X146315115Y-117352900D01*
X146315117Y-117352900D01*
X146440076Y-117316208D01*
X146549636Y-117245799D01*
X146634921Y-117147374D01*
X146689023Y-117028909D01*
X146707557Y-116900000D01*
X146707557Y-116899998D01*
X150992443Y-116899998D01*
X150992443Y-116900001D01*
X151001557Y-116963394D01*
X151010977Y-117028909D01*
X151065079Y-117147374D01*
X151150364Y-117245799D01*
X151259924Y-117316208D01*
X151384883Y-117352900D01*
X151384885Y-117352900D01*
X151515115Y-117352900D01*
X151515117Y-117352900D01*
X151640076Y-117316208D01*
X151749636Y-117245799D01*
X151834921Y-117147374D01*
X151889023Y-117028909D01*
X151907557Y-116900000D01*
X151889023Y-116771091D01*
X151835763Y-116654469D01*
X173759800Y-116654469D01*
X173759800Y-116963399D01*
X173791686Y-117246396D01*
X173794389Y-117270383D01*
X173794391Y-117270397D01*
X173863132Y-117571571D01*
X173863134Y-117571578D01*
X173965162Y-117863156D01*
X173965165Y-117863164D01*
X174099201Y-118141493D01*
X174099203Y-118141496D01*
X174107766Y-118155124D01*
X174263565Y-118403077D01*
X174456180Y-118644608D01*
X174674626Y-118863054D01*
X174916157Y-119055669D01*
X175177735Y-119220029D01*
X175177737Y-119220030D01*
X175177740Y-119220032D01*
X175439763Y-119346215D01*
X175456071Y-119354069D01*
X175456077Y-119354071D01*
X175718868Y-119446026D01*
X175747664Y-119456102D01*
X176048848Y-119524845D01*
X176355835Y-119559434D01*
X176355839Y-119559434D01*
X176664761Y-119559434D01*
X176664765Y-119559434D01*
X176971752Y-119524845D01*
X177272936Y-119456102D01*
X177564529Y-119354069D01*
X177842865Y-119220029D01*
X178104443Y-119055669D01*
X178345974Y-118863054D01*
X178564420Y-118644608D01*
X178757035Y-118403077D01*
X178921395Y-118141499D01*
X178926153Y-118131620D01*
X178970611Y-118039301D01*
X179055435Y-117863163D01*
X179157468Y-117571570D01*
X179226211Y-117270386D01*
X179260800Y-116963399D01*
X179260800Y-116654469D01*
X179226211Y-116347482D01*
X179157468Y-116046298D01*
X179055435Y-115754705D01*
X178992971Y-115624998D01*
X178921398Y-115476374D01*
X178921396Y-115476371D01*
X178921395Y-115476369D01*
X178757035Y-115214791D01*
X178564420Y-114973260D01*
X178345974Y-114754814D01*
X178104443Y-114562199D01*
X177842865Y-114397839D01*
X177842862Y-114397837D01*
X177842859Y-114397835D01*
X177564530Y-114263799D01*
X177564522Y-114263796D01*
X177272944Y-114161768D01*
X177272937Y-114161766D01*
X176971763Y-114093025D01*
X176971757Y-114093024D01*
X176971752Y-114093023D01*
X176664765Y-114058434D01*
X176355835Y-114058434D01*
X176048848Y-114093023D01*
X176048844Y-114093023D01*
X176048836Y-114093025D01*
X175747662Y-114161766D01*
X175747655Y-114161768D01*
X175456077Y-114263796D01*
X175456069Y-114263799D01*
X175177740Y-114397835D01*
X175177737Y-114397837D01*
X174916156Y-114562199D01*
X174674625Y-114754814D01*
X174456180Y-114973259D01*
X174263565Y-115214790D01*
X174099203Y-115476371D01*
X174099201Y-115476374D01*
X173965165Y-115754703D01*
X173965162Y-115754711D01*
X173863134Y-116046289D01*
X173863132Y-116046296D01*
X173794391Y-116347470D01*
X173794389Y-116347478D01*
X173794389Y-116347482D01*
X173759800Y-116654469D01*
X151835763Y-116654469D01*
X151834921Y-116652626D01*
X151749636Y-116554201D01*
X151640076Y-116483792D01*
X151515117Y-116447100D01*
X151384883Y-116447100D01*
X151259924Y-116483792D01*
X151205144Y-116518996D01*
X151150363Y-116554201D01*
X151065079Y-116652626D01*
X151010977Y-116771091D01*
X151010976Y-116771095D01*
X150992443Y-116899998D01*
X146707557Y-116899998D01*
X146689023Y-116771091D01*
X146634921Y-116652626D01*
X146549636Y-116554201D01*
X146440076Y-116483792D01*
X146315117Y-116447100D01*
X146184883Y-116447100D01*
X146059924Y-116483792D01*
X146005144Y-116518996D01*
X145950363Y-116554201D01*
X145865079Y-116652626D01*
X145810977Y-116771091D01*
X145810976Y-116771095D01*
X145792443Y-116899998D01*
X140622588Y-116899998D01*
X140581202Y-116809376D01*
X140495917Y-116710951D01*
X140386357Y-116640542D01*
X140261398Y-116603850D01*
X140131164Y-116603850D01*
X140006205Y-116640542D01*
X139896645Y-116710951D01*
X139896643Y-116710952D01*
X139893649Y-116712877D01*
X139892536Y-116711146D01*
X139862618Y-116721030D01*
X139828644Y-116703977D01*
X139827474Y-116702627D01*
X139827474Y-116702626D01*
X139742189Y-116604201D01*
X139632629Y-116533792D01*
X139507670Y-116497100D01*
X139377436Y-116497100D01*
X139252477Y-116533792D01*
X139220720Y-116554201D01*
X139142916Y-116604201D01*
X139057632Y-116702626D01*
X139003530Y-116821091D01*
X139003529Y-116821095D01*
X138988182Y-116927841D01*
X138984996Y-116950000D01*
X112662200Y-116950000D01*
X112662200Y-115625000D01*
X137317443Y-115625000D01*
X137335977Y-115753909D01*
X137390079Y-115872374D01*
X137475364Y-115970799D01*
X137584924Y-116041208D01*
X137709883Y-116077900D01*
X137709885Y-116077900D01*
X137840115Y-116077900D01*
X137840117Y-116077900D01*
X137965076Y-116041208D01*
X138074636Y-115970799D01*
X138159921Y-115872374D01*
X138214023Y-115753909D01*
X138232557Y-115625000D01*
X138214023Y-115496091D01*
X138159921Y-115377626D01*
X138074636Y-115279201D01*
X137965076Y-115208792D01*
X137840117Y-115172100D01*
X137709883Y-115172100D01*
X137584924Y-115208792D01*
X137530144Y-115243996D01*
X137475363Y-115279201D01*
X137390079Y-115377626D01*
X137335977Y-115496091D01*
X137335976Y-115496095D01*
X137334028Y-115509644D01*
X137317443Y-115625000D01*
X112662200Y-115625000D01*
X112662200Y-112639269D01*
X117759800Y-112639269D01*
X117759800Y-112948199D01*
X117794389Y-113255183D01*
X117794391Y-113255197D01*
X117863132Y-113556371D01*
X117863134Y-113556378D01*
X117965162Y-113847956D01*
X117965165Y-113847964D01*
X118099201Y-114126293D01*
X118099203Y-114126296D01*
X118185600Y-114263796D01*
X118263565Y-114387877D01*
X118456180Y-114629408D01*
X118674626Y-114847854D01*
X118916157Y-115040469D01*
X119125647Y-115172100D01*
X119177737Y-115204830D01*
X119177740Y-115204832D01*
X119439763Y-115331015D01*
X119456071Y-115338869D01*
X119747664Y-115440902D01*
X120048848Y-115509645D01*
X120355835Y-115544234D01*
X120355839Y-115544234D01*
X120664761Y-115544234D01*
X120664765Y-115544234D01*
X120971752Y-115509645D01*
X121272936Y-115440902D01*
X121564529Y-115338869D01*
X121842865Y-115204829D01*
X122104443Y-115040469D01*
X122345974Y-114847854D01*
X122564420Y-114629408D01*
X122757035Y-114387877D01*
X122921395Y-114126299D01*
X123055435Y-113847963D01*
X123072219Y-113799998D01*
X151642443Y-113799998D01*
X151642443Y-113800000D01*
X151660977Y-113928909D01*
X151715079Y-114047374D01*
X151800364Y-114145799D01*
X151909924Y-114216208D01*
X152034883Y-114252900D01*
X152034885Y-114252900D01*
X152165115Y-114252900D01*
X152165117Y-114252900D01*
X152290076Y-114216208D01*
X152399636Y-114145799D01*
X152484921Y-114047374D01*
X152539023Y-113928909D01*
X152557557Y-113800000D01*
X152557557Y-113799998D01*
X153692443Y-113799998D01*
X153692443Y-113800000D01*
X153710977Y-113928909D01*
X153765079Y-114047374D01*
X153850364Y-114145799D01*
X153959924Y-114216208D01*
X154084883Y-114252900D01*
X154084885Y-114252900D01*
X154215115Y-114252900D01*
X154215117Y-114252900D01*
X154340076Y-114216208D01*
X154449636Y-114145799D01*
X154534921Y-114047374D01*
X154589023Y-113928909D01*
X154607557Y-113800000D01*
X154607557Y-113799998D01*
X155767443Y-113799998D01*
X155767443Y-113800000D01*
X155785977Y-113928909D01*
X155840079Y-114047374D01*
X155925364Y-114145799D01*
X156034924Y-114216208D01*
X156159883Y-114252900D01*
X156159885Y-114252900D01*
X156290115Y-114252900D01*
X156290117Y-114252900D01*
X156415076Y-114216208D01*
X156524636Y-114145799D01*
X156609921Y-114047374D01*
X156664023Y-113928909D01*
X156682557Y-113800000D01*
X156664023Y-113671091D01*
X156609921Y-113552626D01*
X156524636Y-113454201D01*
X156440296Y-113400000D01*
X179692443Y-113400000D01*
X179710977Y-113528909D01*
X179765079Y-113647374D01*
X179850364Y-113745799D01*
X179959924Y-113816208D01*
X180084883Y-113852900D01*
X180084885Y-113852900D01*
X180215115Y-113852900D01*
X180215117Y-113852900D01*
X180340076Y-113816208D01*
X180449636Y-113745799D01*
X180534921Y-113647374D01*
X180589023Y-113528909D01*
X180607557Y-113400000D01*
X180589023Y-113271091D01*
X180534921Y-113152626D01*
X180449636Y-113054201D01*
X180340076Y-112983792D01*
X180215117Y-112947100D01*
X180084883Y-112947100D01*
X179959924Y-112983792D01*
X179905144Y-113018996D01*
X179850363Y-113054201D01*
X179765079Y-113152626D01*
X179710977Y-113271091D01*
X179710976Y-113271095D01*
X179694773Y-113383792D01*
X179692443Y-113400000D01*
X156440296Y-113400000D01*
X156415076Y-113383792D01*
X156290117Y-113347100D01*
X156159883Y-113347100D01*
X156034924Y-113383792D01*
X155980144Y-113418996D01*
X155925363Y-113454201D01*
X155840079Y-113552626D01*
X155785977Y-113671091D01*
X155785976Y-113671095D01*
X155767443Y-113799998D01*
X154607557Y-113799998D01*
X154589023Y-113671091D01*
X154534921Y-113552626D01*
X154449636Y-113454201D01*
X154340076Y-113383792D01*
X154215117Y-113347100D01*
X154084883Y-113347100D01*
X153959924Y-113383792D01*
X153905144Y-113418996D01*
X153850363Y-113454201D01*
X153765079Y-113552626D01*
X153710977Y-113671091D01*
X153710976Y-113671095D01*
X153692443Y-113799998D01*
X152557557Y-113799998D01*
X152539023Y-113671091D01*
X152484921Y-113552626D01*
X152399636Y-113454201D01*
X152290076Y-113383792D01*
X152165117Y-113347100D01*
X152034883Y-113347100D01*
X151909924Y-113383792D01*
X151855144Y-113418996D01*
X151800363Y-113454201D01*
X151715079Y-113552626D01*
X151660977Y-113671091D01*
X151660976Y-113671095D01*
X151642443Y-113799998D01*
X123072219Y-113799998D01*
X123157468Y-113556370D01*
X123226211Y-113255186D01*
X123260800Y-112948199D01*
X123260800Y-112799998D01*
X147692443Y-112799998D01*
X147692443Y-112800001D01*
X147709150Y-112916207D01*
X147710977Y-112928909D01*
X147765079Y-113047374D01*
X147850364Y-113145799D01*
X147959924Y-113216208D01*
X148084883Y-113252900D01*
X148084885Y-113252900D01*
X148215115Y-113252900D01*
X148215117Y-113252900D01*
X148340076Y-113216208D01*
X148449636Y-113145799D01*
X148534921Y-113047374D01*
X148589023Y-112928909D01*
X148607557Y-112800000D01*
X148607557Y-112799998D01*
X149517443Y-112799998D01*
X149517443Y-112800001D01*
X149534150Y-112916207D01*
X149535977Y-112928909D01*
X149590079Y-113047374D01*
X149675364Y-113145799D01*
X149784924Y-113216208D01*
X149909883Y-113252900D01*
X149909885Y-113252900D01*
X150040115Y-113252900D01*
X150040117Y-113252900D01*
X150165076Y-113216208D01*
X150274636Y-113145799D01*
X150359921Y-113047374D01*
X150414023Y-112928909D01*
X150432557Y-112800000D01*
X150414023Y-112671091D01*
X150359921Y-112552626D01*
X150314319Y-112499998D01*
X174242443Y-112499998D01*
X174242443Y-112500000D01*
X174260977Y-112628909D01*
X174315079Y-112747374D01*
X174400364Y-112845799D01*
X174509924Y-112916208D01*
X174634883Y-112952900D01*
X174634885Y-112952900D01*
X174765115Y-112952900D01*
X174765117Y-112952900D01*
X174890076Y-112916208D01*
X174999636Y-112845799D01*
X175084921Y-112747374D01*
X175139023Y-112628909D01*
X175157557Y-112500000D01*
X175139023Y-112371091D01*
X175084921Y-112252626D01*
X174999636Y-112154201D01*
X174890076Y-112083792D01*
X174765117Y-112047100D01*
X174634883Y-112047100D01*
X174509924Y-112083792D01*
X174455144Y-112118996D01*
X174400363Y-112154201D01*
X174315079Y-112252626D01*
X174260977Y-112371091D01*
X174260976Y-112371095D01*
X174242443Y-112499998D01*
X150314319Y-112499998D01*
X150274636Y-112454201D01*
X150165076Y-112383792D01*
X150040117Y-112347100D01*
X149909883Y-112347100D01*
X149784924Y-112383792D01*
X149730144Y-112418996D01*
X149675363Y-112454201D01*
X149590079Y-112552626D01*
X149535977Y-112671091D01*
X149535976Y-112671095D01*
X149517443Y-112799998D01*
X148607557Y-112799998D01*
X148589023Y-112671091D01*
X148534921Y-112552626D01*
X148449636Y-112454201D01*
X148340076Y-112383792D01*
X148215117Y-112347100D01*
X148084883Y-112347100D01*
X147959924Y-112383792D01*
X147905144Y-112418996D01*
X147850363Y-112454201D01*
X147765079Y-112552626D01*
X147710977Y-112671091D01*
X147710976Y-112671095D01*
X147692443Y-112799998D01*
X123260800Y-112799998D01*
X123260800Y-112639269D01*
X123226211Y-112332282D01*
X123157468Y-112031098D01*
X123130467Y-111953935D01*
X123130467Y-111953934D01*
X179742743Y-111953934D01*
X179761277Y-112082843D01*
X179815379Y-112201308D01*
X179900664Y-112299733D01*
X180010224Y-112370142D01*
X180135183Y-112406834D01*
X180135185Y-112406834D01*
X180265415Y-112406834D01*
X180265417Y-112406834D01*
X180390376Y-112370142D01*
X180499936Y-112299733D01*
X180585221Y-112201308D01*
X180639323Y-112082843D01*
X180657857Y-111953934D01*
X180639323Y-111825025D01*
X180585221Y-111706560D01*
X180499936Y-111608135D01*
X180390376Y-111537726D01*
X180265417Y-111501034D01*
X180135183Y-111501034D01*
X180010224Y-111537726D01*
X179955444Y-111572930D01*
X179900663Y-111608135D01*
X179815379Y-111706560D01*
X179761277Y-111825025D01*
X179742743Y-111953934D01*
X123130467Y-111953934D01*
X123055437Y-111739511D01*
X123055434Y-111739503D01*
X122921398Y-111461174D01*
X122921396Y-111461171D01*
X122849892Y-111347373D01*
X122757035Y-111199591D01*
X122677612Y-111099998D01*
X139990043Y-111099998D01*
X139990043Y-111100001D01*
X140004361Y-111199590D01*
X140008577Y-111228909D01*
X140062679Y-111347374D01*
X140147964Y-111445799D01*
X140257524Y-111516208D01*
X140382483Y-111552900D01*
X140382485Y-111552900D01*
X140512715Y-111552900D01*
X140512717Y-111552900D01*
X140637676Y-111516208D01*
X140747236Y-111445799D01*
X140832521Y-111347374D01*
X140886623Y-111228909D01*
X140905157Y-111100000D01*
X140905157Y-111099998D01*
X141094843Y-111099998D01*
X141094843Y-111100001D01*
X141109161Y-111199590D01*
X141113377Y-111228909D01*
X141167479Y-111347374D01*
X141252764Y-111445799D01*
X141362324Y-111516208D01*
X141487283Y-111552900D01*
X141487285Y-111552900D01*
X141617515Y-111552900D01*
X141617517Y-111552900D01*
X141742476Y-111516208D01*
X141852036Y-111445799D01*
X141937321Y-111347374D01*
X141991423Y-111228909D01*
X142009957Y-111100000D01*
X141991423Y-110971091D01*
X141937321Y-110852626D01*
X141852036Y-110754201D01*
X141742476Y-110683792D01*
X141617517Y-110647100D01*
X141487283Y-110647100D01*
X141362324Y-110683792D01*
X141307544Y-110718996D01*
X141252763Y-110754201D01*
X141167479Y-110852626D01*
X141113377Y-110971091D01*
X141113376Y-110971095D01*
X141094843Y-111099998D01*
X140905157Y-111099998D01*
X140886623Y-110971091D01*
X140832521Y-110852626D01*
X140747236Y-110754201D01*
X140637676Y-110683792D01*
X140512717Y-110647100D01*
X140382483Y-110647100D01*
X140257524Y-110683792D01*
X140202744Y-110718996D01*
X140147963Y-110754201D01*
X140062679Y-110852626D01*
X140008577Y-110971091D01*
X140008576Y-110971095D01*
X139990043Y-111099998D01*
X122677612Y-111099998D01*
X122564420Y-110958060D01*
X122345974Y-110739614D01*
X122104443Y-110546999D01*
X121842865Y-110382639D01*
X121842862Y-110382637D01*
X121842859Y-110382635D01*
X121564530Y-110248599D01*
X121564522Y-110248596D01*
X121272944Y-110146568D01*
X121272937Y-110146566D01*
X120971763Y-110077825D01*
X120971757Y-110077824D01*
X120971752Y-110077823D01*
X120664765Y-110043234D01*
X120355835Y-110043234D01*
X120048848Y-110077823D01*
X120048844Y-110077823D01*
X120048836Y-110077825D01*
X119747662Y-110146566D01*
X119747655Y-110146568D01*
X119456077Y-110248596D01*
X119456069Y-110248599D01*
X119177740Y-110382635D01*
X119177737Y-110382637D01*
X118916156Y-110546999D01*
X118674625Y-110739614D01*
X118456180Y-110958059D01*
X118263565Y-111199590D01*
X118099203Y-111461171D01*
X118099201Y-111461174D01*
X117965165Y-111739503D01*
X117965162Y-111739511D01*
X117863134Y-112031089D01*
X117863132Y-112031096D01*
X117794391Y-112332270D01*
X117794389Y-112332278D01*
X117794389Y-112332282D01*
X117759800Y-112639269D01*
X112662200Y-112639269D01*
X112662200Y-109087500D01*
X137392443Y-109087500D01*
X137410977Y-109216409D01*
X137465079Y-109334874D01*
X137550364Y-109433299D01*
X137659924Y-109503708D01*
X137784883Y-109540400D01*
X137784885Y-109540400D01*
X137915115Y-109540400D01*
X137915117Y-109540400D01*
X138040076Y-109503708D01*
X138149636Y-109433299D01*
X138234921Y-109334874D01*
X138289023Y-109216409D01*
X138307557Y-109087500D01*
X138306177Y-109077904D01*
X138301379Y-109044530D01*
X138289023Y-108958591D01*
X138234921Y-108840126D01*
X138149636Y-108741701D01*
X138040076Y-108671292D01*
X137915117Y-108634600D01*
X137784883Y-108634600D01*
X137659924Y-108671292D01*
X137612723Y-108701626D01*
X137550363Y-108741701D01*
X137465079Y-108840126D01*
X137410977Y-108958591D01*
X137410976Y-108958595D01*
X137393822Y-109077908D01*
X137392443Y-109087500D01*
X112662200Y-109087500D01*
X112662200Y-108499998D01*
X155942443Y-108499998D01*
X155942443Y-108500000D01*
X155960977Y-108628909D01*
X156015079Y-108747374D01*
X156100364Y-108845799D01*
X156209924Y-108916208D01*
X156334883Y-108952900D01*
X156334885Y-108952900D01*
X156465115Y-108952900D01*
X156465117Y-108952900D01*
X156478406Y-108948998D01*
X174842443Y-108948998D01*
X174842443Y-108949001D01*
X174843822Y-108958595D01*
X174860977Y-109077909D01*
X174915079Y-109196374D01*
X175000364Y-109294799D01*
X175109924Y-109365208D01*
X175234883Y-109401900D01*
X175234885Y-109401900D01*
X175365115Y-109401900D01*
X175365117Y-109401900D01*
X175490076Y-109365208D01*
X175599636Y-109294799D01*
X175684921Y-109196374D01*
X175739023Y-109077909D01*
X175754468Y-108970484D01*
X175757557Y-108949001D01*
X175757557Y-108948998D01*
X175742719Y-108845798D01*
X175739023Y-108820091D01*
X175684921Y-108701626D01*
X175599636Y-108603201D01*
X175490076Y-108532792D01*
X175365117Y-108496100D01*
X175234883Y-108496100D01*
X175109924Y-108532792D01*
X175055144Y-108567996D01*
X175000363Y-108603201D01*
X174915079Y-108701626D01*
X174860977Y-108820091D01*
X174860976Y-108820095D01*
X174842443Y-108948998D01*
X156478406Y-108948998D01*
X156590076Y-108916208D01*
X156699636Y-108845799D01*
X156784921Y-108747374D01*
X156839023Y-108628909D01*
X156857557Y-108500000D01*
X156856996Y-108496100D01*
X156851379Y-108457030D01*
X156839023Y-108371091D01*
X156784921Y-108252626D01*
X156699636Y-108154201D01*
X156590076Y-108083792D01*
X156465117Y-108047100D01*
X156334883Y-108047100D01*
X156209924Y-108083792D01*
X156180191Y-108102900D01*
X156100363Y-108154201D01*
X156015079Y-108252626D01*
X155960977Y-108371091D01*
X155960976Y-108371095D01*
X155942443Y-108499998D01*
X112662200Y-108499998D01*
X112662200Y-107699998D01*
X145542443Y-107699998D01*
X145542443Y-107700000D01*
X145560977Y-107828909D01*
X145615079Y-107947374D01*
X145700364Y-108045799D01*
X145809924Y-108116208D01*
X145934883Y-108152900D01*
X145934885Y-108152900D01*
X146065115Y-108152900D01*
X146065117Y-108152900D01*
X146190076Y-108116208D01*
X146299636Y-108045799D01*
X146384921Y-107947374D01*
X146439023Y-107828909D01*
X146457557Y-107700000D01*
X146443179Y-107599998D01*
X147342443Y-107599998D01*
X147342443Y-107600001D01*
X147356820Y-107700001D01*
X147360977Y-107728909D01*
X147415079Y-107847374D01*
X147500364Y-107945799D01*
X147609924Y-108016208D01*
X147734883Y-108052900D01*
X147734885Y-108052900D01*
X147865115Y-108052900D01*
X147865117Y-108052900D01*
X147990076Y-108016208D01*
X148099636Y-107945799D01*
X148184921Y-107847374D01*
X148239023Y-107728909D01*
X148250368Y-107649998D01*
X151042443Y-107649998D01*
X151042443Y-107650001D01*
X151049631Y-107699998D01*
X151060977Y-107778909D01*
X151115079Y-107897374D01*
X151200364Y-107995799D01*
X151309924Y-108066208D01*
X151434883Y-108102900D01*
X151434885Y-108102900D01*
X151565115Y-108102900D01*
X151565117Y-108102900D01*
X151690076Y-108066208D01*
X151799636Y-107995799D01*
X151884921Y-107897374D01*
X151939023Y-107778909D01*
X151957557Y-107650000D01*
X151957557Y-107649998D01*
X152442443Y-107649998D01*
X152442443Y-107650001D01*
X152449631Y-107699998D01*
X152460977Y-107778909D01*
X152515079Y-107897374D01*
X152600364Y-107995799D01*
X152709924Y-108066208D01*
X152834883Y-108102900D01*
X152834885Y-108102900D01*
X152965115Y-108102900D01*
X152965117Y-108102900D01*
X153090076Y-108066208D01*
X153199636Y-107995799D01*
X153284921Y-107897374D01*
X153339023Y-107778909D01*
X153357557Y-107650000D01*
X153339023Y-107521091D01*
X153284921Y-107402626D01*
X153199636Y-107304201D01*
X153090076Y-107233792D01*
X152965117Y-107197100D01*
X152834883Y-107197100D01*
X152709924Y-107233792D01*
X152680191Y-107252900D01*
X152600363Y-107304201D01*
X152515079Y-107402626D01*
X152460977Y-107521091D01*
X152460976Y-107521095D01*
X152442443Y-107649998D01*
X151957557Y-107649998D01*
X151939023Y-107521091D01*
X151884921Y-107402626D01*
X151799636Y-107304201D01*
X151690076Y-107233792D01*
X151565117Y-107197100D01*
X151434883Y-107197100D01*
X151309924Y-107233792D01*
X151280191Y-107252900D01*
X151200363Y-107304201D01*
X151115079Y-107402626D01*
X151060977Y-107521091D01*
X151060976Y-107521095D01*
X151042443Y-107649998D01*
X148250368Y-107649998D01*
X148257557Y-107600000D01*
X148239023Y-107471091D01*
X148184921Y-107352626D01*
X148099636Y-107254201D01*
X147990076Y-107183792D01*
X147865117Y-107147100D01*
X147734883Y-107147100D01*
X147609924Y-107183792D01*
X147559485Y-107216207D01*
X147500363Y-107254201D01*
X147415079Y-107352626D01*
X147360977Y-107471091D01*
X147360976Y-107471095D01*
X147342443Y-107599998D01*
X146443179Y-107599998D01*
X146439023Y-107571091D01*
X146384921Y-107452626D01*
X146299636Y-107354201D01*
X146190076Y-107283792D01*
X146065117Y-107247100D01*
X145934883Y-107247100D01*
X145809924Y-107283792D01*
X145778167Y-107304201D01*
X145700363Y-107354201D01*
X145615079Y-107452626D01*
X145560977Y-107571091D01*
X145560976Y-107571095D01*
X145542443Y-107699998D01*
X112662200Y-107699998D01*
X112662200Y-106349998D01*
X141042443Y-106349998D01*
X141042443Y-106350001D01*
X141057424Y-106454201D01*
X141060977Y-106478909D01*
X141115079Y-106597374D01*
X141200364Y-106695799D01*
X141309924Y-106766208D01*
X141434883Y-106802900D01*
X141434885Y-106802900D01*
X141565115Y-106802900D01*
X141565117Y-106802900D01*
X141574993Y-106800000D01*
X143794843Y-106800000D01*
X143813377Y-106928909D01*
X143867479Y-107047374D01*
X143952764Y-107145799D01*
X144062324Y-107216208D01*
X144187283Y-107252900D01*
X144187285Y-107252900D01*
X144317515Y-107252900D01*
X144317517Y-107252900D01*
X144442476Y-107216208D01*
X144552036Y-107145799D01*
X144637321Y-107047374D01*
X144691423Y-106928909D01*
X144709957Y-106800000D01*
X144691423Y-106671091D01*
X144637321Y-106552626D01*
X144552036Y-106454201D01*
X144442476Y-106383792D01*
X144317517Y-106347100D01*
X144187283Y-106347100D01*
X144062324Y-106383792D01*
X144024190Y-106408299D01*
X143952763Y-106454201D01*
X143867479Y-106552626D01*
X143813377Y-106671091D01*
X143813376Y-106671095D01*
X143799701Y-106766208D01*
X143794843Y-106800000D01*
X141574993Y-106800000D01*
X141690076Y-106766208D01*
X141799636Y-106695799D01*
X141884921Y-106597374D01*
X141939023Y-106478909D01*
X141957557Y-106350000D01*
X141939023Y-106221091D01*
X141884921Y-106102626D01*
X141860981Y-106074998D01*
X144942443Y-106074998D01*
X144942443Y-106075001D01*
X144959179Y-106191408D01*
X144960977Y-106203909D01*
X145015079Y-106322374D01*
X145100364Y-106420799D01*
X145209924Y-106491208D01*
X145334883Y-106527900D01*
X145334885Y-106527900D01*
X145465115Y-106527900D01*
X145465117Y-106527900D01*
X145590076Y-106491208D01*
X145699636Y-106420799D01*
X145784921Y-106322374D01*
X145839023Y-106203909D01*
X145857557Y-106075000D01*
X145855760Y-106062500D01*
X146492443Y-106062500D01*
X146510977Y-106191409D01*
X146565079Y-106309874D01*
X146650364Y-106408299D01*
X146759924Y-106478708D01*
X146884883Y-106515400D01*
X146884885Y-106515400D01*
X147015115Y-106515400D01*
X147015117Y-106515400D01*
X147140076Y-106478708D01*
X147249636Y-106408299D01*
X147334921Y-106309874D01*
X147389023Y-106191409D01*
X147407557Y-106062500D01*
X147389023Y-105933591D01*
X147334921Y-105815126D01*
X147249636Y-105716701D01*
X147140076Y-105646292D01*
X147015117Y-105609600D01*
X146884883Y-105609600D01*
X146759924Y-105646292D01*
X146705144Y-105681496D01*
X146650363Y-105716701D01*
X146565079Y-105815126D01*
X146510977Y-105933591D01*
X146510976Y-105933595D01*
X146509179Y-105946095D01*
X146492443Y-106062500D01*
X145855760Y-106062500D01*
X145839023Y-105946091D01*
X145784921Y-105827626D01*
X145699636Y-105729201D01*
X145590076Y-105658792D01*
X145465117Y-105622100D01*
X145334883Y-105622100D01*
X145209924Y-105658792D01*
X145155144Y-105693996D01*
X145100363Y-105729201D01*
X145015079Y-105827626D01*
X144960977Y-105946091D01*
X144960976Y-105946095D01*
X144942443Y-106074998D01*
X141860981Y-106074998D01*
X141799636Y-106004201D01*
X141690076Y-105933792D01*
X141565117Y-105897100D01*
X141434883Y-105897100D01*
X141309924Y-105933792D01*
X141255144Y-105968996D01*
X141200363Y-106004201D01*
X141115079Y-106102626D01*
X141060977Y-106221091D01*
X141060976Y-106221095D01*
X141042443Y-106349998D01*
X112662200Y-106349998D01*
X112662200Y-104849998D01*
X133640043Y-104849998D01*
X133640043Y-104850001D01*
X133643637Y-104875001D01*
X133658577Y-104978909D01*
X133712679Y-105097374D01*
X133797964Y-105195799D01*
X133907524Y-105266208D01*
X134032483Y-105302900D01*
X134032485Y-105302900D01*
X134162715Y-105302900D01*
X134162717Y-105302900D01*
X134287676Y-105266208D01*
X134397236Y-105195799D01*
X134482521Y-105097374D01*
X134536623Y-104978909D01*
X134551563Y-104874998D01*
X136192443Y-104874998D01*
X136192443Y-104875001D01*
X136207382Y-104978909D01*
X136210977Y-105003909D01*
X136265079Y-105122374D01*
X136350364Y-105220799D01*
X136459924Y-105291208D01*
X136584883Y-105327900D01*
X136584885Y-105327900D01*
X136715115Y-105327900D01*
X136715117Y-105327900D01*
X136840076Y-105291208D01*
X136949636Y-105220799D01*
X137034921Y-105122374D01*
X137089023Y-105003909D01*
X137107557Y-104875000D01*
X137089023Y-104746091D01*
X137034921Y-104627626D01*
X136949636Y-104529201D01*
X136840076Y-104458792D01*
X136715117Y-104422100D01*
X136584883Y-104422100D01*
X136459924Y-104458792D01*
X136405144Y-104493996D01*
X136350363Y-104529201D01*
X136265079Y-104627626D01*
X136210977Y-104746091D01*
X136210976Y-104746095D01*
X136192443Y-104874998D01*
X134551563Y-104874998D01*
X134555157Y-104850000D01*
X134536623Y-104721091D01*
X134482521Y-104602626D01*
X134397236Y-104504201D01*
X134287676Y-104433792D01*
X134162717Y-104397100D01*
X134032483Y-104397100D01*
X133907524Y-104433792D01*
X133868623Y-104458792D01*
X133797963Y-104504201D01*
X133712679Y-104602626D01*
X133658577Y-104721091D01*
X133658576Y-104721095D01*
X133640043Y-104849998D01*
X112662200Y-104849998D01*
X112662200Y-103549998D01*
X133287643Y-103549998D01*
X133287643Y-103550001D01*
X133297263Y-103616914D01*
X133306177Y-103678909D01*
X133360279Y-103797374D01*
X133445564Y-103895799D01*
X133555124Y-103966208D01*
X133680083Y-104002900D01*
X133680085Y-104002900D01*
X133810315Y-104002900D01*
X133810317Y-104002900D01*
X133935276Y-103966208D01*
X134044836Y-103895799D01*
X134130121Y-103797374D01*
X134184223Y-103678909D01*
X134202757Y-103550000D01*
X134201320Y-103540008D01*
X134195345Y-103498445D01*
X134184223Y-103421091D01*
X134160680Y-103369539D01*
X136674913Y-103369539D01*
X136674913Y-103369542D01*
X136682324Y-103421091D01*
X136693447Y-103498450D01*
X136747549Y-103616915D01*
X136832834Y-103715340D01*
X136942394Y-103785749D01*
X137067353Y-103822441D01*
X137067355Y-103822441D01*
X137197585Y-103822441D01*
X137197587Y-103822441D01*
X137322546Y-103785749D01*
X137432106Y-103715340D01*
X137517391Y-103616915D01*
X137541273Y-103564619D01*
X137569170Y-103538648D01*
X137607261Y-103540008D01*
X137613489Y-103543408D01*
X137665144Y-103576605D01*
X137790103Y-103613297D01*
X137790105Y-103613297D01*
X137920335Y-103613297D01*
X137920337Y-103613297D01*
X138045296Y-103576605D01*
X138154856Y-103506196D01*
X138240141Y-103407771D01*
X138294243Y-103289306D01*
X138312777Y-103160397D01*
X138294243Y-103031488D01*
X138240141Y-102913023D01*
X138230176Y-102901523D01*
X138218140Y-102865360D01*
X138235200Y-102831276D01*
X138240875Y-102827028D01*
X138324636Y-102773199D01*
X138409921Y-102674774D01*
X138436943Y-102615606D01*
X152826837Y-102615606D01*
X152845371Y-102744515D01*
X152899473Y-102862980D01*
X152984758Y-102961405D01*
X153094318Y-103031814D01*
X153219277Y-103068506D01*
X153219279Y-103068506D01*
X153349509Y-103068506D01*
X153349511Y-103068506D01*
X153474470Y-103031814D01*
X153584030Y-102961405D01*
X153669315Y-102862980D01*
X153720456Y-102750998D01*
X174842443Y-102750998D01*
X174842443Y-102751001D01*
X174851586Y-102814596D01*
X174860977Y-102879909D01*
X174915079Y-102998374D01*
X175000364Y-103096799D01*
X175109924Y-103167208D01*
X175234883Y-103203900D01*
X175234885Y-103203900D01*
X175365115Y-103203900D01*
X175365117Y-103203900D01*
X175490076Y-103167208D01*
X175599636Y-103096799D01*
X175684921Y-102998374D01*
X175739023Y-102879909D01*
X175757557Y-102751000D01*
X175756624Y-102744514D01*
X175751379Y-102708030D01*
X175739023Y-102622091D01*
X175684921Y-102503626D01*
X175599636Y-102405201D01*
X175490076Y-102334792D01*
X175365117Y-102298100D01*
X175234883Y-102298100D01*
X175109924Y-102334792D01*
X175057890Y-102368232D01*
X175000363Y-102405201D01*
X174915079Y-102503626D01*
X174860977Y-102622091D01*
X174860976Y-102622095D01*
X174842443Y-102750998D01*
X153720456Y-102750998D01*
X153723417Y-102744515D01*
X153741951Y-102615606D01*
X153723417Y-102486697D01*
X153669315Y-102368232D01*
X153584030Y-102269807D01*
X153474470Y-102199398D01*
X153349511Y-102162706D01*
X153219277Y-102162706D01*
X153094318Y-102199398D01*
X153039538Y-102234602D01*
X152984757Y-102269807D01*
X152899473Y-102368232D01*
X152845371Y-102486697D01*
X152845370Y-102486701D01*
X152835362Y-102556309D01*
X152826837Y-102615606D01*
X138436943Y-102615606D01*
X138464023Y-102556309D01*
X138482557Y-102427400D01*
X138464023Y-102298491D01*
X138409921Y-102180026D01*
X138324636Y-102081601D01*
X138215076Y-102011192D01*
X138090117Y-101974500D01*
X137959883Y-101974500D01*
X137834924Y-102011192D01*
X137780144Y-102046396D01*
X137725363Y-102081601D01*
X137640079Y-102180026D01*
X137585977Y-102298491D01*
X137585976Y-102298495D01*
X137567443Y-102427398D01*
X137567443Y-102427401D01*
X137582037Y-102528909D01*
X137585977Y-102556309D01*
X137613058Y-102615607D01*
X137640079Y-102674774D01*
X137640080Y-102674776D01*
X137650041Y-102686271D01*
X137662078Y-102722435D01*
X137645017Y-102756519D01*
X137639329Y-102760777D01*
X137555585Y-102814596D01*
X137470297Y-102913025D01*
X137446415Y-102965318D01*
X137418518Y-102991289D01*
X137380427Y-102989928D01*
X137374193Y-102986524D01*
X137322546Y-102953333D01*
X137197587Y-102916641D01*
X137067353Y-102916641D01*
X136942394Y-102953333D01*
X136929834Y-102961405D01*
X136832833Y-103023742D01*
X136747549Y-103122167D01*
X136693447Y-103240632D01*
X136693446Y-103240636D01*
X136674913Y-103369539D01*
X134160680Y-103369539D01*
X134130121Y-103302626D01*
X134044836Y-103204201D01*
X133935276Y-103133792D01*
X133810317Y-103097100D01*
X133680083Y-103097100D01*
X133555124Y-103133792D01*
X133513724Y-103160398D01*
X133445563Y-103204201D01*
X133360279Y-103302626D01*
X133306177Y-103421091D01*
X133306176Y-103421095D01*
X133287643Y-103549998D01*
X112662200Y-103549998D01*
X112662200Y-100783181D01*
X133711936Y-100783181D01*
X133711936Y-100783183D01*
X133730470Y-100912092D01*
X133784572Y-101030557D01*
X133869857Y-101128982D01*
X133979417Y-101199391D01*
X134104376Y-101236083D01*
X134104378Y-101236083D01*
X134234608Y-101236083D01*
X134234610Y-101236083D01*
X134359569Y-101199391D01*
X134469129Y-101128982D01*
X134554414Y-101030557D01*
X134608516Y-100912092D01*
X134627050Y-100783183D01*
X134627050Y-100783181D01*
X135921536Y-100783181D01*
X135921536Y-100783183D01*
X135940070Y-100912092D01*
X135994172Y-101030557D01*
X136079457Y-101128982D01*
X136189017Y-101199391D01*
X136297015Y-101231102D01*
X136326691Y-101255017D01*
X136330766Y-101292914D01*
X136329114Y-101297342D01*
X136328776Y-101298495D01*
X136310243Y-101427398D01*
X136310243Y-101427401D01*
X136324837Y-101528909D01*
X136328777Y-101556309D01*
X136382879Y-101674774D01*
X136468164Y-101773199D01*
X136577724Y-101843608D01*
X136597851Y-101849518D01*
X136627528Y-101873434D01*
X136631602Y-101911331D01*
X136607685Y-101941009D01*
X136583819Y-101947100D01*
X136509883Y-101947100D01*
X136384924Y-101983792D01*
X136342288Y-102011192D01*
X136275363Y-102054201D01*
X136190079Y-102152626D01*
X136135977Y-102271091D01*
X136135976Y-102271095D01*
X136117443Y-102399998D01*
X136117443Y-102400001D01*
X136129908Y-102486701D01*
X136135977Y-102528909D01*
X136190079Y-102647374D01*
X136255119Y-102722435D01*
X136274250Y-102744514D01*
X136275364Y-102745799D01*
X136384924Y-102816208D01*
X136509883Y-102852900D01*
X136509885Y-102852900D01*
X136640115Y-102852900D01*
X136640117Y-102852900D01*
X136765076Y-102816208D01*
X136874636Y-102745799D01*
X136959921Y-102647374D01*
X137014023Y-102528909D01*
X137032557Y-102400000D01*
X137014023Y-102271091D01*
X136959921Y-102152626D01*
X136874636Y-102054201D01*
X136765076Y-101983792D01*
X136744948Y-101977881D01*
X136715272Y-101953966D01*
X136711198Y-101916069D01*
X136735115Y-101886391D01*
X136758981Y-101880300D01*
X136832915Y-101880300D01*
X136832917Y-101880300D01*
X136957876Y-101843608D01*
X137067436Y-101773199D01*
X137152721Y-101674774D01*
X137206823Y-101556309D01*
X137225357Y-101427400D01*
X137221417Y-101399998D01*
X140190043Y-101399998D01*
X140190043Y-101400001D01*
X140193982Y-101427401D01*
X140208577Y-101528909D01*
X140262679Y-101647374D01*
X140347964Y-101745799D01*
X140457524Y-101816208D01*
X140582483Y-101852900D01*
X140582485Y-101852900D01*
X140712715Y-101852900D01*
X140712717Y-101852900D01*
X140837676Y-101816208D01*
X140947236Y-101745799D01*
X141032521Y-101647374D01*
X141086623Y-101528909D01*
X141105157Y-101400000D01*
X141105157Y-101399998D01*
X155692443Y-101399998D01*
X155692443Y-101400001D01*
X155696382Y-101427401D01*
X155710977Y-101528909D01*
X155765079Y-101647374D01*
X155850364Y-101745799D01*
X155959924Y-101816208D01*
X156084883Y-101852900D01*
X156084885Y-101852900D01*
X156215115Y-101852900D01*
X156215117Y-101852900D01*
X156340076Y-101816208D01*
X156449636Y-101745799D01*
X156534921Y-101647374D01*
X156589023Y-101528909D01*
X156607557Y-101400000D01*
X156589023Y-101271091D01*
X156534921Y-101152626D01*
X156449636Y-101054201D01*
X156340076Y-100983792D01*
X156215117Y-100947100D01*
X156084883Y-100947100D01*
X155959924Y-100983792D01*
X155917288Y-101011192D01*
X155850363Y-101054201D01*
X155765079Y-101152626D01*
X155710977Y-101271091D01*
X155710976Y-101271095D01*
X155692443Y-101399998D01*
X141105157Y-101399998D01*
X141086623Y-101271091D01*
X141032521Y-101152626D01*
X140947236Y-101054201D01*
X140837676Y-100983792D01*
X140712717Y-100947100D01*
X140582483Y-100947100D01*
X140457524Y-100983792D01*
X140414888Y-101011192D01*
X140347963Y-101054201D01*
X140262679Y-101152626D01*
X140208577Y-101271091D01*
X140208576Y-101271095D01*
X140190043Y-101399998D01*
X137221417Y-101399998D01*
X137206823Y-101298491D01*
X137152721Y-101180026D01*
X137067436Y-101081601D01*
X136957876Y-101011192D01*
X136849876Y-100979479D01*
X136820200Y-100955564D01*
X136816126Y-100917667D01*
X136817779Y-100913235D01*
X136818111Y-100912100D01*
X136818116Y-100912092D01*
X136836650Y-100783183D01*
X136834209Y-100766208D01*
X136830472Y-100740213D01*
X136818116Y-100654274D01*
X136764014Y-100535809D01*
X136678729Y-100437384D01*
X136678728Y-100437383D01*
X136650757Y-100419408D01*
X136591367Y-100381240D01*
X136569629Y-100349933D01*
X136576396Y-100312424D01*
X136602369Y-100292980D01*
X136602236Y-100292688D01*
X136603582Y-100292072D01*
X136604262Y-100291564D01*
X136605476Y-100291208D01*
X136715036Y-100220799D01*
X136800321Y-100122374D01*
X136854423Y-100003909D01*
X136872957Y-99875000D01*
X136869142Y-99848469D01*
X136866185Y-99827901D01*
X136854423Y-99746091D01*
X136800321Y-99627626D01*
X136715036Y-99529201D01*
X136605476Y-99458792D01*
X136605475Y-99458791D01*
X136605474Y-99458791D01*
X136555421Y-99444094D01*
X136482839Y-99422782D01*
X136453162Y-99398866D01*
X136449088Y-99360970D01*
X136473005Y-99331291D01*
X136482836Y-99327219D01*
X136605476Y-99291208D01*
X136715036Y-99220799D01*
X136800321Y-99122374D01*
X136854423Y-99003909D01*
X136872957Y-98875000D01*
X136854423Y-98746091D01*
X136800321Y-98627626D01*
X136715036Y-98529201D01*
X136605476Y-98458792D01*
X136480517Y-98422100D01*
X136350283Y-98422100D01*
X136225324Y-98458792D01*
X136171805Y-98493186D01*
X136115763Y-98529201D01*
X136030479Y-98627626D01*
X135976377Y-98746091D01*
X135976376Y-98746095D01*
X135957843Y-98874998D01*
X135957843Y-98875001D01*
X135976192Y-99002626D01*
X135976377Y-99003909D01*
X136030479Y-99122374D01*
X136115764Y-99220799D01*
X136225324Y-99291208D01*
X136347960Y-99327217D01*
X136377637Y-99351134D01*
X136381711Y-99389031D01*
X136357794Y-99418709D01*
X136347963Y-99422780D01*
X136225324Y-99458792D01*
X136186423Y-99483792D01*
X136115763Y-99529201D01*
X136030479Y-99627626D01*
X135976377Y-99746091D01*
X135976376Y-99746095D01*
X135957843Y-99874998D01*
X135957843Y-99875001D01*
X135961437Y-99900001D01*
X135976377Y-100003909D01*
X136030479Y-100122374D01*
X136115764Y-100220799D01*
X136203125Y-100276942D01*
X136224863Y-100308249D01*
X136218096Y-100345758D01*
X136192124Y-100365204D01*
X136192257Y-100365495D01*
X136190920Y-100366105D01*
X136190240Y-100366615D01*
X136189021Y-100366972D01*
X136079456Y-100437384D01*
X135994172Y-100535809D01*
X135940070Y-100654274D01*
X135940069Y-100654278D01*
X135921536Y-100783181D01*
X134627050Y-100783181D01*
X134624609Y-100766208D01*
X134620872Y-100740213D01*
X134608516Y-100654274D01*
X134554414Y-100535809D01*
X134469129Y-100437384D01*
X134359569Y-100366975D01*
X134234610Y-100330283D01*
X134104376Y-100330283D01*
X133979417Y-100366975D01*
X133957217Y-100381242D01*
X133869856Y-100437384D01*
X133784572Y-100535809D01*
X133730470Y-100654274D01*
X133730469Y-100654278D01*
X133711936Y-100783181D01*
X112662200Y-100783181D01*
X112662200Y-99899998D01*
X134300643Y-99899998D01*
X134300643Y-99900001D01*
X134315624Y-100004201D01*
X134319177Y-100028909D01*
X134373279Y-100147374D01*
X134458564Y-100245799D01*
X134568124Y-100316208D01*
X134693083Y-100352900D01*
X134693085Y-100352900D01*
X134823315Y-100352900D01*
X134823317Y-100352900D01*
X134948276Y-100316208D01*
X135057836Y-100245799D01*
X135143121Y-100147374D01*
X135197223Y-100028909D01*
X135214279Y-99910283D01*
X135215757Y-99900001D01*
X135215757Y-99899998D01*
X135200115Y-99791209D01*
X135197223Y-99771091D01*
X135143121Y-99652626D01*
X135057836Y-99554201D01*
X134948276Y-99483792D01*
X134823317Y-99447100D01*
X134693083Y-99447100D01*
X134568124Y-99483792D01*
X134513344Y-99518996D01*
X134458563Y-99554201D01*
X134373279Y-99652626D01*
X134319177Y-99771091D01*
X134319176Y-99771095D01*
X134300643Y-99899998D01*
X112662200Y-99899998D01*
X112662200Y-98909392D01*
X134853043Y-98909392D01*
X134853043Y-98909395D01*
X134866447Y-99002626D01*
X134871577Y-99038303D01*
X134925679Y-99156768D01*
X134954822Y-99190401D01*
X135006462Y-99249998D01*
X135010964Y-99255193D01*
X135120524Y-99325602D01*
X135245483Y-99362294D01*
X135245485Y-99362294D01*
X135375715Y-99362294D01*
X135375717Y-99362294D01*
X135500676Y-99325602D01*
X135610236Y-99255193D01*
X135695521Y-99156768D01*
X135749623Y-99038303D01*
X135768157Y-98909394D01*
X135767410Y-98904201D01*
X135755954Y-98824518D01*
X135749623Y-98780485D01*
X135695521Y-98662020D01*
X135610236Y-98563595D01*
X135500676Y-98493186D01*
X135375717Y-98456494D01*
X135245483Y-98456494D01*
X135120524Y-98493186D01*
X135084702Y-98516207D01*
X135010963Y-98563595D01*
X134925679Y-98662020D01*
X134871577Y-98780485D01*
X134871576Y-98780489D01*
X134853043Y-98909392D01*
X112662200Y-98909392D01*
X112662200Y-98375000D01*
X140165811Y-98375000D01*
X140184345Y-98503909D01*
X140238447Y-98622374D01*
X140323732Y-98720799D01*
X140433292Y-98791208D01*
X140558251Y-98827900D01*
X140558253Y-98827900D01*
X140561778Y-98828407D01*
X140561574Y-98829821D01*
X140592150Y-98842486D01*
X140606736Y-98877700D01*
X140592150Y-98912914D01*
X140570968Y-98925481D01*
X140457524Y-98958793D01*
X140402744Y-98993997D01*
X140347963Y-99029202D01*
X140262679Y-99127627D01*
X140208577Y-99246092D01*
X140208576Y-99246096D01*
X140190043Y-99374999D01*
X140190043Y-99375002D01*
X140205684Y-99483792D01*
X140208577Y-99503910D01*
X140262679Y-99622375D01*
X140347964Y-99720800D01*
X140457524Y-99791209D01*
X140537587Y-99814718D01*
X140567264Y-99838633D01*
X140571339Y-99876530D01*
X140547423Y-99906208D01*
X140537587Y-99910282D01*
X140457524Y-99933792D01*
X140402744Y-99968996D01*
X140347963Y-100004201D01*
X140262679Y-100102626D01*
X140208577Y-100221091D01*
X140208576Y-100221095D01*
X140190043Y-100349998D01*
X140190043Y-100350001D01*
X140202606Y-100437384D01*
X140208577Y-100478909D01*
X140262679Y-100597374D01*
X140347964Y-100695799D01*
X140457524Y-100766208D01*
X140582483Y-100802900D01*
X140582485Y-100802900D01*
X140712715Y-100802900D01*
X140712717Y-100802900D01*
X140837676Y-100766208D01*
X140947236Y-100695799D01*
X141032521Y-100597374D01*
X141086623Y-100478909D01*
X141102768Y-100366615D01*
X141105157Y-100350001D01*
X141105157Y-100349998D01*
X141097278Y-100295199D01*
X155692443Y-100295199D01*
X155692443Y-100295202D01*
X155704813Y-100381242D01*
X155710977Y-100424110D01*
X155765079Y-100542575D01*
X155850364Y-100641000D01*
X155959924Y-100711409D01*
X156084883Y-100748101D01*
X156084885Y-100748101D01*
X156215115Y-100748101D01*
X156215117Y-100748101D01*
X156340076Y-100711409D01*
X156449636Y-100641000D01*
X156534921Y-100542575D01*
X156589023Y-100424110D01*
X156607557Y-100295201D01*
X156589023Y-100166292D01*
X156534921Y-100047827D01*
X156449636Y-99949402D01*
X156340076Y-99878993D01*
X156215117Y-99842301D01*
X156084883Y-99842301D01*
X155959924Y-99878993D01*
X155917576Y-99906208D01*
X155850363Y-99949402D01*
X155765079Y-100047827D01*
X155710977Y-100166292D01*
X155710976Y-100166296D01*
X155692443Y-100295199D01*
X141097278Y-100295199D01*
X141090175Y-100245798D01*
X141086623Y-100221091D01*
X141032521Y-100102626D01*
X140947236Y-100004201D01*
X140837676Y-99933792D01*
X140757611Y-99910282D01*
X140727934Y-99886366D01*
X140723860Y-99848469D01*
X140747777Y-99818791D01*
X140757604Y-99814720D01*
X140837676Y-99791209D01*
X140947236Y-99720800D01*
X141032521Y-99622375D01*
X141086623Y-99503910D01*
X141105157Y-99375001D01*
X141087185Y-99249998D01*
X148842443Y-99249998D01*
X148842443Y-99250001D01*
X148856983Y-99351134D01*
X148860977Y-99378909D01*
X148915079Y-99497374D01*
X149000364Y-99595799D01*
X149109924Y-99666208D01*
X149234883Y-99702900D01*
X149234885Y-99702900D01*
X149365115Y-99702900D01*
X149365117Y-99702900D01*
X149490076Y-99666208D01*
X149599636Y-99595799D01*
X149684921Y-99497374D01*
X149739023Y-99378909D01*
X149757557Y-99250000D01*
X149753358Y-99220798D01*
X149748987Y-99190399D01*
X155692443Y-99190399D01*
X155692443Y-99190402D01*
X155706936Y-99291208D01*
X155710977Y-99319310D01*
X155765079Y-99437775D01*
X155850364Y-99536200D01*
X155959924Y-99606609D01*
X156084883Y-99643301D01*
X156084885Y-99643301D01*
X156215115Y-99643301D01*
X156215117Y-99643301D01*
X156340076Y-99606609D01*
X156449636Y-99536200D01*
X156534921Y-99437775D01*
X156589023Y-99319310D01*
X156607557Y-99190401D01*
X156589023Y-99061492D01*
X156534921Y-98943027D01*
X156449636Y-98844602D01*
X156340076Y-98774193D01*
X156215117Y-98737501D01*
X156084883Y-98737501D01*
X155959924Y-98774193D01*
X155933448Y-98791208D01*
X155850363Y-98844602D01*
X155765079Y-98943027D01*
X155710977Y-99061492D01*
X155710976Y-99061496D01*
X155692443Y-99190399D01*
X149748987Y-99190399D01*
X149744152Y-99156767D01*
X149739023Y-99121091D01*
X149684921Y-99002626D01*
X149599636Y-98904201D01*
X149490076Y-98833792D01*
X149365117Y-98797100D01*
X149234883Y-98797100D01*
X149109924Y-98833792D01*
X149059485Y-98866207D01*
X149000363Y-98904201D01*
X148915079Y-99002626D01*
X148860977Y-99121091D01*
X148860976Y-99121095D01*
X148842443Y-99249998D01*
X141087185Y-99249998D01*
X141086623Y-99246092D01*
X141032521Y-99127627D01*
X140947236Y-99029202D01*
X140837676Y-98958793D01*
X140712717Y-98922101D01*
X140712714Y-98922100D01*
X140709190Y-98921594D01*
X140709393Y-98920179D01*
X140678818Y-98907515D01*
X140664232Y-98872301D01*
X140678818Y-98837087D01*
X140699999Y-98824519D01*
X140813444Y-98791208D01*
X140923004Y-98720799D01*
X141008289Y-98622374D01*
X141062391Y-98503909D01*
X141080925Y-98375000D01*
X141062391Y-98246091D01*
X141008289Y-98127626D01*
X140923004Y-98029201D01*
X140813444Y-97958792D01*
X140688485Y-97922100D01*
X140558251Y-97922100D01*
X140433292Y-97958792D01*
X140378512Y-97993996D01*
X140323731Y-98029201D01*
X140238447Y-98127626D01*
X140184345Y-98246091D01*
X140184344Y-98246095D01*
X140173561Y-98321095D01*
X140165811Y-98375000D01*
X112662200Y-98375000D01*
X112662200Y-97799998D01*
X152342443Y-97799998D01*
X152342443Y-97800000D01*
X152360977Y-97928909D01*
X152415079Y-98047374D01*
X152500364Y-98145799D01*
X152609924Y-98216208D01*
X152730207Y-98251527D01*
X152759884Y-98275443D01*
X152763959Y-98313339D01*
X152761481Y-98319986D01*
X152760979Y-98321085D01*
X152760976Y-98321095D01*
X152742443Y-98449998D01*
X152742443Y-98450001D01*
X152757237Y-98552900D01*
X152760977Y-98578909D01*
X152815079Y-98697374D01*
X152900364Y-98795799D01*
X153009924Y-98866208D01*
X153134883Y-98902900D01*
X153134885Y-98902900D01*
X153265115Y-98902900D01*
X153265117Y-98902900D01*
X153390076Y-98866208D01*
X153499636Y-98795799D01*
X153584921Y-98697374D01*
X153639023Y-98578909D01*
X153657557Y-98450000D01*
X153639023Y-98321091D01*
X153584921Y-98202626D01*
X153499636Y-98104201D01*
X153493096Y-98099998D01*
X177192443Y-98099998D01*
X177192443Y-98100001D01*
X177199027Y-98145798D01*
X177210977Y-98228909D01*
X177265079Y-98347374D01*
X177350364Y-98445799D01*
X177459924Y-98516208D01*
X177584883Y-98552900D01*
X177584885Y-98552900D01*
X177715115Y-98552900D01*
X177715117Y-98552900D01*
X177840076Y-98516208D01*
X177949636Y-98445799D01*
X178034921Y-98347374D01*
X178089023Y-98228909D01*
X178107557Y-98100000D01*
X178089023Y-97971091D01*
X178034921Y-97852626D01*
X177949636Y-97754201D01*
X177840076Y-97683792D01*
X177715117Y-97647100D01*
X177584883Y-97647100D01*
X177459924Y-97683792D01*
X177405144Y-97718996D01*
X177350363Y-97754201D01*
X177265079Y-97852626D01*
X177210977Y-97971091D01*
X177210976Y-97971095D01*
X177192443Y-98099998D01*
X153493096Y-98099998D01*
X153390076Y-98033792D01*
X153269791Y-97998472D01*
X153240114Y-97974556D01*
X153236040Y-97936659D01*
X153238524Y-97930001D01*
X153239023Y-97928909D01*
X153257557Y-97800000D01*
X153239023Y-97671091D01*
X153184921Y-97552626D01*
X153099636Y-97454201D01*
X152990076Y-97383792D01*
X152865117Y-97347100D01*
X152734883Y-97347100D01*
X152609924Y-97383792D01*
X152555144Y-97418996D01*
X152500363Y-97454201D01*
X152415079Y-97552626D01*
X152360977Y-97671091D01*
X152360976Y-97671095D01*
X152342443Y-97799998D01*
X112662200Y-97799998D01*
X112662200Y-96699998D01*
X123927443Y-96699998D01*
X123927443Y-96700001D01*
X123945414Y-96824998D01*
X123945977Y-96828909D01*
X124000079Y-96947374D01*
X124085364Y-97045799D01*
X124194924Y-97116208D01*
X124319883Y-97152900D01*
X124319885Y-97152900D01*
X124450115Y-97152900D01*
X124450117Y-97152900D01*
X124575076Y-97116208D01*
X124684636Y-97045799D01*
X124769921Y-96947374D01*
X124824023Y-96828909D01*
X124839468Y-96721484D01*
X124842557Y-96700001D01*
X124842557Y-96699998D01*
X124825675Y-96582583D01*
X124824023Y-96571091D01*
X124769921Y-96452626D01*
X124684636Y-96354201D01*
X124575076Y-96283792D01*
X124450117Y-96247100D01*
X124319883Y-96247100D01*
X124194924Y-96283792D01*
X124147379Y-96314347D01*
X124085363Y-96354201D01*
X124000079Y-96452626D01*
X123945977Y-96571091D01*
X123945976Y-96571095D01*
X123927443Y-96699998D01*
X112662200Y-96699998D01*
X112662200Y-95834942D01*
X125457100Y-95834942D01*
X125457100Y-97565050D01*
X125457101Y-97565058D01*
X125465972Y-97609656D01*
X125465973Y-97609661D01*
X125499764Y-97660232D01*
X125499767Y-97660235D01*
X125525054Y-97677131D01*
X125550342Y-97694028D01*
X125594943Y-97702900D01*
X127325056Y-97702899D01*
X127369658Y-97694028D01*
X127420234Y-97660234D01*
X127454028Y-97609658D01*
X127462900Y-97565057D01*
X127462899Y-96699997D01*
X127992247Y-96699997D01*
X127992247Y-96700002D01*
X128004944Y-96828909D01*
X128011611Y-96896603D01*
X128068958Y-97085650D01*
X128162084Y-97259878D01*
X128162086Y-97259881D01*
X128162087Y-97259882D01*
X128176874Y-97277900D01*
X128287411Y-97412589D01*
X128440122Y-97537916D01*
X128614350Y-97631042D01*
X128803397Y-97688389D01*
X128950707Y-97702898D01*
X128999997Y-97707753D01*
X129000000Y-97707753D01*
X129000003Y-97707753D01*
X129044844Y-97703336D01*
X129196603Y-97688389D01*
X129385650Y-97631042D01*
X129559878Y-97537916D01*
X129712589Y-97412589D01*
X129837916Y-97259878D01*
X129931042Y-97085650D01*
X129978806Y-96928194D01*
X135760243Y-96928194D01*
X135760243Y-96928197D01*
X135772204Y-97011392D01*
X135778777Y-97057105D01*
X135832879Y-97175570D01*
X135918164Y-97273995D01*
X136027724Y-97344404D01*
X136152683Y-97381096D01*
X136152685Y-97381096D01*
X136282915Y-97381096D01*
X136282917Y-97381096D01*
X136407876Y-97344404D01*
X136517436Y-97273995D01*
X136602721Y-97175570D01*
X136656823Y-97057105D01*
X136672222Y-96949998D01*
X137116455Y-96949998D01*
X137116455Y-96950001D01*
X137130228Y-97045799D01*
X137134989Y-97078909D01*
X137189091Y-97197374D01*
X137274376Y-97295799D01*
X137383936Y-97366208D01*
X137508895Y-97402900D01*
X137508897Y-97402900D01*
X137639127Y-97402900D01*
X137639129Y-97402900D01*
X137764088Y-97366208D01*
X137873648Y-97295799D01*
X137958933Y-97197374D01*
X138013035Y-97078909D01*
X138031569Y-96950000D01*
X138031191Y-96947374D01*
X138023892Y-96896603D01*
X138013035Y-96821091D01*
X137958933Y-96702626D01*
X137873648Y-96604201D01*
X137764088Y-96533792D01*
X137639129Y-96497100D01*
X137508895Y-96497100D01*
X137383936Y-96533792D01*
X137333366Y-96566291D01*
X137274375Y-96604201D01*
X137189091Y-96702626D01*
X137134989Y-96821091D01*
X137134988Y-96821095D01*
X137116455Y-96949998D01*
X136672222Y-96949998D01*
X136675357Y-96928196D01*
X136656823Y-96799287D01*
X136602721Y-96680822D01*
X136517436Y-96582397D01*
X136407876Y-96511988D01*
X136282917Y-96475296D01*
X136152683Y-96475296D01*
X136027724Y-96511988D01*
X135993796Y-96533792D01*
X135918163Y-96582397D01*
X135832879Y-96680822D01*
X135778777Y-96799287D01*
X135778776Y-96799291D01*
X135760243Y-96928194D01*
X129978806Y-96928194D01*
X129988389Y-96896603D01*
X130004566Y-96732356D01*
X130007753Y-96700002D01*
X130007753Y-96699997D01*
X129995700Y-96577626D01*
X129988389Y-96503397D01*
X129937369Y-96335208D01*
X141632233Y-96335208D01*
X141632233Y-96335211D01*
X141649114Y-96452626D01*
X141650767Y-96464119D01*
X141704869Y-96582584D01*
X141790154Y-96681009D01*
X141899714Y-96751418D01*
X142024673Y-96788110D01*
X142024675Y-96788110D01*
X142154905Y-96788110D01*
X142154907Y-96788110D01*
X142279866Y-96751418D01*
X142367347Y-96695198D01*
X144517443Y-96695198D01*
X144517443Y-96695201D01*
X144535543Y-96821095D01*
X144535977Y-96824109D01*
X144590079Y-96942574D01*
X144675364Y-97040999D01*
X144784924Y-97111408D01*
X144909883Y-97148100D01*
X144909885Y-97148100D01*
X145040115Y-97148100D01*
X145040117Y-97148100D01*
X145165076Y-97111408D01*
X145274636Y-97040999D01*
X145359921Y-96942574D01*
X145413617Y-96824998D01*
X159104443Y-96824998D01*
X159104443Y-96825001D01*
X159122414Y-96949998D01*
X159122977Y-96953909D01*
X159177079Y-97072374D01*
X159262364Y-97170799D01*
X159371924Y-97241208D01*
X159496883Y-97277900D01*
X159496885Y-97277900D01*
X159627115Y-97277900D01*
X159627117Y-97277900D01*
X159752076Y-97241208D01*
X159861636Y-97170799D01*
X159946921Y-97072374D01*
X160001023Y-96953909D01*
X160011292Y-96882486D01*
X160209243Y-96882486D01*
X160209243Y-96882489D01*
X160219511Y-96953909D01*
X160227777Y-97011397D01*
X160281879Y-97129862D01*
X160367164Y-97228287D01*
X160476724Y-97298696D01*
X160601683Y-97335388D01*
X160601685Y-97335388D01*
X160731915Y-97335388D01*
X160731917Y-97335388D01*
X160856876Y-97298696D01*
X160966436Y-97228287D01*
X161051721Y-97129862D01*
X161105823Y-97011397D01*
X161124357Y-96882488D01*
X161105823Y-96753579D01*
X161051721Y-96635114D01*
X160966436Y-96536689D01*
X160856876Y-96466280D01*
X160731917Y-96429588D01*
X160601683Y-96429588D01*
X160476724Y-96466280D01*
X160428767Y-96497100D01*
X160367163Y-96536689D01*
X160281879Y-96635114D01*
X160227777Y-96753579D01*
X160227776Y-96753583D01*
X160209243Y-96882486D01*
X160011292Y-96882486D01*
X160019557Y-96825000D01*
X160001023Y-96696091D01*
X159946921Y-96577626D01*
X159861636Y-96479201D01*
X159752076Y-96408792D01*
X159627117Y-96372100D01*
X159496883Y-96372100D01*
X159371924Y-96408792D01*
X159317144Y-96443996D01*
X159262363Y-96479201D01*
X159177079Y-96577626D01*
X159122977Y-96696091D01*
X159122976Y-96696095D01*
X159104443Y-96824998D01*
X145413617Y-96824998D01*
X145414023Y-96824109D01*
X145432557Y-96695200D01*
X145414023Y-96566291D01*
X145359921Y-96447826D01*
X145274636Y-96349401D01*
X145165076Y-96278992D01*
X145040117Y-96242300D01*
X144909883Y-96242300D01*
X144784924Y-96278992D01*
X144730144Y-96314196D01*
X144675363Y-96349401D01*
X144590079Y-96447826D01*
X144535977Y-96566291D01*
X144535976Y-96566295D01*
X144517443Y-96695198D01*
X142367347Y-96695198D01*
X142389426Y-96681009D01*
X142474711Y-96582584D01*
X142528813Y-96464119D01*
X142547347Y-96335210D01*
X142544347Y-96314347D01*
X142535658Y-96253909D01*
X142528813Y-96206301D01*
X142491683Y-96124998D01*
X156342443Y-96124998D01*
X156342443Y-96125001D01*
X156354132Y-96206305D01*
X156360977Y-96253909D01*
X156415079Y-96372374D01*
X156500364Y-96470799D01*
X156609924Y-96541208D01*
X156734883Y-96577900D01*
X156734885Y-96577900D01*
X156865115Y-96577900D01*
X156865117Y-96577900D01*
X156990076Y-96541208D01*
X157099636Y-96470799D01*
X157184921Y-96372374D01*
X157239023Y-96253909D01*
X157257557Y-96125000D01*
X157239023Y-95996091D01*
X157184921Y-95877626D01*
X157099636Y-95779201D01*
X156990076Y-95708792D01*
X156865117Y-95672100D01*
X156734883Y-95672100D01*
X156609924Y-95708792D01*
X156561730Y-95739764D01*
X156500363Y-95779201D01*
X156415079Y-95877626D01*
X156360977Y-95996091D01*
X156360976Y-95996095D01*
X156342443Y-96124998D01*
X142491683Y-96124998D01*
X142474711Y-96087836D01*
X142389426Y-95989411D01*
X142279866Y-95919002D01*
X142154907Y-95882310D01*
X142024673Y-95882310D01*
X141899714Y-95919002D01*
X141844934Y-95954206D01*
X141790153Y-95989411D01*
X141704869Y-96087836D01*
X141650767Y-96206301D01*
X141650766Y-96206305D01*
X141632233Y-96335208D01*
X129937369Y-96335208D01*
X129931042Y-96314350D01*
X129837916Y-96140122D01*
X129712589Y-95987411D01*
X129599009Y-95894198D01*
X129559882Y-95862087D01*
X129559881Y-95862086D01*
X129559878Y-95862084D01*
X129385650Y-95768958D01*
X129196603Y-95711611D01*
X129167982Y-95708792D01*
X129000003Y-95692247D01*
X128999997Y-95692247D01*
X128803396Y-95711611D01*
X128721077Y-95736582D01*
X128614350Y-95768958D01*
X128614348Y-95768959D01*
X128614347Y-95768959D01*
X128501401Y-95829329D01*
X128440122Y-95862084D01*
X128440120Y-95862084D01*
X128440117Y-95862087D01*
X128287411Y-95987411D01*
X128162087Y-96140117D01*
X128068959Y-96314347D01*
X128068959Y-96314348D01*
X128068958Y-96314350D01*
X128051440Y-96372100D01*
X128011611Y-96503396D01*
X127992247Y-96699997D01*
X127462899Y-96699997D01*
X127462899Y-95834944D01*
X127454028Y-95790342D01*
X127454026Y-95790339D01*
X127454026Y-95790338D01*
X127420235Y-95739767D01*
X127420232Y-95739764D01*
X127369658Y-95705972D01*
X127325057Y-95697100D01*
X127325055Y-95697100D01*
X125594949Y-95697100D01*
X125594941Y-95697101D01*
X125561492Y-95703754D01*
X125550342Y-95705972D01*
X125550341Y-95705972D01*
X125550338Y-95705973D01*
X125499767Y-95739764D01*
X125499764Y-95739767D01*
X125465972Y-95790340D01*
X125465972Y-95790341D01*
X125457100Y-95834942D01*
X112662200Y-95834942D01*
X112662200Y-95021866D01*
X135351745Y-95021866D01*
X135370279Y-95150775D01*
X135424381Y-95269240D01*
X135509666Y-95367665D01*
X135619226Y-95438074D01*
X135744185Y-95474766D01*
X135744187Y-95474766D01*
X135874417Y-95474766D01*
X135874419Y-95474766D01*
X135999378Y-95438074D01*
X136058626Y-95399998D01*
X137668855Y-95399998D01*
X137668855Y-95400001D01*
X137683649Y-95502900D01*
X137687389Y-95528909D01*
X137741491Y-95647374D01*
X137826776Y-95745799D01*
X137936336Y-95816208D01*
X138061295Y-95852900D01*
X138061297Y-95852900D01*
X138191527Y-95852900D01*
X138191529Y-95852900D01*
X138316488Y-95816208D01*
X138426048Y-95745799D01*
X138511333Y-95647374D01*
X138565435Y-95528909D01*
X138583969Y-95400000D01*
X138565435Y-95271091D01*
X138511333Y-95152626D01*
X138426048Y-95054201D01*
X138316488Y-94983792D01*
X138191529Y-94947100D01*
X138061295Y-94947100D01*
X137936336Y-94983792D01*
X137881556Y-95018996D01*
X137826775Y-95054201D01*
X137741491Y-95152626D01*
X137687389Y-95271091D01*
X137687388Y-95271095D01*
X137668855Y-95399998D01*
X136058626Y-95399998D01*
X136108938Y-95367665D01*
X136194223Y-95269240D01*
X136248325Y-95150775D01*
X136266859Y-95021866D01*
X136248325Y-94892957D01*
X136194223Y-94774492D01*
X136108938Y-94676067D01*
X135999378Y-94605658D01*
X135874419Y-94568966D01*
X135744185Y-94568966D01*
X135619226Y-94605658D01*
X135575448Y-94633792D01*
X135509665Y-94676067D01*
X135424381Y-94774492D01*
X135370279Y-94892957D01*
X135370278Y-94892961D01*
X135352017Y-95019973D01*
X135351745Y-95021866D01*
X112662200Y-95021866D01*
X112662200Y-94315670D01*
X134005004Y-94315670D01*
X134005004Y-94315673D01*
X134020981Y-94426801D01*
X134023538Y-94444581D01*
X134077640Y-94563046D01*
X134162925Y-94661471D01*
X134272485Y-94731880D01*
X134397444Y-94768572D01*
X134397446Y-94768572D01*
X134527676Y-94768572D01*
X134527678Y-94768572D01*
X134652637Y-94731880D01*
X134762197Y-94661471D01*
X134847482Y-94563046D01*
X134901584Y-94444581D01*
X134904054Y-94427400D01*
X136433831Y-94427400D01*
X136452365Y-94556309D01*
X136506467Y-94674774D01*
X136591752Y-94773199D01*
X136701312Y-94843608D01*
X136826271Y-94880300D01*
X136826273Y-94880300D01*
X136956503Y-94880300D01*
X136956505Y-94880300D01*
X137081464Y-94843608D01*
X137191024Y-94773199D01*
X137191545Y-94772598D01*
X139004943Y-94772598D01*
X139004943Y-94772601D01*
X139020427Y-94880300D01*
X139023477Y-94901509D01*
X139077579Y-95019974D01*
X139162864Y-95118399D01*
X139272424Y-95188808D01*
X139397383Y-95225500D01*
X139397385Y-95225500D01*
X139527615Y-95225500D01*
X139527617Y-95225500D01*
X139652576Y-95188808D01*
X139762136Y-95118399D01*
X139821404Y-95050000D01*
X141067443Y-95050000D01*
X141085977Y-95178909D01*
X141140079Y-95297374D01*
X141225364Y-95395799D01*
X141334924Y-95466208D01*
X141459883Y-95502900D01*
X141459885Y-95502900D01*
X141590115Y-95502900D01*
X141590117Y-95502900D01*
X141715076Y-95466208D01*
X141824636Y-95395799D01*
X141909921Y-95297374D01*
X141964023Y-95178909D01*
X141982557Y-95050000D01*
X145490043Y-95050000D01*
X145508577Y-95178909D01*
X145562679Y-95297374D01*
X145647964Y-95395799D01*
X145757524Y-95466208D01*
X145882483Y-95502900D01*
X145882485Y-95502900D01*
X146012715Y-95502900D01*
X146012717Y-95502900D01*
X146137676Y-95466208D01*
X146247236Y-95395799D01*
X146332521Y-95297374D01*
X146386623Y-95178909D01*
X146405157Y-95050000D01*
X146397968Y-94999998D01*
X146594843Y-94999998D01*
X146594843Y-95000001D01*
X146602031Y-95049998D01*
X146613377Y-95128909D01*
X146667479Y-95247374D01*
X146752764Y-95345799D01*
X146862324Y-95416208D01*
X146987283Y-95452900D01*
X146987285Y-95452900D01*
X147117515Y-95452900D01*
X147117517Y-95452900D01*
X147242476Y-95416208D01*
X147352036Y-95345799D01*
X147383184Y-95309852D01*
X155469842Y-95309852D01*
X155469842Y-95309855D01*
X155482802Y-95399998D01*
X155488376Y-95438763D01*
X155542478Y-95557228D01*
X155627763Y-95655653D01*
X155737323Y-95726062D01*
X155862282Y-95762754D01*
X155862284Y-95762754D01*
X155992514Y-95762754D01*
X155992516Y-95762754D01*
X156117475Y-95726062D01*
X156227035Y-95655653D01*
X156312320Y-95557228D01*
X156366422Y-95438763D01*
X156384956Y-95309854D01*
X156369506Y-95202398D01*
X157023483Y-95202398D01*
X157023483Y-95202401D01*
X157033359Y-95271095D01*
X157042017Y-95331309D01*
X157096119Y-95449774D01*
X157181404Y-95548199D01*
X157290964Y-95618608D01*
X157415923Y-95655300D01*
X157415925Y-95655300D01*
X157546155Y-95655300D01*
X157546157Y-95655300D01*
X157671116Y-95618608D01*
X157780676Y-95548199D01*
X157865961Y-95449774D01*
X157920063Y-95331309D01*
X157938597Y-95202400D01*
X157935219Y-95178908D01*
X157928031Y-95128909D01*
X157920063Y-95073491D01*
X157865961Y-94955026D01*
X157780676Y-94856601D01*
X157671116Y-94786192D01*
X157546157Y-94749500D01*
X157415923Y-94749500D01*
X157290964Y-94786192D01*
X157265392Y-94802626D01*
X157181403Y-94856601D01*
X157096119Y-94955026D01*
X157042017Y-95073491D01*
X157042016Y-95073495D01*
X157023483Y-95202398D01*
X156369506Y-95202398D01*
X156366422Y-95180945D01*
X156312320Y-95062480D01*
X156227035Y-94964055D01*
X156117475Y-94893646D01*
X155992516Y-94856954D01*
X155862282Y-94856954D01*
X155737323Y-94893646D01*
X155694617Y-94921091D01*
X155627762Y-94964055D01*
X155542478Y-95062480D01*
X155488376Y-95180945D01*
X155488375Y-95180949D01*
X155469842Y-95309852D01*
X147383184Y-95309852D01*
X147437321Y-95247374D01*
X147491423Y-95128909D01*
X147509957Y-95000000D01*
X147491423Y-94871091D01*
X147437321Y-94752626D01*
X147352036Y-94654201D01*
X147242476Y-94583792D01*
X147117517Y-94547100D01*
X146987283Y-94547100D01*
X146862324Y-94583792D01*
X146807544Y-94618996D01*
X146752763Y-94654201D01*
X146667479Y-94752626D01*
X146613377Y-94871091D01*
X146613376Y-94871095D01*
X146594843Y-94999998D01*
X146397968Y-94999998D01*
X146386623Y-94921091D01*
X146332521Y-94802626D01*
X146247236Y-94704201D01*
X146137676Y-94633792D01*
X146012717Y-94597100D01*
X145882483Y-94597100D01*
X145757524Y-94633792D01*
X145725767Y-94654201D01*
X145647963Y-94704201D01*
X145562679Y-94802626D01*
X145508577Y-94921091D01*
X145508576Y-94921095D01*
X145494360Y-95019973D01*
X145490043Y-95050000D01*
X141982557Y-95050000D01*
X141964023Y-94921091D01*
X141909921Y-94802626D01*
X141824636Y-94704201D01*
X141715076Y-94633792D01*
X141590117Y-94597100D01*
X141459883Y-94597100D01*
X141334924Y-94633792D01*
X141303167Y-94654201D01*
X141225363Y-94704201D01*
X141140079Y-94802626D01*
X141085977Y-94921091D01*
X141085976Y-94921095D01*
X141071760Y-95019973D01*
X141067443Y-95050000D01*
X139821404Y-95050000D01*
X139847421Y-95019974D01*
X139901523Y-94901509D01*
X139920057Y-94772600D01*
X139901523Y-94643691D01*
X139847421Y-94525226D01*
X139762136Y-94426801D01*
X139652576Y-94356392D01*
X139527617Y-94319700D01*
X139397383Y-94319700D01*
X139272424Y-94356392D01*
X139217644Y-94391596D01*
X139162863Y-94426801D01*
X139077579Y-94525226D01*
X139023477Y-94643691D01*
X139023476Y-94643695D01*
X139004943Y-94772598D01*
X137191545Y-94772598D01*
X137276309Y-94674774D01*
X137330411Y-94556309D01*
X137348945Y-94427400D01*
X137330411Y-94298491D01*
X137276309Y-94180026D01*
X137191024Y-94081601D01*
X137081464Y-94011192D01*
X136956505Y-93974500D01*
X136826271Y-93974500D01*
X136701312Y-94011192D01*
X136646532Y-94046396D01*
X136591751Y-94081601D01*
X136506467Y-94180026D01*
X136452365Y-94298491D01*
X136452364Y-94298495D01*
X136444040Y-94356392D01*
X136433831Y-94427400D01*
X134904054Y-94427400D01*
X134920118Y-94315672D01*
X134917648Y-94298495D01*
X134913940Y-94272702D01*
X134901584Y-94186763D01*
X134847482Y-94068298D01*
X134762197Y-93969873D01*
X134652637Y-93899464D01*
X134527678Y-93862772D01*
X134397444Y-93862772D01*
X134272485Y-93899464D01*
X134217705Y-93934668D01*
X134162924Y-93969873D01*
X134077640Y-94068298D01*
X134023538Y-94186763D01*
X134023537Y-94186767D01*
X134005004Y-94315670D01*
X112662200Y-94315670D01*
X112662200Y-93322599D01*
X136773732Y-93322599D01*
X136773732Y-93322601D01*
X136792266Y-93451510D01*
X136846368Y-93569975D01*
X136931653Y-93668400D01*
X137041213Y-93738809D01*
X137166172Y-93775501D01*
X137166174Y-93775501D01*
X137296404Y-93775501D01*
X137296406Y-93775501D01*
X137421365Y-93738809D01*
X137530925Y-93668400D01*
X137616210Y-93569975D01*
X137670312Y-93451510D01*
X137688846Y-93322601D01*
X137684332Y-93291208D01*
X137674209Y-93220798D01*
X137670312Y-93193692D01*
X137616210Y-93075227D01*
X137530925Y-92976802D01*
X137421365Y-92906393D01*
X137314446Y-92874998D01*
X155067443Y-92874998D01*
X155067443Y-92875001D01*
X155082079Y-92976802D01*
X155085977Y-93003909D01*
X155140079Y-93122374D01*
X155225364Y-93220799D01*
X155334924Y-93291208D01*
X155459883Y-93327900D01*
X155459885Y-93327900D01*
X155590115Y-93327900D01*
X155590117Y-93327900D01*
X155715076Y-93291208D01*
X155824636Y-93220799D01*
X155909921Y-93122374D01*
X155964023Y-93003909D01*
X155982557Y-92875000D01*
X155964023Y-92746091D01*
X155909921Y-92627626D01*
X155824636Y-92529201D01*
X155715076Y-92458792D01*
X155590117Y-92422100D01*
X155459883Y-92422100D01*
X155334924Y-92458792D01*
X155308610Y-92475703D01*
X155225363Y-92529201D01*
X155140079Y-92627626D01*
X155085977Y-92746091D01*
X155085976Y-92746095D01*
X155067443Y-92874998D01*
X137314446Y-92874998D01*
X137296406Y-92869701D01*
X137166172Y-92869701D01*
X137041213Y-92906393D01*
X136986433Y-92941597D01*
X136931652Y-92976802D01*
X136846368Y-93075227D01*
X136792266Y-93193692D01*
X136792265Y-93193696D01*
X136773732Y-93322599D01*
X112662200Y-93322599D01*
X112662200Y-92333474D01*
X141942995Y-92333474D01*
X141942995Y-92333477D01*
X141956644Y-92428412D01*
X141961529Y-92462385D01*
X142015631Y-92580850D01*
X142100916Y-92679275D01*
X142210476Y-92749684D01*
X142335435Y-92786376D01*
X142335437Y-92786376D01*
X142465667Y-92786376D01*
X142465669Y-92786376D01*
X142590628Y-92749684D01*
X142700188Y-92679275D01*
X142785473Y-92580850D01*
X142825633Y-92492912D01*
X142853529Y-92466942D01*
X142891620Y-92468302D01*
X142916231Y-92492913D01*
X142934986Y-92533980D01*
X143020271Y-92632405D01*
X143129831Y-92702814D01*
X143254790Y-92739506D01*
X143254792Y-92739506D01*
X143385022Y-92739506D01*
X143385024Y-92739506D01*
X143509983Y-92702814D01*
X143619543Y-92632405D01*
X143704828Y-92533980D01*
X143758930Y-92415515D01*
X143777464Y-92286606D01*
X143773467Y-92258809D01*
X143765669Y-92204567D01*
X143758930Y-92157697D01*
X143731191Y-92096960D01*
X143729831Y-92058872D01*
X143755802Y-92030975D01*
X143762453Y-92028493D01*
X143812354Y-92013842D01*
X143921914Y-91943433D01*
X143926812Y-91937779D01*
X143960895Y-91920717D01*
X143997060Y-91932752D01*
X144002086Y-91937778D01*
X144067996Y-92013842D01*
X144071367Y-92017732D01*
X144180927Y-92088141D01*
X144305886Y-92124833D01*
X144305888Y-92124833D01*
X144436119Y-92124833D01*
X144436120Y-92124833D01*
X144451560Y-92120299D01*
X144489456Y-92124372D01*
X144513373Y-92154049D01*
X144514884Y-92160993D01*
X144527682Y-92250001D01*
X144528949Y-92258813D01*
X144583051Y-92377278D01*
X144668336Y-92475703D01*
X144777896Y-92546112D01*
X144902855Y-92582804D01*
X144902857Y-92582804D01*
X145033087Y-92582804D01*
X145033089Y-92582804D01*
X145158048Y-92546112D01*
X145267608Y-92475703D01*
X145267609Y-92475701D01*
X145267635Y-92475685D01*
X145305145Y-92468917D01*
X145336453Y-92490655D01*
X145339858Y-92496891D01*
X145340079Y-92497374D01*
X145425364Y-92595799D01*
X145534924Y-92666208D01*
X145659883Y-92702900D01*
X145659885Y-92702900D01*
X145790115Y-92702900D01*
X145790117Y-92702900D01*
X145915076Y-92666208D01*
X146024636Y-92595799D01*
X146109921Y-92497374D01*
X146164023Y-92378909D01*
X146181290Y-92258812D01*
X146182557Y-92250001D01*
X146182557Y-92249998D01*
X146173283Y-92185493D01*
X147263964Y-92185493D01*
X147263964Y-92185495D01*
X147282498Y-92314404D01*
X147336600Y-92432869D01*
X147421885Y-92531294D01*
X147531445Y-92601703D01*
X147656404Y-92638395D01*
X147656406Y-92638395D01*
X147786636Y-92638395D01*
X147786638Y-92638395D01*
X147911597Y-92601703D01*
X148021157Y-92531294D01*
X148106442Y-92432869D01*
X148160544Y-92314404D01*
X148179078Y-92185495D01*
X148160544Y-92056586D01*
X148106442Y-91938121D01*
X148021157Y-91839696D01*
X147911597Y-91769287D01*
X147786638Y-91732595D01*
X147656404Y-91732595D01*
X147531445Y-91769287D01*
X147503452Y-91787277D01*
X147421884Y-91839696D01*
X147336600Y-91938121D01*
X147282498Y-92056586D01*
X147282497Y-92056590D01*
X147263964Y-92185493D01*
X146173283Y-92185493D01*
X146169760Y-92160993D01*
X146164023Y-92121091D01*
X146109921Y-92002626D01*
X146024636Y-91904201D01*
X145915076Y-91833792D01*
X145790117Y-91797100D01*
X145659883Y-91797100D01*
X145576577Y-91821561D01*
X145534923Y-91833792D01*
X145425335Y-91904219D01*
X145387826Y-91910986D01*
X145356517Y-91889247D01*
X145353109Y-91883004D01*
X145352893Y-91882530D01*
X145267608Y-91784105D01*
X145158048Y-91713696D01*
X145033089Y-91677004D01*
X144902855Y-91677004D01*
X144902850Y-91677004D01*
X144887410Y-91681538D01*
X144849514Y-91677462D01*
X144825599Y-91647783D01*
X144824091Y-91640853D01*
X144810026Y-91543024D01*
X144755924Y-91424559D01*
X144670639Y-91326134D01*
X144561079Y-91255725D01*
X144436120Y-91219033D01*
X144305886Y-91219033D01*
X144180927Y-91255725D01*
X144074526Y-91324104D01*
X144071364Y-91326136D01*
X144066463Y-91331792D01*
X144032378Y-91348850D01*
X143996215Y-91336810D01*
X143991199Y-91331795D01*
X143921914Y-91251835D01*
X143833784Y-91195198D01*
X146698410Y-91195198D01*
X146698410Y-91195201D01*
X146701836Y-91219033D01*
X146716944Y-91324109D01*
X146771046Y-91442574D01*
X146856331Y-91540999D01*
X146965891Y-91611408D01*
X147090850Y-91648100D01*
X147090852Y-91648100D01*
X147221082Y-91648100D01*
X147221084Y-91648100D01*
X147346043Y-91611408D01*
X147455603Y-91540999D01*
X147540888Y-91442574D01*
X147594990Y-91324109D01*
X147613524Y-91195200D01*
X147594990Y-91066291D01*
X147540888Y-90947826D01*
X147455603Y-90849401D01*
X147346043Y-90778992D01*
X147221084Y-90742300D01*
X147090850Y-90742300D01*
X146965891Y-90778992D01*
X146911111Y-90814196D01*
X146856330Y-90849401D01*
X146771046Y-90947826D01*
X146716944Y-91066291D01*
X146716943Y-91066295D01*
X146698410Y-91195198D01*
X143833784Y-91195198D01*
X143812354Y-91181426D01*
X143687395Y-91144734D01*
X143557161Y-91144734D01*
X143432202Y-91181426D01*
X143377422Y-91216630D01*
X143322641Y-91251835D01*
X143237357Y-91350260D01*
X143183255Y-91468725D01*
X143183254Y-91468729D01*
X143164721Y-91597632D01*
X143164721Y-91597635D01*
X143183254Y-91726538D01*
X143183255Y-91726542D01*
X143210992Y-91787277D01*
X143212352Y-91825368D01*
X143186380Y-91853265D01*
X143179723Y-91855747D01*
X143129835Y-91870396D01*
X143129832Y-91870397D01*
X143129831Y-91870398D01*
X143104603Y-91886611D01*
X143020270Y-91940807D01*
X142934984Y-92039234D01*
X142934983Y-92039236D01*
X142894825Y-92127167D01*
X142866929Y-92153139D01*
X142828838Y-92151778D01*
X142804227Y-92127167D01*
X142785473Y-92086102D01*
X142700188Y-91987677D01*
X142590628Y-91917268D01*
X142465669Y-91880576D01*
X142335435Y-91880576D01*
X142210476Y-91917268D01*
X142178028Y-91938121D01*
X142100915Y-91987677D01*
X142015631Y-92086102D01*
X141961529Y-92204567D01*
X141961528Y-92204571D01*
X141942995Y-92333474D01*
X112662200Y-92333474D01*
X112662200Y-89033201D01*
X146463822Y-89033201D01*
X146482356Y-89162110D01*
X146536458Y-89280575D01*
X146621743Y-89379000D01*
X146731303Y-89449409D01*
X146856262Y-89486101D01*
X146856264Y-89486101D01*
X146986494Y-89486101D01*
X146986496Y-89486101D01*
X147111455Y-89449409D01*
X147221015Y-89379000D01*
X147306300Y-89280575D01*
X147360402Y-89162110D01*
X147378936Y-89033201D01*
X147360402Y-88904292D01*
X147306300Y-88785827D01*
X147221015Y-88687402D01*
X147111455Y-88616993D01*
X146986496Y-88580301D01*
X146856262Y-88580301D01*
X146731303Y-88616993D01*
X146676523Y-88652197D01*
X146621742Y-88687402D01*
X146536458Y-88785827D01*
X146482356Y-88904292D01*
X146463822Y-89033201D01*
X112662200Y-89033201D01*
X112662200Y-87136167D01*
X112676595Y-87101146D01*
X112722750Y-87054485D01*
X113394923Y-86374942D01*
X120897100Y-86374942D01*
X120897100Y-88105050D01*
X120897101Y-88105058D01*
X120905972Y-88149656D01*
X120905973Y-88149661D01*
X120939764Y-88200232D01*
X120939766Y-88200234D01*
X120990342Y-88234028D01*
X121034943Y-88242900D01*
X122765056Y-88242899D01*
X122809658Y-88234028D01*
X122860234Y-88200234D01*
X122894028Y-88149658D01*
X122902900Y-88105057D01*
X122902899Y-86475000D01*
X167454943Y-86475000D01*
X167473477Y-86603909D01*
X167527579Y-86722374D01*
X167612864Y-86820799D01*
X167722424Y-86891208D01*
X167847383Y-86927900D01*
X167847385Y-86927900D01*
X167977615Y-86927900D01*
X167977617Y-86927900D01*
X168102576Y-86891208D01*
X168212136Y-86820799D01*
X168297421Y-86722374D01*
X168351523Y-86603909D01*
X168370057Y-86475000D01*
X168351523Y-86346091D01*
X168297421Y-86227626D01*
X168212136Y-86129201D01*
X168102576Y-86058792D01*
X167977617Y-86022100D01*
X167847383Y-86022100D01*
X167722424Y-86058792D01*
X167671985Y-86091207D01*
X167612863Y-86129201D01*
X167527579Y-86227626D01*
X167473477Y-86346091D01*
X167473476Y-86346095D01*
X167469328Y-86374949D01*
X167454943Y-86475000D01*
X122902899Y-86475000D01*
X122902899Y-86374944D01*
X122894028Y-86330342D01*
X122894026Y-86330339D01*
X122894026Y-86330338D01*
X122860235Y-86279767D01*
X122860232Y-86279764D01*
X122809658Y-86245972D01*
X122765057Y-86237100D01*
X122765055Y-86237100D01*
X121034949Y-86237100D01*
X121034941Y-86237101D01*
X121001492Y-86243754D01*
X120990342Y-86245972D01*
X120990341Y-86245972D01*
X120990338Y-86245973D01*
X120939767Y-86279764D01*
X120939764Y-86279767D01*
X120905972Y-86330340D01*
X120905972Y-86330341D01*
X120897100Y-86374942D01*
X113394923Y-86374942D01*
X115051701Y-84699997D01*
X120892247Y-84699997D01*
X120892247Y-84700002D01*
X120909225Y-84872374D01*
X120911611Y-84896603D01*
X120968958Y-85085650D01*
X121062084Y-85259878D01*
X121187411Y-85412589D01*
X121340122Y-85537916D01*
X121514350Y-85631042D01*
X121703397Y-85688389D01*
X121851465Y-85702972D01*
X121899997Y-85707753D01*
X121900000Y-85707753D01*
X121900003Y-85707753D01*
X121944844Y-85703336D01*
X122096603Y-85688389D01*
X122140740Y-85675000D01*
X129667443Y-85675000D01*
X129685977Y-85803909D01*
X129740079Y-85922374D01*
X129825364Y-86020799D01*
X129934924Y-86091208D01*
X130059883Y-86127900D01*
X130059885Y-86127900D01*
X130190115Y-86127900D01*
X130190117Y-86127900D01*
X130315076Y-86091208D01*
X130424636Y-86020799D01*
X130509921Y-85922374D01*
X130564023Y-85803909D01*
X130582557Y-85675000D01*
X137667443Y-85675000D01*
X137685977Y-85803909D01*
X137740079Y-85922374D01*
X137825364Y-86020799D01*
X137934924Y-86091208D01*
X138059883Y-86127900D01*
X138059885Y-86127900D01*
X138190115Y-86127900D01*
X138190117Y-86127900D01*
X138315076Y-86091208D01*
X138424636Y-86020799D01*
X138509921Y-85922374D01*
X138564023Y-85803909D01*
X138582557Y-85675000D01*
X138564023Y-85546091D01*
X138509921Y-85427626D01*
X138424636Y-85329201D01*
X138315076Y-85258792D01*
X138190117Y-85222100D01*
X138059883Y-85222100D01*
X137934924Y-85258792D01*
X137880144Y-85293996D01*
X137825363Y-85329201D01*
X137740079Y-85427626D01*
X137685977Y-85546091D01*
X137667443Y-85675000D01*
X130582557Y-85675000D01*
X130564023Y-85546091D01*
X130509921Y-85427626D01*
X130424636Y-85329201D01*
X130315076Y-85258792D01*
X130190117Y-85222100D01*
X130059883Y-85222100D01*
X129934924Y-85258792D01*
X129880144Y-85293996D01*
X129825363Y-85329201D01*
X129740079Y-85427626D01*
X129685977Y-85546091D01*
X129667443Y-85675000D01*
X122140740Y-85675000D01*
X122285650Y-85631042D01*
X122459878Y-85537916D01*
X122612589Y-85412589D01*
X122737916Y-85259878D01*
X122831042Y-85085650D01*
X122887359Y-84900000D01*
X159542443Y-84900000D01*
X159560977Y-85028909D01*
X159615079Y-85147374D01*
X159700364Y-85245799D01*
X159809924Y-85316208D01*
X159934883Y-85352900D01*
X159934885Y-85352900D01*
X160065115Y-85352900D01*
X160065117Y-85352900D01*
X160190076Y-85316208D01*
X160299636Y-85245799D01*
X160384921Y-85147374D01*
X160439023Y-85028909D01*
X160457557Y-84900000D01*
X160439023Y-84771091D01*
X160384921Y-84652626D01*
X160360981Y-84624998D01*
X160542443Y-84624998D01*
X160542443Y-84625001D01*
X160560071Y-84747612D01*
X160560977Y-84753909D01*
X160615079Y-84872374D01*
X160700364Y-84970799D01*
X160809924Y-85041208D01*
X160934883Y-85077900D01*
X160934885Y-85077900D01*
X161065115Y-85077900D01*
X161065117Y-85077900D01*
X161190076Y-85041208D01*
X161299636Y-84970799D01*
X161384921Y-84872374D01*
X161439023Y-84753909D01*
X161457557Y-84625000D01*
X161439023Y-84496091D01*
X161384921Y-84377626D01*
X161299636Y-84279201D01*
X161190076Y-84208792D01*
X161065117Y-84172100D01*
X160934883Y-84172100D01*
X160809924Y-84208792D01*
X160755144Y-84243996D01*
X160700363Y-84279201D01*
X160615079Y-84377626D01*
X160560977Y-84496091D01*
X160560976Y-84496095D01*
X160542443Y-84624998D01*
X160360981Y-84624998D01*
X160299636Y-84554201D01*
X160190076Y-84483792D01*
X160065117Y-84447100D01*
X159934883Y-84447100D01*
X159809924Y-84483792D01*
X159777613Y-84504557D01*
X159700363Y-84554201D01*
X159623941Y-84642399D01*
X159615079Y-84652626D01*
X159560977Y-84771091D01*
X159542443Y-84900000D01*
X122887359Y-84900000D01*
X122888389Y-84896603D01*
X122907753Y-84700000D01*
X122888389Y-84503397D01*
X122831042Y-84314350D01*
X122737916Y-84140122D01*
X122612589Y-83987411D01*
X122459878Y-83862084D01*
X122285650Y-83768958D01*
X122148975Y-83727498D01*
X144979888Y-83727498D01*
X144979888Y-83727501D01*
X144999489Y-83926514D01*
X145057540Y-84117881D01*
X145151811Y-84294247D01*
X145197968Y-84350491D01*
X145597723Y-83950735D01*
X145631909Y-84009946D01*
X145717554Y-84095591D01*
X145776762Y-84129775D01*
X145377007Y-84529530D01*
X145433252Y-84575688D01*
X145609618Y-84669959D01*
X145800985Y-84728010D01*
X145999998Y-84747612D01*
X146000002Y-84747612D01*
X146199014Y-84728010D01*
X146390381Y-84669959D01*
X146566749Y-84575688D01*
X146566752Y-84575685D01*
X146622990Y-84529530D01*
X146622991Y-84529530D01*
X146223236Y-84129775D01*
X146282446Y-84095591D01*
X146368091Y-84009946D01*
X146402275Y-83950736D01*
X146802030Y-84350491D01*
X146802030Y-84350490D01*
X146848185Y-84294252D01*
X146848188Y-84294249D01*
X146942459Y-84117881D01*
X147000510Y-83926514D01*
X147020112Y-83727501D01*
X147020112Y-83727498D01*
X147580060Y-83727498D01*
X147580060Y-83727501D01*
X147586425Y-83788060D01*
X147600163Y-83918766D01*
X147622467Y-83987411D01*
X147659593Y-84101674D01*
X147659595Y-84101677D01*
X147691046Y-84156151D01*
X147755753Y-84268227D01*
X147884440Y-84411149D01*
X148040030Y-84524191D01*
X148215723Y-84602415D01*
X148403840Y-84642400D01*
X148403843Y-84642400D01*
X148596157Y-84642400D01*
X148596160Y-84642400D01*
X148784277Y-84602415D01*
X148959970Y-84524191D01*
X149115560Y-84411149D01*
X149244247Y-84268227D01*
X149340407Y-84101673D01*
X149399837Y-83918766D01*
X149419940Y-83727500D01*
X149419940Y-83727498D01*
X149580060Y-83727498D01*
X149580060Y-83727501D01*
X149586425Y-83788060D01*
X149600163Y-83918766D01*
X149622467Y-83987411D01*
X149659593Y-84101674D01*
X149659595Y-84101677D01*
X149691046Y-84156151D01*
X149755753Y-84268227D01*
X149884440Y-84411149D01*
X150040030Y-84524191D01*
X150215723Y-84602415D01*
X150403840Y-84642400D01*
X150403843Y-84642400D01*
X150596157Y-84642400D01*
X150596160Y-84642400D01*
X150784277Y-84602415D01*
X150959970Y-84524191D01*
X151115560Y-84411149D01*
X151244247Y-84268227D01*
X151340407Y-84101673D01*
X151399837Y-83918766D01*
X151419940Y-83727500D01*
X151399837Y-83536234D01*
X151340407Y-83353327D01*
X151244247Y-83186773D01*
X151115560Y-83043851D01*
X150986993Y-82950442D01*
X152085100Y-82950442D01*
X152085100Y-84504550D01*
X152085101Y-84504558D01*
X152093972Y-84549156D01*
X152093973Y-84549161D01*
X152127764Y-84599732D01*
X152127766Y-84599734D01*
X152178342Y-84633528D01*
X152222943Y-84642400D01*
X153777056Y-84642399D01*
X153821658Y-84633528D01*
X153872234Y-84599734D01*
X153906028Y-84549158D01*
X153914900Y-84504557D01*
X153914899Y-82950444D01*
X153906028Y-82905842D01*
X153906026Y-82905839D01*
X153906026Y-82905838D01*
X153872235Y-82855267D01*
X153872232Y-82855264D01*
X153821658Y-82821472D01*
X153777057Y-82812600D01*
X153777055Y-82812600D01*
X152222949Y-82812600D01*
X152222941Y-82812601D01*
X152189492Y-82819254D01*
X152178342Y-82821472D01*
X152178341Y-82821472D01*
X152178338Y-82821473D01*
X152127767Y-82855264D01*
X152127764Y-82855267D01*
X152093972Y-82905840D01*
X152093972Y-82905841D01*
X152085100Y-82950442D01*
X150986993Y-82950442D01*
X150959970Y-82930809D01*
X150784277Y-82852585D01*
X150784275Y-82852584D01*
X150784274Y-82852584D01*
X150716112Y-82838096D01*
X150596160Y-82812600D01*
X150403840Y-82812600D01*
X150323872Y-82829597D01*
X150215725Y-82852584D01*
X150215723Y-82852585D01*
X150040030Y-82930809D01*
X150040029Y-82930809D01*
X150040028Y-82930810D01*
X149884442Y-83043849D01*
X149884440Y-83043850D01*
X149884440Y-83043851D01*
X149802479Y-83134878D01*
X149755753Y-83186773D01*
X149755751Y-83186776D01*
X149659595Y-83353322D01*
X149659593Y-83353325D01*
X149600163Y-83536234D01*
X149580060Y-83727498D01*
X149419940Y-83727498D01*
X149399837Y-83536234D01*
X149340407Y-83353327D01*
X149244247Y-83186773D01*
X149115560Y-83043851D01*
X148959970Y-82930809D01*
X148784277Y-82852585D01*
X148784275Y-82852584D01*
X148784274Y-82852584D01*
X148716112Y-82838096D01*
X148596160Y-82812600D01*
X148403840Y-82812600D01*
X148323872Y-82829597D01*
X148215725Y-82852584D01*
X148215723Y-82852585D01*
X148040030Y-82930809D01*
X148040029Y-82930809D01*
X148040028Y-82930810D01*
X147884442Y-83043849D01*
X147884440Y-83043850D01*
X147884440Y-83043851D01*
X147802479Y-83134878D01*
X147755753Y-83186773D01*
X147755751Y-83186776D01*
X147659595Y-83353322D01*
X147659593Y-83353325D01*
X147600163Y-83536234D01*
X147580060Y-83727498D01*
X147020112Y-83727498D01*
X147000510Y-83528485D01*
X146942459Y-83337118D01*
X146848188Y-83160752D01*
X146802030Y-83104507D01*
X146402275Y-83504262D01*
X146368091Y-83445054D01*
X146282446Y-83359409D01*
X146223235Y-83325223D01*
X146622991Y-82925468D01*
X146566747Y-82879311D01*
X146390381Y-82785040D01*
X146199014Y-82726989D01*
X146000002Y-82707388D01*
X145999998Y-82707388D01*
X145800985Y-82726989D01*
X145609618Y-82785040D01*
X145433251Y-82879311D01*
X145377008Y-82925468D01*
X145377007Y-82925468D01*
X145776763Y-83325224D01*
X145717554Y-83359409D01*
X145631909Y-83445054D01*
X145597724Y-83504263D01*
X145197968Y-83104507D01*
X145197968Y-83104508D01*
X145151811Y-83160751D01*
X145057540Y-83337118D01*
X144999489Y-83528485D01*
X144979888Y-83727498D01*
X122148975Y-83727498D01*
X122096603Y-83711611D01*
X121900003Y-83692247D01*
X121899997Y-83692247D01*
X121703396Y-83711611D01*
X121651021Y-83727499D01*
X121514350Y-83768958D01*
X121514348Y-83768959D01*
X121514347Y-83768959D01*
X121478612Y-83788060D01*
X121340122Y-83862084D01*
X121340120Y-83862084D01*
X121340117Y-83862087D01*
X121187411Y-83987411D01*
X121062087Y-84140117D01*
X121062084Y-84140120D01*
X121062084Y-84140122D01*
X121044992Y-84172100D01*
X120968959Y-84314347D01*
X120968959Y-84314348D01*
X120968958Y-84314350D01*
X120939594Y-84411149D01*
X120911611Y-84503396D01*
X120892247Y-84699997D01*
X115051701Y-84699997D01*
X118694260Y-81017498D01*
X140921683Y-81017498D01*
X140921683Y-81017501D01*
X140942124Y-81303307D01*
X140942126Y-81303318D01*
X141003034Y-81583311D01*
X141103167Y-81851776D01*
X141103173Y-81851791D01*
X141240494Y-82103276D01*
X141412215Y-82332668D01*
X141424003Y-82344456D01*
X142031348Y-81737110D01*
X142052829Y-81766675D01*
X142180825Y-81894671D01*
X142210388Y-81916150D01*
X141603043Y-82523496D01*
X141614831Y-82535284D01*
X141844223Y-82707005D01*
X142095708Y-82844326D01*
X142095723Y-82844332D01*
X142364188Y-82944465D01*
X142644181Y-83005373D01*
X142644192Y-83005375D01*
X142929998Y-83025817D01*
X142930002Y-83025817D01*
X143215807Y-83005375D01*
X143215818Y-83005373D01*
X143495811Y-82944465D01*
X143764276Y-82844332D01*
X143764291Y-82844326D01*
X144015776Y-82707005D01*
X144245163Y-82535288D01*
X144245171Y-82535281D01*
X144256956Y-82523495D01*
X143649611Y-81916150D01*
X143679175Y-81894671D01*
X143807171Y-81766675D01*
X143828650Y-81737110D01*
X144435995Y-82344455D01*
X144447781Y-82332671D01*
X144447788Y-82332663D01*
X144619505Y-82103276D01*
X144756826Y-81851791D01*
X144756832Y-81851776D01*
X144856965Y-81583311D01*
X144917873Y-81303318D01*
X144917875Y-81303307D01*
X144938317Y-81017501D01*
X144938317Y-81017498D01*
X154061683Y-81017498D01*
X154061683Y-81017501D01*
X154082124Y-81303307D01*
X154082126Y-81303318D01*
X154143034Y-81583311D01*
X154243167Y-81851776D01*
X154243173Y-81851791D01*
X154380494Y-82103276D01*
X154552215Y-82332668D01*
X154564003Y-82344456D01*
X155171348Y-81737110D01*
X155192829Y-81766675D01*
X155320825Y-81894671D01*
X155350388Y-81916150D01*
X154743043Y-82523496D01*
X154754831Y-82535284D01*
X154984223Y-82707005D01*
X155235708Y-82844326D01*
X155235723Y-82844332D01*
X155504188Y-82944465D01*
X155784181Y-83005373D01*
X155784192Y-83005375D01*
X156069998Y-83025817D01*
X156070002Y-83025817D01*
X156355807Y-83005375D01*
X156355818Y-83005373D01*
X156635811Y-82944465D01*
X156904276Y-82844332D01*
X156904291Y-82844326D01*
X157155776Y-82707005D01*
X157385163Y-82535288D01*
X157385171Y-82535281D01*
X157396956Y-82523495D01*
X156789611Y-81916150D01*
X156819175Y-81894671D01*
X156947171Y-81766675D01*
X156968650Y-81737110D01*
X157575995Y-82344455D01*
X157587781Y-82332671D01*
X157587788Y-82332663D01*
X157759505Y-82103276D01*
X157896826Y-81851791D01*
X157896832Y-81851776D01*
X157949734Y-81709942D01*
X166057100Y-81709942D01*
X166057100Y-83440050D01*
X166057101Y-83440058D01*
X166065972Y-83484656D01*
X166065973Y-83484661D01*
X166099764Y-83535232D01*
X166099767Y-83535235D01*
X166119560Y-83548460D01*
X166150342Y-83569028D01*
X166194943Y-83577900D01*
X167925056Y-83577899D01*
X167969658Y-83569028D01*
X168020234Y-83535234D01*
X168054028Y-83484658D01*
X168062900Y-83440057D01*
X168062899Y-82574997D01*
X168592247Y-82574997D01*
X168592247Y-82575002D01*
X168605286Y-82707388D01*
X168611611Y-82771603D01*
X168668958Y-82960650D01*
X168762084Y-83134878D01*
X168887411Y-83287589D01*
X169040122Y-83412916D01*
X169214350Y-83506042D01*
X169403397Y-83563389D01*
X169550707Y-83577898D01*
X169599997Y-83582753D01*
X169600000Y-83582753D01*
X169600003Y-83582753D01*
X169644844Y-83578336D01*
X169796603Y-83563389D01*
X169985650Y-83506042D01*
X170159878Y-83412916D01*
X170312589Y-83287589D01*
X170437916Y-83134878D01*
X170531042Y-82960650D01*
X170588389Y-82771603D01*
X170607753Y-82575000D01*
X170588389Y-82378397D01*
X170531042Y-82189350D01*
X170437916Y-82015122D01*
X170312589Y-81862411D01*
X170159878Y-81737084D01*
X169985650Y-81643958D01*
X169796603Y-81586611D01*
X169600003Y-81567247D01*
X169599997Y-81567247D01*
X169403396Y-81586611D01*
X169321077Y-81611582D01*
X169214350Y-81643958D01*
X169214348Y-81643959D01*
X169214347Y-81643959D01*
X169101401Y-81704329D01*
X169040122Y-81737084D01*
X169040120Y-81737084D01*
X169040117Y-81737087D01*
X168887411Y-81862411D01*
X168762087Y-82015117D01*
X168668959Y-82189347D01*
X168668959Y-82189348D01*
X168611611Y-82378396D01*
X168592247Y-82574997D01*
X168062899Y-82574997D01*
X168062899Y-81709944D01*
X168054028Y-81665342D01*
X168054026Y-81665339D01*
X168054026Y-81665338D01*
X168020235Y-81614767D01*
X168020232Y-81614764D01*
X167969658Y-81580972D01*
X167925057Y-81572100D01*
X167925055Y-81572100D01*
X166194949Y-81572100D01*
X166194941Y-81572101D01*
X166161492Y-81578754D01*
X166150342Y-81580972D01*
X166150341Y-81580972D01*
X166150338Y-81580973D01*
X166099767Y-81614764D01*
X166099764Y-81614767D01*
X166065972Y-81665340D01*
X166065972Y-81665341D01*
X166057100Y-81709942D01*
X157949734Y-81709942D01*
X157996965Y-81583311D01*
X158057873Y-81303318D01*
X158057875Y-81303307D01*
X158078317Y-81017501D01*
X158078317Y-81017498D01*
X158057875Y-80731692D01*
X158057873Y-80731681D01*
X157996965Y-80451688D01*
X157896832Y-80183223D01*
X157896826Y-80183208D01*
X157759505Y-79931723D01*
X157587784Y-79702331D01*
X157575996Y-79690543D01*
X156968650Y-80297888D01*
X156947171Y-80268325D01*
X156819175Y-80140329D01*
X156789610Y-80118848D01*
X157396956Y-79511503D01*
X157385168Y-79499715D01*
X157155776Y-79327994D01*
X156904291Y-79190673D01*
X156904276Y-79190667D01*
X156635811Y-79090534D01*
X156355818Y-79029626D01*
X156355807Y-79029624D01*
X156070002Y-79009183D01*
X156069998Y-79009183D01*
X155784192Y-79029624D01*
X155784181Y-79029626D01*
X155504188Y-79090534D01*
X155235723Y-79190667D01*
X155235708Y-79190673D01*
X154984223Y-79327994D01*
X154754828Y-79499718D01*
X154743043Y-79511502D01*
X155350389Y-80118848D01*
X155320825Y-80140329D01*
X155192829Y-80268325D01*
X155171348Y-80297889D01*
X154564002Y-79690543D01*
X154552218Y-79702328D01*
X154380494Y-79931723D01*
X154243173Y-80183208D01*
X154243167Y-80183223D01*
X154143034Y-80451688D01*
X154082126Y-80731681D01*
X154082124Y-80731692D01*
X154061683Y-81017498D01*
X144938317Y-81017498D01*
X144917875Y-80731692D01*
X144917873Y-80731681D01*
X144856965Y-80451688D01*
X144756832Y-80183223D01*
X144756826Y-80183208D01*
X144619505Y-79931723D01*
X144447784Y-79702331D01*
X144435996Y-79690543D01*
X143828650Y-80297888D01*
X143807171Y-80268325D01*
X143679175Y-80140329D01*
X143649610Y-80118848D01*
X144256956Y-79511503D01*
X144245168Y-79499715D01*
X144015776Y-79327994D01*
X143764291Y-79190673D01*
X143764276Y-79190667D01*
X143495811Y-79090534D01*
X143215818Y-79029626D01*
X143215807Y-79029624D01*
X142930002Y-79009183D01*
X142929998Y-79009183D01*
X142644192Y-79029624D01*
X142644181Y-79029626D01*
X142364188Y-79090534D01*
X142095723Y-79190667D01*
X142095708Y-79190673D01*
X141844223Y-79327994D01*
X141614828Y-79499718D01*
X141603043Y-79511502D01*
X142210389Y-80118848D01*
X142180825Y-80140329D01*
X142052829Y-80268325D01*
X142031348Y-80297889D01*
X141424002Y-79690543D01*
X141412218Y-79702328D01*
X141240494Y-79931723D01*
X141103173Y-80183208D01*
X141103167Y-80183223D01*
X141003034Y-80451688D01*
X140942126Y-80731681D01*
X140942124Y-80731692D01*
X140921683Y-81017498D01*
X118694260Y-81017498D01*
X122135909Y-77538112D01*
X122171042Y-77523335D01*
X122171314Y-77523334D01*
X175014634Y-77523334D01*
X175049706Y-77537779D01*
G37*
%TD.AperFunction*%
%TD*%
M02*
