%TF.GenerationSoftware,KiCad,Pcbnew,9.0.0*%
%TF.CreationDate,2025-04-20T21:07:23+01:00*%
%TF.ProjectId,RISKYMSXCart,5249534b-594d-4535-9843-6172742e6b69,rev?*%
%TF.SameCoordinates,Original*%
%TF.FileFunction,Copper,L3,Inr*%
%TF.FilePolarity,Positive*%
%FSLAX46Y46*%
G04 Gerber Fmt 4.6, Leading zero omitted, Abs format (unit mm)*
G04 Created by KiCad (PCBNEW 9.0.0) date 2025-04-20 21:07:23*
%MOMM*%
%LPD*%
G01*
G04 APERTURE LIST*
%TA.AperFunction,ComponentPad*%
%ADD10R,1.700000X1.700000*%
%TD*%
%TA.AperFunction,ComponentPad*%
%ADD11O,1.700000X1.700000*%
%TD*%
%TA.AperFunction,ComponentPad*%
%ADD12R,1.524000X1.524000*%
%TD*%
%TA.AperFunction,ComponentPad*%
%ADD13C,1.524000*%
%TD*%
%TA.AperFunction,ComponentPad*%
%ADD14C,3.500000*%
%TD*%
%TA.AperFunction,ViaPad*%
%ADD15C,0.600000*%
%TD*%
%TA.AperFunction,ViaPad*%
%ADD16C,0.654800*%
%TD*%
G04 APERTURE END LIST*
D10*
%TO.N,/BOOT0*%
%TO.C,J1*%
X126460000Y-96700000D03*
D11*
%TO.N,+3.3V*%
X129000000Y-96700000D03*
%TD*%
D10*
%TO.N,/USART_TX*%
%TO.C,J2*%
X167060000Y-82575000D03*
D11*
%TO.N,/USART_RX*%
X169600000Y-82575000D03*
%TD*%
D12*
%TO.N,Net-(J7-VBUS)*%
%TO.C,J7*%
X153000000Y-83727500D03*
D13*
%TO.N,/USB1_DM*%
X150500000Y-83727500D03*
%TO.N,/USB1_DP*%
X148500000Y-83727500D03*
%TO.N,GND*%
X146000000Y-83727500D03*
D14*
X156070000Y-81017500D03*
X142930000Y-81017500D03*
%TD*%
D10*
%TO.N,/SWCLK*%
%TO.C,J8*%
X121900000Y-87240000D03*
D11*
%TO.N,/SWDIO*%
X121900000Y-84700000D03*
%TD*%
D15*
%TO.N,GND*%
X127712500Y-116012500D03*
X137850000Y-110812500D03*
X133475000Y-116500000D03*
X137900000Y-106900000D03*
X177605000Y-108955000D03*
X152925000Y-103800000D03*
X141368788Y-92431212D03*
X143375000Y-95250000D03*
X149651004Y-110500000D03*
X133450000Y-117975000D03*
X174600000Y-98100000D03*
D16*
X128536700Y-124056134D03*
D15*
X147800000Y-99200000D03*
X124800000Y-116475000D03*
X157250000Y-92875000D03*
X156096394Y-102150490D03*
X151425000Y-103800000D03*
X146950000Y-103200000D03*
X122560000Y-96700000D03*
X153562984Y-95810364D03*
X173575000Y-81350000D03*
X177500000Y-112500000D03*
D16*
X126072900Y-124056134D03*
D15*
X166075000Y-88675000D03*
X145500000Y-110600000D03*
X145400000Y-103250000D03*
X156150000Y-106900000D03*
D16*
%TO.N,+5V*%
X122262900Y-123979934D03*
D15*
X131725000Y-117975000D03*
X131750000Y-116500000D03*
X167912500Y-86475000D03*
X177650000Y-98100000D03*
D16*
X119849900Y-123979934D03*
D15*
%TO.N,+3.3V*%
X175300000Y-102751000D03*
X151500000Y-107650000D03*
X137850000Y-109087500D03*
X155525000Y-92875000D03*
X152900000Y-107650000D03*
X175300000Y-108949000D03*
X141525000Y-95050000D03*
X174700000Y-112500000D03*
X181325000Y-94150000D03*
X145400000Y-106075000D03*
X146000000Y-107700000D03*
X146950000Y-106062500D03*
X132300000Y-85750000D03*
X149300000Y-99250000D03*
X180200300Y-111953934D03*
%TO.N,/~{EXCS1}*%
X136575000Y-102400000D03*
X177152186Y-123418049D03*
X137231289Y-93322601D03*
%TO.N,/~{EXCS2}*%
X137132470Y-103369541D03*
X133745200Y-103550000D03*
%TO.N,/~{EXCS12}*%
X134097600Y-104850000D03*
X136650000Y-104875000D03*
X176400000Y-123400000D03*
%TO.N,/~{EXSLTSL}*%
X136217800Y-96928196D03*
X136767800Y-101427400D03*
%TO.N,/~{RFSH}*%
X155927399Y-95309854D03*
X160666800Y-96882488D03*
%TO.N,/WAIT*%
X147721521Y-92185495D03*
%TO.N,/~{M1}*%
X144975000Y-96695200D03*
%TO.N,/BDIR*%
X147155967Y-91195200D03*
X145725000Y-92250000D03*
%TO.N,/IORQ*%
X145947600Y-95050000D03*
%TO.N,/MREQ*%
X159562000Y-96825000D03*
X156800000Y-96125000D03*
%TO.N,/WR*%
X138025000Y-102427400D03*
%TO.N,/RD*%
X137574012Y-96950000D03*
X137855220Y-103160397D03*
%TO.N,/~{RESET}*%
X161000000Y-124150000D03*
X157481040Y-95202400D03*
X147052400Y-95000000D03*
%TO.N,/A9*%
X156150000Y-100295201D03*
%TO.N,/A11*%
X156150000Y-99190401D03*
X159304800Y-119100000D03*
X158200001Y-120181211D03*
%TO.N,/A7*%
X156150000Y-101400000D03*
%TO.N,/A12*%
X153284394Y-102615606D03*
%TO.N,/A8*%
X153963950Y-122313950D03*
X152977900Y-123300000D03*
%TO.N,/A14*%
X152800000Y-97800000D03*
%TO.N,/A13*%
X153200000Y-98450000D03*
X151750000Y-122700000D03*
%TO.N,/A1*%
X141336336Y-118155123D03*
X144006212Y-121643788D03*
X141500000Y-106350000D03*
%TO.N,/A3*%
X144252400Y-106800000D03*
%TO.N,/A2*%
X140196281Y-117056750D03*
X140096207Y-118477419D03*
%TO.N,/A5*%
X140804306Y-117623094D03*
X142039790Y-121239790D03*
X140648606Y-119029818D03*
%TO.N,/A4*%
X139442553Y-118104800D03*
X139442553Y-116950000D03*
X140447600Y-111100000D03*
X141552400Y-111100000D03*
%TO.N,/D1*%
X140623368Y-98375000D03*
%TO.N,/D3*%
X140647600Y-99375001D03*
%TO.N,/D2*%
X136415400Y-98875000D03*
X135310600Y-98909394D03*
%TO.N,/D5*%
X140647600Y-100350000D03*
%TO.N,/D4*%
X136415400Y-99875000D03*
X134758200Y-99900000D03*
%TO.N,/D7*%
X140647600Y-101400000D03*
%TO.N,/D6*%
X134169493Y-100783183D03*
X136379093Y-100783183D03*
%TO.N,/NRST*%
X147800000Y-107600000D03*
%TO.N,Net-(D1-A)*%
X134100000Y-83825000D03*
%TO.N,/BOOT0*%
X139462500Y-94772600D03*
X124385000Y-96700000D03*
%TO.N,/USART_TX*%
X144371003Y-91671933D03*
X161000000Y-84625000D03*
%TO.N,/USART_RX*%
X143622278Y-91597634D03*
X160000000Y-84900000D03*
%TO.N,/USB1_DM*%
X143319907Y-92286606D03*
%TO.N,/USB1_DP*%
X142400552Y-92333476D03*
%TO.N,/SWDIO*%
X142089790Y-96335210D03*
%TO.N,/SWCLK*%
X134462561Y-94315672D03*
X138126412Y-95400000D03*
X136891388Y-94427400D03*
X135809302Y-95021866D03*
%TO.N,Net-(D5-A)*%
X173575000Y-83400000D03*
%TO.N,/SCC_OUT*%
X138300000Y-114975000D03*
%TO.N,/LEDFLASH*%
X146921379Y-89033201D03*
X144967972Y-92129904D03*
%TD*%
%TA.AperFunction,Conductor*%
%TO.N,+3.3V*%
G36*
X139885368Y-83664712D02*
G01*
X139900257Y-83699799D01*
X139900258Y-83699970D01*
X139925000Y-88474999D01*
X139925000Y-88475000D01*
X165653061Y-88350207D01*
X165688343Y-88364621D01*
X165703099Y-88399763D01*
X165696428Y-88424905D01*
X165652966Y-88500183D01*
X165652964Y-88500187D01*
X165652963Y-88500191D01*
X165622100Y-88615373D01*
X165622100Y-88615375D01*
X165622100Y-88734625D01*
X165652964Y-88849813D01*
X165712590Y-88953087D01*
X165796913Y-89037410D01*
X165900187Y-89097036D01*
X166015375Y-89127900D01*
X166134625Y-89127900D01*
X166249813Y-89097036D01*
X166353087Y-89037410D01*
X166437410Y-88953087D01*
X166497036Y-88849813D01*
X166527900Y-88734625D01*
X166527900Y-88615375D01*
X166497036Y-88500187D01*
X166451215Y-88420825D01*
X166446241Y-88383037D01*
X166469444Y-88352798D01*
X166494098Y-88346128D01*
X170799056Y-88325247D01*
X170834341Y-88339662D01*
X170849097Y-88374804D01*
X170849090Y-88375935D01*
X170775927Y-92473108D01*
X170775000Y-92525000D01*
X183150882Y-92699308D01*
X183185887Y-92714388D01*
X183199981Y-92749122D01*
X183196307Y-102429434D01*
X183181783Y-102464567D01*
X182164282Y-103485666D01*
X182129765Y-103500308D01*
X179681584Y-103537645D01*
X176642300Y-106576929D01*
X176592300Y-110995561D01*
X176592300Y-110995562D01*
X181199557Y-110901034D01*
X181235061Y-110914895D01*
X181250367Y-110949802D01*
X181250376Y-110950452D01*
X181299654Y-117553674D01*
X181285331Y-117588996D01*
X181253820Y-117603688D01*
X179161856Y-117770781D01*
X179125593Y-117759045D01*
X179108249Y-117725104D01*
X179110885Y-117704694D01*
X179157468Y-117571570D01*
X179226211Y-117270386D01*
X179260800Y-116963399D01*
X179260800Y-116654469D01*
X179226211Y-116347482D01*
X179157468Y-116046298D01*
X179055435Y-115754705D01*
X179005055Y-115650090D01*
X178921398Y-115476374D01*
X178921396Y-115476371D01*
X178757034Y-115214790D01*
X178705217Y-115149813D01*
X178564420Y-114973260D01*
X178345974Y-114754814D01*
X178104443Y-114562199D01*
X177842865Y-114397839D01*
X177842862Y-114397837D01*
X177842859Y-114397835D01*
X177564530Y-114263799D01*
X177564522Y-114263796D01*
X177272944Y-114161768D01*
X177272937Y-114161766D01*
X176971763Y-114093025D01*
X176971757Y-114093024D01*
X176971752Y-114093023D01*
X176664765Y-114058434D01*
X176355835Y-114058434D01*
X176048848Y-114093023D01*
X176048844Y-114093023D01*
X176048836Y-114093025D01*
X175747662Y-114161766D01*
X175747655Y-114161768D01*
X175456077Y-114263796D01*
X175456069Y-114263799D01*
X175177740Y-114397835D01*
X175177737Y-114397837D01*
X174916156Y-114562199D01*
X174674625Y-114754814D01*
X174456180Y-114973259D01*
X174263565Y-115214790D01*
X174099203Y-115476371D01*
X174099201Y-115476374D01*
X173965165Y-115754703D01*
X173965162Y-115754711D01*
X173863134Y-116046289D01*
X173863132Y-116046296D01*
X173794391Y-116347470D01*
X173794389Y-116347478D01*
X173794389Y-116347482D01*
X173759800Y-116654469D01*
X173759800Y-116963399D01*
X173786578Y-117201058D01*
X173794389Y-117270383D01*
X173794391Y-117270397D01*
X173863132Y-117571571D01*
X173863134Y-117571578D01*
X173965162Y-117863156D01*
X173965165Y-117863164D01*
X174083287Y-118108446D01*
X174085424Y-118146501D01*
X174060026Y-118174921D01*
X174042384Y-118179695D01*
X163776694Y-118999658D01*
X163768140Y-118999604D01*
X159450005Y-118600000D01*
X159450002Y-118600000D01*
X159450000Y-118600000D01*
X155881712Y-118867621D01*
X153502850Y-119046036D01*
X153466643Y-119034124D01*
X153449464Y-119000100D01*
X153449329Y-118997005D01*
X153438081Y-118108446D01*
X153400000Y-115100000D01*
X153400000Y-115099999D01*
X126044887Y-112654013D01*
X126011112Y-112636349D01*
X125999525Y-112604936D01*
X125997793Y-112440373D01*
X177047100Y-112440373D01*
X177047100Y-112440375D01*
X177047100Y-112559625D01*
X177077964Y-112674813D01*
X177137590Y-112778087D01*
X177221913Y-112862410D01*
X177325187Y-112922036D01*
X177440375Y-112952900D01*
X177559625Y-112952900D01*
X177674813Y-112922036D01*
X177778087Y-112862410D01*
X177862410Y-112778087D01*
X177922036Y-112674813D01*
X177952900Y-112559625D01*
X177952900Y-112440375D01*
X177922036Y-112325187D01*
X177862410Y-112221913D01*
X177778087Y-112137590D01*
X177778086Y-112137589D01*
X177674816Y-112077966D01*
X177674817Y-112077966D01*
X177674813Y-112077964D01*
X177610414Y-112060708D01*
X177559626Y-112047100D01*
X177559625Y-112047100D01*
X177440375Y-112047100D01*
X177440373Y-112047100D01*
X177338796Y-112074317D01*
X177325187Y-112077964D01*
X177325184Y-112077965D01*
X177325183Y-112077966D01*
X177221913Y-112137589D01*
X177137589Y-112221913D01*
X177077966Y-112325183D01*
X177077964Y-112325187D01*
X177077963Y-112325191D01*
X177047100Y-112440373D01*
X125997793Y-112440373D01*
X125980030Y-110752873D01*
X137397100Y-110752873D01*
X137397100Y-110752875D01*
X137397100Y-110872125D01*
X137427964Y-110987313D01*
X137427966Y-110987316D01*
X137465830Y-111052899D01*
X137487590Y-111090587D01*
X137571913Y-111174910D01*
X137675187Y-111234536D01*
X137790375Y-111265400D01*
X137909625Y-111265400D01*
X138024813Y-111234536D01*
X138128087Y-111174910D01*
X138212410Y-111090587D01*
X138241401Y-111040373D01*
X139994700Y-111040373D01*
X139994700Y-111159626D01*
X140008308Y-111210414D01*
X140025564Y-111274813D01*
X140085190Y-111378087D01*
X140169513Y-111462410D01*
X140272787Y-111522036D01*
X140387975Y-111552900D01*
X140507225Y-111552900D01*
X140622413Y-111522036D01*
X140725687Y-111462410D01*
X140810010Y-111378087D01*
X140869636Y-111274813D01*
X140900500Y-111159625D01*
X140900500Y-111040375D01*
X140900499Y-111040373D01*
X141099500Y-111040373D01*
X141099500Y-111159626D01*
X141113108Y-111210414D01*
X141130364Y-111274813D01*
X141189990Y-111378087D01*
X141274313Y-111462410D01*
X141377587Y-111522036D01*
X141492775Y-111552900D01*
X141612025Y-111552900D01*
X141727213Y-111522036D01*
X141830487Y-111462410D01*
X141914810Y-111378087D01*
X141974436Y-111274813D01*
X142005300Y-111159625D01*
X142005300Y-111040375D01*
X141974436Y-110925187D01*
X141914810Y-110821913D01*
X141830487Y-110737590D01*
X141830486Y-110737589D01*
X141727216Y-110677966D01*
X141727217Y-110677966D01*
X141727213Y-110677964D01*
X141662814Y-110660708D01*
X141612026Y-110647100D01*
X141612025Y-110647100D01*
X141492775Y-110647100D01*
X141492773Y-110647100D01*
X141391196Y-110674317D01*
X141377587Y-110677964D01*
X141377584Y-110677965D01*
X141377583Y-110677966D01*
X141274313Y-110737589D01*
X141189989Y-110821913D01*
X141136306Y-110914895D01*
X141130364Y-110925187D01*
X141130363Y-110925191D01*
X141099500Y-111040373D01*
X140900499Y-111040373D01*
X140869636Y-110925187D01*
X140810010Y-110821913D01*
X140725687Y-110737590D01*
X140725686Y-110737589D01*
X140622416Y-110677966D01*
X140622417Y-110677966D01*
X140622413Y-110677964D01*
X140558014Y-110660708D01*
X140507226Y-110647100D01*
X140507225Y-110647100D01*
X140387975Y-110647100D01*
X140387973Y-110647100D01*
X140286396Y-110674317D01*
X140272787Y-110677964D01*
X140272784Y-110677965D01*
X140272783Y-110677966D01*
X140169513Y-110737589D01*
X140085189Y-110821913D01*
X140031506Y-110914895D01*
X140025564Y-110925187D01*
X140025563Y-110925191D01*
X139994700Y-111040373D01*
X138241401Y-111040373D01*
X138272036Y-110987313D01*
X138302900Y-110872125D01*
X138302900Y-110752875D01*
X138272036Y-110637687D01*
X138215851Y-110540373D01*
X145047100Y-110540373D01*
X145047100Y-110659626D01*
X145052014Y-110677964D01*
X145077964Y-110774813D01*
X145101098Y-110814882D01*
X145134147Y-110872125D01*
X145137590Y-110878087D01*
X145221913Y-110962410D01*
X145325187Y-111022036D01*
X145440375Y-111052900D01*
X145559625Y-111052900D01*
X145674813Y-111022036D01*
X145778087Y-110962410D01*
X145862410Y-110878087D01*
X145922036Y-110774813D01*
X145952900Y-110659625D01*
X145952900Y-110540375D01*
X145926105Y-110440373D01*
X149198104Y-110440373D01*
X149198104Y-110440375D01*
X149198104Y-110559625D01*
X149228968Y-110674813D01*
X149252102Y-110714882D01*
X149286703Y-110774813D01*
X149288594Y-110778087D01*
X149372917Y-110862410D01*
X149476191Y-110922036D01*
X149591379Y-110952900D01*
X149710629Y-110952900D01*
X149825817Y-110922036D01*
X149929091Y-110862410D01*
X150013414Y-110778087D01*
X150073040Y-110674813D01*
X150103904Y-110559625D01*
X150103904Y-110440375D01*
X150073040Y-110325187D01*
X150013414Y-110221913D01*
X149929091Y-110137590D01*
X149929090Y-110137589D01*
X149825820Y-110077966D01*
X149825821Y-110077966D01*
X149825817Y-110077964D01*
X149761418Y-110060708D01*
X149710630Y-110047100D01*
X149710629Y-110047100D01*
X149591379Y-110047100D01*
X149591377Y-110047100D01*
X149489800Y-110074317D01*
X149476191Y-110077964D01*
X149476188Y-110077965D01*
X149476187Y-110077966D01*
X149372917Y-110137589D01*
X149288593Y-110221913D01*
X149230858Y-110321913D01*
X149228968Y-110325187D01*
X149228967Y-110325191D01*
X149198104Y-110440373D01*
X145926105Y-110440373D01*
X145922036Y-110425187D01*
X145862410Y-110321913D01*
X145778087Y-110237590D01*
X145778086Y-110237589D01*
X145674816Y-110177966D01*
X145674817Y-110177966D01*
X145674813Y-110177964D01*
X145610414Y-110160708D01*
X145559626Y-110147100D01*
X145559625Y-110147100D01*
X145440375Y-110147100D01*
X145440373Y-110147100D01*
X145338796Y-110174317D01*
X145325187Y-110177964D01*
X145325184Y-110177965D01*
X145325183Y-110177966D01*
X145221913Y-110237589D01*
X145137589Y-110321913D01*
X145098010Y-110390466D01*
X145077964Y-110425187D01*
X145077963Y-110425191D01*
X145047100Y-110540373D01*
X138215851Y-110540373D01*
X138212410Y-110534413D01*
X138128087Y-110450090D01*
X138128086Y-110450089D01*
X138024816Y-110390466D01*
X138024817Y-110390466D01*
X138024813Y-110390464D01*
X137960414Y-110373208D01*
X137909626Y-110359600D01*
X137909625Y-110359600D01*
X137790375Y-110359600D01*
X137790373Y-110359600D01*
X137688796Y-110386817D01*
X137675187Y-110390464D01*
X137675184Y-110390465D01*
X137675183Y-110390466D01*
X137571913Y-110450089D01*
X137487589Y-110534413D01*
X137427966Y-110637683D01*
X137427964Y-110637687D01*
X137427963Y-110637691D01*
X137397100Y-110752873D01*
X125980030Y-110752873D01*
X125946214Y-107540373D01*
X147347100Y-107540373D01*
X147347100Y-107540375D01*
X147347100Y-107659625D01*
X147377964Y-107774813D01*
X147437590Y-107878087D01*
X147521913Y-107962410D01*
X147625187Y-108022036D01*
X147740375Y-108052900D01*
X147859625Y-108052900D01*
X147974813Y-108022036D01*
X148078087Y-107962410D01*
X148162410Y-107878087D01*
X148222036Y-107774813D01*
X148252900Y-107659625D01*
X148252900Y-107540375D01*
X148222036Y-107425187D01*
X148162410Y-107321913D01*
X148078087Y-107237590D01*
X148078086Y-107237589D01*
X147974816Y-107177966D01*
X147974817Y-107177966D01*
X147974813Y-107177964D01*
X147910414Y-107160708D01*
X147859626Y-107147100D01*
X147859625Y-107147100D01*
X147740375Y-107147100D01*
X147740373Y-107147100D01*
X147638796Y-107174317D01*
X147625187Y-107177964D01*
X147625184Y-107177965D01*
X147625183Y-107177966D01*
X147521913Y-107237589D01*
X147437589Y-107321913D01*
X147419699Y-107352900D01*
X147377964Y-107425187D01*
X147377963Y-107425191D01*
X147347100Y-107540373D01*
X125946214Y-107540373D01*
X125938846Y-106840373D01*
X137447100Y-106840373D01*
X137447100Y-106959626D01*
X137451170Y-106974816D01*
X137477964Y-107074813D01*
X137501098Y-107114882D01*
X137528538Y-107162410D01*
X137537590Y-107178087D01*
X137621913Y-107262410D01*
X137725187Y-107322036D01*
X137840375Y-107352900D01*
X137959625Y-107352900D01*
X138074813Y-107322036D01*
X138178087Y-107262410D01*
X138262410Y-107178087D01*
X138322036Y-107074813D01*
X138352900Y-106959625D01*
X138352900Y-106840375D01*
X138322036Y-106725187D01*
X138262410Y-106621913D01*
X138178087Y-106537590D01*
X138178086Y-106537589D01*
X138074816Y-106477966D01*
X138074817Y-106477966D01*
X138074813Y-106477964D01*
X138010414Y-106460708D01*
X137959626Y-106447100D01*
X137959625Y-106447100D01*
X137840375Y-106447100D01*
X137840373Y-106447100D01*
X137738796Y-106474317D01*
X137725187Y-106477964D01*
X137725184Y-106477965D01*
X137725183Y-106477966D01*
X137621913Y-106537589D01*
X137537589Y-106621913D01*
X137477966Y-106725183D01*
X137477964Y-106725187D01*
X137477963Y-106725191D01*
X137447100Y-106840373D01*
X125938846Y-106840373D01*
X125933056Y-106290373D01*
X141047100Y-106290373D01*
X141047100Y-106290375D01*
X141047100Y-106409625D01*
X141077964Y-106524813D01*
X141077966Y-106524816D01*
X141135915Y-106625187D01*
X141137590Y-106628087D01*
X141221913Y-106712410D01*
X141325187Y-106772036D01*
X141440375Y-106802900D01*
X141559625Y-106802900D01*
X141674813Y-106772036D01*
X141729654Y-106740373D01*
X143799500Y-106740373D01*
X143799500Y-106740375D01*
X143799500Y-106859625D01*
X143830364Y-106974813D01*
X143830366Y-106974816D01*
X143888099Y-107074813D01*
X143889990Y-107078087D01*
X143974313Y-107162410D01*
X144077587Y-107222036D01*
X144192775Y-107252900D01*
X144312025Y-107252900D01*
X144427213Y-107222036D01*
X144530487Y-107162410D01*
X144614810Y-107078087D01*
X144674436Y-106974813D01*
X144705300Y-106859625D01*
X144705300Y-106840373D01*
X155697100Y-106840373D01*
X155697100Y-106959626D01*
X155701170Y-106974816D01*
X155727964Y-107074813D01*
X155751098Y-107114882D01*
X155778538Y-107162410D01*
X155787590Y-107178087D01*
X155871913Y-107262410D01*
X155975187Y-107322036D01*
X156090375Y-107352900D01*
X156209625Y-107352900D01*
X156324813Y-107322036D01*
X156428087Y-107262410D01*
X156512410Y-107178087D01*
X156572036Y-107074813D01*
X156602900Y-106959625D01*
X156602900Y-106840375D01*
X156572036Y-106725187D01*
X156512410Y-106621913D01*
X156428087Y-106537590D01*
X156428086Y-106537589D01*
X156324816Y-106477966D01*
X156324817Y-106477966D01*
X156324813Y-106477964D01*
X156260414Y-106460708D01*
X156209626Y-106447100D01*
X156209625Y-106447100D01*
X156090375Y-106447100D01*
X156090373Y-106447100D01*
X155988796Y-106474317D01*
X155975187Y-106477964D01*
X155975184Y-106477965D01*
X155975183Y-106477966D01*
X155871913Y-106537589D01*
X155787589Y-106621913D01*
X155727966Y-106725183D01*
X155727964Y-106725187D01*
X155727963Y-106725191D01*
X155697100Y-106840373D01*
X144705300Y-106840373D01*
X144705300Y-106740375D01*
X144674436Y-106625187D01*
X144614810Y-106521913D01*
X144530487Y-106437590D01*
X144530486Y-106437589D01*
X144427216Y-106377966D01*
X144427217Y-106377966D01*
X144427213Y-106377964D01*
X144362814Y-106360708D01*
X144312026Y-106347100D01*
X144312025Y-106347100D01*
X144192775Y-106347100D01*
X144192773Y-106347100D01*
X144091196Y-106374317D01*
X144077587Y-106377964D01*
X144077584Y-106377965D01*
X144077583Y-106377966D01*
X143974313Y-106437589D01*
X143889989Y-106521913D01*
X143832254Y-106621913D01*
X143830364Y-106625187D01*
X143830363Y-106625191D01*
X143799500Y-106740373D01*
X141729654Y-106740373D01*
X141778087Y-106712410D01*
X141862410Y-106628087D01*
X141922036Y-106524813D01*
X141952900Y-106409625D01*
X141952900Y-106290375D01*
X141922036Y-106175187D01*
X141862410Y-106071913D01*
X141778087Y-105987590D01*
X141778086Y-105987589D01*
X141674816Y-105927966D01*
X141674817Y-105927966D01*
X141674813Y-105927964D01*
X141610414Y-105910708D01*
X141559626Y-105897100D01*
X141559625Y-105897100D01*
X141440375Y-105897100D01*
X141440373Y-105897100D01*
X141338796Y-105924317D01*
X141325187Y-105927964D01*
X141325184Y-105927965D01*
X141325183Y-105927966D01*
X141221913Y-105987589D01*
X141137589Y-106071913D01*
X141077966Y-106175183D01*
X141077964Y-106175187D01*
X141077963Y-106175191D01*
X141047100Y-106290373D01*
X125933056Y-106290373D01*
X125929869Y-105987589D01*
X125921973Y-105237410D01*
X125917267Y-104790373D01*
X133644700Y-104790373D01*
X133644700Y-104909626D01*
X133651399Y-104934626D01*
X133675564Y-105024813D01*
X133735190Y-105128087D01*
X133819513Y-105212410D01*
X133922787Y-105272036D01*
X134037975Y-105302900D01*
X134157225Y-105302900D01*
X134272413Y-105272036D01*
X134375687Y-105212410D01*
X134460010Y-105128087D01*
X134519636Y-105024813D01*
X134550500Y-104909625D01*
X134550500Y-104815373D01*
X136197100Y-104815373D01*
X136197100Y-104815375D01*
X136197100Y-104934625D01*
X136227964Y-105049813D01*
X136287590Y-105153087D01*
X136371913Y-105237410D01*
X136475187Y-105297036D01*
X136590375Y-105327900D01*
X136709625Y-105327900D01*
X136824813Y-105297036D01*
X136928087Y-105237410D01*
X137012410Y-105153087D01*
X137072036Y-105049813D01*
X137102900Y-104934625D01*
X137102900Y-104815375D01*
X137072036Y-104700187D01*
X137012410Y-104596913D01*
X136928087Y-104512590D01*
X136928086Y-104512589D01*
X136824816Y-104452966D01*
X136824817Y-104452966D01*
X136824813Y-104452964D01*
X136731518Y-104427966D01*
X136709626Y-104422100D01*
X136709625Y-104422100D01*
X136590375Y-104422100D01*
X136590373Y-104422100D01*
X136488796Y-104449317D01*
X136475187Y-104452964D01*
X136475184Y-104452965D01*
X136475183Y-104452966D01*
X136371913Y-104512589D01*
X136287589Y-104596913D01*
X136227966Y-104700183D01*
X136227964Y-104700187D01*
X136227963Y-104700191D01*
X136197100Y-104815373D01*
X134550500Y-104815373D01*
X134550500Y-104790375D01*
X134519636Y-104675187D01*
X134460010Y-104571913D01*
X134375687Y-104487590D01*
X134375686Y-104487589D01*
X134272416Y-104427966D01*
X134272417Y-104427966D01*
X134272413Y-104427964D01*
X134208014Y-104410708D01*
X134157226Y-104397100D01*
X134157225Y-104397100D01*
X134037975Y-104397100D01*
X134037973Y-104397100D01*
X133944672Y-104422100D01*
X133922787Y-104427964D01*
X133922784Y-104427965D01*
X133922783Y-104427966D01*
X133819513Y-104487589D01*
X133735189Y-104571913D01*
X133675566Y-104675183D01*
X133675564Y-104675187D01*
X133675563Y-104675191D01*
X133644700Y-104790373D01*
X125917267Y-104790373D01*
X125903583Y-103490373D01*
X133292300Y-103490373D01*
X133292300Y-103609626D01*
X133296470Y-103625187D01*
X133323164Y-103724813D01*
X133323166Y-103724816D01*
X133379529Y-103822440D01*
X133382790Y-103828087D01*
X133467113Y-103912410D01*
X133570387Y-103972036D01*
X133685575Y-104002900D01*
X133804825Y-104002900D01*
X133920013Y-103972036D01*
X134023287Y-103912410D01*
X134107610Y-103828087D01*
X134167236Y-103724813D01*
X134198100Y-103609625D01*
X134198100Y-103490375D01*
X134167236Y-103375187D01*
X134129550Y-103309914D01*
X136679570Y-103309914D01*
X136679570Y-103429167D01*
X136692678Y-103478086D01*
X136710434Y-103544354D01*
X136710436Y-103544357D01*
X136757103Y-103625187D01*
X136770060Y-103647628D01*
X136854383Y-103731951D01*
X136957657Y-103791577D01*
X137072845Y-103822441D01*
X137192095Y-103822441D01*
X137307283Y-103791577D01*
X137395970Y-103740373D01*
X150972100Y-103740373D01*
X150972100Y-103740375D01*
X150972100Y-103859625D01*
X151002964Y-103974813D01*
X151062590Y-104078087D01*
X151146913Y-104162410D01*
X151250187Y-104222036D01*
X151365375Y-104252900D01*
X151484625Y-104252900D01*
X151599813Y-104222036D01*
X151703087Y-104162410D01*
X151787410Y-104078087D01*
X151847036Y-103974813D01*
X151877900Y-103859625D01*
X151877900Y-103740375D01*
X151877899Y-103740373D01*
X152472100Y-103740373D01*
X152472100Y-103740375D01*
X152472100Y-103859625D01*
X152502964Y-103974813D01*
X152562590Y-104078087D01*
X152646913Y-104162410D01*
X152750187Y-104222036D01*
X152865375Y-104252900D01*
X152984625Y-104252900D01*
X153099813Y-104222036D01*
X153203087Y-104162410D01*
X153287410Y-104078087D01*
X153347036Y-103974813D01*
X153377900Y-103859625D01*
X153377900Y-103740375D01*
X153347036Y-103625187D01*
X153287410Y-103521913D01*
X153203087Y-103437590D01*
X153203086Y-103437589D01*
X153099816Y-103377966D01*
X153099817Y-103377966D01*
X153099813Y-103377964D01*
X153035414Y-103360708D01*
X152984626Y-103347100D01*
X152984625Y-103347100D01*
X152865375Y-103347100D01*
X152865373Y-103347100D01*
X152763796Y-103374317D01*
X152750187Y-103377964D01*
X152750184Y-103377965D01*
X152750183Y-103377966D01*
X152646913Y-103437589D01*
X152562589Y-103521913D01*
X152504785Y-103622033D01*
X152502964Y-103625187D01*
X152502963Y-103625191D01*
X152472100Y-103740373D01*
X151877899Y-103740373D01*
X151847036Y-103625187D01*
X151787410Y-103521913D01*
X151703087Y-103437590D01*
X151703086Y-103437589D01*
X151599816Y-103377966D01*
X151599817Y-103377966D01*
X151599813Y-103377964D01*
X151535414Y-103360708D01*
X151484626Y-103347100D01*
X151484625Y-103347100D01*
X151365375Y-103347100D01*
X151365373Y-103347100D01*
X151263796Y-103374317D01*
X151250187Y-103377964D01*
X151250184Y-103377965D01*
X151250183Y-103377966D01*
X151146913Y-103437589D01*
X151062589Y-103521913D01*
X151004785Y-103622033D01*
X151002964Y-103625187D01*
X151002963Y-103625191D01*
X150972100Y-103740373D01*
X137395970Y-103740373D01*
X137410557Y-103731951D01*
X137494880Y-103647628D01*
X137544593Y-103561522D01*
X137574831Y-103538321D01*
X137612620Y-103543296D01*
X137614444Y-103544349D01*
X137680407Y-103582433D01*
X137795595Y-103613297D01*
X137914845Y-103613297D01*
X138030033Y-103582433D01*
X138133307Y-103522807D01*
X138217630Y-103438484D01*
X138277256Y-103335210D01*
X138308120Y-103220022D01*
X138308120Y-103190373D01*
X144947100Y-103190373D01*
X144947100Y-103190375D01*
X144947100Y-103309625D01*
X144977964Y-103424813D01*
X144985857Y-103438484D01*
X145034541Y-103522807D01*
X145037590Y-103528087D01*
X145121913Y-103612410D01*
X145225187Y-103672036D01*
X145340375Y-103702900D01*
X145459625Y-103702900D01*
X145574813Y-103672036D01*
X145678087Y-103612410D01*
X145762410Y-103528087D01*
X145822036Y-103424813D01*
X145852900Y-103309625D01*
X145852900Y-103190375D01*
X145839502Y-103140373D01*
X146497100Y-103140373D01*
X146497100Y-103259626D01*
X146510497Y-103309625D01*
X146527964Y-103374813D01*
X146587590Y-103478087D01*
X146671913Y-103562410D01*
X146775187Y-103622036D01*
X146890375Y-103652900D01*
X147009625Y-103652900D01*
X147124813Y-103622036D01*
X147228087Y-103562410D01*
X147312410Y-103478087D01*
X147372036Y-103374813D01*
X147402900Y-103259625D01*
X147402900Y-103140375D01*
X147372036Y-103025187D01*
X147312410Y-102921913D01*
X147228087Y-102837590D01*
X147228086Y-102837589D01*
X147157957Y-102797100D01*
X147124813Y-102777964D01*
X147060414Y-102760708D01*
X147009626Y-102747100D01*
X147009625Y-102747100D01*
X146890375Y-102747100D01*
X146890373Y-102747100D01*
X146788796Y-102774317D01*
X146775187Y-102777964D01*
X146775184Y-102777965D01*
X146775183Y-102777966D01*
X146671913Y-102837589D01*
X146587589Y-102921913D01*
X146527966Y-103025183D01*
X146527964Y-103025187D01*
X146527963Y-103025191D01*
X146497100Y-103140373D01*
X145839502Y-103140373D01*
X145822036Y-103075187D01*
X145762410Y-102971913D01*
X145678087Y-102887590D01*
X145678086Y-102887589D01*
X145612003Y-102849436D01*
X145574813Y-102827964D01*
X145510414Y-102810708D01*
X145459626Y-102797100D01*
X145459625Y-102797100D01*
X145340375Y-102797100D01*
X145340373Y-102797100D01*
X145247322Y-102822033D01*
X145225187Y-102827964D01*
X145225184Y-102827965D01*
X145225183Y-102827966D01*
X145121913Y-102887589D01*
X145037589Y-102971913D01*
X144981822Y-103068505D01*
X144977964Y-103075187D01*
X144977963Y-103075191D01*
X144947100Y-103190373D01*
X138308120Y-103190373D01*
X138308120Y-103100772D01*
X138277256Y-102985584D01*
X138224202Y-102893693D01*
X138223841Y-102893067D01*
X138218866Y-102855278D01*
X138242069Y-102825039D01*
X138303087Y-102789810D01*
X138387410Y-102705487D01*
X138447036Y-102602213D01*
X138459424Y-102555979D01*
X152831494Y-102555979D01*
X152831494Y-102555981D01*
X152831494Y-102675231D01*
X152862358Y-102790419D01*
X152880611Y-102822033D01*
X152921622Y-102893067D01*
X152921984Y-102893693D01*
X153006307Y-102978016D01*
X153109581Y-103037642D01*
X153224769Y-103068506D01*
X153344019Y-103068506D01*
X153459207Y-103037642D01*
X153562481Y-102978016D01*
X153646804Y-102893693D01*
X153706430Y-102790419D01*
X153737294Y-102675231D01*
X153737294Y-102555981D01*
X153706430Y-102440793D01*
X153646804Y-102337519D01*
X153562481Y-102253196D01*
X153562480Y-102253195D01*
X153459210Y-102193572D01*
X153459211Y-102193572D01*
X153459207Y-102193570D01*
X153394808Y-102176314D01*
X153344020Y-102162706D01*
X153344019Y-102162706D01*
X153224769Y-102162706D01*
X153224767Y-102162706D01*
X153123190Y-102189923D01*
X153109581Y-102193570D01*
X153109578Y-102193571D01*
X153109577Y-102193572D01*
X153006307Y-102253195D01*
X152921983Y-102337519D01*
X152869411Y-102428577D01*
X152862358Y-102440793D01*
X152862357Y-102440797D01*
X152831494Y-102555979D01*
X138459424Y-102555979D01*
X138477900Y-102487025D01*
X138477900Y-102367775D01*
X138447036Y-102252587D01*
X138387410Y-102149313D01*
X138328960Y-102090863D01*
X155643494Y-102090863D01*
X155643494Y-102210116D01*
X155654873Y-102252583D01*
X155674358Y-102325303D01*
X155733984Y-102428577D01*
X155818307Y-102512900D01*
X155921581Y-102572526D01*
X156036769Y-102603390D01*
X156156019Y-102603390D01*
X156271207Y-102572526D01*
X156374481Y-102512900D01*
X156458804Y-102428577D01*
X156518430Y-102325303D01*
X156549294Y-102210115D01*
X156549294Y-102090865D01*
X156518430Y-101975677D01*
X156458804Y-101872403D01*
X156423384Y-101836983D01*
X156408798Y-101801769D01*
X156423384Y-101766555D01*
X156427915Y-101762581D01*
X156428084Y-101762411D01*
X156428087Y-101762410D01*
X156512410Y-101678087D01*
X156572036Y-101574813D01*
X156602900Y-101459625D01*
X156602900Y-101340375D01*
X156572036Y-101225187D01*
X156512410Y-101121913D01*
X156428087Y-101037590D01*
X156428086Y-101037589D01*
X156324816Y-100977966D01*
X156324817Y-100977966D01*
X156324813Y-100977964D01*
X156260414Y-100960708D01*
X156209626Y-100947100D01*
X156209625Y-100947100D01*
X156090375Y-100947100D01*
X156090373Y-100947100D01*
X155988796Y-100974317D01*
X155975187Y-100977964D01*
X155975184Y-100977965D01*
X155975183Y-100977966D01*
X155871913Y-101037589D01*
X155787589Y-101121913D01*
X155727966Y-101225183D01*
X155727964Y-101225187D01*
X155725045Y-101236082D01*
X155697100Y-101340373D01*
X155697100Y-101340375D01*
X155697100Y-101459625D01*
X155727964Y-101574813D01*
X155727966Y-101574816D01*
X155787589Y-101678086D01*
X155823009Y-101713506D01*
X155837595Y-101748720D01*
X155823009Y-101783934D01*
X155818480Y-101787906D01*
X155733983Y-101872403D01*
X155674420Y-101975569D01*
X155674358Y-101975677D01*
X155673745Y-101977964D01*
X155643494Y-102090863D01*
X138328960Y-102090863D01*
X138303087Y-102064990D01*
X138303086Y-102064989D01*
X138199816Y-102005366D01*
X138199817Y-102005366D01*
X138199813Y-102005364D01*
X138097561Y-101977966D01*
X138084626Y-101974500D01*
X138084625Y-101974500D01*
X137965375Y-101974500D01*
X137965373Y-101974500D01*
X137863796Y-102001717D01*
X137850187Y-102005364D01*
X137850184Y-102005365D01*
X137850183Y-102005366D01*
X137746913Y-102064989D01*
X137662589Y-102149313D01*
X137618781Y-102225191D01*
X137602964Y-102252587D01*
X137602963Y-102252591D01*
X137572100Y-102367773D01*
X137572100Y-102367775D01*
X137572100Y-102487025D01*
X137602964Y-102602213D01*
X137602966Y-102602216D01*
X137656378Y-102694729D01*
X137661353Y-102732518D01*
X137638151Y-102762757D01*
X137577132Y-102797987D01*
X137492809Y-102882310D01*
X137443097Y-102968413D01*
X137412858Y-102991616D01*
X137375069Y-102986641D01*
X137307286Y-102947507D01*
X137307287Y-102947507D01*
X137307283Y-102947505D01*
X137211771Y-102921913D01*
X137192096Y-102916641D01*
X137192095Y-102916641D01*
X137072845Y-102916641D01*
X137072843Y-102916641D01*
X136971266Y-102943858D01*
X136957657Y-102947505D01*
X136957654Y-102947506D01*
X136957653Y-102947507D01*
X136854383Y-103007130D01*
X136770059Y-103091454D01*
X136714555Y-103187590D01*
X136710434Y-103194728D01*
X136710433Y-103194732D01*
X136679570Y-103309914D01*
X134129550Y-103309914D01*
X134107610Y-103271913D01*
X134023287Y-103187590D01*
X134023286Y-103187589D01*
X133920016Y-103127966D01*
X133920017Y-103127966D01*
X133920013Y-103127964D01*
X133855614Y-103110708D01*
X133804826Y-103097100D01*
X133804825Y-103097100D01*
X133685575Y-103097100D01*
X133685573Y-103097100D01*
X133583996Y-103124317D01*
X133570387Y-103127964D01*
X133570384Y-103127965D01*
X133570383Y-103127966D01*
X133467113Y-103187589D01*
X133382789Y-103271913D01*
X133346243Y-103335213D01*
X133323164Y-103375187D01*
X133323163Y-103375191D01*
X133292300Y-103490373D01*
X125903583Y-103490373D01*
X125898089Y-102968413D01*
X125874459Y-100723556D01*
X133716593Y-100723556D01*
X133716593Y-100723558D01*
X133716593Y-100842808D01*
X133747457Y-100957996D01*
X133747459Y-100957999D01*
X133793410Y-101037589D01*
X133807083Y-101061270D01*
X133891406Y-101145593D01*
X133994680Y-101205219D01*
X134109868Y-101236083D01*
X134229118Y-101236083D01*
X134344306Y-101205219D01*
X134447580Y-101145593D01*
X134531903Y-101061270D01*
X134591529Y-100957996D01*
X134622393Y-100842808D01*
X134622393Y-100723558D01*
X134622392Y-100723556D01*
X135926193Y-100723556D01*
X135926193Y-100723558D01*
X135926193Y-100842808D01*
X135957057Y-100957996D01*
X135957059Y-100957999D01*
X136003010Y-101037589D01*
X136016683Y-101061270D01*
X136101006Y-101145593D01*
X136204280Y-101205219D01*
X136300025Y-101230873D01*
X136330264Y-101254076D01*
X136335239Y-101291865D01*
X136314900Y-101367773D01*
X136314900Y-101367775D01*
X136314900Y-101487025D01*
X136345764Y-101602213D01*
X136405390Y-101705487D01*
X136489713Y-101789810D01*
X136592987Y-101849436D01*
X136592996Y-101849438D01*
X136596002Y-101850684D01*
X136595527Y-101851830D01*
X136622334Y-101872398D01*
X136627311Y-101910187D01*
X136604109Y-101940427D01*
X136579207Y-101947100D01*
X136515373Y-101947100D01*
X136413796Y-101974317D01*
X136400187Y-101977964D01*
X136400184Y-101977965D01*
X136400183Y-101977966D01*
X136296913Y-102037589D01*
X136212589Y-102121913D01*
X136171218Y-102193570D01*
X136152964Y-102225187D01*
X136152963Y-102225191D01*
X136122100Y-102340373D01*
X136122100Y-102340375D01*
X136122100Y-102459625D01*
X136152964Y-102574813D01*
X136152966Y-102574816D01*
X136210941Y-102675232D01*
X136212590Y-102678087D01*
X136296913Y-102762410D01*
X136400187Y-102822036D01*
X136515375Y-102852900D01*
X136634625Y-102852900D01*
X136749813Y-102822036D01*
X136853087Y-102762410D01*
X136937410Y-102678087D01*
X136997036Y-102574813D01*
X137027900Y-102459625D01*
X137027900Y-102340375D01*
X136997036Y-102225187D01*
X136937410Y-102121913D01*
X136853087Y-102037590D01*
X136853086Y-102037589D01*
X136749816Y-101977966D01*
X136749817Y-101977966D01*
X136749813Y-101977964D01*
X136749807Y-101977962D01*
X136746798Y-101976716D01*
X136747272Y-101975569D01*
X136720466Y-101955002D01*
X136715489Y-101917213D01*
X136738691Y-101886973D01*
X136763593Y-101880300D01*
X136827425Y-101880300D01*
X136942613Y-101849436D01*
X137045887Y-101789810D01*
X137130210Y-101705487D01*
X137189836Y-101602213D01*
X137220700Y-101487025D01*
X137220700Y-101367775D01*
X137213358Y-101340373D01*
X140194700Y-101340373D01*
X140194700Y-101340375D01*
X140194700Y-101459625D01*
X140225564Y-101574813D01*
X140285190Y-101678087D01*
X140369513Y-101762410D01*
X140472787Y-101822036D01*
X140587975Y-101852900D01*
X140707225Y-101852900D01*
X140822413Y-101822036D01*
X140925687Y-101762410D01*
X141010010Y-101678087D01*
X141069636Y-101574813D01*
X141100500Y-101459625D01*
X141100500Y-101340375D01*
X141069636Y-101225187D01*
X141010010Y-101121913D01*
X140925687Y-101037590D01*
X140925686Y-101037589D01*
X140822416Y-100977966D01*
X140822417Y-100977966D01*
X140822413Y-100977964D01*
X140758014Y-100960708D01*
X140707226Y-100947100D01*
X140707225Y-100947100D01*
X140587975Y-100947100D01*
X140587973Y-100947100D01*
X140486396Y-100974317D01*
X140472787Y-100977964D01*
X140472784Y-100977965D01*
X140472783Y-100977966D01*
X140369513Y-101037589D01*
X140285189Y-101121913D01*
X140225566Y-101225183D01*
X140225564Y-101225187D01*
X140222645Y-101236082D01*
X140194700Y-101340373D01*
X137213358Y-101340373D01*
X137189836Y-101252587D01*
X137130210Y-101149313D01*
X137045887Y-101064990D01*
X137045886Y-101064989D01*
X136942616Y-101005366D01*
X136942613Y-101005364D01*
X136942610Y-101005363D01*
X136942608Y-101005362D01*
X136846867Y-100979709D01*
X136816628Y-100956506D01*
X136811653Y-100918718D01*
X136831993Y-100842808D01*
X136831993Y-100723558D01*
X136801129Y-100608370D01*
X136741503Y-100505096D01*
X136657180Y-100420773D01*
X136657179Y-100420772D01*
X136591237Y-100382700D01*
X136568034Y-100352461D01*
X136573009Y-100314672D01*
X136591235Y-100296445D01*
X136693487Y-100237410D01*
X136777810Y-100153087D01*
X136837436Y-100049813D01*
X136868300Y-99934625D01*
X136868300Y-99815375D01*
X136837436Y-99700187D01*
X136777810Y-99596913D01*
X136693487Y-99512590D01*
X136693486Y-99512589D01*
X136590216Y-99452966D01*
X136590217Y-99452966D01*
X136590213Y-99452964D01*
X136478767Y-99423102D01*
X136448529Y-99399900D01*
X136443554Y-99362111D01*
X136466757Y-99331872D01*
X136478768Y-99326897D01*
X136590213Y-99297036D01*
X136693487Y-99237410D01*
X136777810Y-99153087D01*
X136837436Y-99049813D01*
X136868300Y-98934625D01*
X136868300Y-98815375D01*
X136837436Y-98700187D01*
X136777810Y-98596913D01*
X136693487Y-98512590D01*
X136693486Y-98512589D01*
X136630282Y-98476098D01*
X136590213Y-98452964D01*
X136525814Y-98435708D01*
X136475026Y-98422100D01*
X136475025Y-98422100D01*
X136355775Y-98422100D01*
X136355773Y-98422100D01*
X136254196Y-98449317D01*
X136240587Y-98452964D01*
X136240584Y-98452965D01*
X136240583Y-98452966D01*
X136137313Y-98512589D01*
X136052989Y-98596913D01*
X135993366Y-98700183D01*
X135993364Y-98700187D01*
X135993363Y-98700191D01*
X135962500Y-98815373D01*
X135962500Y-98934626D01*
X135971716Y-98969019D01*
X135993364Y-99049813D01*
X135993366Y-99049816D01*
X136045650Y-99140375D01*
X136052990Y-99153087D01*
X136137313Y-99237410D01*
X136240587Y-99297036D01*
X136335664Y-99322511D01*
X136352031Y-99326897D01*
X136382270Y-99350100D01*
X136387245Y-99387889D01*
X136364042Y-99418128D01*
X136352031Y-99423103D01*
X136271803Y-99444599D01*
X136240587Y-99452964D01*
X136240584Y-99452965D01*
X136240583Y-99452966D01*
X136137313Y-99512589D01*
X136052989Y-99596913D01*
X135993366Y-99700183D01*
X135993364Y-99700187D01*
X135993363Y-99700191D01*
X135962500Y-99815373D01*
X135962500Y-99934626D01*
X135969199Y-99959626D01*
X135993364Y-100049813D01*
X135993366Y-100049816D01*
X136052989Y-100153086D01*
X136137313Y-100237410D01*
X136203255Y-100275482D01*
X136226458Y-100305721D01*
X136221483Y-100343510D01*
X136203255Y-100361738D01*
X136101006Y-100420772D01*
X136016682Y-100505096D01*
X135957059Y-100608366D01*
X135957057Y-100608370D01*
X135957056Y-100608374D01*
X135926193Y-100723556D01*
X134622392Y-100723556D01*
X134591529Y-100608370D01*
X134531903Y-100505096D01*
X134447580Y-100420773D01*
X134447579Y-100420772D01*
X134381636Y-100382700D01*
X134344306Y-100361147D01*
X134278483Y-100343510D01*
X134229119Y-100330283D01*
X134229118Y-100330283D01*
X134109868Y-100330283D01*
X134109866Y-100330283D01*
X134018271Y-100354826D01*
X133994680Y-100361147D01*
X133994677Y-100361148D01*
X133994676Y-100361149D01*
X133891406Y-100420772D01*
X133807082Y-100505096D01*
X133747459Y-100608366D01*
X133747457Y-100608370D01*
X133747456Y-100608374D01*
X133716593Y-100723556D01*
X125874459Y-100723556D01*
X125874430Y-100720818D01*
X125865162Y-99840373D01*
X134305300Y-99840373D01*
X134305300Y-99840375D01*
X134305300Y-99959625D01*
X134336164Y-100074813D01*
X134336166Y-100074816D01*
X134394115Y-100175187D01*
X134395790Y-100178087D01*
X134480113Y-100262410D01*
X134583387Y-100322036D01*
X134698575Y-100352900D01*
X134817825Y-100352900D01*
X134933013Y-100322036D01*
X135036287Y-100262410D01*
X135120610Y-100178087D01*
X135180236Y-100074813D01*
X135211100Y-99959625D01*
X135211100Y-99840375D01*
X135180236Y-99725187D01*
X135120610Y-99621913D01*
X135036287Y-99537590D01*
X135036286Y-99537589D01*
X134933016Y-99477966D01*
X134933017Y-99477966D01*
X134933013Y-99477964D01*
X134839718Y-99452966D01*
X134817826Y-99447100D01*
X134817825Y-99447100D01*
X134698575Y-99447100D01*
X134698573Y-99447100D01*
X134596996Y-99474317D01*
X134583387Y-99477964D01*
X134583384Y-99477965D01*
X134583383Y-99477966D01*
X134480113Y-99537589D01*
X134395789Y-99621913D01*
X134336166Y-99725183D01*
X134336164Y-99725187D01*
X134336163Y-99725191D01*
X134305300Y-99840373D01*
X125865162Y-99840373D01*
X125865133Y-99837635D01*
X125854735Y-98849767D01*
X134857700Y-98849767D01*
X134857700Y-98849769D01*
X134857700Y-98969019D01*
X134888564Y-99084207D01*
X134911698Y-99124276D01*
X134933484Y-99162011D01*
X134948190Y-99187481D01*
X135032513Y-99271804D01*
X135135787Y-99331430D01*
X135250975Y-99362294D01*
X135370225Y-99362294D01*
X135485413Y-99331430D01*
X135588687Y-99271804D01*
X135673010Y-99187481D01*
X135732636Y-99084207D01*
X135763500Y-98969019D01*
X135763500Y-98849769D01*
X135732636Y-98734581D01*
X135673010Y-98631307D01*
X135588687Y-98546984D01*
X135588686Y-98546983D01*
X135485416Y-98487360D01*
X135485417Y-98487360D01*
X135485413Y-98487358D01*
X135421014Y-98470102D01*
X135370226Y-98456494D01*
X135370225Y-98456494D01*
X135250975Y-98456494D01*
X135250973Y-98456494D01*
X135149396Y-98483711D01*
X135135787Y-98487358D01*
X135135784Y-98487359D01*
X135135783Y-98487360D01*
X135032513Y-98546983D01*
X134948189Y-98631307D01*
X134908419Y-98700191D01*
X134888564Y-98734581D01*
X134888563Y-98734585D01*
X134857700Y-98849767D01*
X125854735Y-98849767D01*
X125854706Y-98847029D01*
X125849110Y-98315373D01*
X140170468Y-98315373D01*
X140170468Y-98434626D01*
X140175382Y-98452964D01*
X140201332Y-98549813D01*
X140224466Y-98589882D01*
X140244635Y-98624816D01*
X140260958Y-98653087D01*
X140345281Y-98737410D01*
X140448555Y-98797036D01*
X140563743Y-98827900D01*
X140563749Y-98827900D01*
X140566979Y-98828326D01*
X140566736Y-98830164D01*
X140596483Y-98842486D01*
X140611069Y-98877700D01*
X140596483Y-98912914D01*
X140574158Y-98925803D01*
X140541234Y-98934625D01*
X140472787Y-98952965D01*
X140472784Y-98952966D01*
X140472783Y-98952967D01*
X140369513Y-99012590D01*
X140285189Y-99096914D01*
X140232901Y-99187480D01*
X140225564Y-99200188D01*
X140225563Y-99200192D01*
X140194700Y-99315374D01*
X140194700Y-99434627D01*
X140199614Y-99452966D01*
X140225564Y-99549814D01*
X140248698Y-99589883D01*
X140285080Y-99652899D01*
X140285190Y-99653088D01*
X140369513Y-99737411D01*
X140472787Y-99797037D01*
X140537578Y-99814397D01*
X140567817Y-99837600D01*
X140572792Y-99875389D01*
X140549589Y-99905628D01*
X140537578Y-99910603D01*
X140472791Y-99927962D01*
X140472783Y-99927966D01*
X140369513Y-99987589D01*
X140285189Y-100071913D01*
X140225566Y-100175183D01*
X140225564Y-100175187D01*
X140225563Y-100175191D01*
X140194700Y-100290373D01*
X140194700Y-100290375D01*
X140194700Y-100409625D01*
X140225564Y-100524813D01*
X140225566Y-100524816D01*
X140273808Y-100608374D01*
X140285190Y-100628087D01*
X140369513Y-100712410D01*
X140472787Y-100772036D01*
X140587975Y-100802900D01*
X140707225Y-100802900D01*
X140822413Y-100772036D01*
X140925687Y-100712410D01*
X141010010Y-100628087D01*
X141069636Y-100524813D01*
X141100500Y-100409625D01*
X141100500Y-100290375D01*
X141085816Y-100235574D01*
X155697100Y-100235574D01*
X155697100Y-100354827D01*
X155698794Y-100361149D01*
X155727964Y-100470014D01*
X155787590Y-100573288D01*
X155871913Y-100657611D01*
X155975187Y-100717237D01*
X156090375Y-100748101D01*
X156209625Y-100748101D01*
X156324813Y-100717237D01*
X156428087Y-100657611D01*
X156512410Y-100573288D01*
X156572036Y-100470014D01*
X156602900Y-100354826D01*
X156602900Y-100235576D01*
X156572036Y-100120388D01*
X156512410Y-100017114D01*
X156428087Y-99932791D01*
X156428086Y-99932790D01*
X156324816Y-99873167D01*
X156324817Y-99873167D01*
X156324813Y-99873165D01*
X156236907Y-99849611D01*
X156209626Y-99842301D01*
X156209625Y-99842301D01*
X156090375Y-99842301D01*
X156090373Y-99842301D01*
X155988796Y-99869518D01*
X155975187Y-99873165D01*
X155975184Y-99873166D01*
X155975183Y-99873167D01*
X155871913Y-99932790D01*
X155787589Y-100017114D01*
X155754275Y-100074816D01*
X155727964Y-100120388D01*
X155727963Y-100120392D01*
X155697100Y-100235574D01*
X141085816Y-100235574D01*
X141069636Y-100175187D01*
X141010010Y-100071913D01*
X140925687Y-99987590D01*
X140925686Y-99987589D01*
X140862482Y-99951098D01*
X140822413Y-99927964D01*
X140822410Y-99927963D01*
X140822408Y-99927962D01*
X140757621Y-99910603D01*
X140727382Y-99887400D01*
X140722407Y-99849611D01*
X140745610Y-99819372D01*
X140757616Y-99814398D01*
X140822413Y-99797037D01*
X140925687Y-99737411D01*
X141010010Y-99653088D01*
X141069636Y-99549814D01*
X141100500Y-99434626D01*
X141100500Y-99315376D01*
X141069636Y-99200188D01*
X141035101Y-99140373D01*
X147347100Y-99140373D01*
X147347100Y-99140374D01*
X147347100Y-99140375D01*
X147347100Y-99259625D01*
X147377964Y-99374813D01*
X147437590Y-99478087D01*
X147521913Y-99562410D01*
X147625187Y-99622036D01*
X147740375Y-99652900D01*
X147859625Y-99652900D01*
X147974813Y-99622036D01*
X148078087Y-99562410D01*
X148162410Y-99478087D01*
X148222036Y-99374813D01*
X148252900Y-99259625D01*
X148252900Y-99140375D01*
X148250327Y-99130774D01*
X155697100Y-99130774D01*
X155697100Y-99130776D01*
X155697100Y-99250026D01*
X155727964Y-99365214D01*
X155727966Y-99365217D01*
X155778626Y-99452963D01*
X155787590Y-99468488D01*
X155871913Y-99552811D01*
X155975187Y-99612437D01*
X156090375Y-99643301D01*
X156209625Y-99643301D01*
X156324813Y-99612437D01*
X156428087Y-99552811D01*
X156512410Y-99468488D01*
X156572036Y-99365214D01*
X156602900Y-99250026D01*
X156602900Y-99130776D01*
X156572036Y-99015588D01*
X156512410Y-98912314D01*
X156428087Y-98827991D01*
X156428086Y-98827990D01*
X156341442Y-98777966D01*
X156324813Y-98768365D01*
X156245450Y-98747100D01*
X156209626Y-98737501D01*
X156209625Y-98737501D01*
X156090375Y-98737501D01*
X156090373Y-98737501D01*
X155988796Y-98764718D01*
X155975187Y-98768365D01*
X155975184Y-98768366D01*
X155975183Y-98768367D01*
X155871913Y-98827990D01*
X155787589Y-98912314D01*
X155754850Y-98969020D01*
X155727964Y-99015588D01*
X155727963Y-99015592D01*
X155697100Y-99130774D01*
X148250327Y-99130774D01*
X148222036Y-99025187D01*
X148162410Y-98921913D01*
X148078087Y-98837590D01*
X148078086Y-98837589D01*
X147974816Y-98777966D01*
X147974817Y-98777966D01*
X147974813Y-98777964D01*
X147910414Y-98760708D01*
X147859626Y-98747100D01*
X147859625Y-98747100D01*
X147740375Y-98747100D01*
X147740373Y-98747100D01*
X147661004Y-98768367D01*
X147625187Y-98777964D01*
X147625184Y-98777965D01*
X147625183Y-98777966D01*
X147521913Y-98837589D01*
X147437589Y-98921913D01*
X147377966Y-99025183D01*
X147377964Y-99025187D01*
X147377963Y-99025191D01*
X147347100Y-99140373D01*
X141035101Y-99140373D01*
X141010010Y-99096914D01*
X140925687Y-99012591D01*
X140925686Y-99012590D01*
X140822416Y-98952967D01*
X140822417Y-98952967D01*
X140822413Y-98952965D01*
X140753966Y-98934625D01*
X140707226Y-98922101D01*
X140703989Y-98921675D01*
X140704231Y-98919836D01*
X140674485Y-98907515D01*
X140659899Y-98872301D01*
X140674485Y-98837087D01*
X140696810Y-98824198D01*
X140709413Y-98820820D01*
X140798181Y-98797036D01*
X140901455Y-98737410D01*
X140985778Y-98653087D01*
X141045404Y-98549813D01*
X141076268Y-98434625D01*
X141076268Y-98315375D01*
X141045404Y-98200187D01*
X140985778Y-98096913D01*
X140901455Y-98012590D01*
X140901454Y-98012589D01*
X140798184Y-97952966D01*
X140798185Y-97952966D01*
X140798181Y-97952964D01*
X140733782Y-97935708D01*
X140682994Y-97922100D01*
X140682993Y-97922100D01*
X140563743Y-97922100D01*
X140563741Y-97922100D01*
X140462164Y-97949317D01*
X140448555Y-97952964D01*
X140448552Y-97952965D01*
X140448551Y-97952966D01*
X140345281Y-98012589D01*
X140260957Y-98096913D01*
X140217656Y-98171913D01*
X140201332Y-98200187D01*
X140201331Y-98200191D01*
X140170468Y-98315373D01*
X125849110Y-98315373D01*
X125849081Y-98312635D01*
X125843192Y-97753223D01*
X125857406Y-97717858D01*
X125892465Y-97702902D01*
X125892844Y-97702899D01*
X127325056Y-97702899D01*
X127369658Y-97694028D01*
X127420234Y-97660234D01*
X127454028Y-97609658D01*
X127462900Y-97565057D01*
X127462899Y-96573400D01*
X127903100Y-96573400D01*
X128516285Y-96573400D01*
X128500000Y-96634174D01*
X128500000Y-96765826D01*
X128516285Y-96826600D01*
X127903100Y-96826600D01*
X127923963Y-96958324D01*
X127923965Y-96958331D01*
X127977624Y-97123480D01*
X128056458Y-97278202D01*
X128158522Y-97418681D01*
X128281318Y-97541477D01*
X128421797Y-97643541D01*
X128576519Y-97722375D01*
X128741668Y-97776034D01*
X128741675Y-97776036D01*
X128873400Y-97796898D01*
X128873400Y-97183715D01*
X128934174Y-97200000D01*
X129065826Y-97200000D01*
X129126600Y-97183715D01*
X129126600Y-97796898D01*
X129258324Y-97776036D01*
X129258331Y-97776034D01*
X129368087Y-97740373D01*
X152347100Y-97740373D01*
X152347100Y-97740375D01*
X152347100Y-97859625D01*
X152377964Y-97974813D01*
X152377966Y-97974816D01*
X152415815Y-98040373D01*
X152437590Y-98078087D01*
X152521913Y-98162410D01*
X152625187Y-98222036D01*
X152720903Y-98247682D01*
X152732914Y-98250901D01*
X152763153Y-98274104D01*
X152768128Y-98311893D01*
X152747100Y-98390373D01*
X152747100Y-98509626D01*
X152750425Y-98522036D01*
X152777964Y-98624813D01*
X152794288Y-98653086D01*
X152821481Y-98700187D01*
X152837590Y-98728087D01*
X152921913Y-98812410D01*
X153025187Y-98872036D01*
X153140375Y-98902900D01*
X153259625Y-98902900D01*
X153374813Y-98872036D01*
X153478087Y-98812410D01*
X153562410Y-98728087D01*
X153622036Y-98624813D01*
X153652900Y-98509625D01*
X153652900Y-98390375D01*
X153622036Y-98275187D01*
X153562410Y-98171913D01*
X153478087Y-98087590D01*
X153478086Y-98087589D01*
X153465355Y-98080239D01*
X153396309Y-98040375D01*
X153396306Y-98040373D01*
X174147100Y-98040373D01*
X174147100Y-98159626D01*
X174157967Y-98200183D01*
X174177964Y-98274813D01*
X174237590Y-98378087D01*
X174321913Y-98462410D01*
X174425187Y-98522036D01*
X174540375Y-98552900D01*
X174659625Y-98552900D01*
X174774813Y-98522036D01*
X174878087Y-98462410D01*
X174962410Y-98378087D01*
X175022036Y-98274813D01*
X175052900Y-98159625D01*
X175052900Y-98040375D01*
X175052899Y-98040373D01*
X177197100Y-98040373D01*
X177197100Y-98159626D01*
X177207967Y-98200183D01*
X177227964Y-98274813D01*
X177287590Y-98378087D01*
X177371913Y-98462410D01*
X177475187Y-98522036D01*
X177590375Y-98552900D01*
X177709625Y-98552900D01*
X177824813Y-98522036D01*
X177928087Y-98462410D01*
X178012410Y-98378087D01*
X178072036Y-98274813D01*
X178102900Y-98159625D01*
X178102900Y-98040375D01*
X178072036Y-97925187D01*
X178012410Y-97821913D01*
X177928087Y-97737590D01*
X177928086Y-97737589D01*
X177852636Y-97694028D01*
X177824813Y-97677964D01*
X177758635Y-97660232D01*
X177709626Y-97647100D01*
X177709625Y-97647100D01*
X177590375Y-97647100D01*
X177590373Y-97647100D01*
X177488796Y-97674317D01*
X177475187Y-97677964D01*
X177475184Y-97677965D01*
X177475183Y-97677966D01*
X177371913Y-97737589D01*
X177287589Y-97821913D01*
X177229746Y-97922100D01*
X177227964Y-97925187D01*
X177227963Y-97925191D01*
X177197100Y-98040373D01*
X175052899Y-98040373D01*
X175022036Y-97925187D01*
X174962410Y-97821913D01*
X174878087Y-97737590D01*
X174878086Y-97737589D01*
X174802636Y-97694028D01*
X174774813Y-97677964D01*
X174708635Y-97660232D01*
X174659626Y-97647100D01*
X174659625Y-97647100D01*
X174540375Y-97647100D01*
X174540373Y-97647100D01*
X174438796Y-97674317D01*
X174425187Y-97677964D01*
X174425184Y-97677965D01*
X174425183Y-97677966D01*
X174321913Y-97737589D01*
X174237589Y-97821913D01*
X174179746Y-97922100D01*
X174177964Y-97925187D01*
X174177963Y-97925191D01*
X174147100Y-98040373D01*
X153396306Y-98040373D01*
X153374813Y-98027964D01*
X153374810Y-98027963D01*
X153374808Y-98027962D01*
X153267085Y-97999098D01*
X153236846Y-97975895D01*
X153231871Y-97938106D01*
X153252900Y-97859625D01*
X153252900Y-97740375D01*
X153222036Y-97625187D01*
X153162410Y-97521913D01*
X153078087Y-97437590D01*
X153078086Y-97437589D01*
X153014882Y-97401098D01*
X152974813Y-97377964D01*
X152910414Y-97360708D01*
X152859626Y-97347100D01*
X152859625Y-97347100D01*
X152740375Y-97347100D01*
X152740373Y-97347100D01*
X152647322Y-97372033D01*
X152625187Y-97377964D01*
X152625184Y-97377965D01*
X152625183Y-97377966D01*
X152521913Y-97437589D01*
X152437589Y-97521913D01*
X152386929Y-97609659D01*
X152377964Y-97625187D01*
X152377963Y-97625191D01*
X152347100Y-97740373D01*
X129368087Y-97740373D01*
X129423480Y-97722375D01*
X129481645Y-97692739D01*
X129481646Y-97692738D01*
X129578199Y-97643543D01*
X129578200Y-97643542D01*
X129718681Y-97541477D01*
X129841477Y-97418681D01*
X129943541Y-97278202D01*
X130022375Y-97123480D01*
X130076034Y-96958331D01*
X130076036Y-96958326D01*
X130090252Y-96868569D01*
X135764900Y-96868569D01*
X135764900Y-96987822D01*
X135778508Y-97038610D01*
X135795764Y-97103009D01*
X135818898Y-97143078D01*
X135844493Y-97187410D01*
X135855390Y-97206283D01*
X135939713Y-97290606D01*
X136042987Y-97350232D01*
X136158175Y-97381096D01*
X136277425Y-97381096D01*
X136392613Y-97350232D01*
X136495887Y-97290606D01*
X136580210Y-97206283D01*
X136639836Y-97103009D01*
X136670700Y-96987821D01*
X136670700Y-96890373D01*
X137121112Y-96890373D01*
X137121112Y-96890375D01*
X137121112Y-97009625D01*
X137151976Y-97124813D01*
X137151978Y-97124816D01*
X137199012Y-97206282D01*
X137211602Y-97228087D01*
X137295925Y-97312410D01*
X137399199Y-97372036D01*
X137514387Y-97402900D01*
X137633637Y-97402900D01*
X137748825Y-97372036D01*
X137852099Y-97312410D01*
X137936422Y-97228087D01*
X137996048Y-97124813D01*
X138026912Y-97009625D01*
X138026912Y-96890375D01*
X137996048Y-96775187D01*
X137936422Y-96671913D01*
X137852099Y-96587590D01*
X137852098Y-96587589D01*
X137748828Y-96527966D01*
X137748829Y-96527966D01*
X137748825Y-96527964D01*
X137681867Y-96510023D01*
X137633638Y-96497100D01*
X137633637Y-96497100D01*
X137514387Y-96497100D01*
X137514385Y-96497100D01*
X137428634Y-96520077D01*
X137399199Y-96527964D01*
X137399196Y-96527965D01*
X137399195Y-96527966D01*
X137295925Y-96587589D01*
X137211601Y-96671913D01*
X137151978Y-96775183D01*
X137151976Y-96775187D01*
X137151975Y-96775191D01*
X137121112Y-96890373D01*
X136670700Y-96890373D01*
X136670700Y-96868571D01*
X136639836Y-96753383D01*
X136580210Y-96650109D01*
X136495887Y-96565786D01*
X136495886Y-96565785D01*
X136430376Y-96527963D01*
X136392613Y-96506160D01*
X136322636Y-96487410D01*
X136277426Y-96475296D01*
X136277425Y-96475296D01*
X136158175Y-96475296D01*
X136158173Y-96475296D01*
X136076800Y-96497100D01*
X136042987Y-96506160D01*
X136042984Y-96506161D01*
X136042983Y-96506162D01*
X135939713Y-96565785D01*
X135855389Y-96650109D01*
X135795766Y-96753379D01*
X135795764Y-96753383D01*
X135795763Y-96753387D01*
X135764900Y-96868569D01*
X130090252Y-96868569D01*
X130092003Y-96857516D01*
X130092003Y-96857515D01*
X130096900Y-96826600D01*
X129483715Y-96826600D01*
X129500000Y-96765826D01*
X129500000Y-96634174D01*
X129483715Y-96573400D01*
X130096899Y-96573400D01*
X130076036Y-96441675D01*
X130076034Y-96441668D01*
X130026011Y-96287710D01*
X130026011Y-96287709D01*
X130022375Y-96276521D01*
X130021897Y-96275583D01*
X141636890Y-96275583D01*
X141636890Y-96394836D01*
X141639101Y-96403086D01*
X141667754Y-96510023D01*
X141678114Y-96527966D01*
X141723982Y-96607413D01*
X141727380Y-96613297D01*
X141811703Y-96697620D01*
X141914977Y-96757246D01*
X142030165Y-96788110D01*
X142149415Y-96788110D01*
X142264603Y-96757246D01*
X142367877Y-96697620D01*
X142429924Y-96635573D01*
X144522100Y-96635573D01*
X144522100Y-96754826D01*
X144535708Y-96805614D01*
X144552964Y-96870013D01*
X144612590Y-96973287D01*
X144696913Y-97057610D01*
X144800187Y-97117236D01*
X144915375Y-97148100D01*
X145034625Y-97148100D01*
X145149813Y-97117236D01*
X145253087Y-97057610D01*
X145337410Y-96973287D01*
X145397036Y-96870013D01*
X145425074Y-96765373D01*
X159109100Y-96765373D01*
X159109100Y-96884626D01*
X159111342Y-96892993D01*
X159139964Y-96999813D01*
X159139966Y-96999816D01*
X159199546Y-97103012D01*
X159199590Y-97103087D01*
X159283913Y-97187410D01*
X159387187Y-97247036D01*
X159502375Y-97277900D01*
X159621625Y-97277900D01*
X159736813Y-97247036D01*
X159840087Y-97187410D01*
X159924410Y-97103087D01*
X159984036Y-96999813D01*
X160014900Y-96884625D01*
X160014900Y-96822861D01*
X160213900Y-96822861D01*
X160213900Y-96942114D01*
X160222253Y-96973286D01*
X160244764Y-97057301D01*
X160267898Y-97097370D01*
X160283742Y-97124813D01*
X160304390Y-97160575D01*
X160388713Y-97244898D01*
X160491987Y-97304524D01*
X160607175Y-97335388D01*
X160726425Y-97335388D01*
X160841613Y-97304524D01*
X160944887Y-97244898D01*
X161029210Y-97160575D01*
X161088836Y-97057301D01*
X161119700Y-96942113D01*
X161119700Y-96822863D01*
X161088836Y-96707675D01*
X161029210Y-96604401D01*
X160944887Y-96520078D01*
X160944886Y-96520077D01*
X160841616Y-96460454D01*
X160841617Y-96460454D01*
X160841613Y-96460452D01*
X160771509Y-96441668D01*
X160726426Y-96429588D01*
X160726425Y-96429588D01*
X160607175Y-96429588D01*
X160607173Y-96429588D01*
X160505596Y-96456805D01*
X160491987Y-96460452D01*
X160491984Y-96460453D01*
X160491983Y-96460454D01*
X160388713Y-96520077D01*
X160304389Y-96604401D01*
X160265411Y-96671913D01*
X160244764Y-96707675D01*
X160244763Y-96707679D01*
X160213900Y-96822861D01*
X160014900Y-96822861D01*
X160014900Y-96765375D01*
X159984036Y-96650187D01*
X159924410Y-96546913D01*
X159840087Y-96462590D01*
X159840086Y-96462589D01*
X159736816Y-96402966D01*
X159736817Y-96402966D01*
X159736813Y-96402964D01*
X159672414Y-96385708D01*
X159621626Y-96372100D01*
X159621625Y-96372100D01*
X159502375Y-96372100D01*
X159502373Y-96372100D01*
X159400796Y-96399317D01*
X159387187Y-96402964D01*
X159387184Y-96402965D01*
X159387183Y-96402966D01*
X159283913Y-96462589D01*
X159199589Y-96546913D01*
X159149209Y-96634174D01*
X159139964Y-96650187D01*
X159139963Y-96650191D01*
X159109100Y-96765373D01*
X145425074Y-96765373D01*
X145427900Y-96754825D01*
X145427900Y-96635575D01*
X145397036Y-96520387D01*
X145337410Y-96417113D01*
X145253087Y-96332790D01*
X145253086Y-96332789D01*
X145154006Y-96275585D01*
X145149813Y-96273164D01*
X145085414Y-96255908D01*
X145034626Y-96242300D01*
X145034625Y-96242300D01*
X144915375Y-96242300D01*
X144915373Y-96242300D01*
X144813796Y-96269517D01*
X144800187Y-96273164D01*
X144800184Y-96273165D01*
X144800183Y-96273166D01*
X144696913Y-96332789D01*
X144612589Y-96417113D01*
X144558946Y-96510026D01*
X144552964Y-96520387D01*
X144552963Y-96520391D01*
X144522100Y-96635573D01*
X142429924Y-96635573D01*
X142452200Y-96613297D01*
X142511826Y-96510023D01*
X142542690Y-96394835D01*
X142542690Y-96275585D01*
X142511826Y-96160397D01*
X142452200Y-96057123D01*
X142367877Y-95972800D01*
X142367876Y-95972799D01*
X142264606Y-95913176D01*
X142264607Y-95913176D01*
X142264603Y-95913174D01*
X142200204Y-95895918D01*
X142149416Y-95882310D01*
X142149415Y-95882310D01*
X142030165Y-95882310D01*
X142030163Y-95882310D01*
X141928586Y-95909527D01*
X141914977Y-95913174D01*
X141914974Y-95913175D01*
X141914973Y-95913176D01*
X141811703Y-95972799D01*
X141727379Y-96057123D01*
X141667756Y-96160393D01*
X141667754Y-96160397D01*
X141667753Y-96160401D01*
X141636890Y-96275583D01*
X130021897Y-96275583D01*
X129943541Y-96121797D01*
X129841477Y-95981318D01*
X129718681Y-95858522D01*
X129578202Y-95756458D01*
X129423480Y-95677624D01*
X129258331Y-95623965D01*
X129258324Y-95623963D01*
X129126600Y-95603100D01*
X129126600Y-96216284D01*
X129065826Y-96200000D01*
X128934174Y-96200000D01*
X128873400Y-96216284D01*
X128873400Y-95603100D01*
X128741675Y-95623963D01*
X128741668Y-95623965D01*
X128576519Y-95677624D01*
X128421797Y-95756458D01*
X128281318Y-95858522D01*
X128158522Y-95981318D01*
X128056458Y-96121797D01*
X127977624Y-96276519D01*
X127923965Y-96441668D01*
X127923963Y-96441675D01*
X127903100Y-96573400D01*
X127462899Y-96573400D01*
X127462899Y-95834944D01*
X127454028Y-95790342D01*
X127454026Y-95790339D01*
X127454026Y-95790338D01*
X127420235Y-95739767D01*
X127420232Y-95739764D01*
X127369658Y-95705972D01*
X127325057Y-95697100D01*
X125870826Y-95697100D01*
X125835612Y-95682514D01*
X125821029Y-95647825D01*
X125813812Y-94962239D01*
X135356402Y-94962239D01*
X135356402Y-94962241D01*
X135356402Y-95081491D01*
X135387266Y-95196679D01*
X135403906Y-95225500D01*
X135434267Y-95278087D01*
X135446892Y-95299953D01*
X135531215Y-95384276D01*
X135634489Y-95443902D01*
X135749677Y-95474766D01*
X135868927Y-95474766D01*
X135984115Y-95443902D01*
X136087389Y-95384276D01*
X136131292Y-95340373D01*
X137673512Y-95340373D01*
X137673512Y-95459626D01*
X137680222Y-95484667D01*
X137704376Y-95574813D01*
X137704378Y-95574816D01*
X137763734Y-95677624D01*
X137764002Y-95678087D01*
X137848325Y-95762410D01*
X137951599Y-95822036D01*
X138066787Y-95852900D01*
X138186037Y-95852900D01*
X138301225Y-95822036D01*
X138404499Y-95762410D01*
X138416172Y-95750737D01*
X153110084Y-95750737D01*
X153110084Y-95750739D01*
X153110084Y-95869989D01*
X153140948Y-95985177D01*
X153140950Y-95985180D01*
X153187249Y-96065373D01*
X153200574Y-96088451D01*
X153284897Y-96172774D01*
X153388171Y-96232400D01*
X153503359Y-96263264D01*
X153622609Y-96263264D01*
X153737797Y-96232400D01*
X153841071Y-96172774D01*
X153925394Y-96088451D01*
X153938718Y-96065373D01*
X156347100Y-96065373D01*
X156347100Y-96184626D01*
X156359900Y-96232397D01*
X156377964Y-96299813D01*
X156377966Y-96299816D01*
X156432825Y-96394835D01*
X156437590Y-96403087D01*
X156521913Y-96487410D01*
X156625187Y-96547036D01*
X156740375Y-96577900D01*
X156859625Y-96577900D01*
X156974813Y-96547036D01*
X157078087Y-96487410D01*
X157162410Y-96403087D01*
X157222036Y-96299813D01*
X157252900Y-96184625D01*
X157252900Y-96065375D01*
X157222036Y-95950187D01*
X157162410Y-95846913D01*
X157078087Y-95762590D01*
X157078086Y-95762589D01*
X156974816Y-95702966D01*
X156974817Y-95702966D01*
X156974813Y-95702964D01*
X156898491Y-95682514D01*
X156859626Y-95672100D01*
X156859625Y-95672100D01*
X156740375Y-95672100D01*
X156740373Y-95672100D01*
X156647072Y-95697100D01*
X156625187Y-95702964D01*
X156625184Y-95702965D01*
X156625183Y-95702966D01*
X156521913Y-95762589D01*
X156437589Y-95846913D01*
X156377966Y-95950183D01*
X156377964Y-95950187D01*
X156377963Y-95950191D01*
X156347100Y-96065373D01*
X153938718Y-96065373D01*
X153985020Y-95985177D01*
X154015884Y-95869989D01*
X154015884Y-95750739D01*
X153985020Y-95635551D01*
X153925394Y-95532277D01*
X153841071Y-95447954D01*
X153841070Y-95447953D01*
X153737800Y-95388330D01*
X153737801Y-95388330D01*
X153737797Y-95388328D01*
X153667450Y-95369479D01*
X153622610Y-95357464D01*
X153622609Y-95357464D01*
X153503359Y-95357464D01*
X153503357Y-95357464D01*
X153429672Y-95377208D01*
X153388171Y-95388328D01*
X153388168Y-95388329D01*
X153388167Y-95388330D01*
X153284897Y-95447953D01*
X153200573Y-95532277D01*
X153147638Y-95623963D01*
X153140948Y-95635551D01*
X153140947Y-95635555D01*
X153110084Y-95750737D01*
X138416172Y-95750737D01*
X138488822Y-95678087D01*
X138548448Y-95574813D01*
X138579312Y-95459625D01*
X138579312Y-95340375D01*
X138548448Y-95225187D01*
X138488822Y-95121913D01*
X138404499Y-95037590D01*
X138404498Y-95037589D01*
X138301228Y-94977966D01*
X138301229Y-94977966D01*
X138301225Y-94977964D01*
X138236826Y-94960708D01*
X138186038Y-94947100D01*
X138186037Y-94947100D01*
X138066787Y-94947100D01*
X138066785Y-94947100D01*
X137974182Y-94971913D01*
X137951599Y-94977964D01*
X137951596Y-94977965D01*
X137951595Y-94977966D01*
X137848325Y-95037589D01*
X137764001Y-95121913D01*
X137704595Y-95224808D01*
X137704376Y-95225187D01*
X137704375Y-95225191D01*
X137673512Y-95340373D01*
X136131292Y-95340373D01*
X136171712Y-95299953D01*
X136231338Y-95196679D01*
X136262202Y-95081491D01*
X136262202Y-94962241D01*
X136231338Y-94847053D01*
X136171712Y-94743779D01*
X136087389Y-94659456D01*
X136087388Y-94659455D01*
X136024184Y-94622964D01*
X135984115Y-94599830D01*
X135902505Y-94577963D01*
X135868928Y-94568966D01*
X135868927Y-94568966D01*
X135749677Y-94568966D01*
X135749675Y-94568966D01*
X135648098Y-94596183D01*
X135634489Y-94599830D01*
X135634486Y-94599831D01*
X135634485Y-94599832D01*
X135531215Y-94659455D01*
X135446891Y-94743779D01*
X135398287Y-94827964D01*
X135387266Y-94847053D01*
X135384613Y-94856954D01*
X135356402Y-94962239D01*
X125813812Y-94962239D01*
X125806379Y-94256045D01*
X134009661Y-94256045D01*
X134009661Y-94256047D01*
X134009661Y-94375297D01*
X134040525Y-94490485D01*
X134040527Y-94490488D01*
X134091032Y-94577966D01*
X134100151Y-94593759D01*
X134184474Y-94678082D01*
X134287748Y-94737708D01*
X134402936Y-94768572D01*
X134522186Y-94768572D01*
X134637374Y-94737708D01*
X134740648Y-94678082D01*
X134824971Y-94593759D01*
X134884597Y-94490485D01*
X134915461Y-94375297D01*
X134915461Y-94367773D01*
X136438488Y-94367773D01*
X136438488Y-94487026D01*
X136439415Y-94490485D01*
X136469352Y-94602213D01*
X136469354Y-94602216D01*
X136513155Y-94678082D01*
X136528978Y-94705487D01*
X136613301Y-94789810D01*
X136716575Y-94849436D01*
X136831763Y-94880300D01*
X136951013Y-94880300D01*
X137066201Y-94849436D01*
X137169475Y-94789810D01*
X137246312Y-94712973D01*
X139009600Y-94712973D01*
X139009600Y-94832226D01*
X139022481Y-94880299D01*
X139040464Y-94947413D01*
X139040482Y-94947444D01*
X139092527Y-95037589D01*
X139100090Y-95050687D01*
X139184413Y-95135010D01*
X139287687Y-95194636D01*
X139402875Y-95225500D01*
X139522125Y-95225500D01*
X139637313Y-95194636D01*
X139644697Y-95190373D01*
X142922100Y-95190373D01*
X142922100Y-95309626D01*
X142927047Y-95328087D01*
X142952964Y-95424813D01*
X142963985Y-95443902D01*
X142998047Y-95502899D01*
X143012590Y-95528087D01*
X143096913Y-95612410D01*
X143200187Y-95672036D01*
X143315375Y-95702900D01*
X143434625Y-95702900D01*
X143549813Y-95672036D01*
X143653087Y-95612410D01*
X143737410Y-95528087D01*
X143797036Y-95424813D01*
X143827900Y-95309625D01*
X143827900Y-95190375D01*
X143797036Y-95075187D01*
X143748068Y-94990373D01*
X145494700Y-94990373D01*
X145494700Y-95109626D01*
X145501502Y-95135010D01*
X145525564Y-95224813D01*
X145525960Y-95225499D01*
X145568946Y-95299953D01*
X145585190Y-95328087D01*
X145669513Y-95412410D01*
X145772787Y-95472036D01*
X145887975Y-95502900D01*
X146007225Y-95502900D01*
X146122413Y-95472036D01*
X146225687Y-95412410D01*
X146310010Y-95328087D01*
X146369636Y-95224813D01*
X146400500Y-95109625D01*
X146400500Y-94990375D01*
X146388989Y-94947416D01*
X146387102Y-94940373D01*
X146599500Y-94940373D01*
X146599500Y-95059626D01*
X146603670Y-95075187D01*
X146630364Y-95174813D01*
X146642990Y-95196682D01*
X146659628Y-95225500D01*
X146689990Y-95278087D01*
X146774313Y-95362410D01*
X146877587Y-95422036D01*
X146992775Y-95452900D01*
X147112025Y-95452900D01*
X147227213Y-95422036D01*
X147330487Y-95362410D01*
X147414810Y-95278087D01*
X147430894Y-95250227D01*
X155474499Y-95250227D01*
X155474499Y-95250229D01*
X155474499Y-95369479D01*
X155505363Y-95484667D01*
X155515890Y-95502900D01*
X155557406Y-95574808D01*
X155564989Y-95587941D01*
X155649312Y-95672264D01*
X155752586Y-95731890D01*
X155867774Y-95762754D01*
X155987024Y-95762754D01*
X156102212Y-95731890D01*
X156205486Y-95672264D01*
X156289809Y-95587941D01*
X156349435Y-95484667D01*
X156380299Y-95369479D01*
X156380299Y-95250229D01*
X156351507Y-95142773D01*
X157028140Y-95142773D01*
X157028140Y-95142775D01*
X157028140Y-95262025D01*
X157059004Y-95377213D01*
X157079325Y-95412410D01*
X157113750Y-95472036D01*
X157118630Y-95480487D01*
X157202953Y-95564810D01*
X157306227Y-95624436D01*
X157421415Y-95655300D01*
X157540665Y-95655300D01*
X157655853Y-95624436D01*
X157759127Y-95564810D01*
X157843450Y-95480487D01*
X157903076Y-95377213D01*
X157933940Y-95262025D01*
X157933940Y-95142775D01*
X157903076Y-95027587D01*
X157843450Y-94924313D01*
X157759127Y-94839990D01*
X157759126Y-94839989D01*
X157684840Y-94797100D01*
X157655853Y-94780364D01*
X157591454Y-94763108D01*
X157540666Y-94749500D01*
X157540665Y-94749500D01*
X157421415Y-94749500D01*
X157421413Y-94749500D01*
X157350236Y-94768572D01*
X157306227Y-94780364D01*
X157306224Y-94780365D01*
X157306223Y-94780366D01*
X157202953Y-94839989D01*
X157118629Y-94924313D01*
X157067997Y-95012011D01*
X157059004Y-95027587D01*
X157059003Y-95027591D01*
X157028140Y-95142773D01*
X156351507Y-95142773D01*
X156349435Y-95135041D01*
X156289809Y-95031767D01*
X156205486Y-94947444D01*
X156205485Y-94947443D01*
X156102215Y-94887820D01*
X156102216Y-94887820D01*
X156102212Y-94887818D01*
X156037813Y-94870562D01*
X155987025Y-94856954D01*
X155987024Y-94856954D01*
X155867774Y-94856954D01*
X155867772Y-94856954D01*
X155780644Y-94880300D01*
X155752586Y-94887818D01*
X155752583Y-94887819D01*
X155752582Y-94887820D01*
X155649312Y-94947443D01*
X155564988Y-95031767D01*
X155505381Y-95135010D01*
X155505363Y-95135041D01*
X155505362Y-95135045D01*
X155474499Y-95250227D01*
X147430894Y-95250227D01*
X147436386Y-95240715D01*
X147447155Y-95222065D01*
X147452206Y-95213315D01*
X147474436Y-95174813D01*
X147505300Y-95059625D01*
X147505300Y-94940375D01*
X147474436Y-94825187D01*
X147414810Y-94721913D01*
X147330487Y-94637590D01*
X147330486Y-94637589D01*
X147227216Y-94577966D01*
X147227217Y-94577966D01*
X147227213Y-94577964D01*
X147162814Y-94560708D01*
X147112026Y-94547100D01*
X147112025Y-94547100D01*
X146992775Y-94547100D01*
X146992773Y-94547100D01*
X146891196Y-94574317D01*
X146877587Y-94577964D01*
X146877584Y-94577965D01*
X146877583Y-94577966D01*
X146774313Y-94637589D01*
X146689989Y-94721913D01*
X146650789Y-94789810D01*
X146630364Y-94825187D01*
X146630363Y-94825191D01*
X146599500Y-94940373D01*
X146387102Y-94940373D01*
X146369637Y-94875191D01*
X146369636Y-94875187D01*
X146310010Y-94771913D01*
X146225687Y-94687590D01*
X146225686Y-94687589D01*
X146162482Y-94651098D01*
X146122413Y-94627964D01*
X146026319Y-94602216D01*
X146007226Y-94597100D01*
X146007225Y-94597100D01*
X145887975Y-94597100D01*
X145887973Y-94597100D01*
X145786396Y-94624317D01*
X145772787Y-94627964D01*
X145772784Y-94627965D01*
X145772783Y-94627966D01*
X145669513Y-94687589D01*
X145585189Y-94771913D01*
X145536091Y-94856954D01*
X145525564Y-94875187D01*
X145525563Y-94875191D01*
X145494700Y-94990373D01*
X143748068Y-94990373D01*
X143737410Y-94971913D01*
X143653087Y-94887590D01*
X143653086Y-94887589D01*
X143570642Y-94839990D01*
X143549813Y-94827964D01*
X143485414Y-94810708D01*
X143434626Y-94797100D01*
X143434625Y-94797100D01*
X143315375Y-94797100D01*
X143315373Y-94797100D01*
X143213796Y-94824317D01*
X143200187Y-94827964D01*
X143200184Y-94827965D01*
X143200183Y-94827966D01*
X143096913Y-94887589D01*
X143012589Y-94971913D01*
X142961948Y-95059626D01*
X142952964Y-95075187D01*
X142952963Y-95075191D01*
X142922100Y-95190373D01*
X139644697Y-95190373D01*
X139710467Y-95152400D01*
X139725046Y-95143983D01*
X139730240Y-95140983D01*
X139740587Y-95135010D01*
X139824910Y-95050687D01*
X139884536Y-94947413D01*
X139915400Y-94832225D01*
X139915400Y-94712975D01*
X139884536Y-94597787D01*
X139824910Y-94494513D01*
X139740587Y-94410190D01*
X139740586Y-94410189D01*
X139637316Y-94350566D01*
X139637317Y-94350566D01*
X139637313Y-94350564D01*
X139572914Y-94333308D01*
X139522126Y-94319700D01*
X139522125Y-94319700D01*
X139402875Y-94319700D01*
X139402873Y-94319700D01*
X139301296Y-94346917D01*
X139287687Y-94350564D01*
X139287684Y-94350565D01*
X139287683Y-94350566D01*
X139184413Y-94410189D01*
X139100089Y-94494513D01*
X139040466Y-94597783D01*
X139040464Y-94597787D01*
X139040463Y-94597791D01*
X139009600Y-94712973D01*
X137246312Y-94712973D01*
X137253798Y-94705487D01*
X137269621Y-94678082D01*
X137280375Y-94659455D01*
X137313424Y-94602213D01*
X137344288Y-94487025D01*
X137344288Y-94367775D01*
X137313424Y-94252587D01*
X137253798Y-94149313D01*
X137169475Y-94064990D01*
X137169474Y-94064989D01*
X137066204Y-94005366D01*
X137066205Y-94005366D01*
X137066201Y-94005364D01*
X137001802Y-93988108D01*
X136951014Y-93974500D01*
X136951013Y-93974500D01*
X136831763Y-93974500D01*
X136831761Y-93974500D01*
X136730184Y-94001717D01*
X136716575Y-94005364D01*
X136716572Y-94005365D01*
X136716571Y-94005366D01*
X136613301Y-94064989D01*
X136528977Y-94149313D01*
X136469354Y-94252583D01*
X136469352Y-94252587D01*
X136468425Y-94256047D01*
X136438488Y-94367773D01*
X134915461Y-94367773D01*
X134915461Y-94256047D01*
X134884597Y-94140859D01*
X134824971Y-94037585D01*
X134740648Y-93953262D01*
X134740647Y-93953261D01*
X134637377Y-93893638D01*
X134637378Y-93893638D01*
X134637374Y-93893636D01*
X134572975Y-93876380D01*
X134522187Y-93862772D01*
X134522186Y-93862772D01*
X134402936Y-93862772D01*
X134402934Y-93862772D01*
X134301357Y-93889989D01*
X134287748Y-93893636D01*
X134287745Y-93893637D01*
X134287744Y-93893638D01*
X134184474Y-93953261D01*
X134100150Y-94037585D01*
X134040527Y-94140855D01*
X134040525Y-94140859D01*
X134040524Y-94140863D01*
X134009661Y-94256045D01*
X125806379Y-94256045D01*
X125800067Y-93656448D01*
X125801579Y-93643746D01*
X125897734Y-93262974D01*
X136778389Y-93262974D01*
X136778389Y-93262976D01*
X136778389Y-93382226D01*
X136809253Y-93497414D01*
X136868879Y-93600688D01*
X136953202Y-93685011D01*
X137056476Y-93744637D01*
X137171664Y-93775501D01*
X137290914Y-93775501D01*
X137406102Y-93744637D01*
X137509376Y-93685011D01*
X137593699Y-93600688D01*
X137653325Y-93497414D01*
X137684189Y-93382226D01*
X137684189Y-93262976D01*
X137653325Y-93147788D01*
X137593699Y-93044514D01*
X137509376Y-92960191D01*
X137509375Y-92960190D01*
X137406105Y-92900567D01*
X137406106Y-92900567D01*
X137406102Y-92900565D01*
X137341703Y-92883309D01*
X137290915Y-92869701D01*
X137290914Y-92869701D01*
X137171664Y-92869701D01*
X137171662Y-92869701D01*
X137117880Y-92884112D01*
X137056476Y-92900565D01*
X137056473Y-92900566D01*
X137056472Y-92900567D01*
X136953202Y-92960190D01*
X136868878Y-93044514D01*
X136809255Y-93147784D01*
X136809253Y-93147788D01*
X136809252Y-93147792D01*
X136778389Y-93262974D01*
X125897734Y-93262974D01*
X126122832Y-92371585D01*
X140915888Y-92371585D01*
X140915888Y-92490838D01*
X140925042Y-92525000D01*
X140946752Y-92606025D01*
X140965441Y-92638395D01*
X141005998Y-92708642D01*
X141006378Y-92709299D01*
X141090701Y-92793622D01*
X141193975Y-92853248D01*
X141309163Y-92884112D01*
X141428413Y-92884112D01*
X141543601Y-92853248D01*
X141609202Y-92815373D01*
X156797100Y-92815373D01*
X156797100Y-92815375D01*
X156797100Y-92934625D01*
X156827964Y-93049813D01*
X156827966Y-93049816D01*
X156884530Y-93147788D01*
X156887590Y-93153087D01*
X156971913Y-93237410D01*
X157075187Y-93297036D01*
X157190375Y-93327900D01*
X157309625Y-93327900D01*
X157424813Y-93297036D01*
X157528087Y-93237410D01*
X157612410Y-93153087D01*
X157672036Y-93049813D01*
X157702900Y-92934625D01*
X157702900Y-92815375D01*
X157672036Y-92700187D01*
X157612410Y-92596913D01*
X157528087Y-92512590D01*
X157528086Y-92512589D01*
X157451083Y-92468131D01*
X157424813Y-92452964D01*
X157344819Y-92431530D01*
X157309626Y-92422100D01*
X157309625Y-92422100D01*
X157190375Y-92422100D01*
X157190373Y-92422100D01*
X157088796Y-92449317D01*
X157075187Y-92452964D01*
X157075184Y-92452965D01*
X157075183Y-92452966D01*
X156971913Y-92512589D01*
X156887589Y-92596913D01*
X156844217Y-92672036D01*
X156827964Y-92700187D01*
X156824317Y-92713796D01*
X156797100Y-92815373D01*
X141609202Y-92815373D01*
X141646875Y-92793622D01*
X141731198Y-92709299D01*
X141790824Y-92606025D01*
X141821688Y-92490837D01*
X141821688Y-92371587D01*
X141795500Y-92273849D01*
X141947652Y-92273849D01*
X141947652Y-92273851D01*
X141947652Y-92393101D01*
X141978516Y-92508289D01*
X141978518Y-92508292D01*
X142034944Y-92606025D01*
X142038142Y-92611563D01*
X142122465Y-92695886D01*
X142225739Y-92755512D01*
X142340927Y-92786376D01*
X142460177Y-92786376D01*
X142575365Y-92755512D01*
X142678639Y-92695886D01*
X142762962Y-92611563D01*
X142822588Y-92508289D01*
X142823912Y-92503346D01*
X142847113Y-92473108D01*
X142884902Y-92468131D01*
X142915142Y-92491333D01*
X142915143Y-92491335D01*
X142936361Y-92528086D01*
X142957497Y-92564693D01*
X143041820Y-92649016D01*
X143145094Y-92708642D01*
X143260282Y-92739506D01*
X143379532Y-92739506D01*
X143494720Y-92708642D01*
X143597994Y-92649016D01*
X143682317Y-92564693D01*
X143741943Y-92461419D01*
X143772807Y-92346231D01*
X143772807Y-92226981D01*
X143741943Y-92111793D01*
X143735719Y-92101014D01*
X143730743Y-92063226D01*
X143753946Y-92032987D01*
X143765954Y-92028012D01*
X143797091Y-92019670D01*
X143900365Y-91960044D01*
X143926756Y-91933651D01*
X143961967Y-91919066D01*
X143997182Y-91933651D01*
X144005096Y-91943964D01*
X144008593Y-91950020D01*
X144092916Y-92034343D01*
X144196190Y-92093969D01*
X144311378Y-92124833D01*
X144430626Y-92124833D01*
X144430628Y-92124833D01*
X144452384Y-92119003D01*
X144490171Y-92123977D01*
X144513375Y-92154215D01*
X144515072Y-92167106D01*
X144515072Y-92189530D01*
X144525107Y-92226981D01*
X144545936Y-92304717D01*
X144545938Y-92304720D01*
X144596965Y-92393102D01*
X144605562Y-92407991D01*
X144689885Y-92492314D01*
X144793159Y-92551940D01*
X144908347Y-92582804D01*
X145027597Y-92582804D01*
X145142785Y-92551940D01*
X145246059Y-92492314D01*
X145260950Y-92477421D01*
X145296161Y-92462835D01*
X145331376Y-92477419D01*
X145339292Y-92487735D01*
X145362589Y-92528086D01*
X145362590Y-92528087D01*
X145446913Y-92612410D01*
X145550187Y-92672036D01*
X145665375Y-92702900D01*
X145784625Y-92702900D01*
X145899813Y-92672036D01*
X146003087Y-92612410D01*
X146087410Y-92528087D01*
X146147036Y-92424813D01*
X146177900Y-92309625D01*
X146177900Y-92190375D01*
X146160616Y-92125868D01*
X147268621Y-92125868D01*
X147268621Y-92125870D01*
X147268621Y-92245120D01*
X147299485Y-92360308D01*
X147299487Y-92360311D01*
X147358679Y-92462835D01*
X147359111Y-92463582D01*
X147443434Y-92547905D01*
X147546708Y-92607531D01*
X147661896Y-92638395D01*
X147781146Y-92638395D01*
X147896334Y-92607531D01*
X147999608Y-92547905D01*
X148083931Y-92463582D01*
X148143557Y-92360308D01*
X148174421Y-92245120D01*
X148174421Y-92125870D01*
X148143557Y-92010682D01*
X148083931Y-91907408D01*
X147999608Y-91823085D01*
X147999607Y-91823084D01*
X147930569Y-91783225D01*
X147896334Y-91763459D01*
X147831935Y-91746203D01*
X147781147Y-91732595D01*
X147781146Y-91732595D01*
X147661896Y-91732595D01*
X147661894Y-91732595D01*
X147560317Y-91759812D01*
X147546708Y-91763459D01*
X147546705Y-91763460D01*
X147546704Y-91763461D01*
X147443434Y-91823084D01*
X147359110Y-91907408D01*
X147300353Y-92009178D01*
X147299485Y-92010682D01*
X147299484Y-92010686D01*
X147268621Y-92125868D01*
X146160616Y-92125868D01*
X146147036Y-92075187D01*
X146087410Y-91971913D01*
X146003087Y-91887590D01*
X146003086Y-91887589D01*
X145899816Y-91827966D01*
X145899817Y-91827966D01*
X145899813Y-91827964D01*
X145835414Y-91810708D01*
X145784626Y-91797100D01*
X145784625Y-91797100D01*
X145665375Y-91797100D01*
X145665373Y-91797100D01*
X145576125Y-91821014D01*
X145550187Y-91827964D01*
X145550184Y-91827965D01*
X145550183Y-91827966D01*
X145446912Y-91887589D01*
X145432018Y-91902483D01*
X145396803Y-91917067D01*
X145361590Y-91902479D01*
X145353678Y-91892167D01*
X145351035Y-91887590D01*
X145330382Y-91851817D01*
X145246059Y-91767494D01*
X145246058Y-91767493D01*
X145142788Y-91707870D01*
X145142789Y-91707870D01*
X145142785Y-91707868D01*
X145078386Y-91690612D01*
X145027598Y-91677004D01*
X145027597Y-91677004D01*
X144908347Y-91677004D01*
X144901551Y-91678824D01*
X144886590Y-91682833D01*
X144848801Y-91677856D01*
X144825599Y-91647616D01*
X144823903Y-91634729D01*
X144823903Y-91612308D01*
X144823902Y-91612306D01*
X144793039Y-91497120D01*
X144733413Y-91393846D01*
X144649090Y-91309523D01*
X144649089Y-91309522D01*
X144545819Y-91249899D01*
X144545820Y-91249899D01*
X144545816Y-91249897D01*
X144481417Y-91232641D01*
X144430629Y-91219033D01*
X144430628Y-91219033D01*
X144311378Y-91219033D01*
X144311376Y-91219033D01*
X144250951Y-91235224D01*
X144196190Y-91249897D01*
X144196187Y-91249898D01*
X144196186Y-91249899D01*
X144092916Y-91309522D01*
X144066523Y-91335914D01*
X144031308Y-91350499D01*
X143996095Y-91335912D01*
X143988183Y-91325601D01*
X143984688Y-91319547D01*
X143900365Y-91235224D01*
X143900364Y-91235223D01*
X143797093Y-91175599D01*
X143797092Y-91175598D01*
X143797091Y-91175598D01*
X143732692Y-91158342D01*
X143681904Y-91144734D01*
X143681903Y-91144734D01*
X143562653Y-91144734D01*
X143562651Y-91144734D01*
X143461074Y-91171951D01*
X143447465Y-91175598D01*
X143447462Y-91175599D01*
X143447461Y-91175600D01*
X143344191Y-91235223D01*
X143259867Y-91319547D01*
X143200244Y-91422817D01*
X143200242Y-91422821D01*
X143200241Y-91422825D01*
X143169378Y-91538007D01*
X143169378Y-91657260D01*
X143174897Y-91677856D01*
X143200242Y-91772447D01*
X143200243Y-91772449D01*
X143200245Y-91772454D01*
X143206464Y-91783225D01*
X143211439Y-91821014D01*
X143188235Y-91851252D01*
X143176227Y-91856227D01*
X143153779Y-91862242D01*
X143145094Y-91864570D01*
X143145091Y-91864571D01*
X143145090Y-91864572D01*
X143041820Y-91924195D01*
X142957496Y-92008519D01*
X142897873Y-92111789D01*
X142897869Y-92111797D01*
X142896545Y-92116740D01*
X142873338Y-92146977D01*
X142835549Y-92151948D01*
X142805315Y-92128746D01*
X142803653Y-92125868D01*
X142762962Y-92055389D01*
X142678639Y-91971066D01*
X142678638Y-91971065D01*
X142575368Y-91911442D01*
X142575369Y-91911442D01*
X142575365Y-91911440D01*
X142503436Y-91892167D01*
X142460178Y-91880576D01*
X142460177Y-91880576D01*
X142340927Y-91880576D01*
X142340925Y-91880576D01*
X142240787Y-91907408D01*
X142225739Y-91911440D01*
X142225736Y-91911441D01*
X142225735Y-91911442D01*
X142122465Y-91971065D01*
X142038141Y-92055389D01*
X141991892Y-92135495D01*
X141978516Y-92158663D01*
X141978515Y-92158667D01*
X141947652Y-92273849D01*
X141795500Y-92273849D01*
X141790824Y-92256399D01*
X141731198Y-92153125D01*
X141646875Y-92068802D01*
X141646874Y-92068801D01*
X141576224Y-92028011D01*
X141543601Y-92009176D01*
X141479202Y-91991920D01*
X141428414Y-91978312D01*
X141428413Y-91978312D01*
X141309163Y-91978312D01*
X141309161Y-91978312D01*
X141207584Y-92005529D01*
X141193975Y-92009176D01*
X141193972Y-92009177D01*
X141193971Y-92009178D01*
X141090701Y-92068801D01*
X141006377Y-92153125D01*
X140953264Y-92245120D01*
X140946752Y-92256399D01*
X140946751Y-92256403D01*
X140915888Y-92371585D01*
X126122832Y-92371585D01*
X126434956Y-91135573D01*
X146703067Y-91135573D01*
X146703067Y-91135575D01*
X146703067Y-91254825D01*
X146733931Y-91370013D01*
X146793557Y-91473287D01*
X146877880Y-91557610D01*
X146981154Y-91617236D01*
X147096342Y-91648100D01*
X147215592Y-91648100D01*
X147330780Y-91617236D01*
X147434054Y-91557610D01*
X147518377Y-91473287D01*
X147578003Y-91370013D01*
X147608867Y-91254825D01*
X147608867Y-91135575D01*
X147578003Y-91020387D01*
X147518377Y-90917113D01*
X147434054Y-90832790D01*
X147434053Y-90832789D01*
X147330783Y-90773166D01*
X147330784Y-90773166D01*
X147330780Y-90773164D01*
X147266381Y-90755908D01*
X147215593Y-90742300D01*
X147215592Y-90742300D01*
X147096342Y-90742300D01*
X147096340Y-90742300D01*
X146994763Y-90769517D01*
X146981154Y-90773164D01*
X146981151Y-90773165D01*
X146981150Y-90773166D01*
X146877880Y-90832789D01*
X146793556Y-90917113D01*
X146733933Y-91020383D01*
X146733931Y-91020387D01*
X146733930Y-91020391D01*
X146703067Y-91135573D01*
X126434956Y-91135573D01*
X126980915Y-88973574D01*
X146468479Y-88973574D01*
X146468479Y-88973576D01*
X146468479Y-89092826D01*
X146499343Y-89208014D01*
X146558969Y-89311288D01*
X146643292Y-89395611D01*
X146746566Y-89455237D01*
X146861754Y-89486101D01*
X146981004Y-89486101D01*
X147096192Y-89455237D01*
X147199466Y-89395611D01*
X147283789Y-89311288D01*
X147343415Y-89208014D01*
X147374279Y-89092826D01*
X147374279Y-88973576D01*
X147343415Y-88858388D01*
X147283789Y-88755114D01*
X147199466Y-88670791D01*
X147199465Y-88670790D01*
X147136261Y-88634299D01*
X147096192Y-88611165D01*
X147031793Y-88593909D01*
X146981005Y-88580301D01*
X146981004Y-88580301D01*
X146861754Y-88580301D01*
X146861752Y-88580301D01*
X146760175Y-88607518D01*
X146746566Y-88611165D01*
X146746563Y-88611166D01*
X146746562Y-88611167D01*
X146643292Y-88670790D01*
X146558968Y-88755114D01*
X146504292Y-88849816D01*
X146499343Y-88858388D01*
X146499342Y-88858392D01*
X146468479Y-88973574D01*
X126980915Y-88973574D01*
X128290587Y-83787271D01*
X128313351Y-83756702D01*
X128338439Y-83749668D01*
X133598132Y-83704326D01*
X133633467Y-83718607D01*
X133648356Y-83753694D01*
X133647285Y-83762107D01*
X133647526Y-83762139D01*
X133647100Y-83765375D01*
X133647100Y-83884625D01*
X133677964Y-83999813D01*
X133737590Y-84103087D01*
X133821913Y-84187410D01*
X133925187Y-84247036D01*
X134040375Y-84277900D01*
X134159625Y-84277900D01*
X134274813Y-84247036D01*
X134378087Y-84187410D01*
X134462410Y-84103087D01*
X134522036Y-83999813D01*
X134552900Y-83884625D01*
X134552900Y-83765375D01*
X134552900Y-83765373D01*
X134551028Y-83758387D01*
X134556003Y-83720598D01*
X134586242Y-83697395D01*
X134598695Y-83695700D01*
X139850031Y-83650430D01*
X139885368Y-83664712D01*
G37*
%TD.AperFunction*%
%TD*%
%TA.AperFunction,Conductor*%
%TO.N,+5V*%
G36*
X177695170Y-97806697D02*
G01*
X177757533Y-97823407D01*
X177769543Y-97828382D01*
X177825452Y-97860660D01*
X177835767Y-97868574D01*
X177881422Y-97914229D01*
X177889336Y-97924543D01*
X177921618Y-97980456D01*
X177926593Y-97992467D01*
X177943303Y-98054829D01*
X177945000Y-98067718D01*
X177945000Y-98132280D01*
X177943303Y-98145169D01*
X177926593Y-98207531D01*
X177921618Y-98219542D01*
X177889336Y-98275455D01*
X177881422Y-98285769D01*
X177835769Y-98331422D01*
X177825455Y-98339336D01*
X177769542Y-98371618D01*
X177757531Y-98376593D01*
X177695170Y-98393303D01*
X177682281Y-98395000D01*
X177617719Y-98395000D01*
X177604830Y-98393303D01*
X177542467Y-98376593D01*
X177530456Y-98371618D01*
X177474543Y-98339336D01*
X177464229Y-98331422D01*
X177418576Y-98285769D01*
X177410662Y-98275455D01*
X177378381Y-98219542D01*
X177373406Y-98207531D01*
X177356697Y-98145170D01*
X177355000Y-98132281D01*
X177355000Y-98067717D01*
X177356697Y-98054828D01*
X177373406Y-97992467D01*
X177378381Y-97980456D01*
X177410666Y-97924536D01*
X177418573Y-97914231D01*
X177464234Y-97868570D01*
X177474539Y-97860663D01*
X177530451Y-97828382D01*
X177542461Y-97823408D01*
X177604830Y-97806697D01*
X177617719Y-97805000D01*
X177682281Y-97805000D01*
X177695170Y-97806697D01*
G37*
%TD.AperFunction*%
%TA.AperFunction,Conductor*%
G36*
X174842173Y-77355552D02*
G01*
X177940381Y-80453747D01*
X177941079Y-80454459D01*
X179070936Y-81630480D01*
X184326112Y-87100376D01*
X184340000Y-87134878D01*
X184340000Y-117084415D01*
X184325414Y-117119629D01*
X180799544Y-120645498D01*
X180784000Y-120683024D01*
X180784000Y-127100690D01*
X180769414Y-127135904D01*
X180764970Y-127140348D01*
X180729756Y-127154934D01*
X116551844Y-127154934D01*
X116516630Y-127140348D01*
X116105786Y-126729504D01*
X116091200Y-126694290D01*
X116091200Y-123992899D01*
X125592600Y-123992899D01*
X125592600Y-124119368D01*
X125625330Y-124241518D01*
X125625334Y-124241526D01*
X125673421Y-124324816D01*
X125688565Y-124351045D01*
X125777989Y-124440469D01*
X125887511Y-124503702D01*
X126009667Y-124536434D01*
X126136133Y-124536434D01*
X126258289Y-124503702D01*
X126367811Y-124440469D01*
X126457235Y-124351045D01*
X126520468Y-124241523D01*
X126553200Y-124119367D01*
X126553200Y-123992901D01*
X126553199Y-123992899D01*
X128056400Y-123992899D01*
X128056400Y-124119368D01*
X128089130Y-124241518D01*
X128089134Y-124241526D01*
X128137221Y-124324816D01*
X128152365Y-124351045D01*
X128241789Y-124440469D01*
X128351311Y-124503702D01*
X128473467Y-124536434D01*
X128599933Y-124536434D01*
X128722089Y-124503702D01*
X128831611Y-124440469D01*
X128921035Y-124351045D01*
X128984268Y-124241523D01*
X129017000Y-124119367D01*
X129017000Y-124090373D01*
X160547100Y-124090373D01*
X160547100Y-124209626D01*
X160555647Y-124241523D01*
X160577964Y-124324813D01*
X160637590Y-124428087D01*
X160721913Y-124512410D01*
X160825187Y-124572036D01*
X160940375Y-124602900D01*
X161059625Y-124602900D01*
X161174813Y-124572036D01*
X161278087Y-124512410D01*
X161362410Y-124428087D01*
X161422036Y-124324813D01*
X161452900Y-124209625D01*
X161452900Y-124090375D01*
X161422036Y-123975187D01*
X161362410Y-123871913D01*
X161278087Y-123787590D01*
X161278086Y-123787589D01*
X161174816Y-123727966D01*
X161174817Y-123727966D01*
X161174813Y-123727964D01*
X161102701Y-123708642D01*
X161059626Y-123697100D01*
X161059625Y-123697100D01*
X160940375Y-123697100D01*
X160940373Y-123697100D01*
X160847322Y-123722033D01*
X160825187Y-123727964D01*
X160825184Y-123727965D01*
X160825183Y-123727966D01*
X160721913Y-123787589D01*
X160637589Y-123871913D01*
X160577966Y-123975183D01*
X160577964Y-123975187D01*
X160577963Y-123975191D01*
X160547100Y-124090373D01*
X129017000Y-124090373D01*
X129017000Y-123992901D01*
X128984268Y-123870745D01*
X128921035Y-123761223D01*
X128831611Y-123671799D01*
X128831610Y-123671798D01*
X128722092Y-123608568D01*
X128722089Y-123608566D01*
X128722086Y-123608565D01*
X128722084Y-123608564D01*
X128599934Y-123575834D01*
X128599933Y-123575834D01*
X128473467Y-123575834D01*
X128473465Y-123575834D01*
X128351315Y-123608564D01*
X128351307Y-123608568D01*
X128241789Y-123671798D01*
X128152364Y-123761223D01*
X128089134Y-123870741D01*
X128089130Y-123870749D01*
X128056400Y-123992899D01*
X126553199Y-123992899D01*
X126520468Y-123870745D01*
X126457235Y-123761223D01*
X126367811Y-123671799D01*
X126367810Y-123671798D01*
X126258292Y-123608568D01*
X126258289Y-123608566D01*
X126258286Y-123608565D01*
X126258284Y-123608564D01*
X126136134Y-123575834D01*
X126136133Y-123575834D01*
X126009667Y-123575834D01*
X126009665Y-123575834D01*
X125887515Y-123608564D01*
X125887507Y-123608568D01*
X125777989Y-123671798D01*
X125688564Y-123761223D01*
X125625334Y-123870741D01*
X125625330Y-123870749D01*
X125592600Y-123992899D01*
X116091200Y-123992899D01*
X116091200Y-123240373D01*
X152525000Y-123240373D01*
X152525000Y-123240375D01*
X152525000Y-123359625D01*
X152555864Y-123474813D01*
X152578998Y-123514882D01*
X152613599Y-123574813D01*
X152615490Y-123578087D01*
X152699813Y-123662410D01*
X152803087Y-123722036D01*
X152918275Y-123752900D01*
X153037525Y-123752900D01*
X153152713Y-123722036D01*
X153255987Y-123662410D01*
X153340310Y-123578087D01*
X153399936Y-123474813D01*
X153430800Y-123359625D01*
X153430800Y-123340373D01*
X175947100Y-123340373D01*
X175947100Y-123459626D01*
X175951170Y-123474816D01*
X175977964Y-123574813D01*
X175997450Y-123608564D01*
X176033959Y-123671799D01*
X176037590Y-123678087D01*
X176121913Y-123762410D01*
X176225187Y-123822036D01*
X176340375Y-123852900D01*
X176459625Y-123852900D01*
X176574813Y-123822036D01*
X176678087Y-123762410D01*
X176731855Y-123708641D01*
X176767068Y-123694056D01*
X176802282Y-123708642D01*
X176874099Y-123780459D01*
X176977373Y-123840085D01*
X177092561Y-123870949D01*
X177211811Y-123870949D01*
X177326999Y-123840085D01*
X177430273Y-123780459D01*
X177514596Y-123696136D01*
X177574222Y-123592862D01*
X177605086Y-123477674D01*
X177605086Y-123358424D01*
X177574222Y-123243236D01*
X177514596Y-123139962D01*
X177430273Y-123055639D01*
X177430272Y-123055638D01*
X177327002Y-122996015D01*
X177327003Y-122996015D01*
X177326999Y-122996013D01*
X177259634Y-122977963D01*
X177211812Y-122965149D01*
X177211811Y-122965149D01*
X177092561Y-122965149D01*
X177092559Y-122965149D01*
X176990982Y-122992366D01*
X176977373Y-122996013D01*
X176977370Y-122996014D01*
X176977369Y-122996015D01*
X176874099Y-123055638D01*
X176820331Y-123109406D01*
X176785117Y-123123992D01*
X176749903Y-123109406D01*
X176678086Y-123037589D01*
X176574816Y-122977966D01*
X176574817Y-122977966D01*
X176574813Y-122977964D01*
X176510414Y-122960708D01*
X176459626Y-122947100D01*
X176459625Y-122947100D01*
X176340375Y-122947100D01*
X176340373Y-122947100D01*
X176238796Y-122974317D01*
X176225187Y-122977964D01*
X176225184Y-122977965D01*
X176225183Y-122977966D01*
X176121913Y-123037589D01*
X176037589Y-123121913D01*
X175977966Y-123225183D01*
X175977964Y-123225187D01*
X175977963Y-123225191D01*
X175947100Y-123340373D01*
X153430800Y-123340373D01*
X153430800Y-123240375D01*
X153399936Y-123125187D01*
X153340310Y-123021913D01*
X153255987Y-122937590D01*
X153255986Y-122937589D01*
X153152716Y-122877966D01*
X153152717Y-122877966D01*
X153152713Y-122877964D01*
X153088314Y-122860708D01*
X153037526Y-122847100D01*
X153037525Y-122847100D01*
X152918275Y-122847100D01*
X152918273Y-122847100D01*
X152816696Y-122874317D01*
X152803087Y-122877964D01*
X152803084Y-122877965D01*
X152803083Y-122877966D01*
X152699813Y-122937589D01*
X152615489Y-123021913D01*
X152564975Y-123109406D01*
X152555864Y-123125187D01*
X152555863Y-123125191D01*
X152525000Y-123240373D01*
X116091200Y-123240373D01*
X116091200Y-122640373D01*
X151297100Y-122640373D01*
X151297100Y-122759626D01*
X151299036Y-122766850D01*
X151327964Y-122874813D01*
X151387590Y-122978087D01*
X151471913Y-123062410D01*
X151575187Y-123122036D01*
X151690375Y-123152900D01*
X151809625Y-123152900D01*
X151924813Y-123122036D01*
X152028087Y-123062410D01*
X152112410Y-122978087D01*
X152172036Y-122874813D01*
X152202900Y-122759625D01*
X152202900Y-122640375D01*
X152172036Y-122525187D01*
X152112410Y-122421913D01*
X152028087Y-122337590D01*
X152028086Y-122337589D01*
X151952915Y-122294189D01*
X151924816Y-122277966D01*
X151924817Y-122277966D01*
X151924813Y-122277964D01*
X151836590Y-122254325D01*
X151836583Y-122254323D01*
X153511050Y-122254323D01*
X153511050Y-122254325D01*
X153511050Y-122373575D01*
X153541914Y-122488763D01*
X153601540Y-122592037D01*
X153685863Y-122676360D01*
X153789137Y-122735986D01*
X153904325Y-122766850D01*
X154023575Y-122766850D01*
X154138763Y-122735986D01*
X154242037Y-122676360D01*
X154326360Y-122592037D01*
X154385986Y-122488763D01*
X154416850Y-122373575D01*
X154416850Y-122254325D01*
X154385986Y-122139137D01*
X154326360Y-122035863D01*
X154242037Y-121951540D01*
X154242036Y-121951539D01*
X154138766Y-121891916D01*
X154138767Y-121891916D01*
X154138763Y-121891914D01*
X154074364Y-121874658D01*
X154023576Y-121861050D01*
X154023575Y-121861050D01*
X153904325Y-121861050D01*
X153904323Y-121861050D01*
X153802746Y-121888267D01*
X153789137Y-121891914D01*
X153789134Y-121891915D01*
X153789133Y-121891916D01*
X153685863Y-121951539D01*
X153601539Y-122035863D01*
X153566422Y-122096688D01*
X153541914Y-122139137D01*
X153541913Y-122139141D01*
X153511050Y-122254323D01*
X151836583Y-122254323D01*
X151809626Y-122247100D01*
X151809625Y-122247100D01*
X151690375Y-122247100D01*
X151690373Y-122247100D01*
X151588796Y-122274317D01*
X151575187Y-122277964D01*
X151575184Y-122277965D01*
X151575183Y-122277966D01*
X151471913Y-122337589D01*
X151387589Y-122421913D01*
X151327966Y-122525183D01*
X151327964Y-122525187D01*
X151327963Y-122525191D01*
X151297100Y-122640373D01*
X116091200Y-122640373D01*
X116091200Y-121180163D01*
X141586890Y-121180163D01*
X141586890Y-121180165D01*
X141586890Y-121299415D01*
X141617754Y-121414603D01*
X141677380Y-121517877D01*
X141761703Y-121602200D01*
X141864977Y-121661826D01*
X141980165Y-121692690D01*
X142099415Y-121692690D01*
X142214603Y-121661826D01*
X142317877Y-121602200D01*
X142335916Y-121584161D01*
X143553312Y-121584161D01*
X143553312Y-121584163D01*
X143553312Y-121703413D01*
X143584176Y-121818601D01*
X143643802Y-121921875D01*
X143728125Y-122006198D01*
X143831399Y-122065824D01*
X143946587Y-122096688D01*
X144065837Y-122096688D01*
X144181025Y-122065824D01*
X144284299Y-122006198D01*
X144368622Y-121921875D01*
X144428248Y-121818601D01*
X144459112Y-121703413D01*
X144459112Y-121584163D01*
X144428248Y-121468975D01*
X144368622Y-121365701D01*
X144284299Y-121281378D01*
X144284298Y-121281377D01*
X144181028Y-121221754D01*
X144181029Y-121221754D01*
X144181025Y-121221752D01*
X144116626Y-121204496D01*
X144065838Y-121190888D01*
X144065837Y-121190888D01*
X143946587Y-121190888D01*
X143946585Y-121190888D01*
X143845008Y-121218105D01*
X143831399Y-121221752D01*
X143831396Y-121221753D01*
X143831395Y-121221754D01*
X143728125Y-121281377D01*
X143643801Y-121365701D01*
X143615566Y-121414606D01*
X143584176Y-121468975D01*
X143584175Y-121468979D01*
X143553312Y-121584161D01*
X142335916Y-121584161D01*
X142402200Y-121517877D01*
X142461826Y-121414603D01*
X142492690Y-121299415D01*
X142492690Y-121180165D01*
X142461826Y-121064977D01*
X142402200Y-120961703D01*
X142317877Y-120877380D01*
X142317876Y-120877379D01*
X142214606Y-120817756D01*
X142214607Y-120817756D01*
X142214603Y-120817754D01*
X142150204Y-120800498D01*
X142099416Y-120786890D01*
X142099415Y-120786890D01*
X141980165Y-120786890D01*
X141980163Y-120786890D01*
X141878586Y-120814107D01*
X141864977Y-120817754D01*
X141864974Y-120817755D01*
X141864973Y-120817756D01*
X141761703Y-120877379D01*
X141677379Y-120961703D01*
X141617756Y-121064973D01*
X141617754Y-121064977D01*
X141617753Y-121064981D01*
X141586890Y-121180163D01*
X116091200Y-121180163D01*
X116091200Y-120784636D01*
X116091200Y-120784635D01*
X116075656Y-120747109D01*
X116046935Y-120718388D01*
X115450131Y-120121584D01*
X157747101Y-120121584D01*
X157747101Y-120121586D01*
X157747101Y-120240836D01*
X157777965Y-120356024D01*
X157837591Y-120459298D01*
X157921914Y-120543621D01*
X158025188Y-120603247D01*
X158140376Y-120634111D01*
X158259626Y-120634111D01*
X158374814Y-120603247D01*
X158478088Y-120543621D01*
X158562411Y-120459298D01*
X158622037Y-120356024D01*
X158652901Y-120240836D01*
X158652901Y-120121586D01*
X158622037Y-120006398D01*
X158562411Y-119903124D01*
X158478088Y-119818801D01*
X158478087Y-119818800D01*
X158374817Y-119759177D01*
X158374818Y-119759177D01*
X158374814Y-119759175D01*
X158310415Y-119741919D01*
X158259627Y-119728311D01*
X158259626Y-119728311D01*
X158140376Y-119728311D01*
X158140374Y-119728311D01*
X158038797Y-119755528D01*
X158025188Y-119759175D01*
X158025185Y-119759176D01*
X158025184Y-119759177D01*
X157921914Y-119818800D01*
X157837590Y-119903124D01*
X157777967Y-120006394D01*
X157777965Y-120006398D01*
X157777964Y-120006402D01*
X157747101Y-120121584D01*
X115450131Y-120121584D01*
X113243920Y-117915373D01*
X132997100Y-117915373D01*
X132997100Y-118034626D01*
X133006271Y-118068854D01*
X133027964Y-118149813D01*
X133087590Y-118253087D01*
X133171913Y-118337410D01*
X133275187Y-118397036D01*
X133390375Y-118427900D01*
X133509625Y-118427900D01*
X133624813Y-118397036D01*
X133728087Y-118337410D01*
X133812410Y-118253087D01*
X133872036Y-118149813D01*
X133900074Y-118045173D01*
X138989653Y-118045173D01*
X138989653Y-118045175D01*
X138989653Y-118164425D01*
X139020517Y-118279613D01*
X139034576Y-118303963D01*
X139053886Y-118337410D01*
X139080143Y-118382887D01*
X139164466Y-118467210D01*
X139267740Y-118526836D01*
X139382928Y-118557700D01*
X139502178Y-118557700D01*
X139590915Y-118533923D01*
X139628703Y-118538898D01*
X139651906Y-118569137D01*
X139674169Y-118652227D01*
X139674170Y-118652229D01*
X139674171Y-118652232D01*
X139733797Y-118755506D01*
X139818120Y-118839829D01*
X139921394Y-118899455D01*
X140036582Y-118930319D01*
X140145906Y-118930319D01*
X140181120Y-118944905D01*
X140195706Y-118980119D01*
X140195706Y-119089444D01*
X140199954Y-119105296D01*
X140226570Y-119204631D01*
X140286196Y-119307905D01*
X140370519Y-119392228D01*
X140473793Y-119451854D01*
X140588981Y-119482718D01*
X140708231Y-119482718D01*
X140823419Y-119451854D01*
X140926693Y-119392228D01*
X141011016Y-119307905D01*
X141070642Y-119204631D01*
X141101506Y-119089443D01*
X141101506Y-118970193D01*
X141070642Y-118855005D01*
X141011016Y-118751731D01*
X140926693Y-118667408D01*
X140926692Y-118667407D01*
X140823836Y-118608023D01*
X140823419Y-118607782D01*
X140759020Y-118590526D01*
X140708232Y-118576918D01*
X140708231Y-118576918D01*
X140598907Y-118576918D01*
X140563693Y-118562332D01*
X140549107Y-118527118D01*
X140549107Y-118417794D01*
X140549106Y-118417792D01*
X140518243Y-118302606D01*
X140458617Y-118199332D01*
X140374294Y-118115009D01*
X140374293Y-118115008D01*
X140306717Y-118075993D01*
X140271020Y-118055383D01*
X140206621Y-118038127D01*
X140155833Y-118024519D01*
X140155832Y-118024519D01*
X140036582Y-118024519D01*
X140036580Y-118024519D01*
X139947845Y-118048295D01*
X139910056Y-118043320D01*
X139886853Y-118013082D01*
X139864589Y-117929987D01*
X139804963Y-117826713D01*
X139720640Y-117742390D01*
X139720639Y-117742389D01*
X139657435Y-117705898D01*
X139617366Y-117682764D01*
X139552967Y-117665508D01*
X139502179Y-117651900D01*
X139502178Y-117651900D01*
X139382928Y-117651900D01*
X139382926Y-117651900D01*
X139281349Y-117679117D01*
X139267740Y-117682764D01*
X139267737Y-117682765D01*
X139267736Y-117682766D01*
X139164466Y-117742389D01*
X139080142Y-117826713D01*
X139021561Y-117928179D01*
X139020517Y-117929987D01*
X139020516Y-117929991D01*
X138989653Y-118045173D01*
X133900074Y-118045173D01*
X133902900Y-118034625D01*
X133902900Y-117915375D01*
X133872036Y-117800187D01*
X133812410Y-117696913D01*
X133728087Y-117612590D01*
X133728086Y-117612589D01*
X133643008Y-117563469D01*
X133624813Y-117552964D01*
X133559471Y-117535456D01*
X133509626Y-117522100D01*
X133509625Y-117522100D01*
X133390375Y-117522100D01*
X133390373Y-117522100D01*
X133288796Y-117549317D01*
X133275187Y-117552964D01*
X133275184Y-117552965D01*
X133275183Y-117552966D01*
X133171913Y-117612589D01*
X133087589Y-117696913D01*
X133027966Y-117800183D01*
X133027964Y-117800187D01*
X133027963Y-117800191D01*
X132997100Y-117915373D01*
X113243920Y-117915373D01*
X112676786Y-117348239D01*
X112662200Y-117313025D01*
X112662200Y-116415373D01*
X124347100Y-116415373D01*
X124347100Y-116534626D01*
X124353799Y-116559626D01*
X124377964Y-116649813D01*
X124437590Y-116753087D01*
X124521913Y-116837410D01*
X124625187Y-116897036D01*
X124740375Y-116927900D01*
X124859625Y-116927900D01*
X124974813Y-116897036D01*
X125078087Y-116837410D01*
X125162410Y-116753087D01*
X125222036Y-116649813D01*
X125252900Y-116534625D01*
X125252900Y-116415375D01*
X125222036Y-116300187D01*
X125162410Y-116196913D01*
X125078087Y-116112590D01*
X125078086Y-116112589D01*
X124974816Y-116052966D01*
X124974817Y-116052966D01*
X124974813Y-116052964D01*
X124910414Y-116035708D01*
X124859626Y-116022100D01*
X124859625Y-116022100D01*
X124740375Y-116022100D01*
X124740373Y-116022100D01*
X124647072Y-116047100D01*
X124625187Y-116052964D01*
X124625184Y-116052965D01*
X124625183Y-116052966D01*
X124521913Y-116112589D01*
X124437589Y-116196913D01*
X124377966Y-116300183D01*
X124377964Y-116300187D01*
X124377963Y-116300191D01*
X124347100Y-116415373D01*
X112662200Y-116415373D01*
X112662200Y-115952873D01*
X127259600Y-115952873D01*
X127259600Y-116072126D01*
X127261165Y-116077966D01*
X127290464Y-116187313D01*
X127350090Y-116290587D01*
X127434413Y-116374910D01*
X127537687Y-116434536D01*
X127652875Y-116465400D01*
X127772125Y-116465400D01*
X127865529Y-116440373D01*
X133022100Y-116440373D01*
X133022100Y-116440375D01*
X133022100Y-116559625D01*
X133052964Y-116674813D01*
X133064238Y-116694340D01*
X133110915Y-116775187D01*
X133112590Y-116778087D01*
X133196913Y-116862410D01*
X133300187Y-116922036D01*
X133415375Y-116952900D01*
X133534625Y-116952900D01*
X133649813Y-116922036D01*
X133704654Y-116890373D01*
X138989653Y-116890373D01*
X138989653Y-116890375D01*
X138989653Y-117009625D01*
X139020517Y-117124813D01*
X139020519Y-117124816D01*
X139064537Y-117201058D01*
X139080143Y-117228087D01*
X139164466Y-117312410D01*
X139267740Y-117372036D01*
X139382928Y-117402900D01*
X139502178Y-117402900D01*
X139617366Y-117372036D01*
X139720640Y-117312410D01*
X139738324Y-117294724D01*
X139773536Y-117280138D01*
X139808750Y-117294722D01*
X139816666Y-117305038D01*
X139821277Y-117313025D01*
X139833871Y-117334837D01*
X139918194Y-117419160D01*
X140021468Y-117478786D01*
X140136656Y-117509650D01*
X140255905Y-117509650D01*
X140255906Y-117509650D01*
X140291013Y-117500243D01*
X140328800Y-117505218D01*
X140352004Y-117535456D01*
X140352005Y-117561232D01*
X140351406Y-117563467D01*
X140351406Y-117682720D01*
X140352724Y-117687637D01*
X140382270Y-117797907D01*
X140383589Y-117800191D01*
X140434097Y-117887674D01*
X140441896Y-117901181D01*
X140526219Y-117985504D01*
X140629493Y-118045130D01*
X140744681Y-118075994D01*
X140833636Y-118075994D01*
X140868850Y-118090580D01*
X140883436Y-118125794D01*
X140883436Y-118214748D01*
X140914300Y-118329936D01*
X140914302Y-118329939D01*
X140970859Y-118427899D01*
X140973926Y-118433210D01*
X141058249Y-118517533D01*
X141161523Y-118577159D01*
X141276711Y-118608023D01*
X141395961Y-118608023D01*
X141511149Y-118577159D01*
X141614423Y-118517533D01*
X141698746Y-118433210D01*
X141758372Y-118329936D01*
X141789236Y-118214748D01*
X141789236Y-118095498D01*
X141758372Y-117980310D01*
X141698746Y-117877036D01*
X141614423Y-117792713D01*
X141614422Y-117792712D01*
X141511152Y-117733089D01*
X141511153Y-117733089D01*
X141511149Y-117733087D01*
X141422605Y-117709362D01*
X141395962Y-117702223D01*
X141395961Y-117702223D01*
X141307006Y-117702223D01*
X141271792Y-117687637D01*
X141257206Y-117652423D01*
X141257206Y-117563469D01*
X141257205Y-117563467D01*
X141226342Y-117448281D01*
X141166716Y-117345007D01*
X141082393Y-117260684D01*
X141082392Y-117260683D01*
X140986239Y-117205169D01*
X140979119Y-117201058D01*
X140914720Y-117183802D01*
X140863932Y-117170194D01*
X140863931Y-117170194D01*
X140744681Y-117170194D01*
X140744677Y-117170194D01*
X140709573Y-117179600D01*
X140671784Y-117174625D01*
X140648582Y-117144385D01*
X140648583Y-117118603D01*
X140649181Y-117116375D01*
X140649181Y-116997125D01*
X140618317Y-116881937D01*
X140558691Y-116778663D01*
X140474368Y-116694340D01*
X140474367Y-116694339D01*
X140371097Y-116634716D01*
X140371098Y-116634716D01*
X140371094Y-116634714D01*
X140306695Y-116617458D01*
X140255907Y-116603850D01*
X140255906Y-116603850D01*
X140136656Y-116603850D01*
X140136654Y-116603850D01*
X140035077Y-116631067D01*
X140021468Y-116634714D01*
X140021465Y-116634715D01*
X140021464Y-116634716D01*
X139918193Y-116694339D01*
X139900506Y-116712026D01*
X139865292Y-116726610D01*
X139830078Y-116712022D01*
X139822166Y-116701710D01*
X139817910Y-116694339D01*
X139804963Y-116671913D01*
X139720640Y-116587590D01*
X139720639Y-116587589D01*
X139657435Y-116551098D01*
X139617366Y-116527964D01*
X139552967Y-116510708D01*
X139502179Y-116497100D01*
X139502178Y-116497100D01*
X139382928Y-116497100D01*
X139382926Y-116497100D01*
X139281349Y-116524317D01*
X139267740Y-116527964D01*
X139267737Y-116527965D01*
X139267736Y-116527966D01*
X139164466Y-116587589D01*
X139080142Y-116671913D01*
X139020519Y-116775183D01*
X139020517Y-116775187D01*
X139020516Y-116775191D01*
X138989653Y-116890373D01*
X133704654Y-116890373D01*
X133753087Y-116862410D01*
X133837410Y-116778087D01*
X133897036Y-116674813D01*
X133927900Y-116559625D01*
X133927900Y-116440375D01*
X133897036Y-116325187D01*
X133837410Y-116221913D01*
X133753087Y-116137590D01*
X133753086Y-116137589D01*
X133649816Y-116077966D01*
X133649817Y-116077966D01*
X133649813Y-116077964D01*
X133556518Y-116052966D01*
X133534626Y-116047100D01*
X133534625Y-116047100D01*
X133415375Y-116047100D01*
X133415373Y-116047100D01*
X133321979Y-116072125D01*
X133300187Y-116077964D01*
X133300184Y-116077965D01*
X133300183Y-116077966D01*
X133196913Y-116137589D01*
X133112589Y-116221913D01*
X133052966Y-116325183D01*
X133052964Y-116325187D01*
X133052963Y-116325191D01*
X133022100Y-116440373D01*
X127865529Y-116440373D01*
X127887313Y-116434536D01*
X127990587Y-116374910D01*
X128074910Y-116290587D01*
X128134536Y-116187313D01*
X128165400Y-116072125D01*
X128165400Y-115952875D01*
X128134536Y-115837687D01*
X128074910Y-115734413D01*
X127990587Y-115650090D01*
X127990586Y-115650089D01*
X127887316Y-115590466D01*
X127887317Y-115590466D01*
X127887313Y-115590464D01*
X127822914Y-115573208D01*
X127772126Y-115559600D01*
X127772125Y-115559600D01*
X127652875Y-115559600D01*
X127652873Y-115559600D01*
X127551296Y-115586817D01*
X127537687Y-115590464D01*
X127537684Y-115590465D01*
X127537683Y-115590466D01*
X127434413Y-115650089D01*
X127350089Y-115734413D01*
X127290466Y-115837683D01*
X127290464Y-115837687D01*
X127290463Y-115837691D01*
X127259600Y-115952873D01*
X112662200Y-115952873D01*
X112662200Y-112639269D01*
X117759800Y-112639269D01*
X117759800Y-112948199D01*
X117794389Y-113255183D01*
X117794391Y-113255197D01*
X117863132Y-113556371D01*
X117863134Y-113556378D01*
X117965162Y-113847956D01*
X117965165Y-113847964D01*
X118099201Y-114126293D01*
X118099203Y-114126296D01*
X118099205Y-114126299D01*
X118263565Y-114387877D01*
X118456180Y-114629408D01*
X118674626Y-114847854D01*
X118916157Y-115040469D01*
X119177735Y-115204829D01*
X119177737Y-115204830D01*
X119177740Y-115204832D01*
X119439763Y-115331015D01*
X119456071Y-115338869D01*
X119456077Y-115338871D01*
X119710503Y-115427899D01*
X119747664Y-115440902D01*
X120048848Y-115509645D01*
X120355835Y-115544234D01*
X120355839Y-115544234D01*
X120664761Y-115544234D01*
X120664765Y-115544234D01*
X120971752Y-115509645D01*
X121272936Y-115440902D01*
X121564529Y-115338869D01*
X121842865Y-115204829D01*
X122104443Y-115040469D01*
X122261308Y-114915373D01*
X137847100Y-114915373D01*
X137847100Y-115034626D01*
X137848666Y-115040469D01*
X137877964Y-115149813D01*
X137937590Y-115253087D01*
X138021913Y-115337410D01*
X138125187Y-115397036D01*
X138240375Y-115427900D01*
X138359625Y-115427900D01*
X138474813Y-115397036D01*
X138578087Y-115337410D01*
X138662410Y-115253087D01*
X138722036Y-115149813D01*
X138752900Y-115034625D01*
X138752900Y-114915375D01*
X138722036Y-114800187D01*
X138662410Y-114696913D01*
X138578087Y-114612590D01*
X138578086Y-114612589D01*
X138474816Y-114552966D01*
X138474817Y-114552966D01*
X138474813Y-114552964D01*
X138410414Y-114535708D01*
X138359626Y-114522100D01*
X138359625Y-114522100D01*
X138240375Y-114522100D01*
X138240373Y-114522100D01*
X138138796Y-114549317D01*
X138125187Y-114552964D01*
X138125184Y-114552965D01*
X138125183Y-114552966D01*
X138021913Y-114612589D01*
X137937589Y-114696913D01*
X137877966Y-114800183D01*
X137877964Y-114800187D01*
X137877963Y-114800191D01*
X137847100Y-114915373D01*
X122261308Y-114915373D01*
X122345974Y-114847854D01*
X122564420Y-114629408D01*
X122757035Y-114387877D01*
X122921395Y-114126299D01*
X123055435Y-113847963D01*
X123157468Y-113556370D01*
X123226211Y-113255186D01*
X123260800Y-112948199D01*
X123260800Y-112639269D01*
X123226211Y-112332282D01*
X123157468Y-112031098D01*
X123055435Y-111739505D01*
X123047581Y-111723197D01*
X122921398Y-111461174D01*
X122921396Y-111461171D01*
X122757034Y-111199590D01*
X122564419Y-110958059D01*
X122345974Y-110739614D01*
X122104443Y-110546999D01*
X121842862Y-110382637D01*
X121842859Y-110382635D01*
X121564530Y-110248599D01*
X121564522Y-110248596D01*
X121272944Y-110146568D01*
X121272937Y-110146566D01*
X120971763Y-110077825D01*
X120971757Y-110077824D01*
X120971752Y-110077823D01*
X120664765Y-110043234D01*
X120355835Y-110043234D01*
X120048848Y-110077823D01*
X120048844Y-110077823D01*
X120048836Y-110077825D01*
X119747662Y-110146566D01*
X119747655Y-110146568D01*
X119456077Y-110248596D01*
X119456069Y-110248599D01*
X119177740Y-110382635D01*
X119177737Y-110382637D01*
X118916156Y-110546999D01*
X118674625Y-110739614D01*
X118456180Y-110958059D01*
X118263565Y-111199590D01*
X118099203Y-111461171D01*
X118099201Y-111461174D01*
X117965165Y-111739503D01*
X117965162Y-111739511D01*
X117863134Y-112031089D01*
X117863132Y-112031096D01*
X117794391Y-112332270D01*
X117794389Y-112332278D01*
X117794389Y-112332282D01*
X117759800Y-112639269D01*
X112662200Y-112639269D01*
X112662200Y-96640373D01*
X122107100Y-96640373D01*
X122107100Y-96640375D01*
X122107100Y-96759625D01*
X122137964Y-96874813D01*
X122197590Y-96978087D01*
X122281913Y-97062410D01*
X122385187Y-97122036D01*
X122500375Y-97152900D01*
X122619625Y-97152900D01*
X122734813Y-97122036D01*
X122838087Y-97062410D01*
X122922410Y-96978087D01*
X122982036Y-96874813D01*
X123012900Y-96759625D01*
X123012900Y-96640375D01*
X123012899Y-96640373D01*
X123932100Y-96640373D01*
X123932100Y-96640375D01*
X123932100Y-96759625D01*
X123962964Y-96874813D01*
X124022590Y-96978087D01*
X124106913Y-97062410D01*
X124210187Y-97122036D01*
X124325375Y-97152900D01*
X124444625Y-97152900D01*
X124559813Y-97122036D01*
X124663087Y-97062410D01*
X124747410Y-96978087D01*
X124807036Y-96874813D01*
X124837900Y-96759625D01*
X124837900Y-96640375D01*
X124807036Y-96525187D01*
X124747410Y-96421913D01*
X124663087Y-96337590D01*
X124663086Y-96337589D01*
X124559816Y-96277966D01*
X124559817Y-96277966D01*
X124559813Y-96277964D01*
X124495414Y-96260708D01*
X124444626Y-96247100D01*
X124444625Y-96247100D01*
X124325375Y-96247100D01*
X124325373Y-96247100D01*
X124223796Y-96274317D01*
X124210187Y-96277964D01*
X124210184Y-96277965D01*
X124210183Y-96277966D01*
X124106913Y-96337589D01*
X124022589Y-96421913D01*
X123962966Y-96525183D01*
X123962964Y-96525187D01*
X123962963Y-96525191D01*
X123932100Y-96640373D01*
X123012899Y-96640373D01*
X122982036Y-96525187D01*
X122922410Y-96421913D01*
X122838087Y-96337590D01*
X122838086Y-96337589D01*
X122734816Y-96277966D01*
X122734817Y-96277966D01*
X122734813Y-96277964D01*
X122670414Y-96260708D01*
X122619626Y-96247100D01*
X122619625Y-96247100D01*
X122500375Y-96247100D01*
X122500373Y-96247100D01*
X122398796Y-96274317D01*
X122385187Y-96277964D01*
X122385184Y-96277965D01*
X122385183Y-96277966D01*
X122281913Y-96337589D01*
X122197589Y-96421913D01*
X122137966Y-96525183D01*
X122137964Y-96525187D01*
X122137963Y-96525191D01*
X122107100Y-96640373D01*
X112662200Y-96640373D01*
X112662200Y-95834942D01*
X125457100Y-95834942D01*
X125457100Y-97565050D01*
X125457101Y-97565058D01*
X125465972Y-97609656D01*
X125465973Y-97609661D01*
X125499764Y-97660232D01*
X125499766Y-97660234D01*
X125550342Y-97694028D01*
X125594943Y-97702900D01*
X125635501Y-97702899D01*
X125652929Y-97710117D01*
X125670444Y-97717216D01*
X125670511Y-97717400D01*
X125670714Y-97717484D01*
X125685300Y-97752317D01*
X125685318Y-97754789D01*
X125685301Y-97754885D01*
X125685367Y-97761162D01*
X125685368Y-97761304D01*
X125685368Y-97761305D01*
X125691219Y-98317035D01*
X125691219Y-98317036D01*
X125691420Y-98336162D01*
X125696844Y-98851429D01*
X125696844Y-98851430D01*
X125697045Y-98870556D01*
X125701946Y-99336163D01*
X125707271Y-99842035D01*
X125707271Y-99842036D01*
X125707472Y-99861162D01*
X125716568Y-100725218D01*
X125716568Y-100725219D01*
X125716769Y-100744345D01*
X125733788Y-102361163D01*
X125745692Y-103492035D01*
X125745692Y-103492036D01*
X125745893Y-103511162D01*
X125759376Y-104792035D01*
X125759376Y-104792036D01*
X125759577Y-104811162D01*
X125775165Y-106292035D01*
X125775165Y-106292036D01*
X125775366Y-106311162D01*
X125780955Y-106842035D01*
X125780955Y-106842036D01*
X125781156Y-106861162D01*
X125788323Y-107542035D01*
X125788323Y-107542036D01*
X125788524Y-107561162D01*
X125822139Y-110754535D01*
X125822139Y-110754536D01*
X125822340Y-110773662D01*
X125839902Y-112442035D01*
X125839902Y-112442036D01*
X125840103Y-112461162D01*
X125841633Y-112606590D01*
X125841633Y-112606595D01*
X125841634Y-112606598D01*
X125851382Y-112659580D01*
X125862969Y-112690993D01*
X125862971Y-112690997D01*
X125877779Y-112720935D01*
X125877781Y-112720938D01*
X125934046Y-112772692D01*
X125937935Y-112776269D01*
X125971710Y-112793933D01*
X126030824Y-112811286D01*
X153199127Y-115240568D01*
X153232900Y-115258231D01*
X153244486Y-115289539D01*
X153291441Y-118998976D01*
X153291579Y-119003896D01*
X153291713Y-119006981D01*
X153304436Y-119055669D01*
X153308512Y-119071268D01*
X153314275Y-119082682D01*
X153325690Y-119105292D01*
X153325693Y-119105296D01*
X153348910Y-119139345D01*
X153348911Y-119139345D01*
X153348912Y-119139347D01*
X153417296Y-119184115D01*
X153453503Y-119196027D01*
X153514659Y-119203494D01*
X158863808Y-118802306D01*
X158900015Y-118814218D01*
X158917194Y-118848242D01*
X158910661Y-118876867D01*
X158882766Y-118925182D01*
X158882763Y-118925191D01*
X158851900Y-119040373D01*
X158851900Y-119040375D01*
X158851900Y-119159625D01*
X158882764Y-119274813D01*
X158942390Y-119378087D01*
X159026713Y-119462410D01*
X159129987Y-119522036D01*
X159245175Y-119552900D01*
X159364425Y-119552900D01*
X159479613Y-119522036D01*
X159582887Y-119462410D01*
X159667210Y-119378087D01*
X159726836Y-119274813D01*
X159757700Y-119159625D01*
X159757700Y-119040375D01*
X159726836Y-118925187D01*
X159688962Y-118859589D01*
X159683988Y-118821801D01*
X159707191Y-118791562D01*
X159736678Y-118785102D01*
X161590640Y-118956670D01*
X163753575Y-119156831D01*
X163753583Y-119156831D01*
X163753590Y-119156832D01*
X163767143Y-119157501D01*
X163775697Y-119157555D01*
X163775698Y-119157554D01*
X163775707Y-119157555D01*
X163781350Y-119157347D01*
X163789266Y-119157057D01*
X174054956Y-118337094D01*
X174074992Y-118333613D01*
X174083619Y-118332115D01*
X174083621Y-118332114D01*
X174083629Y-118332113D01*
X174101271Y-118327339D01*
X174109380Y-118324910D01*
X174141374Y-118303962D01*
X174178822Y-118296877D01*
X174210315Y-118318347D01*
X174210818Y-118319132D01*
X174263560Y-118403070D01*
X174263561Y-118403071D01*
X174263565Y-118403077D01*
X174456180Y-118644608D01*
X174674626Y-118863054D01*
X174916157Y-119055669D01*
X175153234Y-119204634D01*
X175177737Y-119220030D01*
X175177740Y-119220032D01*
X175439763Y-119346215D01*
X175456071Y-119354069D01*
X175747664Y-119456102D01*
X176048848Y-119524845D01*
X176355835Y-119559434D01*
X176355839Y-119559434D01*
X176664761Y-119559434D01*
X176664765Y-119559434D01*
X176971752Y-119524845D01*
X177272936Y-119456102D01*
X177564529Y-119354069D01*
X177842865Y-119220029D01*
X178104443Y-119055669D01*
X178345974Y-118863054D01*
X178564420Y-118644608D01*
X178757035Y-118403077D01*
X178921395Y-118141499D01*
X179020272Y-117936176D01*
X179048691Y-117910780D01*
X179080471Y-117910405D01*
X179113237Y-117921009D01*
X179174428Y-117928180D01*
X181266392Y-117761087D01*
X181320545Y-117746797D01*
X181352056Y-117732105D01*
X181382387Y-117713546D01*
X181431658Y-117648331D01*
X181445981Y-117613009D01*
X181457550Y-117552496D01*
X181408272Y-110949274D01*
X181408261Y-110948266D01*
X181408252Y-110947616D01*
X181394976Y-110886394D01*
X181379670Y-110851487D01*
X181358336Y-110816225D01*
X181315226Y-110784528D01*
X181292485Y-110767807D01*
X181256985Y-110753947D01*
X181256977Y-110753945D01*
X181196318Y-110743167D01*
X176803434Y-110833296D01*
X176767928Y-110819435D01*
X176752622Y-110784528D01*
X176752615Y-110782988D01*
X176773975Y-108895373D01*
X177152100Y-108895373D01*
X177152100Y-108895375D01*
X177152100Y-109014625D01*
X177182964Y-109129813D01*
X177242590Y-109233087D01*
X177326913Y-109317410D01*
X177430187Y-109377036D01*
X177545375Y-109407900D01*
X177664625Y-109407900D01*
X177779813Y-109377036D01*
X177883087Y-109317410D01*
X177967410Y-109233087D01*
X178027036Y-109129813D01*
X178057900Y-109014625D01*
X178057900Y-108895375D01*
X178027036Y-108780187D01*
X177967410Y-108676913D01*
X177883087Y-108592590D01*
X177883086Y-108592589D01*
X177779816Y-108532966D01*
X177779817Y-108532966D01*
X177779813Y-108532964D01*
X177715414Y-108515708D01*
X177664626Y-108502100D01*
X177664625Y-108502100D01*
X177545375Y-108502100D01*
X177545373Y-108502100D01*
X177443796Y-108529317D01*
X177430187Y-108532964D01*
X177430184Y-108532965D01*
X177430183Y-108532966D01*
X177326913Y-108592589D01*
X177242589Y-108676913D01*
X177182966Y-108780183D01*
X177182964Y-108780187D01*
X177182963Y-108780191D01*
X177152100Y-108895373D01*
X176773975Y-108895373D01*
X176799231Y-106663367D01*
X176813813Y-106628718D01*
X179733709Y-103708822D01*
X179768162Y-103694243D01*
X182132173Y-103658190D01*
X182191427Y-103645670D01*
X182225944Y-103631028D01*
X182276131Y-103597121D01*
X183293632Y-102576022D01*
X183327705Y-102524891D01*
X183342229Y-102489758D01*
X183354207Y-102429494D01*
X183357881Y-92749182D01*
X183346295Y-92689752D01*
X183332201Y-92655018D01*
X183312498Y-92620037D01*
X183312497Y-92620036D01*
X183248363Y-92569374D01*
X183248359Y-92569372D01*
X183213354Y-92554292D01*
X183213350Y-92554291D01*
X183153103Y-92541423D01*
X170985687Y-92370051D01*
X170950682Y-92354971D01*
X170936593Y-92319555D01*
X171006965Y-88378754D01*
X171006987Y-88376912D01*
X171006994Y-88375781D01*
X170994683Y-88313673D01*
X170979927Y-88278531D01*
X170959143Y-88242931D01*
X170894057Y-88193489D01*
X170891169Y-88192309D01*
X170858776Y-88179075D01*
X170858773Y-88179074D01*
X170858772Y-88179074D01*
X170798290Y-88167349D01*
X170798285Y-88167348D01*
X166493338Y-88188229D01*
X166493336Y-88188229D01*
X166464619Y-88192116D01*
X166452862Y-88193708D01*
X166452860Y-88193708D01*
X166452856Y-88193709D01*
X166428203Y-88200379D01*
X166428190Y-88200383D01*
X166409016Y-88206918D01*
X166409015Y-88206919D01*
X166344174Y-88256673D01*
X166344167Y-88256680D01*
X166343754Y-88257219D01*
X166343458Y-88257389D01*
X166341865Y-88258983D01*
X166341437Y-88258555D01*
X166310740Y-88276267D01*
X166279355Y-88270019D01*
X166249820Y-88252967D01*
X166249815Y-88252965D01*
X166249813Y-88252964D01*
X166179134Y-88234026D01*
X166134626Y-88222100D01*
X166134625Y-88222100D01*
X166015375Y-88222100D01*
X166015373Y-88222100D01*
X165937631Y-88242931D01*
X165900187Y-88252964D01*
X165900185Y-88252964D01*
X165900185Y-88252965D01*
X165868232Y-88271413D01*
X165830443Y-88276387D01*
X165813209Y-88267939D01*
X165748062Y-88218449D01*
X165719835Y-88206918D01*
X165712778Y-88204035D01*
X165712776Y-88204034D01*
X165712775Y-88204034D01*
X165652290Y-88192308D01*
X140131863Y-88316094D01*
X140096578Y-88301679D01*
X140081822Y-88266553D01*
X140081653Y-88234028D01*
X140075854Y-87114832D01*
X140064070Y-84840373D01*
X159547100Y-84840373D01*
X159547100Y-84840375D01*
X159547100Y-84959625D01*
X159577964Y-85074813D01*
X159601098Y-85114882D01*
X159635834Y-85175047D01*
X159637590Y-85178087D01*
X159721913Y-85262410D01*
X159825187Y-85322036D01*
X159940375Y-85352900D01*
X160059625Y-85352900D01*
X160174813Y-85322036D01*
X160278087Y-85262410D01*
X160362410Y-85178087D01*
X160422036Y-85074813D01*
X160452900Y-84959625D01*
X160452900Y-84840375D01*
X160422036Y-84725187D01*
X160362410Y-84621913D01*
X160305870Y-84565373D01*
X160547100Y-84565373D01*
X160547100Y-84565375D01*
X160547100Y-84684625D01*
X160577964Y-84799813D01*
X160637590Y-84903087D01*
X160721913Y-84987410D01*
X160825187Y-85047036D01*
X160940375Y-85077900D01*
X161059625Y-85077900D01*
X161174813Y-85047036D01*
X161278087Y-84987410D01*
X161362410Y-84903087D01*
X161422036Y-84799813D01*
X161452900Y-84684625D01*
X161452900Y-84565375D01*
X161422036Y-84450187D01*
X161362410Y-84346913D01*
X161278087Y-84262590D01*
X161278086Y-84262589D01*
X161174816Y-84202966D01*
X161174817Y-84202966D01*
X161174813Y-84202964D01*
X161110414Y-84185708D01*
X161059626Y-84172100D01*
X161059625Y-84172100D01*
X160940375Y-84172100D01*
X160940373Y-84172100D01*
X160838796Y-84199317D01*
X160825187Y-84202964D01*
X160825184Y-84202965D01*
X160825183Y-84202966D01*
X160721913Y-84262589D01*
X160637589Y-84346913D01*
X160584912Y-84438152D01*
X160577964Y-84450187D01*
X160577963Y-84450191D01*
X160547100Y-84565373D01*
X160305870Y-84565373D01*
X160278087Y-84537590D01*
X160278086Y-84537589D01*
X160174816Y-84477966D01*
X160174817Y-84477966D01*
X160174813Y-84477964D01*
X160110414Y-84460708D01*
X160059626Y-84447100D01*
X160059625Y-84447100D01*
X159940375Y-84447100D01*
X159940373Y-84447100D01*
X159838796Y-84474317D01*
X159825187Y-84477964D01*
X159825184Y-84477965D01*
X159825183Y-84477966D01*
X159721913Y-84537589D01*
X159637589Y-84621913D01*
X159601382Y-84684626D01*
X159577964Y-84725187D01*
X159577963Y-84725191D01*
X159547100Y-84840373D01*
X140064070Y-84840373D01*
X140064054Y-84837369D01*
X140058155Y-83698986D01*
X140058155Y-83698981D01*
X140045611Y-83638119D01*
X140045300Y-83637387D01*
X145085100Y-83637387D01*
X145085100Y-83817612D01*
X145120256Y-83994357D01*
X145120258Y-83994363D01*
X145120259Y-83994367D01*
X145120261Y-83994371D01*
X145189223Y-84160864D01*
X145189225Y-84160866D01*
X145289347Y-84310711D01*
X145416788Y-84438152D01*
X145476372Y-84477964D01*
X145566632Y-84538274D01*
X145566633Y-84538274D01*
X145566635Y-84538276D01*
X145641411Y-84569248D01*
X145733133Y-84607241D01*
X145733140Y-84607242D01*
X145733142Y-84607243D01*
X145793626Y-84619273D01*
X145909890Y-84642400D01*
X145909895Y-84642400D01*
X146090105Y-84642400D01*
X146090110Y-84642400D01*
X146266867Y-84607241D01*
X146399484Y-84552309D01*
X146433364Y-84538276D01*
X146433364Y-84538275D01*
X146433368Y-84538274D01*
X146583215Y-84438149D01*
X146710649Y-84310715D01*
X146810774Y-84160868D01*
X146879741Y-83994367D01*
X146914900Y-83817610D01*
X146914900Y-83637390D01*
X146914899Y-83637387D01*
X147585100Y-83637387D01*
X147585100Y-83817612D01*
X147620256Y-83994357D01*
X147620258Y-83994363D01*
X147620259Y-83994367D01*
X147620261Y-83994371D01*
X147689223Y-84160864D01*
X147689225Y-84160866D01*
X147789347Y-84310711D01*
X147916788Y-84438152D01*
X147976372Y-84477964D01*
X148066632Y-84538274D01*
X148066633Y-84538274D01*
X148066635Y-84538276D01*
X148141411Y-84569248D01*
X148233133Y-84607241D01*
X148233140Y-84607242D01*
X148233142Y-84607243D01*
X148293626Y-84619273D01*
X148409890Y-84642400D01*
X148409895Y-84642400D01*
X148590105Y-84642400D01*
X148590110Y-84642400D01*
X148766867Y-84607241D01*
X148899484Y-84552309D01*
X148933364Y-84538276D01*
X148933364Y-84538275D01*
X148933368Y-84538274D01*
X149083215Y-84438149D01*
X149210649Y-84310715D01*
X149310774Y-84160868D01*
X149379741Y-83994367D01*
X149414900Y-83817610D01*
X149414900Y-83637390D01*
X149414899Y-83637387D01*
X149585100Y-83637387D01*
X149585100Y-83817612D01*
X149620256Y-83994357D01*
X149620258Y-83994363D01*
X149620259Y-83994367D01*
X149620261Y-83994371D01*
X149689223Y-84160864D01*
X149689225Y-84160866D01*
X149789347Y-84310711D01*
X149916788Y-84438152D01*
X149976372Y-84477964D01*
X150066632Y-84538274D01*
X150066633Y-84538274D01*
X150066635Y-84538276D01*
X150141411Y-84569248D01*
X150233133Y-84607241D01*
X150233140Y-84607242D01*
X150233142Y-84607243D01*
X150293626Y-84619273D01*
X150409890Y-84642400D01*
X150409895Y-84642400D01*
X150590105Y-84642400D01*
X150590110Y-84642400D01*
X150766867Y-84607241D01*
X150899484Y-84552309D01*
X150933364Y-84538276D01*
X150933364Y-84538275D01*
X150933368Y-84538274D01*
X151083215Y-84438149D01*
X151210649Y-84310715D01*
X151310774Y-84160868D01*
X151379741Y-83994367D01*
X151414900Y-83817610D01*
X151414900Y-83637390D01*
X151386087Y-83492536D01*
X151379743Y-83460642D01*
X151379742Y-83460640D01*
X151379741Y-83460633D01*
X151335574Y-83354004D01*
X151310776Y-83294135D01*
X151310774Y-83294133D01*
X151310774Y-83294132D01*
X151257437Y-83214308D01*
X151210652Y-83144288D01*
X151083211Y-83016847D01*
X151042137Y-82989403D01*
X150983828Y-82950442D01*
X152085100Y-82950442D01*
X152085100Y-84504550D01*
X152085101Y-84504558D01*
X152093972Y-84549156D01*
X152093973Y-84549161D01*
X152127764Y-84599732D01*
X152127767Y-84599735D01*
X152129994Y-84601223D01*
X152178342Y-84633528D01*
X152222943Y-84642400D01*
X153777056Y-84642399D01*
X153821658Y-84633528D01*
X153872234Y-84599734D01*
X153906028Y-84549158D01*
X153914900Y-84504557D01*
X153914899Y-82950444D01*
X153906028Y-82905842D01*
X153906026Y-82905839D01*
X153906026Y-82905838D01*
X153872235Y-82855267D01*
X153872232Y-82855264D01*
X153821658Y-82821472D01*
X153777057Y-82812600D01*
X153777055Y-82812600D01*
X152222949Y-82812600D01*
X152222941Y-82812601D01*
X152189492Y-82819254D01*
X152178342Y-82821472D01*
X152178341Y-82821472D01*
X152178338Y-82821473D01*
X152127767Y-82855264D01*
X152127764Y-82855267D01*
X152093972Y-82905840D01*
X152093972Y-82905841D01*
X152085100Y-82950442D01*
X150983828Y-82950442D01*
X150978826Y-82947100D01*
X150933368Y-82916726D01*
X150933366Y-82916725D01*
X150933364Y-82916723D01*
X150784990Y-82855266D01*
X150766867Y-82847759D01*
X150766863Y-82847758D01*
X150766857Y-82847756D01*
X150590112Y-82812600D01*
X150590110Y-82812600D01*
X150409890Y-82812600D01*
X150409887Y-82812600D01*
X150233142Y-82847756D01*
X150233134Y-82847758D01*
X150233133Y-82847759D01*
X150233129Y-82847760D01*
X150233128Y-82847761D01*
X150066635Y-82916723D01*
X150066633Y-82916725D01*
X149916788Y-83016847D01*
X149916786Y-83016850D01*
X149789350Y-83144286D01*
X149789347Y-83144288D01*
X149689225Y-83294133D01*
X149689223Y-83294135D01*
X149620261Y-83460628D01*
X149620256Y-83460642D01*
X149585100Y-83637387D01*
X149414899Y-83637387D01*
X149386087Y-83492536D01*
X149379743Y-83460642D01*
X149379742Y-83460640D01*
X149379741Y-83460633D01*
X149335574Y-83354004D01*
X149310776Y-83294135D01*
X149310774Y-83294133D01*
X149310774Y-83294132D01*
X149257437Y-83214308D01*
X149210652Y-83144288D01*
X149083211Y-83016847D01*
X148963662Y-82936968D01*
X148933368Y-82916726D01*
X148933366Y-82916725D01*
X148933364Y-82916723D01*
X148784990Y-82855266D01*
X148766867Y-82847759D01*
X148766863Y-82847758D01*
X148766857Y-82847756D01*
X148590112Y-82812600D01*
X148590110Y-82812600D01*
X148409890Y-82812600D01*
X148409887Y-82812600D01*
X148233142Y-82847756D01*
X148233134Y-82847758D01*
X148233133Y-82847759D01*
X148233129Y-82847760D01*
X148233128Y-82847761D01*
X148066635Y-82916723D01*
X148066633Y-82916725D01*
X147916788Y-83016847D01*
X147916786Y-83016850D01*
X147789350Y-83144286D01*
X147789347Y-83144288D01*
X147689225Y-83294133D01*
X147689223Y-83294135D01*
X147620261Y-83460628D01*
X147620256Y-83460642D01*
X147585100Y-83637387D01*
X146914899Y-83637387D01*
X146886087Y-83492536D01*
X146879743Y-83460642D01*
X146879742Y-83460640D01*
X146879741Y-83460633D01*
X146835574Y-83354004D01*
X146810776Y-83294135D01*
X146810774Y-83294133D01*
X146810774Y-83294132D01*
X146757437Y-83214308D01*
X146710652Y-83144288D01*
X146583211Y-83016847D01*
X146463662Y-82936968D01*
X146433368Y-82916726D01*
X146433366Y-82916725D01*
X146433364Y-82916723D01*
X146284990Y-82855266D01*
X146266867Y-82847759D01*
X146266863Y-82847758D01*
X146266857Y-82847756D01*
X146090112Y-82812600D01*
X146090110Y-82812600D01*
X145909890Y-82812600D01*
X145909887Y-82812600D01*
X145733142Y-82847756D01*
X145733134Y-82847758D01*
X145733133Y-82847759D01*
X145733129Y-82847760D01*
X145733128Y-82847761D01*
X145566635Y-82916723D01*
X145566633Y-82916725D01*
X145416788Y-83016847D01*
X145416786Y-83016850D01*
X145289350Y-83144286D01*
X145289347Y-83144288D01*
X145189225Y-83294133D01*
X145189223Y-83294135D01*
X145120261Y-83460628D01*
X145120256Y-83460642D01*
X145085100Y-83637387D01*
X140045300Y-83637387D01*
X140030722Y-83603032D01*
X140009807Y-83567514D01*
X139944536Y-83518317D01*
X139944531Y-83518315D01*
X139944530Y-83518314D01*
X139909207Y-83504037D01*
X139909200Y-83504035D01*
X139909199Y-83504035D01*
X139878934Y-83498285D01*
X139848671Y-83492536D01*
X139848670Y-83492536D01*
X139098479Y-83499003D01*
X134597328Y-83537806D01*
X134577399Y-83539243D01*
X134564944Y-83540938D01*
X134564942Y-83540939D01*
X134519133Y-83560031D01*
X134481017Y-83560114D01*
X134465614Y-83548324D01*
X134464718Y-83549221D01*
X134378086Y-83462589D01*
X134274816Y-83402966D01*
X134274817Y-83402966D01*
X134274813Y-83402964D01*
X134210414Y-83385708D01*
X134159626Y-83372100D01*
X134159625Y-83372100D01*
X134040375Y-83372100D01*
X134040373Y-83372100D01*
X133938796Y-83399317D01*
X133925187Y-83402964D01*
X133925184Y-83402965D01*
X133925183Y-83402966D01*
X133821913Y-83462589D01*
X133737588Y-83546914D01*
X133735603Y-83549502D01*
X133734106Y-83548353D01*
X133708586Y-83567881D01*
X133677102Y-83565933D01*
X133657299Y-83557930D01*
X133596772Y-83546432D01*
X133596771Y-83546432D01*
X133551817Y-83546819D01*
X128337078Y-83591773D01*
X128295808Y-83597631D01*
X128295807Y-83597632D01*
X128270725Y-83604664D01*
X128257022Y-83609514D01*
X128250829Y-83611707D01*
X128250828Y-83611707D01*
X128250827Y-83611708D01*
X128186708Y-83662393D01*
X128186705Y-83662397D01*
X128163948Y-83692957D01*
X128163943Y-83692965D01*
X128137493Y-83748611D01*
X128137492Y-83748614D01*
X126827821Y-88934914D01*
X126812809Y-88994363D01*
X126281862Y-91096913D01*
X126266850Y-91156362D01*
X125969738Y-92332925D01*
X125954726Y-92392374D01*
X125842658Y-92836162D01*
X125744640Y-93224314D01*
X125729628Y-93283763D01*
X125648490Y-93605062D01*
X125648483Y-93605092D01*
X125644789Y-93625063D01*
X125644784Y-93625092D01*
X125643274Y-93637783D01*
X125643273Y-93637793D01*
X125642175Y-93658103D01*
X125642175Y-93658114D01*
X125648488Y-94257707D01*
X125648488Y-94257708D01*
X125648689Y-94276834D01*
X125655921Y-94963901D01*
X125655921Y-94963902D01*
X125656122Y-94983028D01*
X125660103Y-95361162D01*
X125663109Y-95646776D01*
X125648895Y-95682141D01*
X125613836Y-95697097D01*
X125613314Y-95697100D01*
X125594951Y-95697100D01*
X125594941Y-95697101D01*
X125561492Y-95703754D01*
X125550342Y-95705972D01*
X125550341Y-95705972D01*
X125550338Y-95705973D01*
X125499767Y-95739764D01*
X125499764Y-95739767D01*
X125465972Y-95790340D01*
X125465972Y-95790341D01*
X125457100Y-95834942D01*
X112662200Y-95834942D01*
X112662200Y-87136167D01*
X112676595Y-87101146D01*
X112722750Y-87054485D01*
X113394923Y-86374942D01*
X120897100Y-86374942D01*
X120897100Y-88105050D01*
X120897101Y-88105058D01*
X120905972Y-88149656D01*
X120905973Y-88149661D01*
X120939764Y-88200232D01*
X120939767Y-88200235D01*
X120965054Y-88217131D01*
X120990342Y-88234028D01*
X121034943Y-88242900D01*
X122765056Y-88242899D01*
X122809658Y-88234028D01*
X122860234Y-88200234D01*
X122894028Y-88149658D01*
X122902900Y-88105057D01*
X122902899Y-86374944D01*
X122894028Y-86330342D01*
X122894026Y-86330339D01*
X122894026Y-86330338D01*
X122860235Y-86279767D01*
X122860232Y-86279764D01*
X122809658Y-86245972D01*
X122765057Y-86237100D01*
X122765055Y-86237100D01*
X121034949Y-86237100D01*
X121034941Y-86237101D01*
X121001492Y-86243754D01*
X120990342Y-86245972D01*
X120990341Y-86245972D01*
X120990338Y-86245973D01*
X120939767Y-86279764D01*
X120939764Y-86279767D01*
X120905972Y-86330340D01*
X120905972Y-86330341D01*
X120897100Y-86374942D01*
X113394923Y-86374942D01*
X115149408Y-84601220D01*
X120897100Y-84601220D01*
X120897100Y-84798779D01*
X120935638Y-84992525D01*
X120935640Y-84992531D01*
X120935641Y-84992535D01*
X120935643Y-84992539D01*
X121011239Y-85175047D01*
X121011240Y-85175049D01*
X121120992Y-85339308D01*
X121260691Y-85479007D01*
X121358978Y-85544679D01*
X121424949Y-85588759D01*
X121607465Y-85664359D01*
X121607472Y-85664360D01*
X121607474Y-85664361D01*
X121673773Y-85677548D01*
X121801223Y-85702900D01*
X121801228Y-85702900D01*
X121998772Y-85702900D01*
X121998777Y-85702900D01*
X122192535Y-85664359D01*
X122375051Y-85588759D01*
X122539312Y-85479004D01*
X122679004Y-85339312D01*
X122690548Y-85322036D01*
X122700599Y-85306992D01*
X122788759Y-85175051D01*
X122864359Y-84992535D01*
X122902900Y-84798777D01*
X122902900Y-84601223D01*
X122870463Y-84438150D01*
X122864361Y-84407474D01*
X122864360Y-84407472D01*
X122864359Y-84407465D01*
X122788759Y-84224949D01*
X122744679Y-84158978D01*
X122679007Y-84060691D01*
X122539308Y-83920992D01*
X122384575Y-83817605D01*
X122375051Y-83811241D01*
X122375049Y-83811240D01*
X122375047Y-83811239D01*
X122283793Y-83773441D01*
X122192535Y-83735641D01*
X122192531Y-83735640D01*
X122192525Y-83735638D01*
X121998779Y-83697100D01*
X121998777Y-83697100D01*
X121801223Y-83697100D01*
X121801220Y-83697100D01*
X121607474Y-83735638D01*
X121607466Y-83735640D01*
X121607465Y-83735641D01*
X121607461Y-83735642D01*
X121607460Y-83735643D01*
X121424952Y-83811239D01*
X121424950Y-83811240D01*
X121260691Y-83920992D01*
X121260689Y-83920995D01*
X121120995Y-84060689D01*
X121120992Y-84060691D01*
X121011240Y-84224950D01*
X121011239Y-84224952D01*
X120935643Y-84407460D01*
X120935638Y-84407474D01*
X120897100Y-84601220D01*
X115149408Y-84601220D01*
X116396578Y-83340375D01*
X118817637Y-80892769D01*
X141027100Y-80892769D01*
X141027100Y-81142230D01*
X141059658Y-81389531D01*
X141059660Y-81389538D01*
X141124220Y-81630481D01*
X141219677Y-81860933D01*
X141219681Y-81860940D01*
X141344400Y-82076961D01*
X141496247Y-82274853D01*
X141496253Y-82274860D01*
X141672639Y-82451246D01*
X141672646Y-82451252D01*
X141870538Y-82603099D01*
X141952551Y-82650449D01*
X142086563Y-82727821D01*
X142317020Y-82823280D01*
X142557966Y-82887841D01*
X142763690Y-82914925D01*
X142777362Y-82916725D01*
X142805277Y-82920400D01*
X142805281Y-82920400D01*
X143054719Y-82920400D01*
X143054723Y-82920400D01*
X143302034Y-82887841D01*
X143542980Y-82823280D01*
X143773437Y-82727821D01*
X143989463Y-82603098D01*
X144187361Y-82451246D01*
X144363746Y-82274861D01*
X144515598Y-82076963D01*
X144640321Y-81860937D01*
X144735780Y-81630480D01*
X144800341Y-81389534D01*
X144832900Y-81142223D01*
X144832900Y-80892777D01*
X144832899Y-80892769D01*
X154167100Y-80892769D01*
X154167100Y-81142230D01*
X154199658Y-81389531D01*
X154199660Y-81389538D01*
X154264220Y-81630481D01*
X154359677Y-81860933D01*
X154359681Y-81860940D01*
X154484400Y-82076961D01*
X154636247Y-82274853D01*
X154636253Y-82274860D01*
X154812639Y-82451246D01*
X154812646Y-82451252D01*
X155010538Y-82603099D01*
X155092551Y-82650449D01*
X155226563Y-82727821D01*
X155457020Y-82823280D01*
X155697966Y-82887841D01*
X155903690Y-82914925D01*
X155917362Y-82916725D01*
X155945277Y-82920400D01*
X155945281Y-82920400D01*
X156194719Y-82920400D01*
X156194723Y-82920400D01*
X156442034Y-82887841D01*
X156682980Y-82823280D01*
X156913437Y-82727821D01*
X157129463Y-82603098D01*
X157327361Y-82451246D01*
X157503746Y-82274861D01*
X157655598Y-82076963D01*
X157780321Y-81860937D01*
X157842866Y-81709942D01*
X166057100Y-81709942D01*
X166057100Y-83440050D01*
X166057101Y-83440058D01*
X166065972Y-83484656D01*
X166065973Y-83484661D01*
X166099764Y-83535232D01*
X166099767Y-83535235D01*
X166108304Y-83540939D01*
X166150342Y-83569028D01*
X166194943Y-83577900D01*
X167925056Y-83577899D01*
X167969658Y-83569028D01*
X168020234Y-83535234D01*
X168054028Y-83484658D01*
X168062900Y-83440057D01*
X168062899Y-82476220D01*
X168597100Y-82476220D01*
X168597100Y-82673779D01*
X168635638Y-82867525D01*
X168635640Y-82867531D01*
X168635641Y-82867535D01*
X168657538Y-82920399D01*
X168711239Y-83050047D01*
X168711240Y-83050049D01*
X168820992Y-83214308D01*
X168960691Y-83354007D01*
X169033962Y-83402964D01*
X169124949Y-83463759D01*
X169307465Y-83539359D01*
X169307472Y-83539360D01*
X169307474Y-83539361D01*
X169357044Y-83549221D01*
X169501223Y-83577900D01*
X169501228Y-83577900D01*
X169698772Y-83577900D01*
X169698777Y-83577900D01*
X169892535Y-83539359D01*
X170075051Y-83463759D01*
X170239312Y-83354004D01*
X170252943Y-83340373D01*
X173122100Y-83340373D01*
X173122100Y-83459626D01*
X173123208Y-83463760D01*
X173152964Y-83574813D01*
X173169257Y-83603033D01*
X173203529Y-83662394D01*
X173212590Y-83678087D01*
X173296913Y-83762410D01*
X173400187Y-83822036D01*
X173515375Y-83852900D01*
X173634625Y-83852900D01*
X173749813Y-83822036D01*
X173853087Y-83762410D01*
X173937410Y-83678087D01*
X173997036Y-83574813D01*
X174027900Y-83459625D01*
X174027900Y-83340375D01*
X173997036Y-83225187D01*
X173937410Y-83121913D01*
X173853087Y-83037590D01*
X173853086Y-83037589D01*
X173789882Y-83001098D01*
X173749813Y-82977964D01*
X173685414Y-82960708D01*
X173634626Y-82947100D01*
X173634625Y-82947100D01*
X173515375Y-82947100D01*
X173515373Y-82947100D01*
X173413796Y-82974317D01*
X173400187Y-82977964D01*
X173400184Y-82977965D01*
X173400183Y-82977966D01*
X173296913Y-83037589D01*
X173212589Y-83121913D01*
X173152966Y-83225183D01*
X173152964Y-83225187D01*
X173152963Y-83225191D01*
X173122100Y-83340373D01*
X170252943Y-83340373D01*
X170379004Y-83214312D01*
X170488759Y-83050051D01*
X170564359Y-82867535D01*
X170602900Y-82673777D01*
X170602900Y-82476223D01*
X170564359Y-82282465D01*
X170488759Y-82099949D01*
X170444679Y-82033978D01*
X170379007Y-81935691D01*
X170239308Y-81795992D01*
X170078339Y-81688438D01*
X170075051Y-81686241D01*
X170075049Y-81686240D01*
X170075047Y-81686239D01*
X169940431Y-81630480D01*
X169892535Y-81610641D01*
X169892531Y-81610640D01*
X169892525Y-81610638D01*
X169698779Y-81572100D01*
X169698777Y-81572100D01*
X169501223Y-81572100D01*
X169501220Y-81572100D01*
X169307474Y-81610638D01*
X169307466Y-81610640D01*
X169307465Y-81610641D01*
X169307461Y-81610642D01*
X169307460Y-81610643D01*
X169124952Y-81686239D01*
X169124950Y-81686240D01*
X168960691Y-81795992D01*
X168960689Y-81795995D01*
X168820995Y-81935689D01*
X168820992Y-81935691D01*
X168711240Y-82099950D01*
X168711239Y-82099952D01*
X168635643Y-82282460D01*
X168635638Y-82282474D01*
X168597100Y-82476220D01*
X168062899Y-82476220D01*
X168062899Y-81709944D01*
X168054028Y-81665342D01*
X168054026Y-81665339D01*
X168054026Y-81665338D01*
X168020235Y-81614767D01*
X168020232Y-81614764D01*
X167969658Y-81580972D01*
X167925057Y-81572100D01*
X167925055Y-81572100D01*
X166194949Y-81572100D01*
X166194941Y-81572101D01*
X166161492Y-81578754D01*
X166150342Y-81580972D01*
X166150341Y-81580972D01*
X166150338Y-81580973D01*
X166099767Y-81614764D01*
X166099764Y-81614767D01*
X166065972Y-81665340D01*
X166065972Y-81665341D01*
X166057100Y-81709942D01*
X157842866Y-81709942D01*
X157875780Y-81630480D01*
X157940341Y-81389534D01*
X157952686Y-81295762D01*
X157953396Y-81290373D01*
X173122100Y-81290373D01*
X173122100Y-81290375D01*
X173122100Y-81409625D01*
X173152964Y-81524813D01*
X173152966Y-81524816D01*
X173204899Y-81614767D01*
X173212590Y-81628087D01*
X173296913Y-81712410D01*
X173400187Y-81772036D01*
X173515375Y-81802900D01*
X173634625Y-81802900D01*
X173749813Y-81772036D01*
X173853087Y-81712410D01*
X173937410Y-81628087D01*
X173997036Y-81524813D01*
X174027900Y-81409625D01*
X174027900Y-81290375D01*
X173997036Y-81175187D01*
X173937410Y-81071913D01*
X173853087Y-80987590D01*
X173853086Y-80987589D01*
X173749816Y-80927966D01*
X173749817Y-80927966D01*
X173749813Y-80927964D01*
X173685414Y-80910708D01*
X173634626Y-80897100D01*
X173634625Y-80897100D01*
X173515375Y-80897100D01*
X173515373Y-80897100D01*
X173413796Y-80924317D01*
X173400187Y-80927964D01*
X173400184Y-80927965D01*
X173400183Y-80927966D01*
X173296913Y-80987589D01*
X173212589Y-81071913D01*
X173152966Y-81175183D01*
X173152964Y-81175187D01*
X173152963Y-81175191D01*
X173122100Y-81290373D01*
X157953396Y-81290373D01*
X157954681Y-81280611D01*
X157972899Y-81142230D01*
X157972900Y-81142219D01*
X157972900Y-80892780D01*
X157972899Y-80892769D01*
X157940341Y-80645468D01*
X157940341Y-80645466D01*
X157875780Y-80404520D01*
X157780321Y-80174063D01*
X157655598Y-79958037D01*
X157503752Y-79760146D01*
X157503746Y-79760139D01*
X157327360Y-79583753D01*
X157327353Y-79583747D01*
X157129461Y-79431900D01*
X156913440Y-79307181D01*
X156913437Y-79307179D01*
X156913435Y-79307178D01*
X156913433Y-79307177D01*
X156682981Y-79211720D01*
X156442038Y-79147160D01*
X156442031Y-79147158D01*
X156194730Y-79114600D01*
X156194723Y-79114600D01*
X155945277Y-79114600D01*
X155945269Y-79114600D01*
X155697968Y-79147158D01*
X155697961Y-79147160D01*
X155457018Y-79211720D01*
X155226566Y-79307177D01*
X155226559Y-79307181D01*
X155010538Y-79431900D01*
X154812646Y-79583747D01*
X154812639Y-79583753D01*
X154636253Y-79760139D01*
X154636247Y-79760146D01*
X154484400Y-79958038D01*
X154359681Y-80174059D01*
X154359677Y-80174066D01*
X154264220Y-80404518D01*
X154199660Y-80645461D01*
X154199658Y-80645468D01*
X154167100Y-80892769D01*
X144832899Y-80892769D01*
X144800341Y-80645466D01*
X144735780Y-80404520D01*
X144640321Y-80174063D01*
X144515598Y-79958037D01*
X144363752Y-79760146D01*
X144363746Y-79760139D01*
X144187360Y-79583753D01*
X144187353Y-79583747D01*
X143989461Y-79431900D01*
X143773440Y-79307181D01*
X143773437Y-79307179D01*
X143773435Y-79307178D01*
X143773433Y-79307177D01*
X143542981Y-79211720D01*
X143302038Y-79147160D01*
X143302031Y-79147158D01*
X143054730Y-79114600D01*
X143054723Y-79114600D01*
X142805277Y-79114600D01*
X142805269Y-79114600D01*
X142557968Y-79147158D01*
X142557961Y-79147160D01*
X142317018Y-79211720D01*
X142086566Y-79307177D01*
X142086559Y-79307181D01*
X141870538Y-79431900D01*
X141672646Y-79583747D01*
X141672639Y-79583753D01*
X141496253Y-79760139D01*
X141496247Y-79760146D01*
X141344400Y-79958038D01*
X141219681Y-80174059D01*
X141219677Y-80174066D01*
X141124220Y-80404518D01*
X141059660Y-80645461D01*
X141059658Y-80645468D01*
X141027100Y-80892769D01*
X118817637Y-80892769D01*
X118853883Y-80856126D01*
X120544316Y-79147158D01*
X122316299Y-77355744D01*
X122351432Y-77340967D01*
X122351704Y-77340966D01*
X174806959Y-77340966D01*
X174842173Y-77355552D01*
G37*
%TD.AperFunction*%
%TD*%
M02*
