%TF.GenerationSoftware,KiCad,Pcbnew,9.0.0*%
%TF.CreationDate,2025-04-20T21:07:23+01:00*%
%TF.ProjectId,RISKYMSXCart,5249534b-594d-4535-9843-6172742e6b69,rev?*%
%TF.SameCoordinates,Original*%
%TF.FileFunction,Legend,Bot*%
%TF.FilePolarity,Positive*%
%FSLAX46Y46*%
G04 Gerber Fmt 4.6, Leading zero omitted, Abs format (unit mm)*
G04 Created by KiCad (PCBNEW 9.0.0) date 2025-04-20 21:07:23*
%MOMM*%
%LPD*%
G01*
G04 APERTURE LIST*
%ADD10C,0.203200*%
%ADD11C,0.150000*%
%ADD12C,0.093472*%
%ADD13C,0.101600*%
%ADD14C,0.120000*%
G04 APERTURE END LIST*
D10*
X168885259Y-123878334D02*
X168839790Y-123878334D01*
X169157981Y-124196525D02*
X169157981Y-124151084D01*
X130850050Y-124560175D02*
X130895518Y-124696525D01*
X129959150Y-124423803D02*
X130004609Y-124651084D01*
X117577259Y-123878334D02*
X117531809Y-123878334D01*
X117531809Y-123878334D02*
X117395440Y-123923803D01*
X130459140Y-124787434D02*
X130504609Y-124696525D01*
X131031890Y-124241994D02*
X130940959Y-124287434D01*
X130231868Y-124469275D02*
X130277331Y-124469275D01*
X130850050Y-124469275D02*
X130850050Y-124560175D01*
X168703440Y-123923803D02*
X168612509Y-124014716D01*
X130550050Y-124196525D02*
X130550050Y-124151084D01*
X131395518Y-124787434D02*
X131440959Y-124741994D01*
X130004609Y-124651084D02*
X130095518Y-124787434D01*
X117531809Y-124469275D02*
X117577259Y-124469275D01*
X117395440Y-124423803D02*
X117531809Y-124469275D01*
X117622718Y-124832894D02*
X117759090Y-124787434D01*
X117804531Y-124014716D02*
X117713631Y-123923803D01*
X169157981Y-124151084D02*
X169112509Y-124014716D01*
X117259100Y-124423803D02*
X117304540Y-124651084D01*
X169112509Y-124014716D02*
X169021600Y-123923803D01*
X117850000Y-124151084D02*
X117804531Y-124014716D01*
X118831809Y-124514716D02*
X118150000Y-124514716D01*
X130277331Y-124469275D02*
X130413700Y-124423803D01*
X169021600Y-124423803D02*
X169112509Y-124332894D01*
X168885259Y-124469275D02*
X169021600Y-124423803D01*
X168703440Y-124423803D02*
X168839790Y-124469275D01*
X130895518Y-123878334D02*
X131168240Y-124241994D01*
X117304540Y-124014716D02*
X117259100Y-124196525D01*
X131440959Y-124741994D02*
X131486418Y-124651084D01*
X169112509Y-124332894D02*
X169157981Y-124196525D01*
X168612509Y-124332894D02*
X168703440Y-124423803D01*
X130550050Y-124151084D02*
X130504609Y-124014716D01*
X130095518Y-124423803D02*
X130231868Y-124469275D01*
X168567068Y-124423803D02*
X168612509Y-124651084D01*
X117850000Y-124196525D02*
X117850000Y-124151084D01*
X130413700Y-124423803D02*
X130504609Y-124332894D01*
X131259140Y-124832894D02*
X131395518Y-124787434D01*
X118377281Y-123878334D02*
X118377281Y-124832894D01*
X168839790Y-124469275D02*
X168885259Y-124469275D01*
X117304540Y-124332894D02*
X117395440Y-124423803D01*
X117713631Y-123923803D02*
X117577259Y-123878334D01*
X130895518Y-124696525D02*
X130986418Y-124787434D01*
X130004609Y-124332894D02*
X130095518Y-124423803D01*
X117804531Y-124332894D02*
X117850000Y-124196525D01*
X118377281Y-123878334D02*
X118831809Y-124514716D01*
X130231868Y-123878334D02*
X130095518Y-123923803D01*
X117759090Y-124787434D02*
X117804531Y-124696525D01*
X168930700Y-124832894D02*
X169067068Y-124787434D01*
X130504609Y-124332894D02*
X130550050Y-124196525D01*
X117304540Y-124651084D02*
X117395440Y-124787434D01*
X130277331Y-123878334D02*
X130231868Y-123878334D01*
X131122800Y-124832894D02*
X131259140Y-124832894D01*
X130095518Y-124787434D02*
X130231868Y-124832894D01*
X117577259Y-124469275D02*
X117713631Y-124423803D01*
X130413700Y-123923803D02*
X130277331Y-123878334D01*
X168567068Y-124196525D02*
X168612509Y-124332894D01*
X129959150Y-124196525D02*
X130004609Y-124332894D01*
X130940959Y-124287434D02*
X130895518Y-124332894D01*
X130095518Y-123923803D02*
X130004609Y-124014716D01*
X130004609Y-124014716D02*
X129959150Y-124196525D01*
X169067068Y-124787434D02*
X169112509Y-124696525D01*
X130895518Y-124332894D02*
X130850050Y-124469275D01*
X168825000Y-124832894D02*
X168915910Y-124832894D01*
X168567068Y-124196525D02*
X168567068Y-124423803D01*
X117259100Y-124196525D02*
X117304540Y-124332894D01*
X168612509Y-124014716D02*
X168567068Y-124196525D01*
X117395440Y-124787434D02*
X117531809Y-124832894D01*
X168839790Y-123878334D02*
X168703440Y-123923803D01*
X131395518Y-123878334D02*
X130895518Y-123878334D01*
X117531809Y-124832894D02*
X117622718Y-124832894D01*
X129959150Y-124196525D02*
X129959150Y-124423803D01*
X117395440Y-123923803D02*
X117304540Y-124014716D01*
X130322800Y-124832894D02*
X130459140Y-124787434D01*
X168703440Y-124787434D02*
X168839790Y-124832894D01*
X117713631Y-124423803D02*
X117804531Y-124332894D01*
X131168240Y-124241994D02*
X131031890Y-124241994D01*
X169021600Y-123923803D02*
X168885259Y-123878334D01*
X130231868Y-124832894D02*
X130322800Y-124832894D01*
X130986418Y-124787434D02*
X131122800Y-124832894D01*
X130504609Y-124014716D02*
X130413700Y-123923803D01*
X117259100Y-124196525D02*
X117259100Y-124423803D01*
D11*
X126241666Y-118829819D02*
X126574999Y-118353628D01*
X126813094Y-118829819D02*
X126813094Y-117829819D01*
X126813094Y-117829819D02*
X126432142Y-117829819D01*
X126432142Y-117829819D02*
X126336904Y-117877438D01*
X126336904Y-117877438D02*
X126289285Y-117925057D01*
X126289285Y-117925057D02*
X126241666Y-118020295D01*
X126241666Y-118020295D02*
X126241666Y-118163152D01*
X126241666Y-118163152D02*
X126289285Y-118258390D01*
X126289285Y-118258390D02*
X126336904Y-118306009D01*
X126336904Y-118306009D02*
X126432142Y-118353628D01*
X126432142Y-118353628D02*
X126813094Y-118353628D01*
X125860713Y-117925057D02*
X125813094Y-117877438D01*
X125813094Y-117877438D02*
X125717856Y-117829819D01*
X125717856Y-117829819D02*
X125479761Y-117829819D01*
X125479761Y-117829819D02*
X125384523Y-117877438D01*
X125384523Y-117877438D02*
X125336904Y-117925057D01*
X125336904Y-117925057D02*
X125289285Y-118020295D01*
X125289285Y-118020295D02*
X125289285Y-118115533D01*
X125289285Y-118115533D02*
X125336904Y-118258390D01*
X125336904Y-118258390D02*
X125908332Y-118829819D01*
X125908332Y-118829819D02*
X125289285Y-118829819D01*
X131167319Y-85558333D02*
X130691128Y-85225000D01*
X131167319Y-84986905D02*
X130167319Y-84986905D01*
X130167319Y-84986905D02*
X130167319Y-85367857D01*
X130167319Y-85367857D02*
X130214938Y-85463095D01*
X130214938Y-85463095D02*
X130262557Y-85510714D01*
X130262557Y-85510714D02*
X130357795Y-85558333D01*
X130357795Y-85558333D02*
X130500652Y-85558333D01*
X130500652Y-85558333D02*
X130595890Y-85510714D01*
X130595890Y-85510714D02*
X130643509Y-85463095D01*
X130643509Y-85463095D02*
X130691128Y-85367857D01*
X130691128Y-85367857D02*
X130691128Y-84986905D01*
X130167319Y-86463095D02*
X130167319Y-85986905D01*
X130167319Y-85986905D02*
X130643509Y-85939286D01*
X130643509Y-85939286D02*
X130595890Y-85986905D01*
X130595890Y-85986905D02*
X130548271Y-86082143D01*
X130548271Y-86082143D02*
X130548271Y-86320238D01*
X130548271Y-86320238D02*
X130595890Y-86415476D01*
X130595890Y-86415476D02*
X130643509Y-86463095D01*
X130643509Y-86463095D02*
X130738747Y-86510714D01*
X130738747Y-86510714D02*
X130976842Y-86510714D01*
X130976842Y-86510714D02*
X131072080Y-86463095D01*
X131072080Y-86463095D02*
X131119700Y-86415476D01*
X131119700Y-86415476D02*
X131167319Y-86320238D01*
X131167319Y-86320238D02*
X131167319Y-86082143D01*
X131167319Y-86082143D02*
X131119700Y-85986905D01*
X131119700Y-85986905D02*
X131072080Y-85939286D01*
X126392857Y-120384580D02*
X126440476Y-120432200D01*
X126440476Y-120432200D02*
X126583333Y-120479819D01*
X126583333Y-120479819D02*
X126678571Y-120479819D01*
X126678571Y-120479819D02*
X126821428Y-120432200D01*
X126821428Y-120432200D02*
X126916666Y-120336961D01*
X126916666Y-120336961D02*
X126964285Y-120241723D01*
X126964285Y-120241723D02*
X127011904Y-120051247D01*
X127011904Y-120051247D02*
X127011904Y-119908390D01*
X127011904Y-119908390D02*
X126964285Y-119717914D01*
X126964285Y-119717914D02*
X126916666Y-119622676D01*
X126916666Y-119622676D02*
X126821428Y-119527438D01*
X126821428Y-119527438D02*
X126678571Y-119479819D01*
X126678571Y-119479819D02*
X126583333Y-119479819D01*
X126583333Y-119479819D02*
X126440476Y-119527438D01*
X126440476Y-119527438D02*
X126392857Y-119575057D01*
X125440476Y-120479819D02*
X126011904Y-120479819D01*
X125726190Y-120479819D02*
X125726190Y-119479819D01*
X125726190Y-119479819D02*
X125821428Y-119622676D01*
X125821428Y-119622676D02*
X125916666Y-119717914D01*
X125916666Y-119717914D02*
X126011904Y-119765533D01*
X125107142Y-119479819D02*
X124440476Y-119479819D01*
X124440476Y-119479819D02*
X124869047Y-120479819D01*
X151316666Y-103809580D02*
X151364285Y-103857200D01*
X151364285Y-103857200D02*
X151507142Y-103904819D01*
X151507142Y-103904819D02*
X151602380Y-103904819D01*
X151602380Y-103904819D02*
X151745237Y-103857200D01*
X151745237Y-103857200D02*
X151840475Y-103761961D01*
X151840475Y-103761961D02*
X151888094Y-103666723D01*
X151888094Y-103666723D02*
X151935713Y-103476247D01*
X151935713Y-103476247D02*
X151935713Y-103333390D01*
X151935713Y-103333390D02*
X151888094Y-103142914D01*
X151888094Y-103142914D02*
X151840475Y-103047676D01*
X151840475Y-103047676D02*
X151745237Y-102952438D01*
X151745237Y-102952438D02*
X151602380Y-102904819D01*
X151602380Y-102904819D02*
X151507142Y-102904819D01*
X151507142Y-102904819D02*
X151364285Y-102952438D01*
X151364285Y-102952438D02*
X151316666Y-103000057D01*
X150745237Y-103333390D02*
X150840475Y-103285771D01*
X150840475Y-103285771D02*
X150888094Y-103238152D01*
X150888094Y-103238152D02*
X150935713Y-103142914D01*
X150935713Y-103142914D02*
X150935713Y-103095295D01*
X150935713Y-103095295D02*
X150888094Y-103000057D01*
X150888094Y-103000057D02*
X150840475Y-102952438D01*
X150840475Y-102952438D02*
X150745237Y-102904819D01*
X150745237Y-102904819D02*
X150554761Y-102904819D01*
X150554761Y-102904819D02*
X150459523Y-102952438D01*
X150459523Y-102952438D02*
X150411904Y-103000057D01*
X150411904Y-103000057D02*
X150364285Y-103095295D01*
X150364285Y-103095295D02*
X150364285Y-103142914D01*
X150364285Y-103142914D02*
X150411904Y-103238152D01*
X150411904Y-103238152D02*
X150459523Y-103285771D01*
X150459523Y-103285771D02*
X150554761Y-103333390D01*
X150554761Y-103333390D02*
X150745237Y-103333390D01*
X150745237Y-103333390D02*
X150840475Y-103381009D01*
X150840475Y-103381009D02*
X150888094Y-103428628D01*
X150888094Y-103428628D02*
X150935713Y-103523866D01*
X150935713Y-103523866D02*
X150935713Y-103714342D01*
X150935713Y-103714342D02*
X150888094Y-103809580D01*
X150888094Y-103809580D02*
X150840475Y-103857200D01*
X150840475Y-103857200D02*
X150745237Y-103904819D01*
X150745237Y-103904819D02*
X150554761Y-103904819D01*
X150554761Y-103904819D02*
X150459523Y-103857200D01*
X150459523Y-103857200D02*
X150411904Y-103809580D01*
X150411904Y-103809580D02*
X150364285Y-103714342D01*
X150364285Y-103714342D02*
X150364285Y-103523866D01*
X150364285Y-103523866D02*
X150411904Y-103428628D01*
X150411904Y-103428628D02*
X150459523Y-103381009D01*
X150459523Y-103381009D02*
X150554761Y-103333390D01*
D12*
X173339043Y-111235714D02*
X173377139Y-111197618D01*
X173377139Y-111197618D02*
X173415234Y-111083333D01*
X173415234Y-111083333D02*
X173415234Y-111007142D01*
X173415234Y-111007142D02*
X173377139Y-110892856D01*
X173377139Y-110892856D02*
X173300948Y-110816666D01*
X173300948Y-110816666D02*
X173224758Y-110778571D01*
X173224758Y-110778571D02*
X173072377Y-110740475D01*
X173072377Y-110740475D02*
X172958091Y-110740475D01*
X172958091Y-110740475D02*
X172805710Y-110778571D01*
X172805710Y-110778571D02*
X172729519Y-110816666D01*
X172729519Y-110816666D02*
X172653329Y-110892856D01*
X172653329Y-110892856D02*
X172615234Y-111007142D01*
X172615234Y-111007142D02*
X172615234Y-111083333D01*
X172615234Y-111083333D02*
X172653329Y-111197618D01*
X172653329Y-111197618D02*
X172691424Y-111235714D01*
X173415234Y-111997618D02*
X173415234Y-111540475D01*
X173415234Y-111769047D02*
X172615234Y-111769047D01*
X172615234Y-111769047D02*
X172729519Y-111692856D01*
X172729519Y-111692856D02*
X172805710Y-111616666D01*
X172805710Y-111616666D02*
X172843805Y-111540475D01*
X172615234Y-112264285D02*
X172615234Y-112759523D01*
X172615234Y-112759523D02*
X172919996Y-112492857D01*
X172919996Y-112492857D02*
X172919996Y-112607142D01*
X172919996Y-112607142D02*
X172958091Y-112683333D01*
X172958091Y-112683333D02*
X172996186Y-112721428D01*
X172996186Y-112721428D02*
X173072377Y-112759523D01*
X173072377Y-112759523D02*
X173262853Y-112759523D01*
X173262853Y-112759523D02*
X173339043Y-112721428D01*
X173339043Y-112721428D02*
X173377139Y-112683333D01*
X173377139Y-112683333D02*
X173415234Y-112607142D01*
X173415234Y-112607142D02*
X173415234Y-112378571D01*
X173415234Y-112378571D02*
X173377139Y-112302380D01*
X173377139Y-112302380D02*
X173339043Y-112264285D01*
D11*
X136417857Y-118259580D02*
X136465476Y-118307200D01*
X136465476Y-118307200D02*
X136608333Y-118354819D01*
X136608333Y-118354819D02*
X136703571Y-118354819D01*
X136703571Y-118354819D02*
X136846428Y-118307200D01*
X136846428Y-118307200D02*
X136941666Y-118211961D01*
X136941666Y-118211961D02*
X136989285Y-118116723D01*
X136989285Y-118116723D02*
X137036904Y-117926247D01*
X137036904Y-117926247D02*
X137036904Y-117783390D01*
X137036904Y-117783390D02*
X136989285Y-117592914D01*
X136989285Y-117592914D02*
X136941666Y-117497676D01*
X136941666Y-117497676D02*
X136846428Y-117402438D01*
X136846428Y-117402438D02*
X136703571Y-117354819D01*
X136703571Y-117354819D02*
X136608333Y-117354819D01*
X136608333Y-117354819D02*
X136465476Y-117402438D01*
X136465476Y-117402438D02*
X136417857Y-117450057D01*
X135465476Y-118354819D02*
X136036904Y-118354819D01*
X135751190Y-118354819D02*
X135751190Y-117354819D01*
X135751190Y-117354819D02*
X135846428Y-117497676D01*
X135846428Y-117497676D02*
X135941666Y-117592914D01*
X135941666Y-117592914D02*
X136036904Y-117640533D01*
X134894047Y-117783390D02*
X134989285Y-117735771D01*
X134989285Y-117735771D02*
X135036904Y-117688152D01*
X135036904Y-117688152D02*
X135084523Y-117592914D01*
X135084523Y-117592914D02*
X135084523Y-117545295D01*
X135084523Y-117545295D02*
X135036904Y-117450057D01*
X135036904Y-117450057D02*
X134989285Y-117402438D01*
X134989285Y-117402438D02*
X134894047Y-117354819D01*
X134894047Y-117354819D02*
X134703571Y-117354819D01*
X134703571Y-117354819D02*
X134608333Y-117402438D01*
X134608333Y-117402438D02*
X134560714Y-117450057D01*
X134560714Y-117450057D02*
X134513095Y-117545295D01*
X134513095Y-117545295D02*
X134513095Y-117592914D01*
X134513095Y-117592914D02*
X134560714Y-117688152D01*
X134560714Y-117688152D02*
X134608333Y-117735771D01*
X134608333Y-117735771D02*
X134703571Y-117783390D01*
X134703571Y-117783390D02*
X134894047Y-117783390D01*
X134894047Y-117783390D02*
X134989285Y-117831009D01*
X134989285Y-117831009D02*
X135036904Y-117878628D01*
X135036904Y-117878628D02*
X135084523Y-117973866D01*
X135084523Y-117973866D02*
X135084523Y-118164342D01*
X135084523Y-118164342D02*
X135036904Y-118259580D01*
X135036904Y-118259580D02*
X134989285Y-118307200D01*
X134989285Y-118307200D02*
X134894047Y-118354819D01*
X134894047Y-118354819D02*
X134703571Y-118354819D01*
X134703571Y-118354819D02*
X134608333Y-118307200D01*
X134608333Y-118307200D02*
X134560714Y-118259580D01*
X134560714Y-118259580D02*
X134513095Y-118164342D01*
X134513095Y-118164342D02*
X134513095Y-117973866D01*
X134513095Y-117973866D02*
X134560714Y-117878628D01*
X134560714Y-117878628D02*
X134608333Y-117831009D01*
X134608333Y-117831009D02*
X134703571Y-117783390D01*
X149059580Y-104757142D02*
X149107200Y-104709523D01*
X149107200Y-104709523D02*
X149154819Y-104566666D01*
X149154819Y-104566666D02*
X149154819Y-104471428D01*
X149154819Y-104471428D02*
X149107200Y-104328571D01*
X149107200Y-104328571D02*
X149011961Y-104233333D01*
X149011961Y-104233333D02*
X148916723Y-104185714D01*
X148916723Y-104185714D02*
X148726247Y-104138095D01*
X148726247Y-104138095D02*
X148583390Y-104138095D01*
X148583390Y-104138095D02*
X148392914Y-104185714D01*
X148392914Y-104185714D02*
X148297676Y-104233333D01*
X148297676Y-104233333D02*
X148202438Y-104328571D01*
X148202438Y-104328571D02*
X148154819Y-104471428D01*
X148154819Y-104471428D02*
X148154819Y-104566666D01*
X148154819Y-104566666D02*
X148202438Y-104709523D01*
X148202438Y-104709523D02*
X148250057Y-104757142D01*
X149154819Y-105709523D02*
X149154819Y-105138095D01*
X149154819Y-105423809D02*
X148154819Y-105423809D01*
X148154819Y-105423809D02*
X148297676Y-105328571D01*
X148297676Y-105328571D02*
X148392914Y-105233333D01*
X148392914Y-105233333D02*
X148440533Y-105138095D01*
X149154819Y-106661904D02*
X149154819Y-106090476D01*
X149154819Y-106376190D02*
X148154819Y-106376190D01*
X148154819Y-106376190D02*
X148297676Y-106280952D01*
X148297676Y-106280952D02*
X148392914Y-106185714D01*
X148392914Y-106185714D02*
X148440533Y-106090476D01*
X153166666Y-103759580D02*
X153214285Y-103807200D01*
X153214285Y-103807200D02*
X153357142Y-103854819D01*
X153357142Y-103854819D02*
X153452380Y-103854819D01*
X153452380Y-103854819D02*
X153595237Y-103807200D01*
X153595237Y-103807200D02*
X153690475Y-103711961D01*
X153690475Y-103711961D02*
X153738094Y-103616723D01*
X153738094Y-103616723D02*
X153785713Y-103426247D01*
X153785713Y-103426247D02*
X153785713Y-103283390D01*
X153785713Y-103283390D02*
X153738094Y-103092914D01*
X153738094Y-103092914D02*
X153690475Y-102997676D01*
X153690475Y-102997676D02*
X153595237Y-102902438D01*
X153595237Y-102902438D02*
X153452380Y-102854819D01*
X153452380Y-102854819D02*
X153357142Y-102854819D01*
X153357142Y-102854819D02*
X153214285Y-102902438D01*
X153214285Y-102902438D02*
X153166666Y-102950057D01*
X152309523Y-102854819D02*
X152499999Y-102854819D01*
X152499999Y-102854819D02*
X152595237Y-102902438D01*
X152595237Y-102902438D02*
X152642856Y-102950057D01*
X152642856Y-102950057D02*
X152738094Y-103092914D01*
X152738094Y-103092914D02*
X152785713Y-103283390D01*
X152785713Y-103283390D02*
X152785713Y-103664342D01*
X152785713Y-103664342D02*
X152738094Y-103759580D01*
X152738094Y-103759580D02*
X152690475Y-103807200D01*
X152690475Y-103807200D02*
X152595237Y-103854819D01*
X152595237Y-103854819D02*
X152404761Y-103854819D01*
X152404761Y-103854819D02*
X152309523Y-103807200D01*
X152309523Y-103807200D02*
X152261904Y-103759580D01*
X152261904Y-103759580D02*
X152214285Y-103664342D01*
X152214285Y-103664342D02*
X152214285Y-103426247D01*
X152214285Y-103426247D02*
X152261904Y-103331009D01*
X152261904Y-103331009D02*
X152309523Y-103283390D01*
X152309523Y-103283390D02*
X152404761Y-103235771D01*
X152404761Y-103235771D02*
X152595237Y-103235771D01*
X152595237Y-103235771D02*
X152690475Y-103283390D01*
X152690475Y-103283390D02*
X152738094Y-103331009D01*
X152738094Y-103331009D02*
X152785713Y-103426247D01*
D12*
X182989043Y-104316667D02*
X183027139Y-104278571D01*
X183027139Y-104278571D02*
X183065234Y-104164286D01*
X183065234Y-104164286D02*
X183065234Y-104088095D01*
X183065234Y-104088095D02*
X183027139Y-103973809D01*
X183027139Y-103973809D02*
X182950948Y-103897619D01*
X182950948Y-103897619D02*
X182874758Y-103859524D01*
X182874758Y-103859524D02*
X182722377Y-103821428D01*
X182722377Y-103821428D02*
X182608091Y-103821428D01*
X182608091Y-103821428D02*
X182455710Y-103859524D01*
X182455710Y-103859524D02*
X182379519Y-103897619D01*
X182379519Y-103897619D02*
X182303329Y-103973809D01*
X182303329Y-103973809D02*
X182265234Y-104088095D01*
X182265234Y-104088095D02*
X182265234Y-104164286D01*
X182265234Y-104164286D02*
X182303329Y-104278571D01*
X182303329Y-104278571D02*
X182341424Y-104316667D01*
X183065234Y-105078571D02*
X183065234Y-104621428D01*
X183065234Y-104850000D02*
X182265234Y-104850000D01*
X182265234Y-104850000D02*
X182379519Y-104773809D01*
X182379519Y-104773809D02*
X182455710Y-104697619D01*
X182455710Y-104697619D02*
X182493805Y-104621428D01*
D11*
X156554166Y-94664580D02*
X156601785Y-94712200D01*
X156601785Y-94712200D02*
X156744642Y-94759819D01*
X156744642Y-94759819D02*
X156839880Y-94759819D01*
X156839880Y-94759819D02*
X156982737Y-94712200D01*
X156982737Y-94712200D02*
X157077975Y-94616961D01*
X157077975Y-94616961D02*
X157125594Y-94521723D01*
X157125594Y-94521723D02*
X157173213Y-94331247D01*
X157173213Y-94331247D02*
X157173213Y-94188390D01*
X157173213Y-94188390D02*
X157125594Y-93997914D01*
X157125594Y-93997914D02*
X157077975Y-93902676D01*
X157077975Y-93902676D02*
X156982737Y-93807438D01*
X156982737Y-93807438D02*
X156839880Y-93759819D01*
X156839880Y-93759819D02*
X156744642Y-93759819D01*
X156744642Y-93759819D02*
X156601785Y-93807438D01*
X156601785Y-93807438D02*
X156554166Y-93855057D01*
X155697023Y-94093152D02*
X155697023Y-94759819D01*
X155935118Y-93712200D02*
X156173213Y-94426485D01*
X156173213Y-94426485D02*
X155554166Y-94426485D01*
X146834580Y-100833333D02*
X146882200Y-100785714D01*
X146882200Y-100785714D02*
X146929819Y-100642857D01*
X146929819Y-100642857D02*
X146929819Y-100547619D01*
X146929819Y-100547619D02*
X146882200Y-100404762D01*
X146882200Y-100404762D02*
X146786961Y-100309524D01*
X146786961Y-100309524D02*
X146691723Y-100261905D01*
X146691723Y-100261905D02*
X146501247Y-100214286D01*
X146501247Y-100214286D02*
X146358390Y-100214286D01*
X146358390Y-100214286D02*
X146167914Y-100261905D01*
X146167914Y-100261905D02*
X146072676Y-100309524D01*
X146072676Y-100309524D02*
X145977438Y-100404762D01*
X145977438Y-100404762D02*
X145929819Y-100547619D01*
X145929819Y-100547619D02*
X145929819Y-100642857D01*
X145929819Y-100642857D02*
X145977438Y-100785714D01*
X145977438Y-100785714D02*
X146025057Y-100833333D01*
X146929819Y-101309524D02*
X146929819Y-101500000D01*
X146929819Y-101500000D02*
X146882200Y-101595238D01*
X146882200Y-101595238D02*
X146834580Y-101642857D01*
X146834580Y-101642857D02*
X146691723Y-101738095D01*
X146691723Y-101738095D02*
X146501247Y-101785714D01*
X146501247Y-101785714D02*
X146120295Y-101785714D01*
X146120295Y-101785714D02*
X146025057Y-101738095D01*
X146025057Y-101738095D02*
X145977438Y-101690476D01*
X145977438Y-101690476D02*
X145929819Y-101595238D01*
X145929819Y-101595238D02*
X145929819Y-101404762D01*
X145929819Y-101404762D02*
X145977438Y-101309524D01*
X145977438Y-101309524D02*
X146025057Y-101261905D01*
X146025057Y-101261905D02*
X146120295Y-101214286D01*
X146120295Y-101214286D02*
X146358390Y-101214286D01*
X146358390Y-101214286D02*
X146453628Y-101261905D01*
X146453628Y-101261905D02*
X146501247Y-101309524D01*
X146501247Y-101309524D02*
X146548866Y-101404762D01*
X146548866Y-101404762D02*
X146548866Y-101595238D01*
X146548866Y-101595238D02*
X146501247Y-101690476D01*
X146501247Y-101690476D02*
X146453628Y-101738095D01*
X146453628Y-101738095D02*
X146358390Y-101785714D01*
X176329166Y-96609580D02*
X176376785Y-96657200D01*
X176376785Y-96657200D02*
X176519642Y-96704819D01*
X176519642Y-96704819D02*
X176614880Y-96704819D01*
X176614880Y-96704819D02*
X176757737Y-96657200D01*
X176757737Y-96657200D02*
X176852975Y-96561961D01*
X176852975Y-96561961D02*
X176900594Y-96466723D01*
X176900594Y-96466723D02*
X176948213Y-96276247D01*
X176948213Y-96276247D02*
X176948213Y-96133390D01*
X176948213Y-96133390D02*
X176900594Y-95942914D01*
X176900594Y-95942914D02*
X176852975Y-95847676D01*
X176852975Y-95847676D02*
X176757737Y-95752438D01*
X176757737Y-95752438D02*
X176614880Y-95704819D01*
X176614880Y-95704819D02*
X176519642Y-95704819D01*
X176519642Y-95704819D02*
X176376785Y-95752438D01*
X176376785Y-95752438D02*
X176329166Y-95800057D01*
X175995832Y-95704819D02*
X175329166Y-95704819D01*
X175329166Y-95704819D02*
X175757737Y-96704819D01*
X136417857Y-115334580D02*
X136465476Y-115382200D01*
X136465476Y-115382200D02*
X136608333Y-115429819D01*
X136608333Y-115429819D02*
X136703571Y-115429819D01*
X136703571Y-115429819D02*
X136846428Y-115382200D01*
X136846428Y-115382200D02*
X136941666Y-115286961D01*
X136941666Y-115286961D02*
X136989285Y-115191723D01*
X136989285Y-115191723D02*
X137036904Y-115001247D01*
X137036904Y-115001247D02*
X137036904Y-114858390D01*
X137036904Y-114858390D02*
X136989285Y-114667914D01*
X136989285Y-114667914D02*
X136941666Y-114572676D01*
X136941666Y-114572676D02*
X136846428Y-114477438D01*
X136846428Y-114477438D02*
X136703571Y-114429819D01*
X136703571Y-114429819D02*
X136608333Y-114429819D01*
X136608333Y-114429819D02*
X136465476Y-114477438D01*
X136465476Y-114477438D02*
X136417857Y-114525057D01*
X136036904Y-114525057D02*
X135989285Y-114477438D01*
X135989285Y-114477438D02*
X135894047Y-114429819D01*
X135894047Y-114429819D02*
X135655952Y-114429819D01*
X135655952Y-114429819D02*
X135560714Y-114477438D01*
X135560714Y-114477438D02*
X135513095Y-114525057D01*
X135513095Y-114525057D02*
X135465476Y-114620295D01*
X135465476Y-114620295D02*
X135465476Y-114715533D01*
X135465476Y-114715533D02*
X135513095Y-114858390D01*
X135513095Y-114858390D02*
X136084523Y-115429819D01*
X136084523Y-115429819D02*
X135465476Y-115429819D01*
X134846428Y-114429819D02*
X134751190Y-114429819D01*
X134751190Y-114429819D02*
X134655952Y-114477438D01*
X134655952Y-114477438D02*
X134608333Y-114525057D01*
X134608333Y-114525057D02*
X134560714Y-114620295D01*
X134560714Y-114620295D02*
X134513095Y-114810771D01*
X134513095Y-114810771D02*
X134513095Y-115048866D01*
X134513095Y-115048866D02*
X134560714Y-115239342D01*
X134560714Y-115239342D02*
X134608333Y-115334580D01*
X134608333Y-115334580D02*
X134655952Y-115382200D01*
X134655952Y-115382200D02*
X134751190Y-115429819D01*
X134751190Y-115429819D02*
X134846428Y-115429819D01*
X134846428Y-115429819D02*
X134941666Y-115382200D01*
X134941666Y-115382200D02*
X134989285Y-115334580D01*
X134989285Y-115334580D02*
X135036904Y-115239342D01*
X135036904Y-115239342D02*
X135084523Y-115048866D01*
X135084523Y-115048866D02*
X135084523Y-114810771D01*
X135084523Y-114810771D02*
X135036904Y-114620295D01*
X135036904Y-114620295D02*
X134989285Y-114525057D01*
X134989285Y-114525057D02*
X134941666Y-114477438D01*
X134941666Y-114477438D02*
X134846428Y-114429819D01*
X123639166Y-98584819D02*
X123972499Y-98108628D01*
X124210594Y-98584819D02*
X124210594Y-97584819D01*
X124210594Y-97584819D02*
X123829642Y-97584819D01*
X123829642Y-97584819D02*
X123734404Y-97632438D01*
X123734404Y-97632438D02*
X123686785Y-97680057D01*
X123686785Y-97680057D02*
X123639166Y-97775295D01*
X123639166Y-97775295D02*
X123639166Y-97918152D01*
X123639166Y-97918152D02*
X123686785Y-98013390D01*
X123686785Y-98013390D02*
X123734404Y-98061009D01*
X123734404Y-98061009D02*
X123829642Y-98108628D01*
X123829642Y-98108628D02*
X124210594Y-98108628D01*
X122686785Y-98584819D02*
X123258213Y-98584819D01*
X122972499Y-98584819D02*
X122972499Y-97584819D01*
X122972499Y-97584819D02*
X123067737Y-97727676D01*
X123067737Y-97727676D02*
X123162975Y-97822914D01*
X123162975Y-97822914D02*
X123258213Y-97870533D01*
X142279166Y-97039580D02*
X142326785Y-97087200D01*
X142326785Y-97087200D02*
X142469642Y-97134819D01*
X142469642Y-97134819D02*
X142564880Y-97134819D01*
X142564880Y-97134819D02*
X142707737Y-97087200D01*
X142707737Y-97087200D02*
X142802975Y-96991961D01*
X142802975Y-96991961D02*
X142850594Y-96896723D01*
X142850594Y-96896723D02*
X142898213Y-96706247D01*
X142898213Y-96706247D02*
X142898213Y-96563390D01*
X142898213Y-96563390D02*
X142850594Y-96372914D01*
X142850594Y-96372914D02*
X142802975Y-96277676D01*
X142802975Y-96277676D02*
X142707737Y-96182438D01*
X142707737Y-96182438D02*
X142564880Y-96134819D01*
X142564880Y-96134819D02*
X142469642Y-96134819D01*
X142469642Y-96134819D02*
X142326785Y-96182438D01*
X142326785Y-96182438D02*
X142279166Y-96230057D01*
X141898213Y-96230057D02*
X141850594Y-96182438D01*
X141850594Y-96182438D02*
X141755356Y-96134819D01*
X141755356Y-96134819D02*
X141517261Y-96134819D01*
X141517261Y-96134819D02*
X141422023Y-96182438D01*
X141422023Y-96182438D02*
X141374404Y-96230057D01*
X141374404Y-96230057D02*
X141326785Y-96325295D01*
X141326785Y-96325295D02*
X141326785Y-96420533D01*
X141326785Y-96420533D02*
X141374404Y-96563390D01*
X141374404Y-96563390D02*
X141945832Y-97134819D01*
X141945832Y-97134819D02*
X141326785Y-97134819D01*
D12*
X179190234Y-83741667D02*
X178809281Y-83475000D01*
X179190234Y-83284524D02*
X178390234Y-83284524D01*
X178390234Y-83284524D02*
X178390234Y-83589286D01*
X178390234Y-83589286D02*
X178428329Y-83665476D01*
X178428329Y-83665476D02*
X178466424Y-83703571D01*
X178466424Y-83703571D02*
X178542615Y-83741667D01*
X178542615Y-83741667D02*
X178656900Y-83741667D01*
X178656900Y-83741667D02*
X178733091Y-83703571D01*
X178733091Y-83703571D02*
X178771186Y-83665476D01*
X178771186Y-83665476D02*
X178809281Y-83589286D01*
X178809281Y-83589286D02*
X178809281Y-83284524D01*
X178390234Y-84008333D02*
X178390234Y-84503571D01*
X178390234Y-84503571D02*
X178694996Y-84236905D01*
X178694996Y-84236905D02*
X178694996Y-84351190D01*
X178694996Y-84351190D02*
X178733091Y-84427381D01*
X178733091Y-84427381D02*
X178771186Y-84465476D01*
X178771186Y-84465476D02*
X178847377Y-84503571D01*
X178847377Y-84503571D02*
X179037853Y-84503571D01*
X179037853Y-84503571D02*
X179114043Y-84465476D01*
X179114043Y-84465476D02*
X179152139Y-84427381D01*
X179152139Y-84427381D02*
X179190234Y-84351190D01*
X179190234Y-84351190D02*
X179190234Y-84122619D01*
X179190234Y-84122619D02*
X179152139Y-84046428D01*
X179152139Y-84046428D02*
X179114043Y-84008333D01*
D11*
X131392857Y-112449819D02*
X131726190Y-111973628D01*
X131964285Y-112449819D02*
X131964285Y-111449819D01*
X131964285Y-111449819D02*
X131583333Y-111449819D01*
X131583333Y-111449819D02*
X131488095Y-111497438D01*
X131488095Y-111497438D02*
X131440476Y-111545057D01*
X131440476Y-111545057D02*
X131392857Y-111640295D01*
X131392857Y-111640295D02*
X131392857Y-111783152D01*
X131392857Y-111783152D02*
X131440476Y-111878390D01*
X131440476Y-111878390D02*
X131488095Y-111926009D01*
X131488095Y-111926009D02*
X131583333Y-111973628D01*
X131583333Y-111973628D02*
X131964285Y-111973628D01*
X130440476Y-112449819D02*
X131011904Y-112449819D01*
X130726190Y-112449819D02*
X130726190Y-111449819D01*
X130726190Y-111449819D02*
X130821428Y-111592676D01*
X130821428Y-111592676D02*
X130916666Y-111687914D01*
X130916666Y-111687914D02*
X131011904Y-111735533D01*
X129821428Y-111449819D02*
X129726190Y-111449819D01*
X129726190Y-111449819D02*
X129630952Y-111497438D01*
X129630952Y-111497438D02*
X129583333Y-111545057D01*
X129583333Y-111545057D02*
X129535714Y-111640295D01*
X129535714Y-111640295D02*
X129488095Y-111830771D01*
X129488095Y-111830771D02*
X129488095Y-112068866D01*
X129488095Y-112068866D02*
X129535714Y-112259342D01*
X129535714Y-112259342D02*
X129583333Y-112354580D01*
X129583333Y-112354580D02*
X129630952Y-112402200D01*
X129630952Y-112402200D02*
X129726190Y-112449819D01*
X129726190Y-112449819D02*
X129821428Y-112449819D01*
X129821428Y-112449819D02*
X129916666Y-112402200D01*
X129916666Y-112402200D02*
X129964285Y-112354580D01*
X129964285Y-112354580D02*
X130011904Y-112259342D01*
X130011904Y-112259342D02*
X130059523Y-112068866D01*
X130059523Y-112068866D02*
X130059523Y-111830771D01*
X130059523Y-111830771D02*
X130011904Y-111640295D01*
X130011904Y-111640295D02*
X129964285Y-111545057D01*
X129964285Y-111545057D02*
X129916666Y-111497438D01*
X129916666Y-111497438D02*
X129821428Y-111449819D01*
X121567857Y-118709580D02*
X121615476Y-118757200D01*
X121615476Y-118757200D02*
X121758333Y-118804819D01*
X121758333Y-118804819D02*
X121853571Y-118804819D01*
X121853571Y-118804819D02*
X121996428Y-118757200D01*
X121996428Y-118757200D02*
X122091666Y-118661961D01*
X122091666Y-118661961D02*
X122139285Y-118566723D01*
X122139285Y-118566723D02*
X122186904Y-118376247D01*
X122186904Y-118376247D02*
X122186904Y-118233390D01*
X122186904Y-118233390D02*
X122139285Y-118042914D01*
X122139285Y-118042914D02*
X122091666Y-117947676D01*
X122091666Y-117947676D02*
X121996428Y-117852438D01*
X121996428Y-117852438D02*
X121853571Y-117804819D01*
X121853571Y-117804819D02*
X121758333Y-117804819D01*
X121758333Y-117804819D02*
X121615476Y-117852438D01*
X121615476Y-117852438D02*
X121567857Y-117900057D01*
X120615476Y-118804819D02*
X121186904Y-118804819D01*
X120901190Y-118804819D02*
X120901190Y-117804819D01*
X120901190Y-117804819D02*
X120996428Y-117947676D01*
X120996428Y-117947676D02*
X121091666Y-118042914D01*
X121091666Y-118042914D02*
X121186904Y-118090533D01*
X120234523Y-117900057D02*
X120186904Y-117852438D01*
X120186904Y-117852438D02*
X120091666Y-117804819D01*
X120091666Y-117804819D02*
X119853571Y-117804819D01*
X119853571Y-117804819D02*
X119758333Y-117852438D01*
X119758333Y-117852438D02*
X119710714Y-117900057D01*
X119710714Y-117900057D02*
X119663095Y-117995295D01*
X119663095Y-117995295D02*
X119663095Y-118090533D01*
X119663095Y-118090533D02*
X119710714Y-118233390D01*
X119710714Y-118233390D02*
X120282142Y-118804819D01*
X120282142Y-118804819D02*
X119663095Y-118804819D01*
X125942857Y-113309580D02*
X125990476Y-113357200D01*
X125990476Y-113357200D02*
X126133333Y-113404819D01*
X126133333Y-113404819D02*
X126228571Y-113404819D01*
X126228571Y-113404819D02*
X126371428Y-113357200D01*
X126371428Y-113357200D02*
X126466666Y-113261961D01*
X126466666Y-113261961D02*
X126514285Y-113166723D01*
X126514285Y-113166723D02*
X126561904Y-112976247D01*
X126561904Y-112976247D02*
X126561904Y-112833390D01*
X126561904Y-112833390D02*
X126514285Y-112642914D01*
X126514285Y-112642914D02*
X126466666Y-112547676D01*
X126466666Y-112547676D02*
X126371428Y-112452438D01*
X126371428Y-112452438D02*
X126228571Y-112404819D01*
X126228571Y-112404819D02*
X126133333Y-112404819D01*
X126133333Y-112404819D02*
X125990476Y-112452438D01*
X125990476Y-112452438D02*
X125942857Y-112500057D01*
X124990476Y-113404819D02*
X125561904Y-113404819D01*
X125276190Y-113404819D02*
X125276190Y-112404819D01*
X125276190Y-112404819D02*
X125371428Y-112547676D01*
X125371428Y-112547676D02*
X125466666Y-112642914D01*
X125466666Y-112642914D02*
X125561904Y-112690533D01*
X124133333Y-112738152D02*
X124133333Y-113404819D01*
X124371428Y-112357200D02*
X124609523Y-113071485D01*
X124609523Y-113071485D02*
X123990476Y-113071485D01*
D13*
X167012310Y-91065449D02*
X167067948Y-91121088D01*
X167067948Y-91121088D02*
X167234862Y-91176726D01*
X167234862Y-91176726D02*
X167346138Y-91176726D01*
X167346138Y-91176726D02*
X167513053Y-91121088D01*
X167513053Y-91121088D02*
X167624329Y-91009811D01*
X167624329Y-91009811D02*
X167679967Y-90898535D01*
X167679967Y-90898535D02*
X167735605Y-90675983D01*
X167735605Y-90675983D02*
X167735605Y-90509068D01*
X167735605Y-90509068D02*
X167679967Y-90286516D01*
X167679967Y-90286516D02*
X167624329Y-90175240D01*
X167624329Y-90175240D02*
X167513053Y-90063964D01*
X167513053Y-90063964D02*
X167346138Y-90008326D01*
X167346138Y-90008326D02*
X167234862Y-90008326D01*
X167234862Y-90008326D02*
X167067948Y-90063964D01*
X167067948Y-90063964D02*
X167012310Y-90119602D01*
X166622843Y-90008326D02*
X165899548Y-90008326D01*
X165899548Y-90008326D02*
X166289015Y-90453430D01*
X166289015Y-90453430D02*
X166122100Y-90453430D01*
X166122100Y-90453430D02*
X166010824Y-90509068D01*
X166010824Y-90509068D02*
X165955186Y-90564707D01*
X165955186Y-90564707D02*
X165899548Y-90675983D01*
X165899548Y-90675983D02*
X165899548Y-90954173D01*
X165899548Y-90954173D02*
X165955186Y-91065449D01*
X165955186Y-91065449D02*
X166010824Y-91121088D01*
X166010824Y-91121088D02*
X166122100Y-91176726D01*
X166122100Y-91176726D02*
X166455929Y-91176726D01*
X166455929Y-91176726D02*
X166567205Y-91121088D01*
X166567205Y-91121088D02*
X166622843Y-91065449D01*
D11*
X135516666Y-119929819D02*
X135849999Y-119453628D01*
X136088094Y-119929819D02*
X136088094Y-118929819D01*
X136088094Y-118929819D02*
X135707142Y-118929819D01*
X135707142Y-118929819D02*
X135611904Y-118977438D01*
X135611904Y-118977438D02*
X135564285Y-119025057D01*
X135564285Y-119025057D02*
X135516666Y-119120295D01*
X135516666Y-119120295D02*
X135516666Y-119263152D01*
X135516666Y-119263152D02*
X135564285Y-119358390D01*
X135564285Y-119358390D02*
X135611904Y-119406009D01*
X135611904Y-119406009D02*
X135707142Y-119453628D01*
X135707142Y-119453628D02*
X136088094Y-119453628D01*
X135040475Y-119929819D02*
X134849999Y-119929819D01*
X134849999Y-119929819D02*
X134754761Y-119882200D01*
X134754761Y-119882200D02*
X134707142Y-119834580D01*
X134707142Y-119834580D02*
X134611904Y-119691723D01*
X134611904Y-119691723D02*
X134564285Y-119501247D01*
X134564285Y-119501247D02*
X134564285Y-119120295D01*
X134564285Y-119120295D02*
X134611904Y-119025057D01*
X134611904Y-119025057D02*
X134659523Y-118977438D01*
X134659523Y-118977438D02*
X134754761Y-118929819D01*
X134754761Y-118929819D02*
X134945237Y-118929819D01*
X134945237Y-118929819D02*
X135040475Y-118977438D01*
X135040475Y-118977438D02*
X135088094Y-119025057D01*
X135088094Y-119025057D02*
X135135713Y-119120295D01*
X135135713Y-119120295D02*
X135135713Y-119358390D01*
X135135713Y-119358390D02*
X135088094Y-119453628D01*
X135088094Y-119453628D02*
X135040475Y-119501247D01*
X135040475Y-119501247D02*
X134945237Y-119548866D01*
X134945237Y-119548866D02*
X134754761Y-119548866D01*
X134754761Y-119548866D02*
X134659523Y-119501247D01*
X134659523Y-119501247D02*
X134611904Y-119453628D01*
X134611904Y-119453628D02*
X134564285Y-119358390D01*
X136417857Y-116959580D02*
X136465476Y-117007200D01*
X136465476Y-117007200D02*
X136608333Y-117054819D01*
X136608333Y-117054819D02*
X136703571Y-117054819D01*
X136703571Y-117054819D02*
X136846428Y-117007200D01*
X136846428Y-117007200D02*
X136941666Y-116911961D01*
X136941666Y-116911961D02*
X136989285Y-116816723D01*
X136989285Y-116816723D02*
X137036904Y-116626247D01*
X137036904Y-116626247D02*
X137036904Y-116483390D01*
X137036904Y-116483390D02*
X136989285Y-116292914D01*
X136989285Y-116292914D02*
X136941666Y-116197676D01*
X136941666Y-116197676D02*
X136846428Y-116102438D01*
X136846428Y-116102438D02*
X136703571Y-116054819D01*
X136703571Y-116054819D02*
X136608333Y-116054819D01*
X136608333Y-116054819D02*
X136465476Y-116102438D01*
X136465476Y-116102438D02*
X136417857Y-116150057D01*
X135465476Y-117054819D02*
X136036904Y-117054819D01*
X135751190Y-117054819D02*
X135751190Y-116054819D01*
X135751190Y-116054819D02*
X135846428Y-116197676D01*
X135846428Y-116197676D02*
X135941666Y-116292914D01*
X135941666Y-116292914D02*
X136036904Y-116340533D01*
X134989285Y-117054819D02*
X134798809Y-117054819D01*
X134798809Y-117054819D02*
X134703571Y-117007200D01*
X134703571Y-117007200D02*
X134655952Y-116959580D01*
X134655952Y-116959580D02*
X134560714Y-116816723D01*
X134560714Y-116816723D02*
X134513095Y-116626247D01*
X134513095Y-116626247D02*
X134513095Y-116245295D01*
X134513095Y-116245295D02*
X134560714Y-116150057D01*
X134560714Y-116150057D02*
X134608333Y-116102438D01*
X134608333Y-116102438D02*
X134703571Y-116054819D01*
X134703571Y-116054819D02*
X134894047Y-116054819D01*
X134894047Y-116054819D02*
X134989285Y-116102438D01*
X134989285Y-116102438D02*
X135036904Y-116150057D01*
X135036904Y-116150057D02*
X135084523Y-116245295D01*
X135084523Y-116245295D02*
X135084523Y-116483390D01*
X135084523Y-116483390D02*
X135036904Y-116578628D01*
X135036904Y-116578628D02*
X134989285Y-116626247D01*
X134989285Y-116626247D02*
X134894047Y-116673866D01*
X134894047Y-116673866D02*
X134703571Y-116673866D01*
X134703571Y-116673866D02*
X134608333Y-116626247D01*
X134608333Y-116626247D02*
X134560714Y-116578628D01*
X134560714Y-116578628D02*
X134513095Y-116483390D01*
X136779580Y-109307142D02*
X136827200Y-109259523D01*
X136827200Y-109259523D02*
X136874819Y-109116666D01*
X136874819Y-109116666D02*
X136874819Y-109021428D01*
X136874819Y-109021428D02*
X136827200Y-108878571D01*
X136827200Y-108878571D02*
X136731961Y-108783333D01*
X136731961Y-108783333D02*
X136636723Y-108735714D01*
X136636723Y-108735714D02*
X136446247Y-108688095D01*
X136446247Y-108688095D02*
X136303390Y-108688095D01*
X136303390Y-108688095D02*
X136112914Y-108735714D01*
X136112914Y-108735714D02*
X136017676Y-108783333D01*
X136017676Y-108783333D02*
X135922438Y-108878571D01*
X135922438Y-108878571D02*
X135874819Y-109021428D01*
X135874819Y-109021428D02*
X135874819Y-109116666D01*
X135874819Y-109116666D02*
X135922438Y-109259523D01*
X135922438Y-109259523D02*
X135970057Y-109307142D01*
X136874819Y-110259523D02*
X136874819Y-109688095D01*
X136874819Y-109973809D02*
X135874819Y-109973809D01*
X135874819Y-109973809D02*
X136017676Y-109878571D01*
X136017676Y-109878571D02*
X136112914Y-109783333D01*
X136112914Y-109783333D02*
X136160533Y-109688095D01*
X135874819Y-110878571D02*
X135874819Y-110973809D01*
X135874819Y-110973809D02*
X135922438Y-111069047D01*
X135922438Y-111069047D02*
X135970057Y-111116666D01*
X135970057Y-111116666D02*
X136065295Y-111164285D01*
X136065295Y-111164285D02*
X136255771Y-111211904D01*
X136255771Y-111211904D02*
X136493866Y-111211904D01*
X136493866Y-111211904D02*
X136684342Y-111164285D01*
X136684342Y-111164285D02*
X136779580Y-111116666D01*
X136779580Y-111116666D02*
X136827200Y-111069047D01*
X136827200Y-111069047D02*
X136874819Y-110973809D01*
X136874819Y-110973809D02*
X136874819Y-110878571D01*
X136874819Y-110878571D02*
X136827200Y-110783333D01*
X136827200Y-110783333D02*
X136779580Y-110735714D01*
X136779580Y-110735714D02*
X136684342Y-110688095D01*
X136684342Y-110688095D02*
X136493866Y-110640476D01*
X136493866Y-110640476D02*
X136255771Y-110640476D01*
X136255771Y-110640476D02*
X136065295Y-110688095D01*
X136065295Y-110688095D02*
X135970057Y-110735714D01*
X135970057Y-110735714D02*
X135922438Y-110783333D01*
X135922438Y-110783333D02*
X135874819Y-110878571D01*
X166883333Y-84556009D02*
X167216666Y-84556009D01*
X167216666Y-85079819D02*
X167216666Y-84079819D01*
X167216666Y-84079819D02*
X166740476Y-84079819D01*
X166407142Y-84175057D02*
X166359523Y-84127438D01*
X166359523Y-84127438D02*
X166264285Y-84079819D01*
X166264285Y-84079819D02*
X166026190Y-84079819D01*
X166026190Y-84079819D02*
X165930952Y-84127438D01*
X165930952Y-84127438D02*
X165883333Y-84175057D01*
X165883333Y-84175057D02*
X165835714Y-84270295D01*
X165835714Y-84270295D02*
X165835714Y-84365533D01*
X165835714Y-84365533D02*
X165883333Y-84508390D01*
X165883333Y-84508390D02*
X166454761Y-85079819D01*
X166454761Y-85079819D02*
X165835714Y-85079819D01*
X151229819Y-101333333D02*
X150753628Y-101000000D01*
X151229819Y-100761905D02*
X150229819Y-100761905D01*
X150229819Y-100761905D02*
X150229819Y-101142857D01*
X150229819Y-101142857D02*
X150277438Y-101238095D01*
X150277438Y-101238095D02*
X150325057Y-101285714D01*
X150325057Y-101285714D02*
X150420295Y-101333333D01*
X150420295Y-101333333D02*
X150563152Y-101333333D01*
X150563152Y-101333333D02*
X150658390Y-101285714D01*
X150658390Y-101285714D02*
X150706009Y-101238095D01*
X150706009Y-101238095D02*
X150753628Y-101142857D01*
X150753628Y-101142857D02*
X150753628Y-100761905D01*
X150563152Y-102190476D02*
X151229819Y-102190476D01*
X150182200Y-101952381D02*
X150896485Y-101714286D01*
X150896485Y-101714286D02*
X150896485Y-102333333D01*
D14*
%TO.C,R2*%
X129079724Y-118027500D02*
X128570276Y-118027500D01*
X129079724Y-119072500D02*
X128570276Y-119072500D01*
%TO.C,U2*%
X128050000Y-114452500D02*
X128850000Y-114452500D01*
X128050000Y-117572500D02*
X128850000Y-117572500D01*
X129650000Y-114452500D02*
X128850000Y-114452500D01*
X129650000Y-117572500D02*
X128850000Y-117572500D01*
X127790000Y-117852500D02*
X127310000Y-117852500D01*
X127550000Y-117522500D01*
X127790000Y-117852500D01*
G36*
X127790000Y-117852500D02*
G01*
X127310000Y-117852500D01*
X127550000Y-117522500D01*
X127790000Y-117852500D01*
G37*
%TO.C,R5*%
X132957776Y-85227500D02*
X133467224Y-85227500D01*
X132957776Y-86272500D02*
X133467224Y-86272500D01*
%TO.C,C17*%
X128973767Y-119540000D02*
X128681233Y-119540000D01*
X128973767Y-120560000D02*
X128681233Y-120560000D01*
%TO.C,C8*%
X150915000Y-105628733D02*
X150915000Y-105921267D01*
X151935000Y-105628733D02*
X151935000Y-105921267D01*
%TO.C,C18*%
X132733767Y-117465000D02*
X132441233Y-117465000D01*
X132733767Y-118485000D02*
X132441233Y-118485000D01*
%TO.C,C11*%
X144890000Y-105066233D02*
X144890000Y-105358767D01*
X145910000Y-105066233D02*
X145910000Y-105358767D01*
%TO.C,C6*%
X152415000Y-105628733D02*
X152415000Y-105921267D01*
X153435000Y-105628733D02*
X153435000Y-105921267D01*
%TO.C,C4*%
X156533767Y-92365000D02*
X156241233Y-92365000D01*
X156533767Y-93385000D02*
X156241233Y-93385000D01*
%TO.C,C9*%
X147290000Y-101091233D02*
X147290000Y-101383767D01*
X148310000Y-101091233D02*
X148310000Y-101383767D01*
%TO.C,C7*%
X175451248Y-97190000D02*
X176873752Y-97190000D01*
X175451248Y-99010000D02*
X176873752Y-99010000D01*
%TO.C,C20*%
X132746267Y-114490000D02*
X132453733Y-114490000D01*
X132746267Y-115510000D02*
X132453733Y-115510000D01*
%TO.C,R1*%
X123727224Y-96177500D02*
X123217776Y-96177500D01*
X123727224Y-97222500D02*
X123217776Y-97222500D01*
%TO.C,C2*%
X142658767Y-94740000D02*
X142366233Y-94740000D01*
X142658767Y-95760000D02*
X142366233Y-95760000D01*
%TO.C,C5*%
X146440000Y-105053733D02*
X146440000Y-105346267D01*
X147460000Y-105053733D02*
X147460000Y-105346267D01*
%TO.C,R10*%
X131004724Y-112902500D02*
X130495276Y-112902500D01*
X131004724Y-113947500D02*
X130495276Y-113947500D01*
%TO.C,C12*%
X120641233Y-119490000D02*
X120933767Y-119490000D01*
X120641233Y-120510000D02*
X120933767Y-120510000D01*
%TO.C,C14*%
X124290000Y-115758767D02*
X124290000Y-115466233D01*
X125310000Y-115758767D02*
X125310000Y-115466233D01*
D10*
%TO.C,IC8*%
X172023000Y-104072000D02*
X178577000Y-104072000D01*
X172023000Y-107628000D02*
X172023000Y-104072000D01*
X178577000Y-104072000D02*
X178577000Y-107628000D01*
X178577000Y-107628000D02*
X172023000Y-107628000D01*
D14*
%TO.C,R9*%
X132345276Y-118952500D02*
X132854724Y-118952500D01*
X132345276Y-119997500D02*
X132854724Y-119997500D01*
%TO.C,C19*%
X132758767Y-115990000D02*
X132466233Y-115990000D01*
X132758767Y-117010000D02*
X132466233Y-117010000D01*
%TO.C,C10*%
X137340000Y-110096267D02*
X137340000Y-109803733D01*
X138360000Y-110096267D02*
X138360000Y-109803733D01*
%TO.C,F2*%
X167032064Y-85585000D02*
X165827936Y-85585000D01*
X167032064Y-87405000D02*
X165827936Y-87405000D01*
%TO.C,R4*%
X148777500Y-101492224D02*
X148777500Y-100982776D01*
X149822500Y-101492224D02*
X149822500Y-100982776D01*
%TD*%
M02*
