%TF.GenerationSoftware,KiCad,Pcbnew,9.0.0*%
%TF.CreationDate,2025-04-20T21:07:23+01:00*%
%TF.ProjectId,RISKYMSXCart,5249534b-594d-4535-9843-6172742e6b69,rev?*%
%TF.SameCoordinates,Original*%
%TF.FileFunction,Paste,Top*%
%TF.FilePolarity,Positive*%
%FSLAX46Y46*%
G04 Gerber Fmt 4.6, Leading zero omitted, Abs format (unit mm)*
G04 Created by KiCad (PCBNEW 9.0.0) date 2025-04-20 21:07:23*
%MOMM*%
%LPD*%
G01*
G04 APERTURE LIST*
G04 Aperture macros list*
%AMRoundRect*
0 Rectangle with rounded corners*
0 $1 Rounding radius*
0 $2 $3 $4 $5 $6 $7 $8 $9 X,Y pos of 4 corners*
0 Add a 4 corners polygon primitive as box body*
4,1,4,$2,$3,$4,$5,$6,$7,$8,$9,$2,$3,0*
0 Add four circle primitives for the rounded corners*
1,1,$1+$1,$2,$3*
1,1,$1+$1,$4,$5*
1,1,$1+$1,$6,$7*
1,1,$1+$1,$8,$9*
0 Add four rect primitives between the rounded corners*
20,1,$1+$1,$2,$3,$4,$5,0*
20,1,$1+$1,$4,$5,$6,$7,0*
20,1,$1+$1,$6,$7,$8,$9,0*
20,1,$1+$1,$8,$9,$2,$3,0*%
G04 Aperture macros list end*
%ADD10RoundRect,0.250000X-0.450000X0.325000X-0.450000X-0.325000X0.450000X-0.325000X0.450000X0.325000X0*%
%ADD11RoundRect,0.075000X0.075000X-0.725000X0.075000X0.725000X-0.075000X0.725000X-0.075000X-0.725000X0*%
%ADD12RoundRect,0.075000X0.725000X-0.075000X0.725000X0.075000X-0.725000X0.075000X-0.725000X-0.075000X0*%
G04 APERTURE END LIST*
D10*
%TO.C,D5*%
X173575000Y-81350000D03*
X173575000Y-83400000D03*
%TD*%
%TO.C,D1*%
X134100000Y-81775000D03*
X134100000Y-83825000D03*
%TD*%
D11*
%TO.C,U1*%
X141000000Y-109050000D03*
X141500000Y-109050000D03*
X142000000Y-109050000D03*
X142500000Y-109050000D03*
X143000000Y-109050000D03*
X143500000Y-109050000D03*
X144000000Y-109050000D03*
X144500000Y-109050000D03*
X145000000Y-109050000D03*
X145500000Y-109050000D03*
X146000000Y-109050000D03*
X146500000Y-109050000D03*
X147000000Y-109050000D03*
X147500000Y-109050000D03*
X148000000Y-109050000D03*
X148500000Y-109050000D03*
X149000000Y-109050000D03*
X149500000Y-109050000D03*
X150000000Y-109050000D03*
X150500000Y-109050000D03*
X151000000Y-109050000D03*
X151500000Y-109050000D03*
X152000000Y-109050000D03*
X152500000Y-109050000D03*
X153000000Y-109050000D03*
D12*
X154675000Y-107375000D03*
X154675000Y-106875000D03*
X154675000Y-106375000D03*
X154675000Y-105875000D03*
X154675000Y-105375000D03*
X154675000Y-104875000D03*
X154675000Y-104375000D03*
X154675000Y-103875000D03*
X154675000Y-103375000D03*
X154675000Y-102875000D03*
X154675000Y-102375000D03*
X154675000Y-101875000D03*
X154675000Y-101375000D03*
X154675000Y-100875000D03*
X154675000Y-100375000D03*
X154675000Y-99875000D03*
X154675000Y-99375000D03*
X154675000Y-98875000D03*
X154675000Y-98375000D03*
X154675000Y-97875000D03*
X154675000Y-97375000D03*
X154675000Y-96875000D03*
X154675000Y-96375000D03*
X154675000Y-95875000D03*
X154675000Y-95375000D03*
D11*
X153000000Y-93700000D03*
X152500000Y-93700000D03*
X152000000Y-93700000D03*
X151500000Y-93700000D03*
X151000000Y-93700000D03*
X150500000Y-93700000D03*
X150000000Y-93700000D03*
X149500000Y-93700000D03*
X149000000Y-93700000D03*
X148500000Y-93700000D03*
X148000000Y-93700000D03*
X147500000Y-93700000D03*
X147000000Y-93700000D03*
X146500000Y-93700000D03*
X146000000Y-93700000D03*
X145500000Y-93700000D03*
X145000000Y-93700000D03*
X144500000Y-93700000D03*
X144000000Y-93700000D03*
X143500000Y-93700000D03*
X143000000Y-93700000D03*
X142500000Y-93700000D03*
X142000000Y-93700000D03*
X141500000Y-93700000D03*
X141000000Y-93700000D03*
D12*
X139325000Y-95375000D03*
X139325000Y-95875000D03*
X139325000Y-96375000D03*
X139325000Y-96875000D03*
X139325000Y-97375000D03*
X139325000Y-97875000D03*
X139325000Y-98375000D03*
X139325000Y-98875000D03*
X139325000Y-99375000D03*
X139325000Y-99875000D03*
X139325000Y-100375000D03*
X139325000Y-100875000D03*
X139325000Y-101375000D03*
X139325000Y-101875000D03*
X139325000Y-102375000D03*
X139325000Y-102875000D03*
X139325000Y-103375000D03*
X139325000Y-103875000D03*
X139325000Y-104375000D03*
X139325000Y-104875000D03*
X139325000Y-105375000D03*
X139325000Y-105875000D03*
X139325000Y-106375000D03*
X139325000Y-106875000D03*
X139325000Y-107375000D03*
%TD*%
M02*
