%TF.GenerationSoftware,KiCad,Pcbnew,8.0.6*%
%TF.CreationDate,2024-12-24T11:34:53+00:00*%
%TF.ProjectId,RISKYMSXCart,5249534b-594d-4535-9843-6172742e6b69,rev?*%
%TF.SameCoordinates,Original*%
%TF.FileFunction,Legend,Bot*%
%TF.FilePolarity,Positive*%
%FSLAX46Y46*%
G04 Gerber Fmt 4.6, Leading zero omitted, Abs format (unit mm)*
G04 Created by KiCad (PCBNEW 8.0.6) date 2024-12-24 11:34:53*
%MOMM*%
%LPD*%
G01*
G04 APERTURE LIST*
%ADD10C,0.203200*%
%ADD11C,0.150000*%
%ADD12C,0.101600*%
%ADD13C,0.120000*%
G04 APERTURE END LIST*
D10*
X168885259Y-123878334D02*
X168839790Y-123878334D01*
X169157981Y-124196525D02*
X169157981Y-124151084D01*
X130850050Y-124560175D02*
X130895518Y-124696525D01*
X129959150Y-124423803D02*
X130004609Y-124651084D01*
X117577259Y-123878334D02*
X117531809Y-123878334D01*
X117531809Y-123878334D02*
X117395440Y-123923803D01*
X130459140Y-124787434D02*
X130504609Y-124696525D01*
X131031890Y-124241994D02*
X130940959Y-124287434D01*
X130231868Y-124469275D02*
X130277331Y-124469275D01*
X130850050Y-124469275D02*
X130850050Y-124560175D01*
X168703440Y-123923803D02*
X168612509Y-124014716D01*
X130550050Y-124196525D02*
X130550050Y-124151084D01*
X131395518Y-124787434D02*
X131440959Y-124741994D01*
X130004609Y-124651084D02*
X130095518Y-124787434D01*
X117531809Y-124469275D02*
X117577259Y-124469275D01*
X117395440Y-124423803D02*
X117531809Y-124469275D01*
X117622718Y-124832894D02*
X117759090Y-124787434D01*
X117804531Y-124014716D02*
X117713631Y-123923803D01*
X169157981Y-124151084D02*
X169112509Y-124014716D01*
X117259100Y-124423803D02*
X117304540Y-124651084D01*
X169112509Y-124014716D02*
X169021600Y-123923803D01*
X117850000Y-124151084D02*
X117804531Y-124014716D01*
X118831809Y-124514716D02*
X118150000Y-124514716D01*
X130277331Y-124469275D02*
X130413700Y-124423803D01*
X169021600Y-124423803D02*
X169112509Y-124332894D01*
X168885259Y-124469275D02*
X169021600Y-124423803D01*
X168703440Y-124423803D02*
X168839790Y-124469275D01*
X130895518Y-123878334D02*
X131168240Y-124241994D01*
X117304540Y-124014716D02*
X117259100Y-124196525D01*
X131440959Y-124741994D02*
X131486418Y-124651084D01*
X169112509Y-124332894D02*
X169157981Y-124196525D01*
X168612509Y-124332894D02*
X168703440Y-124423803D01*
X130550050Y-124151084D02*
X130504609Y-124014716D01*
X130095518Y-124423803D02*
X130231868Y-124469275D01*
X168567068Y-124423803D02*
X168612509Y-124651084D01*
X117850000Y-124196525D02*
X117850000Y-124151084D01*
X130413700Y-124423803D02*
X130504609Y-124332894D01*
X131259140Y-124832894D02*
X131395518Y-124787434D01*
X118377281Y-123878334D02*
X118377281Y-124832894D01*
X168839790Y-124469275D02*
X168885259Y-124469275D01*
X117304540Y-124332894D02*
X117395440Y-124423803D01*
X117713631Y-123923803D02*
X117577259Y-123878334D01*
X130895518Y-124696525D02*
X130986418Y-124787434D01*
X130004609Y-124332894D02*
X130095518Y-124423803D01*
X117804531Y-124332894D02*
X117850000Y-124196525D01*
X118377281Y-123878334D02*
X118831809Y-124514716D01*
X130231868Y-123878334D02*
X130095518Y-123923803D01*
X117759090Y-124787434D02*
X117804531Y-124696525D01*
X168930700Y-124832894D02*
X169067068Y-124787434D01*
X130504609Y-124332894D02*
X130550050Y-124196525D01*
X117304540Y-124651084D02*
X117395440Y-124787434D01*
X130277331Y-123878334D02*
X130231868Y-123878334D01*
X131122800Y-124832894D02*
X131259140Y-124832894D01*
X130095518Y-124787434D02*
X130231868Y-124832894D01*
X117577259Y-124469275D02*
X117713631Y-124423803D01*
X130413700Y-123923803D02*
X130277331Y-123878334D01*
X168567068Y-124196525D02*
X168612509Y-124332894D01*
X129959150Y-124196525D02*
X130004609Y-124332894D01*
X130940959Y-124287434D02*
X130895518Y-124332894D01*
X130095518Y-123923803D02*
X130004609Y-124014716D01*
X130004609Y-124014716D02*
X129959150Y-124196525D01*
X169067068Y-124787434D02*
X169112509Y-124696525D01*
X130895518Y-124332894D02*
X130850050Y-124469275D01*
X168825000Y-124832894D02*
X168915910Y-124832894D01*
X168567068Y-124196525D02*
X168567068Y-124423803D01*
X117259100Y-124196525D02*
X117304540Y-124332894D01*
X168612509Y-124014716D02*
X168567068Y-124196525D01*
X117395440Y-124787434D02*
X117531809Y-124832894D01*
X168839790Y-123878334D02*
X168703440Y-123923803D01*
X131395518Y-123878334D02*
X130895518Y-123878334D01*
X117531809Y-124832894D02*
X117622718Y-124832894D01*
X129959150Y-124196525D02*
X129959150Y-124423803D01*
X117395440Y-123923803D02*
X117304540Y-124014716D01*
X130322800Y-124832894D02*
X130459140Y-124787434D01*
X168703440Y-124787434D02*
X168839790Y-124832894D01*
X117713631Y-124423803D02*
X117804531Y-124332894D01*
X131168240Y-124241994D02*
X131031890Y-124241994D01*
X169021600Y-123923803D02*
X168885259Y-123878334D01*
X130231868Y-124832894D02*
X130322800Y-124832894D01*
X130986418Y-124787434D02*
X131122800Y-124832894D01*
X130504609Y-124014716D02*
X130413700Y-123923803D01*
X117259100Y-124196525D02*
X117259100Y-124423803D01*
D11*
X149191666Y-118554819D02*
X149524999Y-118078628D01*
X149763094Y-118554819D02*
X149763094Y-117554819D01*
X149763094Y-117554819D02*
X149382142Y-117554819D01*
X149382142Y-117554819D02*
X149286904Y-117602438D01*
X149286904Y-117602438D02*
X149239285Y-117650057D01*
X149239285Y-117650057D02*
X149191666Y-117745295D01*
X149191666Y-117745295D02*
X149191666Y-117888152D01*
X149191666Y-117888152D02*
X149239285Y-117983390D01*
X149239285Y-117983390D02*
X149286904Y-118031009D01*
X149286904Y-118031009D02*
X149382142Y-118078628D01*
X149382142Y-118078628D02*
X149763094Y-118078628D01*
X148286904Y-117554819D02*
X148763094Y-117554819D01*
X148763094Y-117554819D02*
X148810713Y-118031009D01*
X148810713Y-118031009D02*
X148763094Y-117983390D01*
X148763094Y-117983390D02*
X148667856Y-117935771D01*
X148667856Y-117935771D02*
X148429761Y-117935771D01*
X148429761Y-117935771D02*
X148334523Y-117983390D01*
X148334523Y-117983390D02*
X148286904Y-118031009D01*
X148286904Y-118031009D02*
X148239285Y-118126247D01*
X148239285Y-118126247D02*
X148239285Y-118364342D01*
X148239285Y-118364342D02*
X148286904Y-118459580D01*
X148286904Y-118459580D02*
X148334523Y-118507200D01*
X148334523Y-118507200D02*
X148429761Y-118554819D01*
X148429761Y-118554819D02*
X148667856Y-118554819D01*
X148667856Y-118554819D02*
X148763094Y-118507200D01*
X148763094Y-118507200D02*
X148810713Y-118459580D01*
X151316666Y-103809580D02*
X151364285Y-103857200D01*
X151364285Y-103857200D02*
X151507142Y-103904819D01*
X151507142Y-103904819D02*
X151602380Y-103904819D01*
X151602380Y-103904819D02*
X151745237Y-103857200D01*
X151745237Y-103857200D02*
X151840475Y-103761961D01*
X151840475Y-103761961D02*
X151888094Y-103666723D01*
X151888094Y-103666723D02*
X151935713Y-103476247D01*
X151935713Y-103476247D02*
X151935713Y-103333390D01*
X151935713Y-103333390D02*
X151888094Y-103142914D01*
X151888094Y-103142914D02*
X151840475Y-103047676D01*
X151840475Y-103047676D02*
X151745237Y-102952438D01*
X151745237Y-102952438D02*
X151602380Y-102904819D01*
X151602380Y-102904819D02*
X151507142Y-102904819D01*
X151507142Y-102904819D02*
X151364285Y-102952438D01*
X151364285Y-102952438D02*
X151316666Y-103000057D01*
X150745237Y-103333390D02*
X150840475Y-103285771D01*
X150840475Y-103285771D02*
X150888094Y-103238152D01*
X150888094Y-103238152D02*
X150935713Y-103142914D01*
X150935713Y-103142914D02*
X150935713Y-103095295D01*
X150935713Y-103095295D02*
X150888094Y-103000057D01*
X150888094Y-103000057D02*
X150840475Y-102952438D01*
X150840475Y-102952438D02*
X150745237Y-102904819D01*
X150745237Y-102904819D02*
X150554761Y-102904819D01*
X150554761Y-102904819D02*
X150459523Y-102952438D01*
X150459523Y-102952438D02*
X150411904Y-103000057D01*
X150411904Y-103000057D02*
X150364285Y-103095295D01*
X150364285Y-103095295D02*
X150364285Y-103142914D01*
X150364285Y-103142914D02*
X150411904Y-103238152D01*
X150411904Y-103238152D02*
X150459523Y-103285771D01*
X150459523Y-103285771D02*
X150554761Y-103333390D01*
X150554761Y-103333390D02*
X150745237Y-103333390D01*
X150745237Y-103333390D02*
X150840475Y-103381009D01*
X150840475Y-103381009D02*
X150888094Y-103428628D01*
X150888094Y-103428628D02*
X150935713Y-103523866D01*
X150935713Y-103523866D02*
X150935713Y-103714342D01*
X150935713Y-103714342D02*
X150888094Y-103809580D01*
X150888094Y-103809580D02*
X150840475Y-103857200D01*
X150840475Y-103857200D02*
X150745237Y-103904819D01*
X150745237Y-103904819D02*
X150554761Y-103904819D01*
X150554761Y-103904819D02*
X150459523Y-103857200D01*
X150459523Y-103857200D02*
X150411904Y-103809580D01*
X150411904Y-103809580D02*
X150364285Y-103714342D01*
X150364285Y-103714342D02*
X150364285Y-103523866D01*
X150364285Y-103523866D02*
X150411904Y-103428628D01*
X150411904Y-103428628D02*
X150459523Y-103381009D01*
X150459523Y-103381009D02*
X150554761Y-103333390D01*
X149059580Y-104757142D02*
X149107200Y-104709523D01*
X149107200Y-104709523D02*
X149154819Y-104566666D01*
X149154819Y-104566666D02*
X149154819Y-104471428D01*
X149154819Y-104471428D02*
X149107200Y-104328571D01*
X149107200Y-104328571D02*
X149011961Y-104233333D01*
X149011961Y-104233333D02*
X148916723Y-104185714D01*
X148916723Y-104185714D02*
X148726247Y-104138095D01*
X148726247Y-104138095D02*
X148583390Y-104138095D01*
X148583390Y-104138095D02*
X148392914Y-104185714D01*
X148392914Y-104185714D02*
X148297676Y-104233333D01*
X148297676Y-104233333D02*
X148202438Y-104328571D01*
X148202438Y-104328571D02*
X148154819Y-104471428D01*
X148154819Y-104471428D02*
X148154819Y-104566666D01*
X148154819Y-104566666D02*
X148202438Y-104709523D01*
X148202438Y-104709523D02*
X148250057Y-104757142D01*
X149154819Y-105709523D02*
X149154819Y-105138095D01*
X149154819Y-105423809D02*
X148154819Y-105423809D01*
X148154819Y-105423809D02*
X148297676Y-105328571D01*
X148297676Y-105328571D02*
X148392914Y-105233333D01*
X148392914Y-105233333D02*
X148440533Y-105138095D01*
X149154819Y-106661904D02*
X149154819Y-106090476D01*
X149154819Y-106376190D02*
X148154819Y-106376190D01*
X148154819Y-106376190D02*
X148297676Y-106280952D01*
X148297676Y-106280952D02*
X148392914Y-106185714D01*
X148392914Y-106185714D02*
X148440533Y-106090476D01*
X153166666Y-103759580D02*
X153214285Y-103807200D01*
X153214285Y-103807200D02*
X153357142Y-103854819D01*
X153357142Y-103854819D02*
X153452380Y-103854819D01*
X153452380Y-103854819D02*
X153595237Y-103807200D01*
X153595237Y-103807200D02*
X153690475Y-103711961D01*
X153690475Y-103711961D02*
X153738094Y-103616723D01*
X153738094Y-103616723D02*
X153785713Y-103426247D01*
X153785713Y-103426247D02*
X153785713Y-103283390D01*
X153785713Y-103283390D02*
X153738094Y-103092914D01*
X153738094Y-103092914D02*
X153690475Y-102997676D01*
X153690475Y-102997676D02*
X153595237Y-102902438D01*
X153595237Y-102902438D02*
X153452380Y-102854819D01*
X153452380Y-102854819D02*
X153357142Y-102854819D01*
X153357142Y-102854819D02*
X153214285Y-102902438D01*
X153214285Y-102902438D02*
X153166666Y-102950057D01*
X152309523Y-102854819D02*
X152499999Y-102854819D01*
X152499999Y-102854819D02*
X152595237Y-102902438D01*
X152595237Y-102902438D02*
X152642856Y-102950057D01*
X152642856Y-102950057D02*
X152738094Y-103092914D01*
X152738094Y-103092914D02*
X152785713Y-103283390D01*
X152785713Y-103283390D02*
X152785713Y-103664342D01*
X152785713Y-103664342D02*
X152738094Y-103759580D01*
X152738094Y-103759580D02*
X152690475Y-103807200D01*
X152690475Y-103807200D02*
X152595237Y-103854819D01*
X152595237Y-103854819D02*
X152404761Y-103854819D01*
X152404761Y-103854819D02*
X152309523Y-103807200D01*
X152309523Y-103807200D02*
X152261904Y-103759580D01*
X152261904Y-103759580D02*
X152214285Y-103664342D01*
X152214285Y-103664342D02*
X152214285Y-103426247D01*
X152214285Y-103426247D02*
X152261904Y-103331009D01*
X152261904Y-103331009D02*
X152309523Y-103283390D01*
X152309523Y-103283390D02*
X152404761Y-103235771D01*
X152404761Y-103235771D02*
X152595237Y-103235771D01*
X152595237Y-103235771D02*
X152690475Y-103283390D01*
X152690475Y-103283390D02*
X152738094Y-103331009D01*
X152738094Y-103331009D02*
X152785713Y-103426247D01*
X156554166Y-94664580D02*
X156601785Y-94712200D01*
X156601785Y-94712200D02*
X156744642Y-94759819D01*
X156744642Y-94759819D02*
X156839880Y-94759819D01*
X156839880Y-94759819D02*
X156982737Y-94712200D01*
X156982737Y-94712200D02*
X157077975Y-94616961D01*
X157077975Y-94616961D02*
X157125594Y-94521723D01*
X157125594Y-94521723D02*
X157173213Y-94331247D01*
X157173213Y-94331247D02*
X157173213Y-94188390D01*
X157173213Y-94188390D02*
X157125594Y-93997914D01*
X157125594Y-93997914D02*
X157077975Y-93902676D01*
X157077975Y-93902676D02*
X156982737Y-93807438D01*
X156982737Y-93807438D02*
X156839880Y-93759819D01*
X156839880Y-93759819D02*
X156744642Y-93759819D01*
X156744642Y-93759819D02*
X156601785Y-93807438D01*
X156601785Y-93807438D02*
X156554166Y-93855057D01*
X155697023Y-94093152D02*
X155697023Y-94759819D01*
X155935118Y-93712200D02*
X156173213Y-94426485D01*
X156173213Y-94426485D02*
X155554166Y-94426485D01*
X146834580Y-100833333D02*
X146882200Y-100785714D01*
X146882200Y-100785714D02*
X146929819Y-100642857D01*
X146929819Y-100642857D02*
X146929819Y-100547619D01*
X146929819Y-100547619D02*
X146882200Y-100404762D01*
X146882200Y-100404762D02*
X146786961Y-100309524D01*
X146786961Y-100309524D02*
X146691723Y-100261905D01*
X146691723Y-100261905D02*
X146501247Y-100214286D01*
X146501247Y-100214286D02*
X146358390Y-100214286D01*
X146358390Y-100214286D02*
X146167914Y-100261905D01*
X146167914Y-100261905D02*
X146072676Y-100309524D01*
X146072676Y-100309524D02*
X145977438Y-100404762D01*
X145977438Y-100404762D02*
X145929819Y-100547619D01*
X145929819Y-100547619D02*
X145929819Y-100642857D01*
X145929819Y-100642857D02*
X145977438Y-100785714D01*
X145977438Y-100785714D02*
X146025057Y-100833333D01*
X146929819Y-101309524D02*
X146929819Y-101500000D01*
X146929819Y-101500000D02*
X146882200Y-101595238D01*
X146882200Y-101595238D02*
X146834580Y-101642857D01*
X146834580Y-101642857D02*
X146691723Y-101738095D01*
X146691723Y-101738095D02*
X146501247Y-101785714D01*
X146501247Y-101785714D02*
X146120295Y-101785714D01*
X146120295Y-101785714D02*
X146025057Y-101738095D01*
X146025057Y-101738095D02*
X145977438Y-101690476D01*
X145977438Y-101690476D02*
X145929819Y-101595238D01*
X145929819Y-101595238D02*
X145929819Y-101404762D01*
X145929819Y-101404762D02*
X145977438Y-101309524D01*
X145977438Y-101309524D02*
X146025057Y-101261905D01*
X146025057Y-101261905D02*
X146120295Y-101214286D01*
X146120295Y-101214286D02*
X146358390Y-101214286D01*
X146358390Y-101214286D02*
X146453628Y-101261905D01*
X146453628Y-101261905D02*
X146501247Y-101309524D01*
X146501247Y-101309524D02*
X146548866Y-101404762D01*
X146548866Y-101404762D02*
X146548866Y-101595238D01*
X146548866Y-101595238D02*
X146501247Y-101690476D01*
X146501247Y-101690476D02*
X146453628Y-101738095D01*
X146453628Y-101738095D02*
X146358390Y-101785714D01*
X117539166Y-97059819D02*
X117872499Y-96583628D01*
X118110594Y-97059819D02*
X118110594Y-96059819D01*
X118110594Y-96059819D02*
X117729642Y-96059819D01*
X117729642Y-96059819D02*
X117634404Y-96107438D01*
X117634404Y-96107438D02*
X117586785Y-96155057D01*
X117586785Y-96155057D02*
X117539166Y-96250295D01*
X117539166Y-96250295D02*
X117539166Y-96393152D01*
X117539166Y-96393152D02*
X117586785Y-96488390D01*
X117586785Y-96488390D02*
X117634404Y-96536009D01*
X117634404Y-96536009D02*
X117729642Y-96583628D01*
X117729642Y-96583628D02*
X118110594Y-96583628D01*
X116586785Y-97059819D02*
X117158213Y-97059819D01*
X116872499Y-97059819D02*
X116872499Y-96059819D01*
X116872499Y-96059819D02*
X116967737Y-96202676D01*
X116967737Y-96202676D02*
X117062975Y-96297914D01*
X117062975Y-96297914D02*
X117158213Y-96345533D01*
X142279166Y-97039580D02*
X142326785Y-97087200D01*
X142326785Y-97087200D02*
X142469642Y-97134819D01*
X142469642Y-97134819D02*
X142564880Y-97134819D01*
X142564880Y-97134819D02*
X142707737Y-97087200D01*
X142707737Y-97087200D02*
X142802975Y-96991961D01*
X142802975Y-96991961D02*
X142850594Y-96896723D01*
X142850594Y-96896723D02*
X142898213Y-96706247D01*
X142898213Y-96706247D02*
X142898213Y-96563390D01*
X142898213Y-96563390D02*
X142850594Y-96372914D01*
X142850594Y-96372914D02*
X142802975Y-96277676D01*
X142802975Y-96277676D02*
X142707737Y-96182438D01*
X142707737Y-96182438D02*
X142564880Y-96134819D01*
X142564880Y-96134819D02*
X142469642Y-96134819D01*
X142469642Y-96134819D02*
X142326785Y-96182438D01*
X142326785Y-96182438D02*
X142279166Y-96230057D01*
X141898213Y-96230057D02*
X141850594Y-96182438D01*
X141850594Y-96182438D02*
X141755356Y-96134819D01*
X141755356Y-96134819D02*
X141517261Y-96134819D01*
X141517261Y-96134819D02*
X141422023Y-96182438D01*
X141422023Y-96182438D02*
X141374404Y-96230057D01*
X141374404Y-96230057D02*
X141326785Y-96325295D01*
X141326785Y-96325295D02*
X141326785Y-96420533D01*
X141326785Y-96420533D02*
X141374404Y-96563390D01*
X141374404Y-96563390D02*
X141945832Y-97134819D01*
X141945832Y-97134819D02*
X141326785Y-97134819D01*
X151216666Y-118529819D02*
X151549999Y-118053628D01*
X151788094Y-118529819D02*
X151788094Y-117529819D01*
X151788094Y-117529819D02*
X151407142Y-117529819D01*
X151407142Y-117529819D02*
X151311904Y-117577438D01*
X151311904Y-117577438D02*
X151264285Y-117625057D01*
X151264285Y-117625057D02*
X151216666Y-117720295D01*
X151216666Y-117720295D02*
X151216666Y-117863152D01*
X151216666Y-117863152D02*
X151264285Y-117958390D01*
X151264285Y-117958390D02*
X151311904Y-118006009D01*
X151311904Y-118006009D02*
X151407142Y-118053628D01*
X151407142Y-118053628D02*
X151788094Y-118053628D01*
X150359523Y-117529819D02*
X150549999Y-117529819D01*
X150549999Y-117529819D02*
X150645237Y-117577438D01*
X150645237Y-117577438D02*
X150692856Y-117625057D01*
X150692856Y-117625057D02*
X150788094Y-117767914D01*
X150788094Y-117767914D02*
X150835713Y-117958390D01*
X150835713Y-117958390D02*
X150835713Y-118339342D01*
X150835713Y-118339342D02*
X150788094Y-118434580D01*
X150788094Y-118434580D02*
X150740475Y-118482200D01*
X150740475Y-118482200D02*
X150645237Y-118529819D01*
X150645237Y-118529819D02*
X150454761Y-118529819D01*
X150454761Y-118529819D02*
X150359523Y-118482200D01*
X150359523Y-118482200D02*
X150311904Y-118434580D01*
X150311904Y-118434580D02*
X150264285Y-118339342D01*
X150264285Y-118339342D02*
X150264285Y-118101247D01*
X150264285Y-118101247D02*
X150311904Y-118006009D01*
X150311904Y-118006009D02*
X150359523Y-117958390D01*
X150359523Y-117958390D02*
X150454761Y-117910771D01*
X150454761Y-117910771D02*
X150645237Y-117910771D01*
X150645237Y-117910771D02*
X150740475Y-117958390D01*
X150740475Y-117958390D02*
X150788094Y-118006009D01*
X150788094Y-118006009D02*
X150835713Y-118101247D01*
X155191666Y-118654819D02*
X155524999Y-118178628D01*
X155763094Y-118654819D02*
X155763094Y-117654819D01*
X155763094Y-117654819D02*
X155382142Y-117654819D01*
X155382142Y-117654819D02*
X155286904Y-117702438D01*
X155286904Y-117702438D02*
X155239285Y-117750057D01*
X155239285Y-117750057D02*
X155191666Y-117845295D01*
X155191666Y-117845295D02*
X155191666Y-117988152D01*
X155191666Y-117988152D02*
X155239285Y-118083390D01*
X155239285Y-118083390D02*
X155286904Y-118131009D01*
X155286904Y-118131009D02*
X155382142Y-118178628D01*
X155382142Y-118178628D02*
X155763094Y-118178628D01*
X154620237Y-118083390D02*
X154715475Y-118035771D01*
X154715475Y-118035771D02*
X154763094Y-117988152D01*
X154763094Y-117988152D02*
X154810713Y-117892914D01*
X154810713Y-117892914D02*
X154810713Y-117845295D01*
X154810713Y-117845295D02*
X154763094Y-117750057D01*
X154763094Y-117750057D02*
X154715475Y-117702438D01*
X154715475Y-117702438D02*
X154620237Y-117654819D01*
X154620237Y-117654819D02*
X154429761Y-117654819D01*
X154429761Y-117654819D02*
X154334523Y-117702438D01*
X154334523Y-117702438D02*
X154286904Y-117750057D01*
X154286904Y-117750057D02*
X154239285Y-117845295D01*
X154239285Y-117845295D02*
X154239285Y-117892914D01*
X154239285Y-117892914D02*
X154286904Y-117988152D01*
X154286904Y-117988152D02*
X154334523Y-118035771D01*
X154334523Y-118035771D02*
X154429761Y-118083390D01*
X154429761Y-118083390D02*
X154620237Y-118083390D01*
X154620237Y-118083390D02*
X154715475Y-118131009D01*
X154715475Y-118131009D02*
X154763094Y-118178628D01*
X154763094Y-118178628D02*
X154810713Y-118273866D01*
X154810713Y-118273866D02*
X154810713Y-118464342D01*
X154810713Y-118464342D02*
X154763094Y-118559580D01*
X154763094Y-118559580D02*
X154715475Y-118607200D01*
X154715475Y-118607200D02*
X154620237Y-118654819D01*
X154620237Y-118654819D02*
X154429761Y-118654819D01*
X154429761Y-118654819D02*
X154334523Y-118607200D01*
X154334523Y-118607200D02*
X154286904Y-118559580D01*
X154286904Y-118559580D02*
X154239285Y-118464342D01*
X154239285Y-118464342D02*
X154239285Y-118273866D01*
X154239285Y-118273866D02*
X154286904Y-118178628D01*
X154286904Y-118178628D02*
X154334523Y-118131009D01*
X154334523Y-118131009D02*
X154429761Y-118083390D01*
X117614166Y-100709819D02*
X117947499Y-100233628D01*
X118185594Y-100709819D02*
X118185594Y-99709819D01*
X118185594Y-99709819D02*
X117804642Y-99709819D01*
X117804642Y-99709819D02*
X117709404Y-99757438D01*
X117709404Y-99757438D02*
X117661785Y-99805057D01*
X117661785Y-99805057D02*
X117614166Y-99900295D01*
X117614166Y-99900295D02*
X117614166Y-100043152D01*
X117614166Y-100043152D02*
X117661785Y-100138390D01*
X117661785Y-100138390D02*
X117709404Y-100186009D01*
X117709404Y-100186009D02*
X117804642Y-100233628D01*
X117804642Y-100233628D02*
X118185594Y-100233628D01*
X117233213Y-99805057D02*
X117185594Y-99757438D01*
X117185594Y-99757438D02*
X117090356Y-99709819D01*
X117090356Y-99709819D02*
X116852261Y-99709819D01*
X116852261Y-99709819D02*
X116757023Y-99757438D01*
X116757023Y-99757438D02*
X116709404Y-99805057D01*
X116709404Y-99805057D02*
X116661785Y-99900295D01*
X116661785Y-99900295D02*
X116661785Y-99995533D01*
X116661785Y-99995533D02*
X116709404Y-100138390D01*
X116709404Y-100138390D02*
X117280832Y-100709819D01*
X117280832Y-100709819D02*
X116661785Y-100709819D01*
D12*
X167012310Y-91065449D02*
X167067948Y-91121088D01*
X167067948Y-91121088D02*
X167234862Y-91176726D01*
X167234862Y-91176726D02*
X167346138Y-91176726D01*
X167346138Y-91176726D02*
X167513053Y-91121088D01*
X167513053Y-91121088D02*
X167624329Y-91009811D01*
X167624329Y-91009811D02*
X167679967Y-90898535D01*
X167679967Y-90898535D02*
X167735605Y-90675983D01*
X167735605Y-90675983D02*
X167735605Y-90509068D01*
X167735605Y-90509068D02*
X167679967Y-90286516D01*
X167679967Y-90286516D02*
X167624329Y-90175240D01*
X167624329Y-90175240D02*
X167513053Y-90063964D01*
X167513053Y-90063964D02*
X167346138Y-90008326D01*
X167346138Y-90008326D02*
X167234862Y-90008326D01*
X167234862Y-90008326D02*
X167067948Y-90063964D01*
X167067948Y-90063964D02*
X167012310Y-90119602D01*
X166622843Y-90008326D02*
X165899548Y-90008326D01*
X165899548Y-90008326D02*
X166289015Y-90453430D01*
X166289015Y-90453430D02*
X166122100Y-90453430D01*
X166122100Y-90453430D02*
X166010824Y-90509068D01*
X166010824Y-90509068D02*
X165955186Y-90564707D01*
X165955186Y-90564707D02*
X165899548Y-90675983D01*
X165899548Y-90675983D02*
X165899548Y-90954173D01*
X165899548Y-90954173D02*
X165955186Y-91065449D01*
X165955186Y-91065449D02*
X166010824Y-91121088D01*
X166010824Y-91121088D02*
X166122100Y-91176726D01*
X166122100Y-91176726D02*
X166455929Y-91176726D01*
X166455929Y-91176726D02*
X166567205Y-91121088D01*
X166567205Y-91121088D02*
X166622843Y-91065449D01*
D11*
X153191666Y-118554819D02*
X153524999Y-118078628D01*
X153763094Y-118554819D02*
X153763094Y-117554819D01*
X153763094Y-117554819D02*
X153382142Y-117554819D01*
X153382142Y-117554819D02*
X153286904Y-117602438D01*
X153286904Y-117602438D02*
X153239285Y-117650057D01*
X153239285Y-117650057D02*
X153191666Y-117745295D01*
X153191666Y-117745295D02*
X153191666Y-117888152D01*
X153191666Y-117888152D02*
X153239285Y-117983390D01*
X153239285Y-117983390D02*
X153286904Y-118031009D01*
X153286904Y-118031009D02*
X153382142Y-118078628D01*
X153382142Y-118078628D02*
X153763094Y-118078628D01*
X152858332Y-117554819D02*
X152191666Y-117554819D01*
X152191666Y-117554819D02*
X152620237Y-118554819D01*
X166883333Y-84556009D02*
X167216666Y-84556009D01*
X167216666Y-85079819D02*
X167216666Y-84079819D01*
X167216666Y-84079819D02*
X166740476Y-84079819D01*
X166407142Y-84175057D02*
X166359523Y-84127438D01*
X166359523Y-84127438D02*
X166264285Y-84079819D01*
X166264285Y-84079819D02*
X166026190Y-84079819D01*
X166026190Y-84079819D02*
X165930952Y-84127438D01*
X165930952Y-84127438D02*
X165883333Y-84175057D01*
X165883333Y-84175057D02*
X165835714Y-84270295D01*
X165835714Y-84270295D02*
X165835714Y-84365533D01*
X165835714Y-84365533D02*
X165883333Y-84508390D01*
X165883333Y-84508390D02*
X166454761Y-85079819D01*
X166454761Y-85079819D02*
X165835714Y-85079819D01*
X151229819Y-101333333D02*
X150753628Y-101000000D01*
X151229819Y-100761905D02*
X150229819Y-100761905D01*
X150229819Y-100761905D02*
X150229819Y-101142857D01*
X150229819Y-101142857D02*
X150277438Y-101238095D01*
X150277438Y-101238095D02*
X150325057Y-101285714D01*
X150325057Y-101285714D02*
X150420295Y-101333333D01*
X150420295Y-101333333D02*
X150563152Y-101333333D01*
X150563152Y-101333333D02*
X150658390Y-101285714D01*
X150658390Y-101285714D02*
X150706009Y-101238095D01*
X150706009Y-101238095D02*
X150753628Y-101142857D01*
X150753628Y-101142857D02*
X150753628Y-100761905D01*
X150563152Y-102190476D02*
X151229819Y-102190476D01*
X150182200Y-101952381D02*
X150896485Y-101714286D01*
X150896485Y-101714286D02*
X150896485Y-102333333D01*
D13*
%TO.C,R5*%
X148527500Y-115854724D02*
X148527500Y-115345276D01*
X149572500Y-115854724D02*
X149572500Y-115345276D01*
%TO.C,C8*%
X150915000Y-105628733D02*
X150915000Y-105921267D01*
X151935000Y-105628733D02*
X151935000Y-105921267D01*
%TO.C,C11*%
X144890000Y-105066233D02*
X144890000Y-105358767D01*
X145910000Y-105066233D02*
X145910000Y-105358767D01*
%TO.C,C6*%
X152415000Y-105628733D02*
X152415000Y-105921267D01*
X153435000Y-105628733D02*
X153435000Y-105921267D01*
%TO.C,C4*%
X156533767Y-92365000D02*
X156241233Y-92365000D01*
X156533767Y-93385000D02*
X156241233Y-93385000D01*
%TO.C,C9*%
X147290000Y-101091233D02*
X147290000Y-101383767D01*
X148310000Y-101091233D02*
X148310000Y-101383767D01*
%TO.C,R1*%
X117627224Y-94652500D02*
X117117776Y-94652500D01*
X117627224Y-95697500D02*
X117117776Y-95697500D01*
%TO.C,C2*%
X142658767Y-94740000D02*
X142366233Y-94740000D01*
X142658767Y-95760000D02*
X142366233Y-95760000D01*
%TO.C,C5*%
X146440000Y-105053733D02*
X146440000Y-105346267D01*
X147460000Y-105053733D02*
X147460000Y-105346267D01*
%TO.C,R6*%
X150527500Y-115854724D02*
X150527500Y-115345276D01*
X151572500Y-115854724D02*
X151572500Y-115345276D01*
%TO.C,R8*%
X154577500Y-115817224D02*
X154577500Y-115307776D01*
X155622500Y-115817224D02*
X155622500Y-115307776D01*
%TO.C,R2*%
X117702224Y-98302500D02*
X117192776Y-98302500D01*
X117702224Y-99347500D02*
X117192776Y-99347500D01*
%TO.C,R7*%
X152577500Y-115817224D02*
X152577500Y-115307776D01*
X153622500Y-115817224D02*
X153622500Y-115307776D01*
%TO.C,F2*%
X167032064Y-85585000D02*
X165827936Y-85585000D01*
X167032064Y-87405000D02*
X165827936Y-87405000D01*
%TO.C,R4*%
X148777500Y-101492224D02*
X148777500Y-100982776D01*
X149822500Y-101492224D02*
X149822500Y-100982776D01*
%TD*%
M02*
