%TF.GenerationSoftware,KiCad,Pcbnew,9.0.0*%
%TF.CreationDate,2025-04-20T21:07:23+01:00*%
%TF.ProjectId,RISKYMSXCart,5249534b-594d-4535-9843-6172742e6b69,rev?*%
%TF.SameCoordinates,Original*%
%TF.FileFunction,Soldermask,Top*%
%TF.FilePolarity,Negative*%
%FSLAX46Y46*%
G04 Gerber Fmt 4.6, Leading zero omitted, Abs format (unit mm)*
G04 Created by KiCad (PCBNEW 9.0.0) date 2025-04-20 21:07:23*
%MOMM*%
%LPD*%
G01*
G04 APERTURE LIST*
G04 Aperture macros list*
%AMRoundRect*
0 Rectangle with rounded corners*
0 $1 Rounding radius*
0 $2 $3 $4 $5 $6 $7 $8 $9 X,Y pos of 4 corners*
0 Add a 4 corners polygon primitive as box body*
4,1,4,$2,$3,$4,$5,$6,$7,$8,$9,$2,$3,0*
0 Add four circle primitives for the rounded corners*
1,1,$1+$1,$2,$3*
1,1,$1+$1,$4,$5*
1,1,$1+$1,$6,$7*
1,1,$1+$1,$8,$9*
0 Add four rect primitives between the rounded corners*
20,1,$1+$1,$2,$3,$4,$5,0*
20,1,$1+$1,$4,$5,$6,$7,0*
20,1,$1+$1,$6,$7,$8,$9,0*
20,1,$1+$1,$8,$9,$2,$3,0*%
G04 Aperture macros list end*
%ADD10R,1.700000X1.700000*%
%ADD11O,1.700000X1.700000*%
%ADD12C,5.000000*%
%ADD13RoundRect,0.250000X-0.450000X0.325000X-0.450000X-0.325000X0.450000X-0.325000X0.450000X0.325000X0*%
%ADD14R,1.524000X1.524000*%
%ADD15C,1.524000*%
%ADD16C,3.500000*%
%ADD17RoundRect,0.050800X-0.635000X-3.810000X0.635000X-3.810000X0.635000X3.810000X-0.635000X3.810000X0*%
%ADD18RoundRect,0.050800X-0.635000X-3.175000X0.635000X-3.175000X0.635000X3.175000X-0.635000X3.175000X0*%
%ADD19RoundRect,0.075000X0.075000X-0.725000X0.075000X0.725000X-0.075000X0.725000X-0.075000X-0.725000X0*%
%ADD20RoundRect,0.075000X0.725000X-0.075000X0.725000X0.075000X-0.725000X0.075000X-0.725000X-0.075000X0*%
G04 APERTURE END LIST*
D10*
%TO.C,J1*%
X126460000Y-96700000D03*
D11*
X129000000Y-96700000D03*
%TD*%
D12*
%TO.C,@HOLE1*%
X176510300Y-116808934D03*
%TD*%
D10*
%TO.C,J2*%
X167060000Y-82575000D03*
D11*
X169600000Y-82575000D03*
%TD*%
D13*
%TO.C,D5*%
X173575000Y-81350000D03*
X173575000Y-83400000D03*
%TD*%
D14*
%TO.C,J7*%
X153000000Y-83727500D03*
D15*
X150500000Y-83727500D03*
X148500000Y-83727500D03*
X146000000Y-83727500D03*
D16*
X156070000Y-81017500D03*
X142930000Y-81017500D03*
%TD*%
D10*
%TO.C,J8*%
X121900000Y-87240000D03*
D11*
X121900000Y-84700000D03*
%TD*%
D17*
%TO.C,CN1*%
X178930300Y-128805934D03*
X176390300Y-128805934D03*
X173850300Y-128805934D03*
X171310300Y-128805934D03*
X168770300Y-128805934D03*
X166230300Y-128805934D03*
X163690300Y-128805934D03*
X161150300Y-128805934D03*
X158610300Y-128805934D03*
X156070300Y-128805934D03*
X153530300Y-128805934D03*
X150990300Y-128805934D03*
X148450300Y-128805934D03*
X145910300Y-128805934D03*
X143370300Y-128805934D03*
X140830300Y-128805934D03*
X138290300Y-128805934D03*
X135750300Y-128805934D03*
X133210300Y-128805934D03*
X130670300Y-128805934D03*
X128130300Y-128805934D03*
D18*
X125590300Y-128170934D03*
D17*
X123050300Y-128805934D03*
X120510300Y-128805934D03*
X117970300Y-128805934D03*
%TD*%
D12*
%TO.C,@HOLE1*%
X120510300Y-112793734D03*
%TD*%
D13*
%TO.C,D1*%
X134100000Y-81775000D03*
X134100000Y-83825000D03*
%TD*%
D19*
%TO.C,U1*%
X141000000Y-109050000D03*
X141500000Y-109050000D03*
X142000000Y-109050000D03*
X142500000Y-109050000D03*
X143000000Y-109050000D03*
X143500000Y-109050000D03*
X144000000Y-109050000D03*
X144500000Y-109050000D03*
X145000000Y-109050000D03*
X145500000Y-109050000D03*
X146000000Y-109050000D03*
X146500000Y-109050000D03*
X147000000Y-109050000D03*
X147500000Y-109050000D03*
X148000000Y-109050000D03*
X148500000Y-109050000D03*
X149000000Y-109050000D03*
X149500000Y-109050000D03*
X150000000Y-109050000D03*
X150500000Y-109050000D03*
X151000000Y-109050000D03*
X151500000Y-109050000D03*
X152000000Y-109050000D03*
X152500000Y-109050000D03*
X153000000Y-109050000D03*
D20*
X154675000Y-107375000D03*
X154675000Y-106875000D03*
X154675000Y-106375000D03*
X154675000Y-105875000D03*
X154675000Y-105375000D03*
X154675000Y-104875000D03*
X154675000Y-104375000D03*
X154675000Y-103875000D03*
X154675000Y-103375000D03*
X154675000Y-102875000D03*
X154675000Y-102375000D03*
X154675000Y-101875000D03*
X154675000Y-101375000D03*
X154675000Y-100875000D03*
X154675000Y-100375000D03*
X154675000Y-99875000D03*
X154675000Y-99375000D03*
X154675000Y-98875000D03*
X154675000Y-98375000D03*
X154675000Y-97875000D03*
X154675000Y-97375000D03*
X154675000Y-96875000D03*
X154675000Y-96375000D03*
X154675000Y-95875000D03*
X154675000Y-95375000D03*
D19*
X153000000Y-93700000D03*
X152500000Y-93700000D03*
X152000000Y-93700000D03*
X151500000Y-93700000D03*
X151000000Y-93700000D03*
X150500000Y-93700000D03*
X150000000Y-93700000D03*
X149500000Y-93700000D03*
X149000000Y-93700000D03*
X148500000Y-93700000D03*
X148000000Y-93700000D03*
X147500000Y-93700000D03*
X147000000Y-93700000D03*
X146500000Y-93700000D03*
X146000000Y-93700000D03*
X145500000Y-93700000D03*
X145000000Y-93700000D03*
X144500000Y-93700000D03*
X144000000Y-93700000D03*
X143500000Y-93700000D03*
X143000000Y-93700000D03*
X142500000Y-93700000D03*
X142000000Y-93700000D03*
X141500000Y-93700000D03*
X141000000Y-93700000D03*
D20*
X139325000Y-95375000D03*
X139325000Y-95875000D03*
X139325000Y-96375000D03*
X139325000Y-96875000D03*
X139325000Y-97375000D03*
X139325000Y-97875000D03*
X139325000Y-98375000D03*
X139325000Y-98875000D03*
X139325000Y-99375000D03*
X139325000Y-99875000D03*
X139325000Y-100375000D03*
X139325000Y-100875000D03*
X139325000Y-101375000D03*
X139325000Y-101875000D03*
X139325000Y-102375000D03*
X139325000Y-102875000D03*
X139325000Y-103375000D03*
X139325000Y-103875000D03*
X139325000Y-104375000D03*
X139325000Y-104875000D03*
X139325000Y-105375000D03*
X139325000Y-105875000D03*
X139325000Y-106375000D03*
X139325000Y-106875000D03*
X139325000Y-107375000D03*
%TD*%
M02*
