%TF.GenerationSoftware,KiCad,Pcbnew,9.0.0*%
%TF.CreationDate,2025-04-20T21:07:23+01:00*%
%TF.ProjectId,RISKYMSXCart,5249534b-594d-4535-9843-6172742e6b69,rev?*%
%TF.SameCoordinates,Original*%
%TF.FileFunction,Legend,Top*%
%TF.FilePolarity,Positive*%
%FSLAX46Y46*%
G04 Gerber Fmt 4.6, Leading zero omitted, Abs format (unit mm)*
G04 Created by KiCad (PCBNEW 9.0.0) date 2025-04-20 21:07:23*
%MOMM*%
%LPD*%
G01*
G04 APERTURE LIST*
%ADD10C,0.203200*%
%ADD11C,0.228600*%
%ADD12C,0.300000*%
%ADD13C,0.150000*%
%ADD14C,0.120000*%
G04 APERTURE END LIST*
D10*
X168849059Y-123746234D02*
X168757618Y-123883394D01*
X130540781Y-123573516D02*
X130086118Y-124211053D01*
X169077659Y-124655553D02*
X169212281Y-124609834D01*
X117485181Y-124109484D02*
X117622340Y-124109484D01*
X118196381Y-124198384D02*
X118196381Y-124335534D01*
X118785659Y-124561594D02*
X118831381Y-124335534D01*
X131112281Y-124345675D02*
X131203718Y-124482834D01*
X169349440Y-124246616D02*
X169349440Y-124109453D01*
X131112281Y-123756394D02*
X131069100Y-123982453D01*
X117896659Y-124381253D02*
X117896659Y-124472694D01*
X118694218Y-123835166D02*
X118559600Y-123789434D01*
X117350559Y-124698753D02*
X117304840Y-124653034D01*
X178553900Y-124316819D02*
X179191441Y-124316819D01*
X131658381Y-123756394D02*
X131566940Y-123619234D01*
X131203718Y-123619234D02*
X131112281Y-123756394D01*
X131069100Y-123982453D02*
X131069100Y-124119616D01*
X118196381Y-124335534D02*
X118242100Y-124561594D01*
X117850940Y-124244094D02*
X117896659Y-124381253D01*
X130540781Y-123573516D02*
X130540781Y-124528553D01*
X131432318Y-124528553D02*
X131566940Y-124482834D01*
X168412181Y-123700516D02*
X168412181Y-124655553D01*
X117896659Y-124472694D02*
X117850940Y-124607325D01*
X178691063Y-123407500D02*
X178779963Y-123361782D01*
X118559600Y-123789434D02*
X118468159Y-123789434D01*
X118242100Y-124561594D02*
X118331000Y-124698753D01*
X179145722Y-123544660D02*
X179145722Y-123636100D01*
X117350559Y-123789434D02*
X117304840Y-124198384D01*
X179054282Y-123793580D02*
X178553900Y-124316819D01*
X179100000Y-123453219D02*
X179145722Y-123544660D01*
X118831381Y-124335534D02*
X118831381Y-124198384D01*
X131340881Y-124528553D02*
X131432318Y-124528553D01*
X118242100Y-123972325D02*
X118196381Y-124198384D01*
X118559600Y-124744484D02*
X118694218Y-124698753D01*
X117350559Y-124152666D02*
X117485181Y-124109484D01*
X168986218Y-124655553D02*
X169077659Y-124655553D01*
X131069100Y-124119616D02*
X131112281Y-124345675D01*
X179100000Y-123725000D02*
X179008563Y-123862160D01*
X131704100Y-124119616D02*
X131704100Y-123982453D01*
X118331000Y-123835166D02*
X118242100Y-123972325D01*
X168757618Y-123883394D02*
X168714440Y-124109453D01*
X131203718Y-124482834D02*
X131340881Y-124528553D01*
X179145722Y-123636100D02*
X179100000Y-123725000D01*
X131432318Y-123573516D02*
X131340881Y-123573516D01*
X117485181Y-124744484D02*
X117350559Y-124698753D01*
X168714440Y-124109453D02*
X168714440Y-124246616D01*
X117304840Y-124653034D02*
X117259118Y-124561594D01*
X169212281Y-124609834D02*
X169303718Y-124472675D01*
X168849059Y-124609834D02*
X168986218Y-124655553D01*
X169303718Y-123883394D02*
X169212281Y-123746234D01*
X117759500Y-124152666D02*
X117850940Y-124244094D01*
X131658381Y-124345675D02*
X131704100Y-124119616D01*
X117805218Y-123789434D02*
X117350559Y-123789434D01*
X131566940Y-124482834D02*
X131658381Y-124345675D01*
X131704100Y-123982453D02*
X131658381Y-123756394D01*
X117850940Y-124607325D02*
X117759500Y-124698753D01*
X117622340Y-124109484D02*
X117759500Y-124152666D01*
X130086118Y-124211053D02*
X130766840Y-124211053D01*
X131340881Y-123573516D02*
X131203718Y-123619234D01*
X179054282Y-123407500D02*
X179100000Y-123453219D01*
X168757618Y-124472675D02*
X168849059Y-124609834D01*
X178599622Y-123590382D02*
X178599622Y-123544660D01*
X168714440Y-124246616D02*
X168757618Y-124472675D01*
X117304840Y-124198384D02*
X117350559Y-124152666D01*
X178779963Y-123361782D02*
X178962841Y-123361782D01*
X169212281Y-123746234D02*
X169077659Y-123700516D01*
X118331000Y-124698753D02*
X118468159Y-124744484D01*
X169303718Y-124472675D02*
X169349440Y-124246616D01*
X118831381Y-124198384D02*
X118785659Y-123972325D01*
X117759500Y-124698753D02*
X117622340Y-124744484D01*
X169077659Y-123700516D02*
X168986218Y-123700516D01*
X131566940Y-123619234D02*
X131432318Y-123573516D01*
X118785659Y-123972325D02*
X118694218Y-123835166D01*
X118468159Y-123789434D02*
X118331000Y-123835166D01*
X118694218Y-124698753D02*
X118785659Y-124561594D01*
X178599622Y-123544660D02*
X178645341Y-123453219D01*
X117622340Y-124744484D02*
X117485181Y-124744484D01*
X169349440Y-124109453D02*
X169303718Y-123883394D01*
X168277559Y-123837675D02*
X168412181Y-123700516D01*
X178645341Y-123453219D02*
X178691063Y-123407500D01*
X168986218Y-123700516D02*
X168849059Y-123746234D01*
X118468159Y-124744484D02*
X118559600Y-124744484D01*
X178962841Y-123361782D02*
X179054282Y-123407500D01*
X168186118Y-123883394D02*
X168277559Y-123837675D01*
D11*
X124497870Y-87892011D02*
X124449489Y-87940392D01*
X124449489Y-87940392D02*
X124304346Y-87988772D01*
X124304346Y-87988772D02*
X124207584Y-87988772D01*
X124207584Y-87988772D02*
X124062441Y-87940392D01*
X124062441Y-87940392D02*
X123965679Y-87843630D01*
X123965679Y-87843630D02*
X123917298Y-87746868D01*
X123917298Y-87746868D02*
X123868917Y-87553344D01*
X123868917Y-87553344D02*
X123868917Y-87408201D01*
X123868917Y-87408201D02*
X123917298Y-87214677D01*
X123917298Y-87214677D02*
X123965679Y-87117915D01*
X123965679Y-87117915D02*
X124062441Y-87021153D01*
X124062441Y-87021153D02*
X124207584Y-86972772D01*
X124207584Y-86972772D02*
X124304346Y-86972772D01*
X124304346Y-86972772D02*
X124449489Y-87021153D01*
X124449489Y-87021153D02*
X124497870Y-87069534D01*
X125417108Y-87988772D02*
X124933298Y-87988772D01*
X124933298Y-87988772D02*
X124933298Y-86972772D01*
X125755774Y-87988772D02*
X125755774Y-86972772D01*
X126336346Y-87988772D02*
X125900917Y-87408201D01*
X126336346Y-86972772D02*
X125755774Y-87553344D01*
X120468917Y-82165392D02*
X120614060Y-82213772D01*
X120614060Y-82213772D02*
X120855965Y-82213772D01*
X120855965Y-82213772D02*
X120952727Y-82165392D01*
X120952727Y-82165392D02*
X121001108Y-82117011D01*
X121001108Y-82117011D02*
X121049489Y-82020249D01*
X121049489Y-82020249D02*
X121049489Y-81923487D01*
X121049489Y-81923487D02*
X121001108Y-81826725D01*
X121001108Y-81826725D02*
X120952727Y-81778344D01*
X120952727Y-81778344D02*
X120855965Y-81729963D01*
X120855965Y-81729963D02*
X120662441Y-81681582D01*
X120662441Y-81681582D02*
X120565679Y-81633201D01*
X120565679Y-81633201D02*
X120517298Y-81584820D01*
X120517298Y-81584820D02*
X120468917Y-81488058D01*
X120468917Y-81488058D02*
X120468917Y-81391296D01*
X120468917Y-81391296D02*
X120517298Y-81294534D01*
X120517298Y-81294534D02*
X120565679Y-81246153D01*
X120565679Y-81246153D02*
X120662441Y-81197772D01*
X120662441Y-81197772D02*
X120904346Y-81197772D01*
X120904346Y-81197772D02*
X121049489Y-81246153D01*
X121388155Y-81197772D02*
X121630060Y-82213772D01*
X121630060Y-82213772D02*
X121823584Y-81488058D01*
X121823584Y-81488058D02*
X122017108Y-82213772D01*
X122017108Y-82213772D02*
X122259013Y-81197772D01*
D12*
X131804510Y-78790114D02*
X131304510Y-78790114D01*
X131304510Y-79575828D02*
X131304510Y-78075828D01*
X131304510Y-78075828D02*
X132018796Y-78075828D01*
X133304510Y-79575828D02*
X132590224Y-79575828D01*
X132590224Y-79575828D02*
X132590224Y-78075828D01*
X133733082Y-79147257D02*
X134447368Y-79147257D01*
X133590225Y-79575828D02*
X134090225Y-78075828D01*
X134090225Y-78075828D02*
X134590225Y-79575828D01*
X135018796Y-79504400D02*
X135233082Y-79575828D01*
X135233082Y-79575828D02*
X135590224Y-79575828D01*
X135590224Y-79575828D02*
X135733082Y-79504400D01*
X135733082Y-79504400D02*
X135804510Y-79432971D01*
X135804510Y-79432971D02*
X135875939Y-79290114D01*
X135875939Y-79290114D02*
X135875939Y-79147257D01*
X135875939Y-79147257D02*
X135804510Y-79004400D01*
X135804510Y-79004400D02*
X135733082Y-78932971D01*
X135733082Y-78932971D02*
X135590224Y-78861542D01*
X135590224Y-78861542D02*
X135304510Y-78790114D01*
X135304510Y-78790114D02*
X135161653Y-78718685D01*
X135161653Y-78718685D02*
X135090224Y-78647257D01*
X135090224Y-78647257D02*
X135018796Y-78504400D01*
X135018796Y-78504400D02*
X135018796Y-78361542D01*
X135018796Y-78361542D02*
X135090224Y-78218685D01*
X135090224Y-78218685D02*
X135161653Y-78147257D01*
X135161653Y-78147257D02*
X135304510Y-78075828D01*
X135304510Y-78075828D02*
X135661653Y-78075828D01*
X135661653Y-78075828D02*
X135875939Y-78147257D01*
X136518795Y-79575828D02*
X136518795Y-78075828D01*
X136518795Y-78790114D02*
X137375938Y-78790114D01*
X137375938Y-79575828D02*
X137375938Y-78075828D01*
G36*
X169730374Y-87740519D02*
G01*
X169902485Y-87753703D01*
X170058456Y-87777029D01*
X170224318Y-87818407D01*
X170366939Y-87874389D01*
X170486319Y-87944976D01*
X170598577Y-88047387D01*
X170683264Y-88172883D01*
X170740378Y-88321462D01*
X170769920Y-88493125D01*
X170774422Y-88601582D01*
X170762526Y-88767429D01*
X170726841Y-88915727D01*
X170659287Y-89059921D01*
X170624042Y-89111532D01*
X170515689Y-89225585D01*
X170392811Y-89310827D01*
X170245907Y-89379581D01*
X170172904Y-89404846D01*
X170320319Y-89461869D01*
X170444328Y-89553756D01*
X170469196Y-89578304D01*
X170567883Y-89699045D01*
X170650761Y-89829731D01*
X170725849Y-89970720D01*
X170734221Y-89987752D01*
X171171959Y-90881840D01*
X170313606Y-90881840D01*
X169932446Y-90099420D01*
X169860036Y-89966538D01*
X169772377Y-89845658D01*
X169698688Y-89777072D01*
X169560778Y-89712305D01*
X169408046Y-89691053D01*
X169383785Y-89690716D01*
X169155982Y-89690716D01*
X169155982Y-90881840D01*
X168349741Y-90881840D01*
X168349741Y-89118977D01*
X169155982Y-89118977D01*
X169494708Y-89118977D01*
X169652170Y-89107717D01*
X169803212Y-89060816D01*
X169858001Y-89023687D01*
X169940635Y-88897874D01*
X169967211Y-88750703D01*
X169968180Y-88711017D01*
X169949996Y-88555878D01*
X169877691Y-88420597D01*
X169858001Y-88402069D01*
X169723672Y-88335276D01*
X169570513Y-88311285D01*
X169494708Y-88309013D01*
X169155982Y-88309013D01*
X169155982Y-89118977D01*
X168349741Y-89118977D01*
X168349741Y-87737273D01*
X169581065Y-87737273D01*
X169730374Y-87740519D01*
G37*
G36*
X171634264Y-87737273D02*
G01*
X172440506Y-87737273D01*
X172440506Y-90881840D01*
X171634264Y-90881840D01*
X171634264Y-87737273D01*
G37*
G36*
X175396725Y-87841497D02*
G01*
X175396725Y-88499592D01*
X175252837Y-88437663D01*
X175110952Y-88385037D01*
X174955649Y-88337476D01*
X174894220Y-88321668D01*
X174743759Y-88289869D01*
X174584298Y-88268493D01*
X174431171Y-88261368D01*
X174280589Y-88267728D01*
X174128853Y-88292774D01*
X174003855Y-88341769D01*
X173896393Y-88452197D01*
X173866132Y-88591160D01*
X173910115Y-88739457D01*
X173959188Y-88789184D01*
X174100922Y-88858655D01*
X174252581Y-88900862D01*
X174297169Y-88910530D01*
X174641106Y-88979764D01*
X174796594Y-89015220D01*
X174963747Y-89064773D01*
X175109700Y-89121968D01*
X175253186Y-89198354D01*
X175381836Y-89298390D01*
X175478243Y-89416525D01*
X175547105Y-89557273D01*
X175588422Y-89720634D01*
X175601979Y-89882124D01*
X175602194Y-89906607D01*
X175594706Y-90061841D01*
X175565951Y-90231087D01*
X175515631Y-90381752D01*
X175443745Y-90513834D01*
X175332621Y-90644444D01*
X175295480Y-90677115D01*
X175169077Y-90762881D01*
X175019904Y-90830903D01*
X174847962Y-90881179D01*
X174687283Y-90909522D01*
X174510792Y-90925541D01*
X174358214Y-90929484D01*
X174190896Y-90925127D01*
X174041773Y-90913937D01*
X173892277Y-90895861D01*
X173761164Y-90874395D01*
X173611529Y-90843175D01*
X173461894Y-90805347D01*
X173312259Y-90760913D01*
X173162624Y-90709871D01*
X173162624Y-90024231D01*
X173311003Y-90102119D01*
X173456869Y-90169771D01*
X173600222Y-90227187D01*
X173741064Y-90274367D01*
X173896925Y-90314672D01*
X174049607Y-90341786D01*
X174199109Y-90355710D01*
X174280791Y-90357745D01*
X174433433Y-90349021D01*
X174584743Y-90315521D01*
X174684284Y-90268411D01*
X174789811Y-90159349D01*
X174824986Y-90012319D01*
X174794836Y-89865651D01*
X174729696Y-89781539D01*
X174598814Y-89709228D01*
X174450020Y-89660982D01*
X174350025Y-89636371D01*
X174038100Y-89567137D01*
X173871069Y-89525288D01*
X173721731Y-89475116D01*
X173569864Y-89406063D01*
X173442079Y-89325681D01*
X173351715Y-89247767D01*
X173256937Y-89128468D01*
X173189238Y-88990186D01*
X173148619Y-88832921D01*
X173135291Y-88679741D01*
X173135079Y-88656672D01*
X173145679Y-88489502D01*
X173177478Y-88337511D01*
X173241371Y-88179375D01*
X173334119Y-88041900D01*
X173436583Y-87940509D01*
X173558937Y-87855249D01*
X173699874Y-87787629D01*
X173859394Y-87737649D01*
X174006521Y-87709474D01*
X174166553Y-87693548D01*
X174303869Y-87689628D01*
X174466238Y-87693336D01*
X174631370Y-87704459D01*
X174782351Y-87720810D01*
X174833175Y-87727596D01*
X174987911Y-87751955D01*
X175145592Y-87782321D01*
X175306217Y-87818694D01*
X175396725Y-87841497D01*
G37*
G36*
X176294535Y-87737273D02*
G01*
X177100776Y-87737273D01*
X177100776Y-88885219D01*
X178262866Y-87737273D01*
X179198643Y-87737273D01*
X177693360Y-89226178D01*
X179353489Y-90881840D01*
X178344011Y-90881840D01*
X177100776Y-89643071D01*
X177100776Y-90881840D01*
X176294535Y-90881840D01*
X176294535Y-87737273D01*
G37*
G36*
X179164398Y-87737273D02*
G01*
X180045829Y-87737273D01*
X180757526Y-88857674D01*
X181469222Y-87737273D01*
X182352887Y-87737273D01*
X181161763Y-89556715D01*
X181161763Y-90881840D01*
X180355521Y-90881840D01*
X180355521Y-89556715D01*
X179164398Y-87737273D01*
G37*
D11*
X127430965Y-93981582D02*
X127576108Y-94029963D01*
X127576108Y-94029963D02*
X127624489Y-94078344D01*
X127624489Y-94078344D02*
X127672870Y-94175106D01*
X127672870Y-94175106D02*
X127672870Y-94320249D01*
X127672870Y-94320249D02*
X127624489Y-94417011D01*
X127624489Y-94417011D02*
X127576108Y-94465392D01*
X127576108Y-94465392D02*
X127479346Y-94513772D01*
X127479346Y-94513772D02*
X127092298Y-94513772D01*
X127092298Y-94513772D02*
X127092298Y-93497772D01*
X127092298Y-93497772D02*
X127430965Y-93497772D01*
X127430965Y-93497772D02*
X127527727Y-93546153D01*
X127527727Y-93546153D02*
X127576108Y-93594534D01*
X127576108Y-93594534D02*
X127624489Y-93691296D01*
X127624489Y-93691296D02*
X127624489Y-93788058D01*
X127624489Y-93788058D02*
X127576108Y-93884820D01*
X127576108Y-93884820D02*
X127527727Y-93933201D01*
X127527727Y-93933201D02*
X127430965Y-93981582D01*
X127430965Y-93981582D02*
X127092298Y-93981582D01*
X128301822Y-93497772D02*
X128398584Y-93497772D01*
X128398584Y-93497772D02*
X128495346Y-93546153D01*
X128495346Y-93546153D02*
X128543727Y-93594534D01*
X128543727Y-93594534D02*
X128592108Y-93691296D01*
X128592108Y-93691296D02*
X128640489Y-93884820D01*
X128640489Y-93884820D02*
X128640489Y-94126725D01*
X128640489Y-94126725D02*
X128592108Y-94320249D01*
X128592108Y-94320249D02*
X128543727Y-94417011D01*
X128543727Y-94417011D02*
X128495346Y-94465392D01*
X128495346Y-94465392D02*
X128398584Y-94513772D01*
X128398584Y-94513772D02*
X128301822Y-94513772D01*
X128301822Y-94513772D02*
X128205060Y-94465392D01*
X128205060Y-94465392D02*
X128156679Y-94417011D01*
X128156679Y-94417011D02*
X128108298Y-94320249D01*
X128108298Y-94320249D02*
X128059917Y-94126725D01*
X128059917Y-94126725D02*
X128059917Y-93884820D01*
X128059917Y-93884820D02*
X128108298Y-93691296D01*
X128108298Y-93691296D02*
X128156679Y-93594534D01*
X128156679Y-93594534D02*
X128205060Y-93546153D01*
X128205060Y-93546153D02*
X128301822Y-93497772D01*
D12*
X166711653Y-96825828D02*
X166211653Y-96111542D01*
X165854510Y-96825828D02*
X165854510Y-95325828D01*
X165854510Y-95325828D02*
X166425939Y-95325828D01*
X166425939Y-95325828D02*
X166568796Y-95397257D01*
X166568796Y-95397257D02*
X166640225Y-95468685D01*
X166640225Y-95468685D02*
X166711653Y-95611542D01*
X166711653Y-95611542D02*
X166711653Y-95825828D01*
X166711653Y-95825828D02*
X166640225Y-95968685D01*
X166640225Y-95968685D02*
X166568796Y-96040114D01*
X166568796Y-96040114D02*
X166425939Y-96111542D01*
X166425939Y-96111542D02*
X165854510Y-96111542D01*
X167925939Y-96754400D02*
X167783082Y-96825828D01*
X167783082Y-96825828D02*
X167497368Y-96825828D01*
X167497368Y-96825828D02*
X167354510Y-96754400D01*
X167354510Y-96754400D02*
X167283082Y-96611542D01*
X167283082Y-96611542D02*
X167283082Y-96040114D01*
X167283082Y-96040114D02*
X167354510Y-95897257D01*
X167354510Y-95897257D02*
X167497368Y-95825828D01*
X167497368Y-95825828D02*
X167783082Y-95825828D01*
X167783082Y-95825828D02*
X167925939Y-95897257D01*
X167925939Y-95897257D02*
X167997368Y-96040114D01*
X167997368Y-96040114D02*
X167997368Y-96182971D01*
X167997368Y-96182971D02*
X167283082Y-96325828D01*
X168497367Y-95825828D02*
X168854510Y-96825828D01*
X168854510Y-96825828D02*
X169211653Y-95825828D01*
X169783081Y-96682971D02*
X169854510Y-96754400D01*
X169854510Y-96754400D02*
X169783081Y-96825828D01*
X169783081Y-96825828D02*
X169711653Y-96754400D01*
X169711653Y-96754400D02*
X169783081Y-96682971D01*
X169783081Y-96682971D02*
X169783081Y-96825828D01*
X170425939Y-95468685D02*
X170497367Y-95397257D01*
X170497367Y-95397257D02*
X170640225Y-95325828D01*
X170640225Y-95325828D02*
X170997367Y-95325828D01*
X170997367Y-95325828D02*
X171140225Y-95397257D01*
X171140225Y-95397257D02*
X171211653Y-95468685D01*
X171211653Y-95468685D02*
X171283082Y-95611542D01*
X171283082Y-95611542D02*
X171283082Y-95754400D01*
X171283082Y-95754400D02*
X171211653Y-95968685D01*
X171211653Y-95968685D02*
X170354510Y-96825828D01*
X170354510Y-96825828D02*
X171283082Y-96825828D01*
X171925938Y-96682971D02*
X171997367Y-96754400D01*
X171997367Y-96754400D02*
X171925938Y-96825828D01*
X171925938Y-96825828D02*
X171854510Y-96754400D01*
X171854510Y-96754400D02*
X171925938Y-96682971D01*
X171925938Y-96682971D02*
X171925938Y-96825828D01*
X173425939Y-96825828D02*
X172568796Y-96825828D01*
X172997367Y-96825828D02*
X172997367Y-95325828D01*
X172997367Y-95325828D02*
X172854510Y-95540114D01*
X172854510Y-95540114D02*
X172711653Y-95682971D01*
X172711653Y-95682971D02*
X172568796Y-95754400D01*
D11*
X165697155Y-84797772D02*
X166277727Y-84797772D01*
X165987441Y-85813772D02*
X165987441Y-84797772D01*
X166519631Y-84797772D02*
X167196965Y-85813772D01*
X167196965Y-84797772D02*
X166519631Y-85813772D01*
D12*
G36*
X170165338Y-91437273D02*
G01*
X171191193Y-91437273D01*
X171902889Y-93110058D01*
X172619052Y-91437273D01*
X173642674Y-91437273D01*
X173642674Y-94581840D01*
X172881099Y-94581840D01*
X172881099Y-92277015D01*
X172160470Y-93962455D01*
X171649775Y-93962455D01*
X170929146Y-92277015D01*
X170929146Y-94581840D01*
X170165338Y-94581840D01*
X170165338Y-91437273D01*
G37*
G36*
X176586982Y-91541497D02*
G01*
X176586982Y-92199592D01*
X176443094Y-92137663D01*
X176301209Y-92085037D01*
X176145906Y-92037476D01*
X176084477Y-92021668D01*
X175934016Y-91989869D01*
X175774555Y-91968493D01*
X175621428Y-91961368D01*
X175470846Y-91967728D01*
X175319110Y-91992774D01*
X175194112Y-92041769D01*
X175086650Y-92152197D01*
X175056389Y-92291160D01*
X175100372Y-92439457D01*
X175149445Y-92489184D01*
X175291179Y-92558655D01*
X175442838Y-92600862D01*
X175487426Y-92610530D01*
X175831363Y-92679764D01*
X175986851Y-92715220D01*
X176154004Y-92764773D01*
X176299958Y-92821968D01*
X176443443Y-92898354D01*
X176572093Y-92998390D01*
X176668500Y-93116525D01*
X176737362Y-93257273D01*
X176778679Y-93420634D01*
X176792236Y-93582124D01*
X176792451Y-93606607D01*
X176784963Y-93761841D01*
X176756209Y-93931087D01*
X176705888Y-94081752D01*
X176634002Y-94213834D01*
X176522878Y-94344444D01*
X176485737Y-94377115D01*
X176359334Y-94462881D01*
X176210162Y-94530903D01*
X176038219Y-94581179D01*
X175877541Y-94609522D01*
X175701049Y-94625541D01*
X175548472Y-94629484D01*
X175381153Y-94625127D01*
X175232030Y-94613937D01*
X175082535Y-94595861D01*
X174951421Y-94574395D01*
X174801786Y-94543175D01*
X174652151Y-94505347D01*
X174502516Y-94460913D01*
X174352881Y-94409871D01*
X174352881Y-93724231D01*
X174501260Y-93802119D01*
X174647126Y-93869771D01*
X174790480Y-93927187D01*
X174931321Y-93974367D01*
X175087182Y-94014672D01*
X175239864Y-94041786D01*
X175389366Y-94055710D01*
X175471049Y-94057745D01*
X175623690Y-94049021D01*
X175775000Y-94015521D01*
X175874542Y-93968411D01*
X175980068Y-93859349D01*
X176015243Y-93712319D01*
X175985093Y-93565651D01*
X175919953Y-93481539D01*
X175789071Y-93409228D01*
X175640278Y-93360982D01*
X175540283Y-93336371D01*
X175228357Y-93267137D01*
X175061326Y-93225288D01*
X174911988Y-93175116D01*
X174760121Y-93106063D01*
X174632336Y-93025681D01*
X174541972Y-92947767D01*
X174447194Y-92828468D01*
X174379495Y-92690186D01*
X174338876Y-92532921D01*
X174325548Y-92379741D01*
X174325337Y-92356672D01*
X174335936Y-92189502D01*
X174367735Y-92037511D01*
X174431628Y-91879375D01*
X174524376Y-91741900D01*
X174626840Y-91640509D01*
X174749195Y-91555249D01*
X174890132Y-91487629D01*
X175049651Y-91437649D01*
X175196778Y-91409474D01*
X175356810Y-91393548D01*
X175494127Y-91389628D01*
X175656496Y-91393336D01*
X175821627Y-91404459D01*
X175972608Y-91420810D01*
X176023432Y-91427596D01*
X176178168Y-91451955D01*
X176335849Y-91482321D01*
X176496474Y-91518694D01*
X176586982Y-91541497D01*
G37*
G36*
X179226810Y-92976801D02*
G01*
X180311477Y-94581840D01*
X179471735Y-94581840D01*
X178740683Y-93507595D01*
X178016331Y-94581840D01*
X177172866Y-94581840D01*
X178257533Y-92976801D01*
X177214556Y-91437273D01*
X178055787Y-91437273D01*
X178740683Y-92450473D01*
X179423345Y-91437273D01*
X180269043Y-91437273D01*
X179226810Y-92976801D01*
G37*
D11*
X124117298Y-84938772D02*
X124117298Y-83922772D01*
X124117298Y-83922772D02*
X124359203Y-83922772D01*
X124359203Y-83922772D02*
X124504346Y-83971153D01*
X124504346Y-83971153D02*
X124601108Y-84067915D01*
X124601108Y-84067915D02*
X124649489Y-84164677D01*
X124649489Y-84164677D02*
X124697870Y-84358201D01*
X124697870Y-84358201D02*
X124697870Y-84503344D01*
X124697870Y-84503344D02*
X124649489Y-84696868D01*
X124649489Y-84696868D02*
X124601108Y-84793630D01*
X124601108Y-84793630D02*
X124504346Y-84890392D01*
X124504346Y-84890392D02*
X124359203Y-84938772D01*
X124359203Y-84938772D02*
X124117298Y-84938772D01*
X125084917Y-84648487D02*
X125568727Y-84648487D01*
X124988155Y-84938772D02*
X125326822Y-83922772D01*
X125326822Y-83922772D02*
X125665489Y-84938772D01*
X125859012Y-83922772D02*
X126439584Y-83922772D01*
X126149298Y-84938772D02*
X126149298Y-83922772D01*
X169047870Y-85788772D02*
X168709203Y-85304963D01*
X168467298Y-85788772D02*
X168467298Y-84772772D01*
X168467298Y-84772772D02*
X168854346Y-84772772D01*
X168854346Y-84772772D02*
X168951108Y-84821153D01*
X168951108Y-84821153D02*
X168999489Y-84869534D01*
X168999489Y-84869534D02*
X169047870Y-84966296D01*
X169047870Y-84966296D02*
X169047870Y-85111439D01*
X169047870Y-85111439D02*
X168999489Y-85208201D01*
X168999489Y-85208201D02*
X168951108Y-85256582D01*
X168951108Y-85256582D02*
X168854346Y-85304963D01*
X168854346Y-85304963D02*
X168467298Y-85304963D01*
X169386536Y-84772772D02*
X170063870Y-85788772D01*
X170063870Y-84772772D02*
X169386536Y-85788772D01*
D13*
X172216667Y-79804819D02*
X172216667Y-78804819D01*
X172216667Y-78804819D02*
X172597619Y-78804819D01*
X172597619Y-78804819D02*
X172692857Y-78852438D01*
X172692857Y-78852438D02*
X172740476Y-78900057D01*
X172740476Y-78900057D02*
X172788095Y-78995295D01*
X172788095Y-78995295D02*
X172788095Y-79138152D01*
X172788095Y-79138152D02*
X172740476Y-79233390D01*
X172740476Y-79233390D02*
X172692857Y-79281009D01*
X172692857Y-79281009D02*
X172597619Y-79328628D01*
X172597619Y-79328628D02*
X172216667Y-79328628D01*
X173121429Y-78804819D02*
X173359524Y-79804819D01*
X173359524Y-79804819D02*
X173550000Y-79090533D01*
X173550000Y-79090533D02*
X173740476Y-79804819D01*
X173740476Y-79804819D02*
X173978572Y-78804819D01*
X174930952Y-79804819D02*
X174597619Y-79328628D01*
X174359524Y-79804819D02*
X174359524Y-78804819D01*
X174359524Y-78804819D02*
X174740476Y-78804819D01*
X174740476Y-78804819D02*
X174835714Y-78852438D01*
X174835714Y-78852438D02*
X174883333Y-78900057D01*
X174883333Y-78900057D02*
X174930952Y-78995295D01*
X174930952Y-78995295D02*
X174930952Y-79138152D01*
X174930952Y-79138152D02*
X174883333Y-79233390D01*
X174883333Y-79233390D02*
X174835714Y-79281009D01*
X174835714Y-79281009D02*
X174740476Y-79328628D01*
X174740476Y-79328628D02*
X174359524Y-79328628D01*
X121566666Y-89024819D02*
X121566666Y-89739104D01*
X121566666Y-89739104D02*
X121519047Y-89881961D01*
X121519047Y-89881961D02*
X121423809Y-89977200D01*
X121423809Y-89977200D02*
X121280952Y-90024819D01*
X121280952Y-90024819D02*
X121185714Y-90024819D01*
X122185714Y-89453390D02*
X122090476Y-89405771D01*
X122090476Y-89405771D02*
X122042857Y-89358152D01*
X122042857Y-89358152D02*
X121995238Y-89262914D01*
X121995238Y-89262914D02*
X121995238Y-89215295D01*
X121995238Y-89215295D02*
X122042857Y-89120057D01*
X122042857Y-89120057D02*
X122090476Y-89072438D01*
X122090476Y-89072438D02*
X122185714Y-89024819D01*
X122185714Y-89024819D02*
X122376190Y-89024819D01*
X122376190Y-89024819D02*
X122471428Y-89072438D01*
X122471428Y-89072438D02*
X122519047Y-89120057D01*
X122519047Y-89120057D02*
X122566666Y-89215295D01*
X122566666Y-89215295D02*
X122566666Y-89262914D01*
X122566666Y-89262914D02*
X122519047Y-89358152D01*
X122519047Y-89358152D02*
X122471428Y-89405771D01*
X122471428Y-89405771D02*
X122376190Y-89453390D01*
X122376190Y-89453390D02*
X122185714Y-89453390D01*
X122185714Y-89453390D02*
X122090476Y-89501009D01*
X122090476Y-89501009D02*
X122042857Y-89548628D01*
X122042857Y-89548628D02*
X121995238Y-89643866D01*
X121995238Y-89643866D02*
X121995238Y-89834342D01*
X121995238Y-89834342D02*
X122042857Y-89929580D01*
X122042857Y-89929580D02*
X122090476Y-89977200D01*
X122090476Y-89977200D02*
X122185714Y-90024819D01*
X122185714Y-90024819D02*
X122376190Y-90024819D01*
X122376190Y-90024819D02*
X122471428Y-89977200D01*
X122471428Y-89977200D02*
X122519047Y-89929580D01*
X122519047Y-89929580D02*
X122566666Y-89834342D01*
X122566666Y-89834342D02*
X122566666Y-89643866D01*
X122566666Y-89643866D02*
X122519047Y-89548628D01*
X122519047Y-89548628D02*
X122471428Y-89501009D01*
X122471428Y-89501009D02*
X122376190Y-89453390D01*
D14*
%TO.C,J1*%
X125130000Y-98030000D02*
X125130000Y-96700000D01*
X126460000Y-98030000D02*
X125130000Y-98030000D01*
X127730000Y-95370000D02*
X130330000Y-95370000D01*
X127730000Y-98030000D02*
X127730000Y-95370000D01*
X127730000Y-98030000D02*
X130330000Y-98030000D01*
X130330000Y-98030000D02*
X130330000Y-95370000D01*
%TO.C,J2*%
X165730000Y-83905000D02*
X165730000Y-82575000D01*
X167060000Y-83905000D02*
X165730000Y-83905000D01*
X168330000Y-81245000D02*
X170930000Y-81245000D01*
X168330000Y-83905000D02*
X168330000Y-81245000D01*
X168330000Y-83905000D02*
X170930000Y-83905000D01*
X170930000Y-83905000D02*
X170930000Y-81245000D01*
%TO.C,D5*%
X172615000Y-80515000D02*
X172615000Y-83375000D01*
X174535000Y-80515000D02*
X172615000Y-80515000D01*
X174535000Y-83375000D02*
X174535000Y-80515000D01*
%TO.C,J7*%
X142140000Y-82867500D02*
X142140000Y-84847500D01*
X152500000Y-85727500D02*
X153500000Y-85727500D01*
X153000000Y-85227500D02*
X152500000Y-85727500D01*
X153500000Y-85727500D02*
X153000000Y-85227500D01*
X156860000Y-84847500D02*
X142140000Y-84847500D01*
X156860000Y-84847500D02*
X156860000Y-82867500D01*
%TO.C,J8*%
X120570000Y-85970000D02*
X120570000Y-83370000D01*
X123230000Y-83370000D02*
X120570000Y-83370000D01*
X123230000Y-85970000D02*
X120570000Y-85970000D01*
X123230000Y-85970000D02*
X123230000Y-83370000D01*
X123230000Y-87240000D02*
X123230000Y-88570000D01*
X123230000Y-88570000D02*
X121900000Y-88570000D01*
%TO.C,D1*%
X133140000Y-80940000D02*
X133140000Y-83800000D01*
X135060000Y-80940000D02*
X133140000Y-80940000D01*
X135060000Y-83800000D02*
X135060000Y-80940000D01*
%TO.C,U1*%
X139890000Y-94265000D02*
X140590000Y-94265000D01*
X139890000Y-94965000D02*
X139890000Y-94265000D01*
X139890000Y-107785000D02*
X139890000Y-108485000D01*
X139890000Y-108485000D02*
X140590000Y-108485000D01*
X154110000Y-94265000D02*
X153410000Y-94265000D01*
X154110000Y-94965000D02*
X154110000Y-94265000D01*
X154110000Y-107785000D02*
X154110000Y-108485000D01*
X154110000Y-108485000D02*
X153410000Y-108485000D01*
X140590000Y-109112500D02*
X140120000Y-109452500D01*
X140120000Y-108772500D01*
X140590000Y-109112500D01*
G36*
X140590000Y-109112500D02*
G01*
X140120000Y-109452500D01*
X140120000Y-108772500D01*
X140590000Y-109112500D01*
G37*
%TD*%
M02*
