%TF.GenerationSoftware,KiCad,Pcbnew,8.0.6*%
%TF.CreationDate,2024-12-24T11:34:53+00:00*%
%TF.ProjectId,RISKYMSXCart,5249534b-594d-4535-9843-6172742e6b69,rev?*%
%TF.SameCoordinates,Original*%
%TF.FileFunction,Legend,Top*%
%TF.FilePolarity,Positive*%
%FSLAX46Y46*%
G04 Gerber Fmt 4.6, Leading zero omitted, Abs format (unit mm)*
G04 Created by KiCad (PCBNEW 8.0.6) date 2024-12-24 11:34:53*
%MOMM*%
%LPD*%
G01*
G04 APERTURE LIST*
%ADD10C,0.300000*%
%ADD11C,0.203200*%
%ADD12C,0.228600*%
%ADD13C,0.150000*%
%ADD14C,0.093472*%
%ADD15C,0.081280*%
%ADD16C,0.120000*%
%ADD17C,0.101600*%
G04 APERTURE END LIST*
D10*
G36*
X170165338Y-91437273D02*
G01*
X171191193Y-91437273D01*
X171902889Y-93110058D01*
X172619052Y-91437273D01*
X173642674Y-91437273D01*
X173642674Y-94581840D01*
X172881099Y-94581840D01*
X172881099Y-92277015D01*
X172160470Y-93962455D01*
X171649775Y-93962455D01*
X170929146Y-92277015D01*
X170929146Y-94581840D01*
X170165338Y-94581840D01*
X170165338Y-91437273D01*
G37*
G36*
X176586982Y-91541497D02*
G01*
X176586982Y-92199592D01*
X176443094Y-92137663D01*
X176301209Y-92085037D01*
X176145906Y-92037476D01*
X176084477Y-92021668D01*
X175934016Y-91989869D01*
X175774555Y-91968493D01*
X175621428Y-91961368D01*
X175470846Y-91967728D01*
X175319110Y-91992774D01*
X175194112Y-92041769D01*
X175086650Y-92152197D01*
X175056389Y-92291160D01*
X175100372Y-92439457D01*
X175149445Y-92489184D01*
X175291179Y-92558655D01*
X175442838Y-92600862D01*
X175487426Y-92610530D01*
X175831363Y-92679764D01*
X175986851Y-92715220D01*
X176154004Y-92764773D01*
X176299958Y-92821968D01*
X176443443Y-92898354D01*
X176572093Y-92998390D01*
X176668500Y-93116525D01*
X176737362Y-93257273D01*
X176778679Y-93420634D01*
X176792236Y-93582124D01*
X176792451Y-93606607D01*
X176784963Y-93761841D01*
X176756209Y-93931087D01*
X176705888Y-94081752D01*
X176634002Y-94213834D01*
X176522878Y-94344444D01*
X176485737Y-94377115D01*
X176359334Y-94462881D01*
X176210162Y-94530903D01*
X176038219Y-94581179D01*
X175877541Y-94609522D01*
X175701049Y-94625541D01*
X175548472Y-94629484D01*
X175381153Y-94625127D01*
X175232030Y-94613937D01*
X175082535Y-94595861D01*
X174951421Y-94574395D01*
X174801786Y-94543175D01*
X174652151Y-94505347D01*
X174502516Y-94460913D01*
X174352881Y-94409871D01*
X174352881Y-93724231D01*
X174501260Y-93802119D01*
X174647126Y-93869771D01*
X174790480Y-93927187D01*
X174931321Y-93974367D01*
X175087182Y-94014672D01*
X175239864Y-94041786D01*
X175389366Y-94055710D01*
X175471049Y-94057745D01*
X175623690Y-94049021D01*
X175775000Y-94015521D01*
X175874542Y-93968411D01*
X175980068Y-93859349D01*
X176015243Y-93712319D01*
X175985093Y-93565651D01*
X175919953Y-93481539D01*
X175789071Y-93409228D01*
X175640278Y-93360982D01*
X175540283Y-93336371D01*
X175228357Y-93267137D01*
X175061326Y-93225288D01*
X174911988Y-93175116D01*
X174760121Y-93106063D01*
X174632336Y-93025681D01*
X174541972Y-92947767D01*
X174447194Y-92828468D01*
X174379495Y-92690186D01*
X174338876Y-92532921D01*
X174325548Y-92379741D01*
X174325337Y-92356672D01*
X174335936Y-92189502D01*
X174367735Y-92037511D01*
X174431628Y-91879375D01*
X174524376Y-91741900D01*
X174626840Y-91640509D01*
X174749195Y-91555249D01*
X174890132Y-91487629D01*
X175049651Y-91437649D01*
X175196778Y-91409474D01*
X175356810Y-91393548D01*
X175494127Y-91389628D01*
X175656496Y-91393336D01*
X175821627Y-91404459D01*
X175972608Y-91420810D01*
X176023432Y-91427596D01*
X176178168Y-91451955D01*
X176335849Y-91482321D01*
X176496474Y-91518694D01*
X176586982Y-91541497D01*
G37*
G36*
X179226810Y-92976801D02*
G01*
X180311477Y-94581840D01*
X179471735Y-94581840D01*
X178740683Y-93507595D01*
X178016331Y-94581840D01*
X177172866Y-94581840D01*
X178257533Y-92976801D01*
X177214556Y-91437273D01*
X178055787Y-91437273D01*
X178740683Y-92450473D01*
X179423345Y-91437273D01*
X180269043Y-91437273D01*
X179226810Y-92976801D01*
G37*
X167211653Y-96850828D02*
X166711653Y-96136542D01*
X166354510Y-96850828D02*
X166354510Y-95350828D01*
X166354510Y-95350828D02*
X166925939Y-95350828D01*
X166925939Y-95350828D02*
X167068796Y-95422257D01*
X167068796Y-95422257D02*
X167140225Y-95493685D01*
X167140225Y-95493685D02*
X167211653Y-95636542D01*
X167211653Y-95636542D02*
X167211653Y-95850828D01*
X167211653Y-95850828D02*
X167140225Y-95993685D01*
X167140225Y-95993685D02*
X167068796Y-96065114D01*
X167068796Y-96065114D02*
X166925939Y-96136542D01*
X166925939Y-96136542D02*
X166354510Y-96136542D01*
X168425939Y-96779400D02*
X168283082Y-96850828D01*
X168283082Y-96850828D02*
X167997368Y-96850828D01*
X167997368Y-96850828D02*
X167854510Y-96779400D01*
X167854510Y-96779400D02*
X167783082Y-96636542D01*
X167783082Y-96636542D02*
X167783082Y-96065114D01*
X167783082Y-96065114D02*
X167854510Y-95922257D01*
X167854510Y-95922257D02*
X167997368Y-95850828D01*
X167997368Y-95850828D02*
X168283082Y-95850828D01*
X168283082Y-95850828D02*
X168425939Y-95922257D01*
X168425939Y-95922257D02*
X168497368Y-96065114D01*
X168497368Y-96065114D02*
X168497368Y-96207971D01*
X168497368Y-96207971D02*
X167783082Y-96350828D01*
X168997367Y-95850828D02*
X169354510Y-96850828D01*
X169354510Y-96850828D02*
X169711653Y-95850828D01*
X170283081Y-96707971D02*
X170354510Y-96779400D01*
X170354510Y-96779400D02*
X170283081Y-96850828D01*
X170283081Y-96850828D02*
X170211653Y-96779400D01*
X170211653Y-96779400D02*
X170283081Y-96707971D01*
X170283081Y-96707971D02*
X170283081Y-96850828D01*
X171783082Y-96850828D02*
X170925939Y-96850828D01*
X171354510Y-96850828D02*
X171354510Y-95350828D01*
X171354510Y-95350828D02*
X171211653Y-95565114D01*
X171211653Y-95565114D02*
X171068796Y-95707971D01*
X171068796Y-95707971D02*
X170925939Y-95779400D01*
G36*
X169730374Y-87740519D02*
G01*
X169902485Y-87753703D01*
X170058456Y-87777029D01*
X170224318Y-87818407D01*
X170366939Y-87874389D01*
X170486319Y-87944976D01*
X170598577Y-88047387D01*
X170683264Y-88172883D01*
X170740378Y-88321462D01*
X170769920Y-88493125D01*
X170774422Y-88601582D01*
X170762526Y-88767429D01*
X170726841Y-88915727D01*
X170659287Y-89059921D01*
X170624042Y-89111532D01*
X170515689Y-89225585D01*
X170392811Y-89310827D01*
X170245907Y-89379581D01*
X170172904Y-89404846D01*
X170320319Y-89461869D01*
X170444328Y-89553756D01*
X170469196Y-89578304D01*
X170567883Y-89699045D01*
X170650761Y-89829731D01*
X170725849Y-89970720D01*
X170734221Y-89987752D01*
X171171959Y-90881840D01*
X170313606Y-90881840D01*
X169932446Y-90099420D01*
X169860036Y-89966538D01*
X169772377Y-89845658D01*
X169698688Y-89777072D01*
X169560778Y-89712305D01*
X169408046Y-89691053D01*
X169383785Y-89690716D01*
X169155982Y-89690716D01*
X169155982Y-90881840D01*
X168349741Y-90881840D01*
X168349741Y-89118977D01*
X169155982Y-89118977D01*
X169494708Y-89118977D01*
X169652170Y-89107717D01*
X169803212Y-89060816D01*
X169858001Y-89023687D01*
X169940635Y-88897874D01*
X169967211Y-88750703D01*
X169968180Y-88711017D01*
X169949996Y-88555878D01*
X169877691Y-88420597D01*
X169858001Y-88402069D01*
X169723672Y-88335276D01*
X169570513Y-88311285D01*
X169494708Y-88309013D01*
X169155982Y-88309013D01*
X169155982Y-89118977D01*
X168349741Y-89118977D01*
X168349741Y-87737273D01*
X169581065Y-87737273D01*
X169730374Y-87740519D01*
G37*
G36*
X171634264Y-87737273D02*
G01*
X172440506Y-87737273D01*
X172440506Y-90881840D01*
X171634264Y-90881840D01*
X171634264Y-87737273D01*
G37*
G36*
X175396725Y-87841497D02*
G01*
X175396725Y-88499592D01*
X175252837Y-88437663D01*
X175110952Y-88385037D01*
X174955649Y-88337476D01*
X174894220Y-88321668D01*
X174743759Y-88289869D01*
X174584298Y-88268493D01*
X174431171Y-88261368D01*
X174280589Y-88267728D01*
X174128853Y-88292774D01*
X174003855Y-88341769D01*
X173896393Y-88452197D01*
X173866132Y-88591160D01*
X173910115Y-88739457D01*
X173959188Y-88789184D01*
X174100922Y-88858655D01*
X174252581Y-88900862D01*
X174297169Y-88910530D01*
X174641106Y-88979764D01*
X174796594Y-89015220D01*
X174963747Y-89064773D01*
X175109700Y-89121968D01*
X175253186Y-89198354D01*
X175381836Y-89298390D01*
X175478243Y-89416525D01*
X175547105Y-89557273D01*
X175588422Y-89720634D01*
X175601979Y-89882124D01*
X175602194Y-89906607D01*
X175594706Y-90061841D01*
X175565951Y-90231087D01*
X175515631Y-90381752D01*
X175443745Y-90513834D01*
X175332621Y-90644444D01*
X175295480Y-90677115D01*
X175169077Y-90762881D01*
X175019904Y-90830903D01*
X174847962Y-90881179D01*
X174687283Y-90909522D01*
X174510792Y-90925541D01*
X174358214Y-90929484D01*
X174190896Y-90925127D01*
X174041773Y-90913937D01*
X173892277Y-90895861D01*
X173761164Y-90874395D01*
X173611529Y-90843175D01*
X173461894Y-90805347D01*
X173312259Y-90760913D01*
X173162624Y-90709871D01*
X173162624Y-90024231D01*
X173311003Y-90102119D01*
X173456869Y-90169771D01*
X173600222Y-90227187D01*
X173741064Y-90274367D01*
X173896925Y-90314672D01*
X174049607Y-90341786D01*
X174199109Y-90355710D01*
X174280791Y-90357745D01*
X174433433Y-90349021D01*
X174584743Y-90315521D01*
X174684284Y-90268411D01*
X174789811Y-90159349D01*
X174824986Y-90012319D01*
X174794836Y-89865651D01*
X174729696Y-89781539D01*
X174598814Y-89709228D01*
X174450020Y-89660982D01*
X174350025Y-89636371D01*
X174038100Y-89567137D01*
X173871069Y-89525288D01*
X173721731Y-89475116D01*
X173569864Y-89406063D01*
X173442079Y-89325681D01*
X173351715Y-89247767D01*
X173256937Y-89128468D01*
X173189238Y-88990186D01*
X173148619Y-88832921D01*
X173135291Y-88679741D01*
X173135079Y-88656672D01*
X173145679Y-88489502D01*
X173177478Y-88337511D01*
X173241371Y-88179375D01*
X173334119Y-88041900D01*
X173436583Y-87940509D01*
X173558937Y-87855249D01*
X173699874Y-87787629D01*
X173859394Y-87737649D01*
X174006521Y-87709474D01*
X174166553Y-87693548D01*
X174303869Y-87689628D01*
X174466238Y-87693336D01*
X174631370Y-87704459D01*
X174782351Y-87720810D01*
X174833175Y-87727596D01*
X174987911Y-87751955D01*
X175145592Y-87782321D01*
X175306217Y-87818694D01*
X175396725Y-87841497D01*
G37*
G36*
X176294535Y-87737273D02*
G01*
X177100776Y-87737273D01*
X177100776Y-88885219D01*
X178262866Y-87737273D01*
X179198643Y-87737273D01*
X177693360Y-89226178D01*
X179353489Y-90881840D01*
X178344011Y-90881840D01*
X177100776Y-89643071D01*
X177100776Y-90881840D01*
X176294535Y-90881840D01*
X176294535Y-87737273D01*
G37*
G36*
X179164398Y-87737273D02*
G01*
X180045829Y-87737273D01*
X180757526Y-88857674D01*
X181469222Y-87737273D01*
X182352887Y-87737273D01*
X181161763Y-89556715D01*
X181161763Y-90881840D01*
X180355521Y-90881840D01*
X180355521Y-89556715D01*
X179164398Y-87737273D01*
G37*
D11*
X168849059Y-123746234D02*
X168757618Y-123883394D01*
X130540781Y-123573516D02*
X130086118Y-124211053D01*
X169077659Y-124655553D02*
X169212281Y-124609834D01*
X117485181Y-124109484D02*
X117622340Y-124109484D01*
X118196381Y-124198384D02*
X118196381Y-124335534D01*
X118785659Y-124561594D02*
X118831381Y-124335534D01*
X131112281Y-124345675D02*
X131203718Y-124482834D01*
X169349440Y-124246616D02*
X169349440Y-124109453D01*
X131112281Y-123756394D02*
X131069100Y-123982453D01*
X117896659Y-124381253D02*
X117896659Y-124472694D01*
X118694218Y-123835166D02*
X118559600Y-123789434D01*
X117350559Y-124698753D02*
X117304840Y-124653034D01*
X178553900Y-124316819D02*
X179191441Y-124316819D01*
X131658381Y-123756394D02*
X131566940Y-123619234D01*
X131203718Y-123619234D02*
X131112281Y-123756394D01*
X131069100Y-123982453D02*
X131069100Y-124119616D01*
X118196381Y-124335534D02*
X118242100Y-124561594D01*
X117850940Y-124244094D02*
X117896659Y-124381253D01*
X130540781Y-123573516D02*
X130540781Y-124528553D01*
X131432318Y-124528553D02*
X131566940Y-124482834D01*
X168412181Y-123700516D02*
X168412181Y-124655553D01*
X117896659Y-124472694D02*
X117850940Y-124607325D01*
X178691063Y-123407500D02*
X178779963Y-123361782D01*
X118559600Y-123789434D02*
X118468159Y-123789434D01*
X118242100Y-124561594D02*
X118331000Y-124698753D01*
X179145722Y-123544660D02*
X179145722Y-123636100D01*
X117350559Y-123789434D02*
X117304840Y-124198384D01*
X179054282Y-123793580D02*
X178553900Y-124316819D01*
X179100000Y-123453219D02*
X179145722Y-123544660D01*
X118831381Y-124335534D02*
X118831381Y-124198384D01*
X131340881Y-124528553D02*
X131432318Y-124528553D01*
X118242100Y-123972325D02*
X118196381Y-124198384D01*
X118559600Y-124744484D02*
X118694218Y-124698753D01*
X117350559Y-124152666D02*
X117485181Y-124109484D01*
X168986218Y-124655553D02*
X169077659Y-124655553D01*
X131069100Y-124119616D02*
X131112281Y-124345675D01*
X179100000Y-123725000D02*
X179008563Y-123862160D01*
X131704100Y-124119616D02*
X131704100Y-123982453D01*
X118331000Y-123835166D02*
X118242100Y-123972325D01*
X168757618Y-123883394D02*
X168714440Y-124109453D01*
X131203718Y-124482834D02*
X131340881Y-124528553D01*
X179145722Y-123636100D02*
X179100000Y-123725000D01*
X131432318Y-123573516D02*
X131340881Y-123573516D01*
X117485181Y-124744484D02*
X117350559Y-124698753D01*
X168714440Y-124109453D02*
X168714440Y-124246616D01*
X117304840Y-124653034D02*
X117259118Y-124561594D01*
X169212281Y-124609834D02*
X169303718Y-124472675D01*
X168849059Y-124609834D02*
X168986218Y-124655553D01*
X169303718Y-123883394D02*
X169212281Y-123746234D01*
X117759500Y-124152666D02*
X117850940Y-124244094D01*
X131658381Y-124345675D02*
X131704100Y-124119616D01*
X117805218Y-123789434D02*
X117350559Y-123789434D01*
X131566940Y-124482834D02*
X131658381Y-124345675D01*
X131704100Y-123982453D02*
X131658381Y-123756394D01*
X117850940Y-124607325D02*
X117759500Y-124698753D01*
X117622340Y-124109484D02*
X117759500Y-124152666D01*
X130086118Y-124211053D02*
X130766840Y-124211053D01*
X131340881Y-123573516D02*
X131203718Y-123619234D01*
X179054282Y-123407500D02*
X179100000Y-123453219D01*
X168757618Y-124472675D02*
X168849059Y-124609834D01*
X178599622Y-123590382D02*
X178599622Y-123544660D01*
X168714440Y-124246616D02*
X168757618Y-124472675D01*
X117304840Y-124198384D02*
X117350559Y-124152666D01*
X178779963Y-123361782D02*
X178962841Y-123361782D01*
X169212281Y-123746234D02*
X169077659Y-123700516D01*
X118331000Y-124698753D02*
X118468159Y-124744484D01*
X169303718Y-124472675D02*
X169349440Y-124246616D01*
X118831381Y-124198384D02*
X118785659Y-123972325D01*
X117759500Y-124698753D02*
X117622340Y-124744484D01*
X169077659Y-123700516D02*
X168986218Y-123700516D01*
X131566940Y-123619234D02*
X131432318Y-123573516D01*
X118785659Y-123972325D02*
X118694218Y-123835166D01*
X118468159Y-123789434D02*
X118331000Y-123835166D01*
X118694218Y-124698753D02*
X118785659Y-124561594D01*
X178599622Y-123544660D02*
X178645341Y-123453219D01*
X117622340Y-124744484D02*
X117485181Y-124744484D01*
X169349440Y-124109453D02*
X169303718Y-123883394D01*
X168277559Y-123837675D02*
X168412181Y-123700516D01*
X178645341Y-123453219D02*
X178691063Y-123407500D01*
X168986218Y-123700516D02*
X168849059Y-123746234D01*
X118468159Y-124744484D02*
X118559600Y-124744484D01*
X178962841Y-123361782D02*
X179054282Y-123407500D01*
X168186118Y-123883394D02*
X168277559Y-123837675D01*
D12*
X124497870Y-87892011D02*
X124449489Y-87940392D01*
X124449489Y-87940392D02*
X124304346Y-87988772D01*
X124304346Y-87988772D02*
X124207584Y-87988772D01*
X124207584Y-87988772D02*
X124062441Y-87940392D01*
X124062441Y-87940392D02*
X123965679Y-87843630D01*
X123965679Y-87843630D02*
X123917298Y-87746868D01*
X123917298Y-87746868D02*
X123868917Y-87553344D01*
X123868917Y-87553344D02*
X123868917Y-87408201D01*
X123868917Y-87408201D02*
X123917298Y-87214677D01*
X123917298Y-87214677D02*
X123965679Y-87117915D01*
X123965679Y-87117915D02*
X124062441Y-87021153D01*
X124062441Y-87021153D02*
X124207584Y-86972772D01*
X124207584Y-86972772D02*
X124304346Y-86972772D01*
X124304346Y-86972772D02*
X124449489Y-87021153D01*
X124449489Y-87021153D02*
X124497870Y-87069534D01*
X125417108Y-87988772D02*
X124933298Y-87988772D01*
X124933298Y-87988772D02*
X124933298Y-86972772D01*
X125755774Y-87988772D02*
X125755774Y-86972772D01*
X126336346Y-87988772D02*
X125900917Y-87408201D01*
X126336346Y-86972772D02*
X125755774Y-87553344D01*
X125680965Y-99006582D02*
X125826108Y-99054963D01*
X125826108Y-99054963D02*
X125874489Y-99103344D01*
X125874489Y-99103344D02*
X125922870Y-99200106D01*
X125922870Y-99200106D02*
X125922870Y-99345249D01*
X125922870Y-99345249D02*
X125874489Y-99442011D01*
X125874489Y-99442011D02*
X125826108Y-99490392D01*
X125826108Y-99490392D02*
X125729346Y-99538772D01*
X125729346Y-99538772D02*
X125342298Y-99538772D01*
X125342298Y-99538772D02*
X125342298Y-98522772D01*
X125342298Y-98522772D02*
X125680965Y-98522772D01*
X125680965Y-98522772D02*
X125777727Y-98571153D01*
X125777727Y-98571153D02*
X125826108Y-98619534D01*
X125826108Y-98619534D02*
X125874489Y-98716296D01*
X125874489Y-98716296D02*
X125874489Y-98813058D01*
X125874489Y-98813058D02*
X125826108Y-98909820D01*
X125826108Y-98909820D02*
X125777727Y-98958201D01*
X125777727Y-98958201D02*
X125680965Y-99006582D01*
X125680965Y-99006582D02*
X125342298Y-99006582D01*
X126890489Y-99538772D02*
X126309917Y-99538772D01*
X126600203Y-99538772D02*
X126600203Y-98522772D01*
X126600203Y-98522772D02*
X126503441Y-98667915D01*
X126503441Y-98667915D02*
X126406679Y-98764677D01*
X126406679Y-98764677D02*
X126309917Y-98813058D01*
X120468917Y-82165392D02*
X120614060Y-82213772D01*
X120614060Y-82213772D02*
X120855965Y-82213772D01*
X120855965Y-82213772D02*
X120952727Y-82165392D01*
X120952727Y-82165392D02*
X121001108Y-82117011D01*
X121001108Y-82117011D02*
X121049489Y-82020249D01*
X121049489Y-82020249D02*
X121049489Y-81923487D01*
X121049489Y-81923487D02*
X121001108Y-81826725D01*
X121001108Y-81826725D02*
X120952727Y-81778344D01*
X120952727Y-81778344D02*
X120855965Y-81729963D01*
X120855965Y-81729963D02*
X120662441Y-81681582D01*
X120662441Y-81681582D02*
X120565679Y-81633201D01*
X120565679Y-81633201D02*
X120517298Y-81584820D01*
X120517298Y-81584820D02*
X120468917Y-81488058D01*
X120468917Y-81488058D02*
X120468917Y-81391296D01*
X120468917Y-81391296D02*
X120517298Y-81294534D01*
X120517298Y-81294534D02*
X120565679Y-81246153D01*
X120565679Y-81246153D02*
X120662441Y-81197772D01*
X120662441Y-81197772D02*
X120904346Y-81197772D01*
X120904346Y-81197772D02*
X121049489Y-81246153D01*
X121388155Y-81197772D02*
X121630060Y-82213772D01*
X121630060Y-82213772D02*
X121823584Y-81488058D01*
X121823584Y-81488058D02*
X122017108Y-82213772D01*
X122017108Y-82213772D02*
X122259013Y-81197772D01*
D10*
X131804510Y-78790114D02*
X131304510Y-78790114D01*
X131304510Y-79575828D02*
X131304510Y-78075828D01*
X131304510Y-78075828D02*
X132018796Y-78075828D01*
X133304510Y-79575828D02*
X132590224Y-79575828D01*
X132590224Y-79575828D02*
X132590224Y-78075828D01*
X133733082Y-79147257D02*
X134447368Y-79147257D01*
X133590225Y-79575828D02*
X134090225Y-78075828D01*
X134090225Y-78075828D02*
X134590225Y-79575828D01*
X135018796Y-79504400D02*
X135233082Y-79575828D01*
X135233082Y-79575828D02*
X135590224Y-79575828D01*
X135590224Y-79575828D02*
X135733082Y-79504400D01*
X135733082Y-79504400D02*
X135804510Y-79432971D01*
X135804510Y-79432971D02*
X135875939Y-79290114D01*
X135875939Y-79290114D02*
X135875939Y-79147257D01*
X135875939Y-79147257D02*
X135804510Y-79004400D01*
X135804510Y-79004400D02*
X135733082Y-78932971D01*
X135733082Y-78932971D02*
X135590224Y-78861542D01*
X135590224Y-78861542D02*
X135304510Y-78790114D01*
X135304510Y-78790114D02*
X135161653Y-78718685D01*
X135161653Y-78718685D02*
X135090224Y-78647257D01*
X135090224Y-78647257D02*
X135018796Y-78504400D01*
X135018796Y-78504400D02*
X135018796Y-78361542D01*
X135018796Y-78361542D02*
X135090224Y-78218685D01*
X135090224Y-78218685D02*
X135161653Y-78147257D01*
X135161653Y-78147257D02*
X135304510Y-78075828D01*
X135304510Y-78075828D02*
X135661653Y-78075828D01*
X135661653Y-78075828D02*
X135875939Y-78147257D01*
X136518795Y-79575828D02*
X136518795Y-78075828D01*
X136518795Y-78790114D02*
X137375938Y-78790114D01*
X137375938Y-79575828D02*
X137375938Y-78075828D01*
D12*
X125605965Y-95406582D02*
X125751108Y-95454963D01*
X125751108Y-95454963D02*
X125799489Y-95503344D01*
X125799489Y-95503344D02*
X125847870Y-95600106D01*
X125847870Y-95600106D02*
X125847870Y-95745249D01*
X125847870Y-95745249D02*
X125799489Y-95842011D01*
X125799489Y-95842011D02*
X125751108Y-95890392D01*
X125751108Y-95890392D02*
X125654346Y-95938772D01*
X125654346Y-95938772D02*
X125267298Y-95938772D01*
X125267298Y-95938772D02*
X125267298Y-94922772D01*
X125267298Y-94922772D02*
X125605965Y-94922772D01*
X125605965Y-94922772D02*
X125702727Y-94971153D01*
X125702727Y-94971153D02*
X125751108Y-95019534D01*
X125751108Y-95019534D02*
X125799489Y-95116296D01*
X125799489Y-95116296D02*
X125799489Y-95213058D01*
X125799489Y-95213058D02*
X125751108Y-95309820D01*
X125751108Y-95309820D02*
X125702727Y-95358201D01*
X125702727Y-95358201D02*
X125605965Y-95406582D01*
X125605965Y-95406582D02*
X125267298Y-95406582D01*
X126476822Y-94922772D02*
X126573584Y-94922772D01*
X126573584Y-94922772D02*
X126670346Y-94971153D01*
X126670346Y-94971153D02*
X126718727Y-95019534D01*
X126718727Y-95019534D02*
X126767108Y-95116296D01*
X126767108Y-95116296D02*
X126815489Y-95309820D01*
X126815489Y-95309820D02*
X126815489Y-95551725D01*
X126815489Y-95551725D02*
X126767108Y-95745249D01*
X126767108Y-95745249D02*
X126718727Y-95842011D01*
X126718727Y-95842011D02*
X126670346Y-95890392D01*
X126670346Y-95890392D02*
X126573584Y-95938772D01*
X126573584Y-95938772D02*
X126476822Y-95938772D01*
X126476822Y-95938772D02*
X126380060Y-95890392D01*
X126380060Y-95890392D02*
X126331679Y-95842011D01*
X126331679Y-95842011D02*
X126283298Y-95745249D01*
X126283298Y-95745249D02*
X126234917Y-95551725D01*
X126234917Y-95551725D02*
X126234917Y-95309820D01*
X126234917Y-95309820D02*
X126283298Y-95116296D01*
X126283298Y-95116296D02*
X126331679Y-95019534D01*
X126331679Y-95019534D02*
X126380060Y-94971153D01*
X126380060Y-94971153D02*
X126476822Y-94922772D01*
X165697155Y-84797772D02*
X166277727Y-84797772D01*
X165987441Y-85813772D02*
X165987441Y-84797772D01*
X166519631Y-84797772D02*
X167196965Y-85813772D01*
X167196965Y-84797772D02*
X166519631Y-85813772D01*
X124117298Y-84938772D02*
X124117298Y-83922772D01*
X124117298Y-83922772D02*
X124359203Y-83922772D01*
X124359203Y-83922772D02*
X124504346Y-83971153D01*
X124504346Y-83971153D02*
X124601108Y-84067915D01*
X124601108Y-84067915D02*
X124649489Y-84164677D01*
X124649489Y-84164677D02*
X124697870Y-84358201D01*
X124697870Y-84358201D02*
X124697870Y-84503344D01*
X124697870Y-84503344D02*
X124649489Y-84696868D01*
X124649489Y-84696868D02*
X124601108Y-84793630D01*
X124601108Y-84793630D02*
X124504346Y-84890392D01*
X124504346Y-84890392D02*
X124359203Y-84938772D01*
X124359203Y-84938772D02*
X124117298Y-84938772D01*
X125084917Y-84648487D02*
X125568727Y-84648487D01*
X124988155Y-84938772D02*
X125326822Y-83922772D01*
X125326822Y-83922772D02*
X125665489Y-84938772D01*
X125859012Y-83922772D02*
X126439584Y-83922772D01*
X126149298Y-84938772D02*
X126149298Y-83922772D01*
X169047870Y-85788772D02*
X168709203Y-85304963D01*
X168467298Y-85788772D02*
X168467298Y-84772772D01*
X168467298Y-84772772D02*
X168854346Y-84772772D01*
X168854346Y-84772772D02*
X168951108Y-84821153D01*
X168951108Y-84821153D02*
X168999489Y-84869534D01*
X168999489Y-84869534D02*
X169047870Y-84966296D01*
X169047870Y-84966296D02*
X169047870Y-85111439D01*
X169047870Y-85111439D02*
X168999489Y-85208201D01*
X168999489Y-85208201D02*
X168951108Y-85256582D01*
X168951108Y-85256582D02*
X168854346Y-85304963D01*
X168854346Y-85304963D02*
X168467298Y-85304963D01*
X169386536Y-84772772D02*
X170063870Y-85788772D01*
X170063870Y-84772772D02*
X169386536Y-85788772D01*
D13*
X180391667Y-115604819D02*
X180391667Y-114604819D01*
X180391667Y-114604819D02*
X180772619Y-114604819D01*
X180772619Y-114604819D02*
X180867857Y-114652438D01*
X180867857Y-114652438D02*
X180915476Y-114700057D01*
X180915476Y-114700057D02*
X180963095Y-114795295D01*
X180963095Y-114795295D02*
X180963095Y-114938152D01*
X180963095Y-114938152D02*
X180915476Y-115033390D01*
X180915476Y-115033390D02*
X180867857Y-115081009D01*
X180867857Y-115081009D02*
X180772619Y-115128628D01*
X180772619Y-115128628D02*
X180391667Y-115128628D01*
X181296429Y-114604819D02*
X181534524Y-115604819D01*
X181534524Y-115604819D02*
X181725000Y-114890533D01*
X181725000Y-114890533D02*
X181915476Y-115604819D01*
X181915476Y-115604819D02*
X182153572Y-114604819D01*
X183105952Y-115604819D02*
X182772619Y-115128628D01*
X182534524Y-115604819D02*
X182534524Y-114604819D01*
X182534524Y-114604819D02*
X182915476Y-114604819D01*
X182915476Y-114604819D02*
X183010714Y-114652438D01*
X183010714Y-114652438D02*
X183058333Y-114700057D01*
X183058333Y-114700057D02*
X183105952Y-114795295D01*
X183105952Y-114795295D02*
X183105952Y-114938152D01*
X183105952Y-114938152D02*
X183058333Y-115033390D01*
X183058333Y-115033390D02*
X183010714Y-115081009D01*
X183010714Y-115081009D02*
X182915476Y-115128628D01*
X182915476Y-115128628D02*
X182534524Y-115128628D01*
D14*
X171850614Y-115475909D02*
X171812518Y-115514005D01*
X171812518Y-115514005D02*
X171698233Y-115552100D01*
X171698233Y-115552100D02*
X171622042Y-115552100D01*
X171622042Y-115552100D02*
X171507756Y-115514005D01*
X171507756Y-115514005D02*
X171431566Y-115437814D01*
X171431566Y-115437814D02*
X171393471Y-115361624D01*
X171393471Y-115361624D02*
X171355375Y-115209243D01*
X171355375Y-115209243D02*
X171355375Y-115094957D01*
X171355375Y-115094957D02*
X171393471Y-114942576D01*
X171393471Y-114942576D02*
X171431566Y-114866385D01*
X171431566Y-114866385D02*
X171507756Y-114790195D01*
X171507756Y-114790195D02*
X171622042Y-114752100D01*
X171622042Y-114752100D02*
X171698233Y-114752100D01*
X171698233Y-114752100D02*
X171812518Y-114790195D01*
X171812518Y-114790195D02*
X171850614Y-114828290D01*
X172612518Y-115552100D02*
X172155375Y-115552100D01*
X172383947Y-115552100D02*
X172383947Y-114752100D01*
X172383947Y-114752100D02*
X172307756Y-114866385D01*
X172307756Y-114866385D02*
X172231566Y-114942576D01*
X172231566Y-114942576D02*
X172155375Y-114980671D01*
X172879185Y-114752100D02*
X173374423Y-114752100D01*
X173374423Y-114752100D02*
X173107757Y-115056862D01*
X173107757Y-115056862D02*
X173222042Y-115056862D01*
X173222042Y-115056862D02*
X173298233Y-115094957D01*
X173298233Y-115094957D02*
X173336328Y-115133052D01*
X173336328Y-115133052D02*
X173374423Y-115209243D01*
X173374423Y-115209243D02*
X173374423Y-115399719D01*
X173374423Y-115399719D02*
X173336328Y-115475909D01*
X173336328Y-115475909D02*
X173298233Y-115514005D01*
X173298233Y-115514005D02*
X173222042Y-115552100D01*
X173222042Y-115552100D02*
X172993471Y-115552100D01*
X172993471Y-115552100D02*
X172917280Y-115514005D01*
X172917280Y-115514005D02*
X172879185Y-115475909D01*
X179168543Y-107806466D02*
X179206639Y-107844562D01*
X179206639Y-107844562D02*
X179244734Y-107958847D01*
X179244734Y-107958847D02*
X179244734Y-108035038D01*
X179244734Y-108035038D02*
X179206639Y-108149324D01*
X179206639Y-108149324D02*
X179130448Y-108225514D01*
X179130448Y-108225514D02*
X179054258Y-108263609D01*
X179054258Y-108263609D02*
X178901877Y-108301705D01*
X178901877Y-108301705D02*
X178787591Y-108301705D01*
X178787591Y-108301705D02*
X178635210Y-108263609D01*
X178635210Y-108263609D02*
X178559019Y-108225514D01*
X178559019Y-108225514D02*
X178482829Y-108149324D01*
X178482829Y-108149324D02*
X178444734Y-108035038D01*
X178444734Y-108035038D02*
X178444734Y-107958847D01*
X178444734Y-107958847D02*
X178482829Y-107844562D01*
X178482829Y-107844562D02*
X178520924Y-107806466D01*
X179244734Y-107044562D02*
X179244734Y-107501705D01*
X179244734Y-107273133D02*
X178444734Y-107273133D01*
X178444734Y-107273133D02*
X178559019Y-107349324D01*
X178559019Y-107349324D02*
X178635210Y-107425514D01*
X178635210Y-107425514D02*
X178673305Y-107501705D01*
D13*
X121566666Y-89024819D02*
X121566666Y-89739104D01*
X121566666Y-89739104D02*
X121519047Y-89881961D01*
X121519047Y-89881961D02*
X121423809Y-89977200D01*
X121423809Y-89977200D02*
X121280952Y-90024819D01*
X121280952Y-90024819D02*
X121185714Y-90024819D01*
X122185714Y-89453390D02*
X122090476Y-89405771D01*
X122090476Y-89405771D02*
X122042857Y-89358152D01*
X122042857Y-89358152D02*
X121995238Y-89262914D01*
X121995238Y-89262914D02*
X121995238Y-89215295D01*
X121995238Y-89215295D02*
X122042857Y-89120057D01*
X122042857Y-89120057D02*
X122090476Y-89072438D01*
X122090476Y-89072438D02*
X122185714Y-89024819D01*
X122185714Y-89024819D02*
X122376190Y-89024819D01*
X122376190Y-89024819D02*
X122471428Y-89072438D01*
X122471428Y-89072438D02*
X122519047Y-89120057D01*
X122519047Y-89120057D02*
X122566666Y-89215295D01*
X122566666Y-89215295D02*
X122566666Y-89262914D01*
X122566666Y-89262914D02*
X122519047Y-89358152D01*
X122519047Y-89358152D02*
X122471428Y-89405771D01*
X122471428Y-89405771D02*
X122376190Y-89453390D01*
X122376190Y-89453390D02*
X122185714Y-89453390D01*
X122185714Y-89453390D02*
X122090476Y-89501009D01*
X122090476Y-89501009D02*
X122042857Y-89548628D01*
X122042857Y-89548628D02*
X121995238Y-89643866D01*
X121995238Y-89643866D02*
X121995238Y-89834342D01*
X121995238Y-89834342D02*
X122042857Y-89929580D01*
X122042857Y-89929580D02*
X122090476Y-89977200D01*
X122090476Y-89977200D02*
X122185714Y-90024819D01*
X122185714Y-90024819D02*
X122376190Y-90024819D01*
X122376190Y-90024819D02*
X122471428Y-89977200D01*
X122471428Y-89977200D02*
X122519047Y-89929580D01*
X122519047Y-89929580D02*
X122566666Y-89834342D01*
X122566666Y-89834342D02*
X122566666Y-89643866D01*
X122566666Y-89643866D02*
X122519047Y-89548628D01*
X122519047Y-89548628D02*
X122471428Y-89501009D01*
X122471428Y-89501009D02*
X122376190Y-89453390D01*
D15*
X171910151Y-99292360D02*
X171865640Y-99336871D01*
X171865640Y-99336871D02*
X171732109Y-99381381D01*
X171732109Y-99381381D02*
X171643088Y-99381381D01*
X171643088Y-99381381D02*
X171509556Y-99336871D01*
X171509556Y-99336871D02*
X171420535Y-99247850D01*
X171420535Y-99247850D02*
X171376025Y-99158829D01*
X171376025Y-99158829D02*
X171331514Y-98980787D01*
X171331514Y-98980787D02*
X171331514Y-98847255D01*
X171331514Y-98847255D02*
X171376025Y-98669213D01*
X171376025Y-98669213D02*
X171420535Y-98580192D01*
X171420535Y-98580192D02*
X171509556Y-98491171D01*
X171509556Y-98491171D02*
X171643088Y-98446661D01*
X171643088Y-98446661D02*
X171732109Y-98446661D01*
X171732109Y-98446661D02*
X171865640Y-98491171D01*
X171865640Y-98491171D02*
X171910151Y-98535682D01*
X172221724Y-98446661D02*
X172844871Y-98446661D01*
X172844871Y-98446661D02*
X172444276Y-99381381D01*
D14*
X178990734Y-113140466D02*
X178609781Y-113407133D01*
X178990734Y-113597609D02*
X178190734Y-113597609D01*
X178190734Y-113597609D02*
X178190734Y-113292847D01*
X178190734Y-113292847D02*
X178228829Y-113216657D01*
X178228829Y-113216657D02*
X178266924Y-113178562D01*
X178266924Y-113178562D02*
X178343115Y-113140466D01*
X178343115Y-113140466D02*
X178457400Y-113140466D01*
X178457400Y-113140466D02*
X178533591Y-113178562D01*
X178533591Y-113178562D02*
X178571686Y-113216657D01*
X178571686Y-113216657D02*
X178609781Y-113292847D01*
X178609781Y-113292847D02*
X178609781Y-113597609D01*
X178190734Y-112873800D02*
X178190734Y-112378562D01*
X178190734Y-112378562D02*
X178495496Y-112645228D01*
X178495496Y-112645228D02*
X178495496Y-112530943D01*
X178495496Y-112530943D02*
X178533591Y-112454752D01*
X178533591Y-112454752D02*
X178571686Y-112416657D01*
X178571686Y-112416657D02*
X178647877Y-112378562D01*
X178647877Y-112378562D02*
X178838353Y-112378562D01*
X178838353Y-112378562D02*
X178914543Y-112416657D01*
X178914543Y-112416657D02*
X178952639Y-112454752D01*
X178952639Y-112454752D02*
X178990734Y-112530943D01*
X178990734Y-112530943D02*
X178990734Y-112759514D01*
X178990734Y-112759514D02*
X178952639Y-112835705D01*
X178952639Y-112835705D02*
X178914543Y-112873800D01*
D13*
X139639580Y-110592857D02*
X139687200Y-110640476D01*
X139687200Y-110640476D02*
X139734819Y-110783333D01*
X139734819Y-110783333D02*
X139734819Y-110878571D01*
X139734819Y-110878571D02*
X139687200Y-111021428D01*
X139687200Y-111021428D02*
X139591961Y-111116666D01*
X139591961Y-111116666D02*
X139496723Y-111164285D01*
X139496723Y-111164285D02*
X139306247Y-111211904D01*
X139306247Y-111211904D02*
X139163390Y-111211904D01*
X139163390Y-111211904D02*
X138972914Y-111164285D01*
X138972914Y-111164285D02*
X138877676Y-111116666D01*
X138877676Y-111116666D02*
X138782438Y-111021428D01*
X138782438Y-111021428D02*
X138734819Y-110878571D01*
X138734819Y-110878571D02*
X138734819Y-110783333D01*
X138734819Y-110783333D02*
X138782438Y-110640476D01*
X138782438Y-110640476D02*
X138830057Y-110592857D01*
X139734819Y-109640476D02*
X139734819Y-110211904D01*
X139734819Y-109926190D02*
X138734819Y-109926190D01*
X138734819Y-109926190D02*
X138877676Y-110021428D01*
X138877676Y-110021428D02*
X138972914Y-110116666D01*
X138972914Y-110116666D02*
X139020533Y-110211904D01*
X138734819Y-109021428D02*
X138734819Y-108926190D01*
X138734819Y-108926190D02*
X138782438Y-108830952D01*
X138782438Y-108830952D02*
X138830057Y-108783333D01*
X138830057Y-108783333D02*
X138925295Y-108735714D01*
X138925295Y-108735714D02*
X139115771Y-108688095D01*
X139115771Y-108688095D02*
X139353866Y-108688095D01*
X139353866Y-108688095D02*
X139544342Y-108735714D01*
X139544342Y-108735714D02*
X139639580Y-108783333D01*
X139639580Y-108783333D02*
X139687200Y-108830952D01*
X139687200Y-108830952D02*
X139734819Y-108926190D01*
X139734819Y-108926190D02*
X139734819Y-109021428D01*
X139734819Y-109021428D02*
X139687200Y-109116666D01*
X139687200Y-109116666D02*
X139639580Y-109164285D01*
X139639580Y-109164285D02*
X139544342Y-109211904D01*
X139544342Y-109211904D02*
X139353866Y-109259523D01*
X139353866Y-109259523D02*
X139115771Y-109259523D01*
X139115771Y-109259523D02*
X138925295Y-109211904D01*
X138925295Y-109211904D02*
X138830057Y-109164285D01*
X138830057Y-109164285D02*
X138782438Y-109116666D01*
X138782438Y-109116666D02*
X138734819Y-109021428D01*
D16*
%TO.C,J1*%
X119030000Y-96505000D02*
X119030000Y-95175000D01*
X120360000Y-96505000D02*
X119030000Y-96505000D01*
X121630000Y-93845000D02*
X124230000Y-93845000D01*
X121630000Y-96505000D02*
X121630000Y-93845000D01*
X121630000Y-96505000D02*
X124230000Y-96505000D01*
X124230000Y-96505000D02*
X124230000Y-93845000D01*
%TO.C,SW1*%
X131025000Y-84725000D02*
X131025000Y-82125000D01*
X131125000Y-80175000D02*
X137125000Y-80175000D01*
X131225000Y-86675000D02*
X137025000Y-86675000D01*
X137225000Y-84725000D02*
X137225000Y-82125000D01*
X139225000Y-85725000D02*
X139225000Y-86725000D01*
X139225000Y-86725000D02*
X138225000Y-86725000D01*
%TO.C,J2*%
X165730000Y-83905000D02*
X165730000Y-82575000D01*
X167060000Y-83905000D02*
X165730000Y-83905000D01*
X168330000Y-81245000D02*
X170930000Y-81245000D01*
X168330000Y-83905000D02*
X168330000Y-81245000D01*
X168330000Y-83905000D02*
X170930000Y-83905000D01*
X170930000Y-83905000D02*
X170930000Y-81245000D01*
%TO.C,PWR*%
X181490000Y-110490000D02*
X181490000Y-113350000D01*
X183410000Y-110490000D02*
X181490000Y-110490000D01*
X183410000Y-113350000D02*
X183410000Y-110490000D01*
%TO.C,D2*%
X150115000Y-111590000D02*
X150115000Y-114450000D01*
X152035000Y-111590000D02*
X150115000Y-111590000D01*
X152035000Y-114450000D02*
X152035000Y-111590000D01*
%TO.C,D3*%
X152165000Y-111590000D02*
X152165000Y-114450000D01*
X154085000Y-111590000D02*
X152165000Y-111590000D01*
X154085000Y-114450000D02*
X154085000Y-111590000D01*
%TO.C,D4*%
X154240000Y-111590000D02*
X154240000Y-114450000D01*
X156160000Y-111590000D02*
X154240000Y-111590000D01*
X156160000Y-114450000D02*
X156160000Y-111590000D01*
%TO.C,J7*%
X142140000Y-82867500D02*
X142140000Y-84847500D01*
X152500000Y-85727500D02*
X153500000Y-85727500D01*
X153000000Y-85227500D02*
X152500000Y-85727500D01*
X153500000Y-85727500D02*
X153000000Y-85227500D01*
X156860000Y-84847500D02*
X142140000Y-84847500D01*
X156860000Y-84847500D02*
X156860000Y-82867500D01*
%TO.C,J5*%
X119005000Y-100155000D02*
X119005000Y-98825000D01*
X120335000Y-100155000D02*
X119005000Y-100155000D01*
X121605000Y-97495000D02*
X124205000Y-97495000D01*
X121605000Y-100155000D02*
X121605000Y-97495000D01*
X121605000Y-100155000D02*
X124205000Y-100155000D01*
X124205000Y-100155000D02*
X124205000Y-97495000D01*
%TO.C,J8*%
X120570000Y-85970000D02*
X120570000Y-83370000D01*
X123230000Y-83370000D02*
X120570000Y-83370000D01*
X123230000Y-85970000D02*
X120570000Y-85970000D01*
X123230000Y-85970000D02*
X123230000Y-83370000D01*
X123230000Y-87240000D02*
X123230000Y-88570000D01*
X123230000Y-88570000D02*
X121900000Y-88570000D01*
%TO.C,D1*%
X148065000Y-111590000D02*
X148065000Y-114450000D01*
X149985000Y-111590000D02*
X148065000Y-111590000D01*
X149985000Y-114450000D02*
X149985000Y-111590000D01*
D17*
%TO.C,C7*%
X173800000Y-96900000D02*
X176900000Y-96900000D01*
X173800000Y-98150000D02*
X173800000Y-96900000D01*
X173800000Y-101100000D02*
X173800000Y-99850000D01*
X176900000Y-96900000D02*
X178000000Y-98000000D01*
X176900000Y-101100000D02*
X173800000Y-101100000D01*
X178000000Y-100000000D02*
X176900000Y-101100000D01*
X174150000Y-98150000D02*
G75*
G02*
X177650000Y-98150000I1750000J-849999D01*
G01*
X177650000Y-99850000D02*
G75*
G02*
X174150000Y-99850000I-1750000J849999D01*
G01*
D16*
%TO.C,U1*%
X139890000Y-94265000D02*
X140590000Y-94265000D01*
X139890000Y-94965000D02*
X139890000Y-94265000D01*
X139890000Y-107785000D02*
X139890000Y-108485000D01*
X139890000Y-108485000D02*
X140590000Y-108485000D01*
X154110000Y-94265000D02*
X153410000Y-94265000D01*
X154110000Y-94965000D02*
X154110000Y-94265000D01*
X154110000Y-107785000D02*
X154110000Y-108485000D01*
X154110000Y-108485000D02*
X153410000Y-108485000D01*
X140590000Y-109112500D02*
X140120000Y-109452500D01*
X140120000Y-108772500D01*
X140590000Y-109112500D01*
G36*
X140590000Y-109112500D02*
G01*
X140120000Y-109452500D01*
X140120000Y-108772500D01*
X140590000Y-109112500D01*
G37*
D11*
%TO.C,IC8*%
X171487700Y-104980734D02*
X178041700Y-104980734D01*
X171487700Y-108536734D02*
X171487700Y-104980734D01*
X178041700Y-104980734D02*
X178041700Y-108536734D01*
X178041700Y-108536734D02*
X171487700Y-108536734D01*
D16*
%TO.C,C10*%
X137340000Y-109803733D02*
X137340000Y-110096267D01*
X138360000Y-109803733D02*
X138360000Y-110096267D01*
%TD*%
M02*
