%TF.GenerationSoftware,KiCad,Pcbnew,8.0.6*%
%TF.CreationDate,2024-12-24T11:34:50+00:00*%
%TF.ProjectId,RISKYMSXCart,5249534b-594d-4535-9843-6172742e6b69,rev?*%
%TF.SameCoordinates,Original*%
%TF.FileFunction,Plated,1,4,PTH,Drill*%
%TF.FilePolarity,Positive*%
%FSLAX46Y46*%
G04 Gerber Fmt 4.6, Leading zero omitted, Abs format (unit mm)*
G04 Created by KiCad (PCBNEW 8.0.6) date 2024-12-24 11:34:50*
%MOMM*%
%LPD*%
G01*
G04 APERTURE LIST*
%TA.AperFunction,ViaDrill*%
%ADD10C,0.300000*%
%TD*%
%TA.AperFunction,ViaDrill*%
%ADD11C,0.350000*%
%TD*%
%TA.AperFunction,ComponentDrill*%
%ADD12C,0.920000*%
%TD*%
%TA.AperFunction,ComponentDrill*%
%ADD13C,1.000000*%
%TD*%
%TA.AperFunction,ComponentDrill*%
%ADD14C,2.300000*%
%TD*%
G04 APERTURE END LIST*
D10*
X116460000Y-95175000D03*
X116535000Y-98825000D03*
X118285000Y-95175000D03*
X118360000Y-98825000D03*
X130125000Y-85675000D03*
X133745200Y-103550000D03*
X134097600Y-104850000D03*
X134169493Y-100783183D03*
X134462561Y-94315672D03*
X134758200Y-99900000D03*
X135310600Y-98909394D03*
X135809302Y-95021866D03*
X136217800Y-96175793D03*
X136217800Y-96928196D03*
X136379093Y-100783183D03*
X136415400Y-98875000D03*
X136415400Y-99875000D03*
X136575000Y-102400000D03*
X136650000Y-104875000D03*
X136767800Y-101427400D03*
X136827399Y-94491389D03*
X137132470Y-103369541D03*
X137231289Y-93322601D03*
X137322600Y-96175793D03*
X137675000Y-116500000D03*
X137800000Y-97322600D03*
X137850000Y-109087500D03*
X137850000Y-110812500D03*
X137855220Y-103160397D03*
X137900000Y-106900000D03*
X138025000Y-102427400D03*
X138125000Y-85675000D03*
X138126412Y-95400000D03*
X138681290Y-94772602D03*
X139442553Y-118508837D03*
X139462500Y-94772600D03*
X139600000Y-116400000D03*
X140099730Y-118875207D03*
X140312702Y-116641176D03*
X140447600Y-111100000D03*
X140623368Y-98375000D03*
X140647600Y-99375001D03*
X140647600Y-100350000D03*
X140647600Y-101400000D03*
X140791021Y-119172233D03*
X140991662Y-116965402D03*
X141368788Y-92431212D03*
X141500000Y-106350000D03*
X141525000Y-95050000D03*
X141552400Y-111100000D03*
X141686839Y-117253218D03*
X141752400Y-97975000D03*
X142039790Y-121239790D03*
X142089790Y-96335210D03*
X142400552Y-92333476D03*
X143319907Y-92286606D03*
X143375000Y-95250000D03*
X143622278Y-91597634D03*
X144252400Y-106800000D03*
X144371003Y-91671933D03*
X144604800Y-117900000D03*
X144967972Y-92129904D03*
X144975000Y-96695200D03*
X145400000Y-103250000D03*
X145400000Y-106075000D03*
X145500000Y-110600000D03*
X145725000Y-92250000D03*
X145947600Y-95050000D03*
X146000000Y-107700000D03*
X146921379Y-89033201D03*
X146950000Y-103200000D03*
X146950000Y-106062500D03*
X147052400Y-95000000D03*
X147155967Y-91195200D03*
X147721521Y-92185495D03*
X147800000Y-99200000D03*
X147800000Y-107600000D03*
X149050000Y-114687500D03*
X149050000Y-116512500D03*
X149300000Y-99250000D03*
X149651004Y-110500000D03*
X150257914Y-104504510D03*
X151050000Y-114687500D03*
X151050000Y-116512500D03*
X151425000Y-103800000D03*
X151500000Y-107650000D03*
X151600000Y-101600000D03*
X151809394Y-121790606D03*
X152800000Y-97800000D03*
X152900000Y-107650000D03*
X152925000Y-103800000D03*
X152977900Y-123300000D03*
X153100000Y-114650000D03*
X153100000Y-116475000D03*
X153200000Y-98450000D03*
X153562984Y-95810364D03*
X153963950Y-122313950D03*
X155100000Y-114650000D03*
X155100000Y-116475000D03*
X155525000Y-92875000D03*
X155927399Y-95309854D03*
X156150000Y-99190401D03*
X156150000Y-100295201D03*
X156150000Y-101400000D03*
X156150000Y-106900000D03*
X156800000Y-96125000D03*
X157250000Y-92875000D03*
X157481040Y-95202400D03*
X158200001Y-120181211D03*
X159304800Y-119100000D03*
X159562000Y-96825000D03*
X160000000Y-84900000D03*
X160666800Y-96882488D03*
X161000000Y-84625000D03*
X161000000Y-124150000D03*
X166075000Y-88675000D03*
X167912500Y-86475000D03*
X171500000Y-109800000D03*
X172440000Y-103660000D03*
X174300000Y-99000000D03*
X176400000Y-123400000D03*
X177152186Y-123418049D03*
X177500000Y-99000000D03*
X182500000Y-110175000D03*
D11*
X119849900Y-123979934D03*
X122262900Y-123979934D03*
X126072900Y-124056134D03*
X128536700Y-124056134D03*
X176517300Y-113134134D03*
X176999900Y-103609134D03*
X177101500Y-108206534D03*
X180555900Y-110314734D03*
X181851300Y-106250734D03*
D12*
%TO.C,J7*%
X146000000Y-83727500D03*
X148500000Y-83727500D03*
X150500000Y-83727500D03*
X153000000Y-83727500D03*
D13*
%TO.C,J5*%
X120335000Y-98825000D03*
%TO.C,J1*%
X120360000Y-95175000D03*
%TO.C,J8*%
X121900000Y-84700000D03*
X121900000Y-87240000D03*
%TO.C,J5*%
X122875000Y-98825000D03*
%TO.C,J1*%
X122900000Y-95175000D03*
%TO.C,J2*%
X167060000Y-82575000D03*
X169600000Y-82575000D03*
D14*
%TO.C,J7*%
X142930000Y-81017500D03*
X156070000Y-81017500D03*
M02*
